<svg width="201" height="186" fill="none" xmlns="http://www.w3.org/2000/svg"><g clip-path="url(#a)" fill="#1F1F1E"><path d="M50.54 184.77a.52.52 0 0 1-.14-.44v-.03l.03-.3a5.6 5.6 0 0 0 0-.71l-.01-.81c.01-.54.03-1.07.03-1.61.01-.52.05-1.04.05-1.56 0-.53.01-1.07.03-1.6l.02-.84-.01-.8c.01-.55.03-1.1-.01-1.65a10.23 10.23 0 0 1-.01-1.55c0-.53-.04-1.07-.02-1.6l.03-.93.02-.92a.53.53 0 0 1 .52-.52c.27 0 .53.24.52.52l-.04 1.58-.02.77.02.86-.01.76c-.01.27 0 .53.02.8l.04.82c.01.26-.01.52-.01.78-.01.55.01 1.11-.01 1.66-.02.54-.04 1.08-.04 1.62 0 .52-.04 1.04-.05 1.55l-.03 1.6v.73l.02.74c0 .22-.02.44-.04.66-.02.16-.04.31-.17.43-.1.1-.23.15-.37.15a.54.54 0 0 1-.36-.16zm.12-134.81c-.02-.69-.02-1.38-.02-2.06a12.43 12.43 0 0 0-.07-1.28c-.03-.43-.02-.86-.02-1.3-.01-.45-.03-.9-.03-1.36l.05-1.29c0-.53-.03-1.05-.01-1.58.02-.49.05-.97.06-1.46v.05c0-.64.03-1.29.04-1.93 0-.33-.02-.65-.01-.98l.04-1.15.02-1.16c.01-.35.03-.69.03-1.04l-.03-1.47c.01-.44.04-.88.04-1.33v-.15c0-.28.29-.5.55-.48a.5.5 0 0 1 .36.18c.09.1.12.23.13.36v.07c0 .48-.04.97-.04 1.45l.02 1.07c.01.41-.01.82-.02 1.23-.02.43-.02.86-.03 1.3l-.04 1.23c0 .39.02.77.01 1.16l-.04 1.27v-.07c0 .39 0 .78-.02 1.17l-.05 1.09c0 .44.03.88.02 1.33-.01.44-.05.88-.05 1.32l.03 1.09.01 1.1.08 1.15c.02.39 0 .77 0 1.16l.02 1.25a.52.52 0 0 1-.48.55h-.03c-.26-.01-.51-.22-.52-.49zm50.32 101.92v-.08c0-.14-.01-.27-.03-.41l-.05-.79a34.1 34.1 0 0 1-.06-1.75v-.23.07l-.02-2.07v-1.01c-.01-.36-.03-.73-.02-1.09v-.65l-.02-.98-.01-1.01-.02-.96.02-.98-.01-.9v-.98l-.02-.82-.01-.94-.03-.91a5.78 5.78 0 0 1 0-.93c.03-.28.27-.5.55-.48.28.02.51.27.48.56l-.02.37.04.95.01.97c0 .33.02.65.03.98l-.01.99v-.05l.01 1.07-.02 1.03.02.86.01.86.02 1.77v-.01.24l.02 1.02.01 1.02c0 .7.03 1.41.02 2.11v-.07.23c0 .56.03 1.12.06 1.67l.06.81.02.48v-.07.05c.02.28-.2.53-.48.55h-.03a.52.52 0 0 1-.52-.49zm49.74 25.25c-.27-.02-.51-.27-.48-.55l-.02-.41-.04-.61c-.03-.42-.04-.84-.04-1.26 0-.42-.01-.84-.05-1.26-.02-.21-.05-.43-.05-.64a8.17 8.17 0 0 1 0-.7c0-.62-.03-1.23-.03-1.85l-.01-.78-.03-.86c-.01-.54.02-1.08.03-1.61v.07c0-.63.03-1.25.04-1.87-.01-1.07-.05-2.13-.05-3.2l.03-1.56c0-.52.01-1.05.03-1.57v-.08c.01-.28.28-.5.55-.48.29.02.49.27.48.55a49.9 49.9 0 0 0-.03 1.73l-.03 1.69v-.07c0 .76.01 1.51.03 2.27.01.4.02.8.01 1.2-.01.4-.03.79-.03 1.19v-.07l-.03 1.47c0 .67.05 1.34.05 2.01v-.07.29l.02.88.01 1v-.07l.02.65.06.64c.04.42.03.84.04 1.26 0 .4.03.81.05 1.21l.03.64c.01.11.02.24.01.35a.53.53 0 0 1-.52.48l-.05-.01zM99.59 15.61l-.07-.84c-.01-.24-.03-.49-.02-.73l.02-.78-.01-.75c0-.49.01-.98-.01-1.48l-.05-1.53c-.03-.49-.05-.98-.05-1.47l-.01-.7c-.01-.26-.03-.51-.03-.77l.01-.72.02-.76.05-.66.03-.52.04-.27c.05-.28.36-.45.63-.38.29.07.44.35.38.63l-.01.04c-.03.2-.03.41-.05.61l-.06.91v-.03c-.01.47-.03.95-.01 1.42l.03.75v.72c.01.49.03.98.06 1.46.03.52.04 1.04.04 1.55v.96l.01.98c0 .33-.03.67-.02 1 .01.33.03.67.06 1l.02.2c.03.28-.15.55-.43.59l-.08.01a.52.52 0 0 1-.49-.44zm51.07 30.58a36.14 36.14 0 0 1-.09-3.06l-.04-1.59c-.01-.55 0-1.1.01-1.65.01-.54 0-1.08.02-1.61.02-.51.01-1.02.02-1.53.02-1.04.05-2.09.04-3.13 0-.48-.03-.96-.05-1.44-.02-.49-.02-.97-.02-1.46 0-.46 0-.92-.02-1.38l-.07-1.32c-.03-.38-.09-.76-.09-1.14 0-.28.24-.52.52-.52s.52.24.52.52v.19l.07.69.04.77c.02.5.05 1 .06 1.51 0 .54-.01 1.09.01 1.64l.06 1.65c.02 1.04-.01 2.09-.04 3.13l-.02 1.55-.02 1.64-.01 1.64c0 .54.02 1.08.03 1.61.02 1 0 2.01.07 3.01l.01.07v.06a.6.6 0 0 1-.1.39.52.52 0 0 1-.34.2h-.06c-.24.01-.49-.18-.51-.44zM18.43 70.4c-.1-.3-.19-.61-.26-.92-.08-.3-.13-.61-.2-.92a13.7 13.7 0 0 0-.44-1.55c-.18-.53-.32-1.07-.44-1.62l.02.07-.39-1.65c-.14-.56-.23-1.13-.35-1.7-.12-.51-.25-1.02-.34-1.53-.1-.53-.18-1.07-.27-1.6l-.28-1.57-.25-1.53c-.1-.54-.2-1.09-.26-1.64a5.31 5.31 0 0 1-.03-.69c.01-.16.02-.31.09-.46.12-.26.46-.34.7-.21.25.13.33.43.22.68l.02-.04.02-.05-.01.07c-.01.18.01.36.02.54v.01c.05.52.15 1.03.24 1.55l.26 1.58.27 1.53c.09.53.17 1.07.27 1.6l.12.6c.09.4.19.79.27 1.19l.24 1.2.48 2.07v-.01l.22.86.28.88c.18.58.31 1.18.44 1.78v.01l.01.05-.01-.03c.09.4.19.79.32 1.17.09.27-.09.57-.36.64l-.14.02c-.2 0-.4-.16-.48-.38zm8.87 20.96c-.11-.2-.21-.4-.33-.59l-.38-.64c-.26-.46-.45-.94-.67-1.42l-.68-1.41c-.22-.47-.47-.93-.69-1.4-.28-.59-.52-1.19-.77-1.79l-.39-.91c-.15-.35-.28-.69-.41-1.05l-.15-.42c-.36-.99-.83-1.93-1.26-2.89l-.67-1.54-.31-.72-.27-.71-.07-.16a.51.51 0 0 1 .27-.68c.26-.12.56.01.68.27.1.2.17.42.25.63l.3.72.67 1.53c.21.49.44.97.66 1.45a26.45 26.45 0 0 1 .91 2.23l.06.17c.19.52.42 1.03.64 1.54l.61 1.45c.21.48.45.96.68 1.43l.69 1.41c.26.55.5 1.12.78 1.66.12.23.26.44.39.66l.36.63c.14.25.08.56-.17.71a.52.52 0 0 1-.27.07.48.48 0 0 1-.46-.23zm14.13 20.7c-.34-.41-.71-.79-1.08-1.17-.36-.39-.71-.79-1.05-1.19l-2.11-2.44-.76-.94.04.05-1.52-1.98c-.5-.65-.96-1.33-1.47-1.97l.04.05-.24-.3.04.05-.04-.05a2.2 2.2 0 0 1-.1-.13l-1.08-1.39c-.36-.46-.72-.91-1.04-1.4a.52.52 0 0 1 .13-.72c.23-.16.56-.1.72.13.31.46.65.89.99 1.32a118.53 118.53 0 0 0 1.04 1.34l.11.14.04.05.01.01.01.02v.01l.01.01.01.01.02.03-.02-.02.8 1.04.75 1.03a159.56 159.56 0 0 0 1.74 2.28l-.02-.02c.32.41.67.8 1.01 1.2l1.03 1.2 1.06 1.23c.35.4.7.78 1.07 1.16.21.22.41.45.61.69.18.22.17.54-.04.73a.5.5 0 0 1-.35.13.6.6 0 0 1-.36-.19zm12.68 8.06c-.49-.1-.98-.23-1.46-.35-.27-.07-.53-.13-.8-.22-.25-.09-.49-.2-.72-.33-.48-.26-.97-.49-1.46-.71-.47-.22-.94-.45-1.39-.7-.54-.3-1.09-.59-1.63-.9a5.28 5.28 0 0 1-1.17-.88c-.2-.2-.16-.55.04-.73a.53.53 0 0 1 .73.04l.04.04.28.24-.01-.01c.24.17.48.33.74.48.77.44 1.56.87 2.36 1.27l1.19.55c.4.2.8.43 1.21.61l.44.14.88.22c.31.08.63.16.95.22.28.05.46.33.41.61a.52.52 0 0 1-.51.42l-.12-.01zm3.56-.4a.53.53 0 0 1-.26-.69c.09-.2.3-.3.48-.4.26-.16.51-.34.77-.51a15.61 15.61 0 0 0 .77-.56l.6-.49.65-.49c.42-.31.87-.58 1.28-.9.3-.25.58-.52.87-.79l.92-.83c.54-.48 1.08-.98 1.58-1.5l.63-.68-.01.01.15-.17-.01.02c.17-.22.46-.3.7-.15.23.14.33.48.17.72l-.23.28c-.33.35-.65.71-.99 1.04-.35.34-.69.68-1.06 1l-1.19 1.07c-.4.37-.8.76-1.25 1.07-.54.37-1.08.74-1.6 1.15-.39.31-.76.64-1.18.92-.4.28-.81.55-1.23.8a.56.56 0 0 1-.35.13.5.5 0 0 1-.21-.05zm10.67-10.28c-.25-.16-.3-.47-.17-.72.25-.46.55-.89.85-1.33l.86-1.3c.28-.45.57-.89.86-1.32l.87-1.26c.37-.54.71-1.09 1.08-1.62.37-.55.74-1.11 1.05-1.69v.01l.02-.03.03-.05-.01.01.47-.9.47-.85c.3-.57.56-1.16.81-1.75.11-.26.44-.37.69-.26.26.12.37.43.26.69-.18.45-.38.89-.59 1.32-.24.51-.53.99-.8 1.48v-.01l-.41.78.03-.06-.07.13.01-.01c-.52.95-1.15 1.83-1.74 2.74-.55.85-1.15 1.67-1.71 2.52-.36.56-.71 1.12-1.08 1.67-.37.54-.75 1.07-1.07 1.64a.5.5 0 0 1-.44.24.38.38 0 0 1-.27-.07zm9.71-16.26c-.27 0-.52-.22-.52-.5 0-.15.06-.26.12-.39l.26-.59.32-.67-.03.06c.11-.24.21-.49.3-.73s.16-.49.24-.73c.16-.52.38-1.01.57-1.51.2-.52.34-1.05.54-1.57.19-.51.42-1.01.61-1.51.13-.34.24-.68.35-1.02.15-.5.29-1.01.46-1.51.17-.5.37-1 .54-1.51a59.84 59.84 0 0 0 .94-2.94l-.01.03.01-.03c.2-.7.34-1.41.49-2.12.15-.7.32-1.39.44-2.1a23 23 0 0 0 .15-1.16.54.54 0 0 1 .57-.47c.28.03.49.29.47.57a15.8 15.8 0 0 1-.24 1.66l-.33 1.53c-.11.52-.21 1.04-.34 1.55-.12.53-.29 1.05-.45 1.58-.24.75-.46 1.5-.72 2.24-.25.76-.55 1.5-.78 2.26l.01-.05c-.16.53-.3 1.07-.49 1.6-.18.51-.4 1-.6 1.5-.21.52-.36 1.05-.55 1.58-.18.52-.41 1.02-.59 1.54-.16.45-.28.9-.46 1.34-.18.45-.4.88-.6 1.32l.02-.04-.23.52.03-.06v-.02a.53.53 0 0 1-.47.36l-.03-.01zm6.7-24.67a.53.53 0 0 1-.52-.5l-.03-.44c-.05-.49-.14-.97-.24-1.45-.1-.52-.15-1.06-.23-1.59a46.33 46.33 0 0 0-.62-3.07l-.01-.03-.03-.12.02.07c-.05-.23-.13-.45-.21-.67l.03.07a17.8 17.8 0 0 0-1.03-2.32c-.13-.23-.3-.45-.45-.67l-.47-.66-.15-.18-.16-.14a5.7 5.7 0 0 0-.4-.28c-.18-.1-.36-.2-.55-.28l-.13-.05a.53.53 0 0 1-.31-.67c.1-.27.4-.4.67-.31a4.97 4.97 0 0 1 1.72 1.12c.16.19.3.4.44.61.27.39.56.76.78 1.18a21.65 21.65 0 0 1 .92 2.09c.09.25.19.49.25.75l.05.21.05.23.08.38.17.76c.11.52.22 1.03.31 1.55.11.66.16 1.32.3 1.98.06.31.12.61.16.93.05.32.07.65.09.97a.53.53 0 0 1-.5.54v-.01zm-18.48 4c-.01-.23.02-.46.04-.68l.05-.75c.03-.51.09-1.02.16-1.52l-.01.07c.07-.53.15-1.07.27-1.6.12-.53.29-1.04.45-1.55.17-.54.4-1.06.63-1.58.22-.49.45-.97.69-1.45a16.66 16.66 0 0 1 1.71-2.79 17.15 17.15 0 0 1 2.05-2.45l1-.98c.33-.31.68-.59 1.03-.88l1.01-.81c.19-.14.38-.28.59-.4l.26-.13.05-.03a.53.53 0 0 1 .72.14c.16.24.09.56-.14.72l-.1.06-.32.16a50.18 50.18 0 0 0-1.9 1.49c-.49.41-.95.86-1.4 1.32-.53.55-1.06 1.1-1.52 1.71a18.32 18.32 0 0 0-3.73 7.4c-.13.51-.22 1.04-.29 1.56v-.01l-.03.2v-.02c-.06.47-.12.93-.15 1.4l-.05.69-.05.62v.03a.53.53 0 0 1-.49.55h-.03a.52.52 0 0 1-.5-.49zm9.32 19.41-.21-.24-.02-.02-.07-.08.04.05c-.41-.46-.74-.98-1.11-1.46a43.5 43.5 0 0 1-1.15-1.62c-.4-.59-.75-1.22-1.16-1.81-.22-.31-.43-.63-.63-.96l-.57-.95-.61-1.01c-.2-.34-.37-.69-.55-1.04-.24-.46-.51-.91-.74-1.38-.24-.48-.47-.97-.69-1.46-.22-.47-.45-.94-.66-1.42a14.65 14.65 0 0 1-.75-2.23l-.03-.15c-.06-.28.07-.56.36-.64.26-.08.58.08.64.36l.07.34c.08.35.2.68.32 1.02.11.31.23.63.36.93l.48 1.02c.31.67.61 1.35.95 2l.42.76c.16.29.3.58.45.88.29.55.63 1.07.95 1.6.3.5.59 1 .92 1.48.23.34.46.67.67 1.02.22.36.44.71.67 1.05l.36.52c.3.43.62.85.93 1.27.29.39.55.8.87 1.16l-.01-.01.07.08-.01-.01.24.28c.19.21.13.56-.09.73a.45.45 0 0 1-.31.11c-.14.03-.29-.04-.4-.17zm12.64 12.33c-.47-.12-.92-.34-1.36-.53-.24-.1-.48-.2-.71-.32a5.92 5.92 0 0 1-.68-.42c-.42-.3-.84-.58-1.25-.9-.44-.34-.84-.71-1.26-1.07l-1.15-1.03c-.39-.36-.78-.71-1.15-1.09-.68-.7-1.39-1.37-2.01-2.13l-.07-.09a.52.52 0 0 1 .09-.73.52.52 0 0 1 .73.09c.16.19.31.38.48.56.34.37.7.73 1.06 1.08l.53.55.59.56c.38.35.76.72 1.15 1.06l1.17 1.02.02.01.03.02-.02-.02a18.03 18.03 0 0 0 2.32 1.64c.27.13.54.23.81.35.26.11.52.23.79.32l.19.05c.27.07.44.37.37.64a.53.53 0 0 1-.51.38.28.28 0 0 1-.16 0zm2.28-.04c-.27-.09-.44-.35-.36-.64a.56.56 0 0 1 .48-.39 11.34 11.34 0 0 0 1.25-.83c.33-.28.64-.59.95-.89.32-.32.64-.65.94-.98.29-.32.54-.66.8-1.01.27-.37.57-.71.84-1.08.11-.17.21-.35.3-.52.11-.21.23-.41.36-.61l.37-.57.34-.57c.23-.4.45-.82.7-1.21.23-.37.49-.72.7-1.1a.52.52 0 0 1 .71-.19c.25.15.32.46.18.71-.24.44-.54.83-.79 1.26l-.4.71-.38.65c-.26.45-.58.88-.83 1.34-.12.23-.24.45-.38.67-.15.23-.33.44-.5.65-.33.4-.62.84-.95 1.24-.34.41-.72.8-1.1 1.18-.35.35-.7.71-1.08 1.04-.43.37-.89.69-1.38.96-.17.1-.39.21-.6.21a.5.5 0 0 1-.17-.03zm9.77-12.53a.53.53 0 0 1-.19-.71 31 31 0 0 1 .87-1.06c.34-.4.7-.79 1.1-1.13.4-.34.82-.66 1.24-.98a11.78 11.78 0 0 1 3.84-1.91c.29-.08.59-.13.89-.19l.79-.16c.28-.05.55-.06.83-.07.23-.01.47-.04.7-.08.28-.04.54.18.58.45a.53.53 0 0 1-.45.58l-.48.06c-.21.02-.41.03-.62.03l-.33.04-.97.19h.02l-.63.13c-.22.05-.43.12-.65.19-.26.09-.52.18-.77.3-.47.23-.93.46-1.38.73-.66.43-1.29.93-1.9 1.43l.02-.01-.02.02-.02.02.02-.01c-.28.24-.53.5-.78.77l.05-.05-.57.66c-.15.17-.31.34-.45.53l-.02.03a.53.53 0 0 1-.45.25.41.41 0 0 1-.27-.05zm18.45.76c-.13-.3-.26-.6-.41-.9l.01.01c-.15-.27-.29-.54-.47-.8-.14-.19-.3-.38-.46-.56-.41-.43-.83-.86-1.29-1.25-.22-.18-.46-.34-.68-.51l-.76-.53a15.9 15.9 0 0 0-1.55-.81h-.02.01-.01a.51.51 0 0 1-.47-.37c-.08-.26.08-.58.35-.64a.9.9 0 0 1 .49.04c.21.07.41.18.61.28a12 12 0 0 1 2.04 1.25 10.42 10.42 0 0 1 1.66 1.45c.24.25.48.49.7.76.19.23.36.49.51.75.26.45.49.92.69 1.4.11.26 0 .57-.26.68a.52.52 0 0 1-.21.04.5.5 0 0 1-.48-.29zm9.56 26.16c-.4-.14-.79-.28-1.15-.52-.11-.07-.21-.16-.31-.25a2.91 2.91 0 0 1-.31-.3l-.56-.6.05.05-.17-.17.03.04c-.19-.19-.38-.38-.55-.59-.17-.21-.34-.43-.49-.65-.3-.42-.55-.89-.81-1.33-.27-.45-.55-.9-.77-1.38-.21-.49-.41-.99-.59-1.49-.19-.54-.31-1.11-.46-1.66l.02.06c-.14-.52-.26-1.03-.36-1.56l-.27-1.61c-.08-.53-.18-1.05-.24-1.58-.06-.55-.1-1.11-.15-1.66l-.11-.9.01.07-.2-1.55-.16-1.41c-.13-.93-.29-1.86-.53-2.77-.11-.4-.24-.8-.33-1.21a.52.52 0 0 1 1.02-.2l.05.24c.13.46.27.92.38 1.39.12.52.22 1.05.3 1.58.17.99.25 1.99.37 2.98v-.01c.08.62.18 1.25.23 1.88.05.63.1 1.25.18 1.88l.16 1 .15.99c.11.67.23 1.34.41 2l.31 1.18c.15.53.34 1.04.55 1.55l.01.02.02.04-.01-.02c.13.31.27.62.44.92l.66 1.1c.23.4.47.78.74 1.16l-.01-.02.01.02c.19.26.4.5.62.73l-.05-.05.29.29-.05-.05c.21.21.4.43.6.65l.39.35.15.09.28.14.5.18c.27.09.42.39.33.66a.54.54 0 0 1-.5.36c-.02-.04-.07-.05-.12-.06zm3.18.42a.53.53 0 0 1-.51-.53c.01-.27.25-.53.53-.51h.14l.23-.02.19-.05a9.1 9.1 0 0 0 1.99-.9l1.45-.92c.43-.28.85-.57 1.26-.89l-.01.01c.19-.16.38-.33.56-.52l.57-.64c.3-.32.6-.63.92-.93a25 25 0 0 0 .9-.88c.26-.29.51-.58.76-.89l.75-.96.78-.95c.25-.3.48-.6.71-.92.6-.87 1.08-1.81 1.65-2.69l.88-1.36c.29-.46.6-.9.94-1.32.33-.42.67-.83 1.02-1.23l1.04-1.17c.37-.42.73-.84 1.11-1.23.37-.38.75-.75 1.16-1.09l.4-.34.05-.05-.02.01.02-.01.01-.01.03-.02.02-.02.01-.01.01-.01c.6-.5 1.17-1.06 1.84-1.46.68-.41 1.41-.74 2.11-1.13a.51.51 0 0 1 .7.21c.14.25.04.56-.21.7-.68.39-1.4.71-2.08 1.12-.23.15-.45.32-.67.49l-1.04.88.01-.01-.03.03-.01.01-.02.02-.01.01-.01.01-.14.12c-.59.49-1.15 1.03-1.68 1.59l-1.69 1.91a20.18 20.18 0 0 0-1.62 2.02l.04-.06c-.31.44-.59.9-.88 1.35-.29.44-.58.89-.85 1.34-.27.46-.53.92-.81 1.37-.3.47-.61.93-.96 1.36-.32.41-.67.8-1 1.21l-1.03 1.31c-.35.41-.72.81-1.11 1.18-.39.37-.79.73-1.15 1.13a.43.43 0 0 0-.06.07l-.01.02c-.23.26-.46.53-.7.78a6.6 6.6 0 0 1-.75.65c-.55.42-1.14.79-1.73 1.16a.2.2 0 0 0 .06-.04l-1.1.7c-.33.2-.68.37-1.05.52-.37.15-.74.3-1.12.41-.19.06-.41.09-.62.09l-.17-.02zm27.19-24.34a.54.54 0 0 1 .29-.68l.23-.09c.18-.07.37-.11.56-.16.39-.09.8-.15 1.2-.19.82-.09 1.64-.13 2.46-.18.28-.02.54.17.57.46.03.27-.17.56-.46.57-1.13.06-2.26.12-3.37.32a8.2 8.2 0 0 0-1 .28.53.53 0 0 1-.48-.33zm24.07 11.58c-.23-.1-.43-.25-.63-.4l-.64-.48-1.27-.99c-.9-.72-1.77-1.48-2.6-2.27-.8-.76-1.59-1.55-2.38-2.32-.83-.81-1.67-1.61-2.47-2.44-.77-.8-1.51-1.63-2.25-2.45a176.7 176.7 0 0 0-2.83-3.1l.03.03a37.19 37.19 0 0 1-2.15-2.65c-.33-.44-.66-.89-1-1.32-.34-.44-.7-.86-1.05-1.29a48.65 48.65 0 0 1-2.05-2.68l-1.96-2.77c-.18-.26-.37-.51-.54-.78l.01.02c-.44-.64-.87-1.29-1.29-1.94-.41-.64-.81-1.28-1.23-1.91-.28-.4-.59-.78-.91-1.15-.18-.21-.12-.56.09-.73.23-.18.54-.12.73.09.32.37.63.75.92 1.15.26.36.5.75.74 1.12.48.75.96 1.51 1.46 2.25l-.01-.01.37.54-.02-.03 1.88 2.66c.67.95 1.35 1.89 2.06 2.8.34.44.7.86 1.06 1.29.36.44.71.88 1.05 1.33l1.01 1.35c.34.46.7.89 1.07 1.33l.13.15a.18.18 0 0 1-.04-.05l.45.51c.75.82 1.52 1.63 2.26 2.46.73.81 1.45 1.65 2.2 2.44.4.43.82.85 1.23 1.27l1.15 1.12 2.41 2.36c.58.56 1.17 1.12 1.78 1.66a58.74 58.74 0 0 0 3.49 2.76l.15.09.02.01c.26.12.39.42.28.68a.54.54 0 0 1-.48.32.4.4 0 0 1-.23-.03z"/><path d="M167.1 108.83a.53.53 0 0 1-.5-.54c.02-.52.01-1.04.01-1.56l.04-1.68.13-3.45c.04-1.08.06-2.16.13-3.24.08-1.16.19-2.32.34-3.47a387 387 0 0 0 .41-3.37c.06-.55.11-1.11.18-1.66l.21-1.68c.13-1.07.29-2.14.42-3.22l.22-1.66c.09-.56.19-1.12.32-1.67l.24-.98-.01.06c.13-.55.24-1.11.34-1.67l.27-1.64c.09-.55.2-1.1.33-1.65.13-.55.28-1.09.42-1.64l.02-.07.13-.59a.53.53 0 0 1 .6-.43c.27.04.49.32.43.6-.08.38-.16.76-.26 1.13l-.31 1.21c-.22.96-.37 1.93-.53 2.9-.08.49-.17.98-.27 1.46-.1.49-.23.98-.35 1.47v-.02c-.11.51-.22 1.02-.3 1.54l-.22 1.66-.43 3.33c-.14 1.08-.25 2.16-.37 3.24-.12 1.12-.26 2.24-.4 3.36l-.17 1.45v.05a51.11 51.11 0 0 0-.23 3.28l-.12 3.44c-.03.85-.08 1.69-.1 2.54l-.02 1.42c0 .41.01.83-.01 1.24a.53.53 0 0 1-.52.5l-.07.01zm21.59-67.26a.53.53 0 0 1-.52-.49c-.02-.38-.05-.75-.06-1.13a17 17 0 0 1 0-1.01v-.16c.01-.35.01-.71.06-1.06.04-.28.26-.5.56-.48.27.02.52.28.48.56-.05.33-.05.66-.06.99v.1-.01.12-.01c-.01.68.03 1.35.07 2.02a.52.52 0 0 1-.49.54l-.04.02zm1.92 2.69-.11-1.12-.03-.29a28.9 28.9 0 0 0-.22-1.59l-.12-.75c-.04-.23-.07-.45-.12-.67l-.03-.11a.53.53 0 0 1 .34-.65c.26-.08.58.07.65.34.08.29.12.57.17.87l.14.88c.1.63.18 1.26.25 1.89l-.01-.07.12 1.23a.52.52 0 0 1-.49.54h-.03a.52.52 0 0 1-.51-.5zM19.45 136.01c-.27-.02-.51-.28-.48-.56.11-.94.24-1.89.27-2.84a5.36 5.36 0 0 0-.07-.65v.01a2.02 2.02 0 0 0-.05-.17l-.01-.03a.58.58 0 0 1-.02-.39.57.57 0 0 1 .27-.3c.24-.11.59-.01.69.25l.12.36v.04l.01.02v-.01c.13.58.1 1.18.04 1.77-.06.68-.14 1.36-.22 2.04a.53.53 0 0 1-.52.48c-.01-.02-.02-.02-.03-.02zm2.52 2.51a.52.52 0 0 1-.48-.56c.08-.73.16-1.47.3-2.19a8.76 8.76 0 0 1 .41-1.45c.06-.14.12-.27.22-.39.18-.22.53-.22.73-.04.2.18.21.47.07.69l-.01.01.01-.01-.01.01-.05.1-.22.64-.15.7-.12.7-.16 1.31a.53.53 0 0 1-.52.48h-.02z"/><path d="m10.42 19.4-.66.88-1.24 1.82-.63.91-.62.86c-.42.6-.8 1.22-1.19 1.85-.19.3-.38.61-.58.9l-.68.93c-.27.39-.52.79-.76 1.19a30.34 30.34 0 0 1-1.15 1.85l-.14.25a13.5 13.5 0 0 1 2.71.48c.49.14.98.26 1.47.37l1.38.33 1.42.39c.46.12.93.21 1.4.31.47.1.92.26 1.38.4.46.14.93.26 1.39.41.43.14.86.31 1.29.47.39.15.77.32 1.16.46l.15.05a3.12 3.12 0 0 0 .67.17h.02l.02-.02a.4.4 0 0 0 .05-.09l.02-.05c.03-.11.04-.24.08-.35l.02-.1.01-.03v-.01l.12-.66c.01-.24 0-.47-.01-.71v.06c-.03-.52-.08-1.05-.1-1.57-.02-.48-.02-.96 0-1.44a34.59 34.59 0 0 0 .01-2.89l-.03-1.08v.06l-.1-1.5-.09-1.48c-.03-.5-.04-.98-.04-1.48l-.01-1.47c-.02-.99-.03-1.98-.07-2.98-.02-.49-.01-.97.01-1.46.02-.47 0-.95.01-1.42 0-.47.02-.94.03-1.4l.02-1.01.01-.21-.03.02.03-.02-.57.47-.01.01-.04.03.02-.01c-.13.11-.25.22-.37.35l.01-.01-.14.15.04-.05-.65.69-.89.99-.49.55-.44.54-.93 1.18c-.31.38-.6.77-.9 1.17l-.73 1.01v-.01l-.01.02-.02.02.01-.01c-.2.31-.42.62-.64.92zm167.85 113.08-.11-.43.11.43zm7.48 26.5.26-.57c.2-.44.35-.9.53-1.35.37-.94.8-1.86 1.18-2.8.18-.46.35-.93.54-1.39.19-.46.41-.91.62-1.36.42-.92.77-1.88 1.18-2.8.21-.48.41-.95.6-1.43l.55-1.39.62-1.46.55-1.38c.2-.53.4-1.06.62-1.58l.35-.8.28-.75c.26-.77.48-1.55.77-2.3.29-.74.61-1.47.89-2.21.17-.48.3-.97.48-1.45l.56-1.43c.18-.45.38-.9.55-1.36.17-.45.33-.89.52-1.33l.55-1.22a23.22 23.22 0 0 1 .95-1.78l.08-.13-.72-.02c-.31-.01-.62-.05-.93-.05-.43 0-.87.05-1.3.07-.46.03-.93.02-1.39.04l-1.5.09c-.49.04-.97.06-1.46.07l-.74.01-.72.05-1.47.12-1.44.09-1.38.13-1.44.09c-.43.02-.87.07-1.3.12-.89.09-1.78.13-2.66.25l.06-.01-.15.02a26.8 26.8 0 0 0-1.73.31l-.39.13-.12.06-.03.02-.05.04-.06.09v.02c.03.17.06.33.11.49.12.39.26.77.39 1.16.14.44.26.89.39 1.34l.04.13-.02-.06c.11.39.22.79.31 1.19.09.41.17.83.28 1.24.09.29.19.58.27.88l.26.96.14.51v.02l.02.06-.02-.06.03.11.01.05-.01-.04.43 1.47c.15.49.3.98.42 1.48.12.48.21.96.32 1.44l.37 1.5a80.35 80.35 0 0 1 .71 2.91c.23 1 .43 2.01.72 3l.07.24-.02-.06c.29.98.58 1.97.81 2.97.12.48.21.97.3 1.46.09.51.2 1.02.32 1.53l.45 1.68c.14.55.26 1.1.35 1.65v.05-.01l.01.04v-.01l.01.04v.02c.12.38.18.77.22 1.15zM48.59 183.99a36.18 36.18 0 0 0 1.56 1.04.3.3 0 0 1 .13.03l.41.14.13.04.09.01h.06l.08-.01.06-.02.18-.08.56-.28c.33-.15.66-.29.98-.45l-.01.01.02-.01.03-.02h-.01c.45-.23.89-.48 1.31-.74l.63-.41c.21-.14.43-.26.64-.39.44-.27.88-.55 1.33-.81l.65-.38.7-.44c.32-.21.66-.4 1-.59.31-.17.61-.36.91-.55l1.45-.98-.02.01c.41-.28.8-.59 1.2-.88l1.33-.94c.92-.64 1.86-1.24 2.8-1.85l.45-.29.09-.06.16-.11.09-.06.01-.01.08-.05-.01.01c.49-.33.97-.68 1.46-1.02.51-.35 1.04-.67 1.56-1.01l1.27-.89-.04.02.1-.07.01-.01c.57-.38 1.16-.73 1.73-1.1l1.43-1.01c.52-.35 1.06-.67 1.58-1.01.42-.28.83-.58 1.27-.84.45-.28.91-.55 1.35-.84l.02-.01.18-.12.06-.04c.49-.34.96-.69 1.46-1l1.41-.88c.49-.34.97-.69 1.47-1.01l1.52-.95c.48-.33.96-.68 1.45-.99l1.41-.88a44.9 44.9 0 0 1 2.81-1.85c.5-.35.97-.73 1.48-1.06.5-.33 1.03-.64 1.53-.97.5-.35.99-.72 1.51-1.07h.01l.09-.06a.2.2 0 0 1 .06-.04l-.01.01.03-.02c.45-.3.91-.57 1.36-.87.28-.19.55-.39.84-.57h-.01l.06-.04.02-.02.01-.01.02-.01h-.01l.04-.02.03-.02.01-.01h-.01c.52-.35 1.06-.65 1.61-.95l.64-.38a.6.6 0 0 1 .32-.26c.16-.06.33-.1.5-.13l-.06.01c.27-.06.54-.08.81-.03.31.05.61.15.91.25.33.11.63.25.93.41.39.22.79.44 1.19.63l1.51.68-.01-.01a.3.3 0 0 1 .08.04l.23.11.36.17.73.35-.02-.01.17.08h-.01c.46.21.92.42 1.38.66l1.38.73c.46.25.91.51 1.38.74l1.44.72c.45.24.91.46 1.37.69.48.24.95.5 1.41.76.46.26.95.48 1.42.73l1.38.75 1.41.75c.46.26.92.54 1.39.79l1.41.76 1.4.74c.45.25.91.5 1.37.73.45.22.88.47 1.32.71.45.24.91.46 1.37.69.47.23.92.5 1.39.73.47.22.94.42 1.4.66.45.23.9.47 1.35.68.49.22.97.45 1.44.7.45.24.9.46 1.36.68.48.23.95.49 1.4.76.22.13.43.26.66.37l.74.36c.48.23.95.48 1.43.72.47.24.95.46 1.42.71.46.24.93.47 1.39.72.46.24.9.51 1.36.74l.26.13.17.08.62.29.58.32c.42.24.83.47 1.27.68l1.28.61c.38.19.75.4 1.13.58.19.06.39.12.58.2l.15.05.06.01a1.93 1.93 0 0 0 .49-.01 4.88 4.88 0 0 0 1.08-.32l.05-.02-.02.01c.39-.17.77-.36 1.17-.53l-.06.03c.48-.21.94-.43 1.4-.67.46-.24.93-.46 1.4-.68.47-.23.93-.48 1.39-.74.46-.27.94-.52 1.42-.75.49-.24.99-.47 1.47-.74.47-.26.94-.51 1.42-.73.25-.12.51-.23.76-.36.26-.13.5-.27.75-.41.48-.27.97-.51 1.45-.76.49-.25.99-.51 1.47-.78.47-.26.95-.51 1.44-.74.5-.24 1-.47 1.49-.73.47-.25.95-.48 1.43-.69.51-.23 1.02-.47 1.51-.73.48-.25.97-.49 1.46-.71.49-.22.99-.44 1.47-.68l1.49-.7.28-.12c.5-.22.98-.48 1.47-.72l1.34-.64c-.1-.36-.19-.73-.3-1.08-.21-.69-.38-1.38-.56-2.08l-.34-1.37c-.12-.45-.24-.91-.34-1.36l-.29-1.35-.31-1.34-.29-1.37-.3-1.37a52.5 52.5 0 0 1-.32-1.34l-.31-1.39c-.08-.33-.16-.66-.22-1l-.04-.23a34.8 34.8 0 0 0-.25-1.49c-.11-.56-.24-1.12-.33-1.69l-.27-1.62.01.06c-.1-.52-.23-1.03-.33-1.54l-.32-1.52-.01-.05v.01l-.09-.46c-.12-.63-.3-1.25-.43-1.87l-.21-.97-.19-.96c-.08-.42-.19-.83-.28-1.24l-.26-1.08a2.65 2.65 0 0 1-.06-.94c.02-.18.1-.34.23-.47.17-.18.41-.34.66-.36h-.02.05l.02-.01c.18-.06.38-.09.57-.13l.76-.14c.66-.11 1.33-.19 1.99-.31.29-.05.58-.1.87-.17l-.07-.23-.39-1.2a5.55 5.55 0 0 1-.3-1.2c-.01-.1.01-.2.06-.28a.5.5 0 0 1 .15-.36.83.83 0 0 1 .08-.12c.07-.08.16-.15.25-.21.2-.14.45-.22.69-.3.33-.1.68-.17 1.02-.22l1.07-.16c.92-.12 1.86-.17 2.79-.26.47-.05.95-.09 1.42-.12.49-.02.98-.05 1.47-.1l1.41-.13 1.46-.09c.49-.03.97-.09 1.46-.13.47-.04.95-.03 1.42-.04.5-.01.99-.05 1.49-.09.49-.04.98-.06 1.47-.07.47-.01.95-.01 1.42-.05.43-.03.86-.07 1.29-.06.19 0 .37.03.56.04l.59.02.73.02.17-.01-.06-.79c-.04-.76-.02-1.52-.04-2.27-.02-.77-.01-1.55-.02-2.32 0-.37-.01-.74.01-1.12.01-.39.04-.77.04-1.16v-1.2c0-.4.02-.8.04-1.2.03-.78.03-1.57.08-2.35l.02-.44.02-1.08c0-.37 0-.74.02-1.11v-.07l.01-.14.05-.79c.02-.39.02-.79.03-1.18l.04-1.16.02-1.2-.02-1.13-.01-1.17c-.01-.39-.02-.77 0-1.16l.04-1.13c.01-.37 0-.75 0-1.12-.01-.74.02-1.47.01-2.21l.01-1.21c.01-.4.03-.79.03-1.19l-.02-1.07-.02-1.12c-.01-.75-.1-1.5-.09-2.25l.01-1.19-.03-1.21v-1.2c0-.38-.02-.76-.04-1.14-.04-.76.01-1.51-.01-2.27l-.04-1.04-.05-1.11c-.03-.47-.06-.93-.07-1.4v-.61a.4.4 0 0 1-.03-.15c0-.79.06-1.57.04-2.36v-1.47c.01-.5-.02-.99 0-1.49v.07c.02-.54.02-1.08.02-1.62l.01-.8-.01-.75-.02-1.55-.01-1.58-.03-1.62v-.79c0-.28-.02-.55-.03-.83-.02-.52 0-1.04-.01-1.55-.01-.55.02-1.1.02-1.66v-.76l.03-.73c.01-.26 0-.53-.01-.79v-.76l.01-.79-.01-.83.02-1.58c0-.5.03-1 .02-1.5 0-.26 0-.52.02-.78a1.94 1.94 0 0 0 .02-.38c.05-.34.08-.68.1-1.03.01-.51 0-1.03-.01-1.55v-1.65l.03-1.59.01-1.61.01-.42v-.07l.02-.39c.02-.53.02-1.07.02-1.6l.03-1.63c.01-.54-.01-1.08-.02-1.61-.01-.55.01-1.1.03-1.65.04-1.09-.01-2.18.02-3.27.03-1.06.01-2.12.04-3.19.02-.53.02-1.05 0-1.57-.02-.56-.02-1.11 0-1.67.01-.51.03-1.02.01-1.53a22.7 22.7 0 0 1-.01-1.65c.01-.54.03-1.08.01-1.62l-.03-1.61c0-.56.01-1.13-.01-1.69l-.05-1.65c-.01-.53.01-1.06.03-1.59.01-.53.01-1.06-.01-1.59l-.03-1.58c-.01-.55-.05-1.09-.08-1.64-.03-.55-.02-1.09-.01-1.63v-.76l-.04-.8-.09-1.62c-.03-.54-.04-1.08-.09-1.62l-.02-.19-.07-.58c-.02-.14-.03-.29-.06-.43l-.03-.08-.01-.06-.02-.05-.01-.07-.09-.27-.04-.09a4.14 4.14 0 0 0-.48-.13h-.13a6.05 6.05 0 0 0-.92.19c-.66.26-1.29.6-1.93.9-.41.19-.82.39-1.22.6l-1.25.63h-.01l-.02.01-.03.02-.28.15-.19.1-.24.13-.72.38c-.49.25-1 .47-1.5.69l-1.46.68c-.47.23-.94.48-1.43.69l-1.52.65c-.99.43-1.95.92-2.93 1.36-.52.23-1.04.46-1.55.71l-1.48.76c-.98.5-2 .91-2.98 1.4l-1.41.71-1.51.73-1.44.69-1.45.71c-.47.23-.95.43-1.43.64-.51.22-1 .46-1.5.71l-1.42.68c-.51.23-1.02.45-1.52.69-.48.23-.95.49-1.43.72-.48.24-.98.47-1.47.69l-1.46.64-1.51.74c-.48.22-.97.42-1.45.63-.48.2-.95.42-1.42.67l-.64.35.06-.03a7.44 7.44 0 0 1-1.71.72l-.22.07a.3.3 0 0 1-.08.04l-.64.25.06-.02-.27.11.03-.01-.63.21c-.28.07-.55.16-.83.2l-.37.05-.3.04-.23.01-.54-.03c-.58-.04-1.12-.28-1.67-.45-.35-.1-.71-.18-1.07-.29-.42-.14-.83-.33-1.24-.52-.42-.19-.83-.4-1.24-.6-.38-.19-.77-.36-1.16-.54h-.02l-.03-.01h-.01l-.09-.04.06.03c-.51-.22-1-.48-1.49-.73-.47-.24-.95-.46-1.43-.69l-1.44-.72c-.51-.25-1.02-.49-1.52-.75l-1.44-.72-1.48-.77-1.53-.77c-.49-.26-1-.49-1.5-.74l-1.44-.72c-.5-.24-1-.47-1.49-.74a60.01 60.01 0 0 0-3.11-1.55l-1.52-.74-1.47-.71-1.53-.76c-.52-.25-1.05-.51-1.58-.75-.34-.16-.69-.31-1.03-.48l-1.07-.5-1.17-.5-1.28-.58c-.38-.17-.77-.32-1.16-.48-.43-.18-.85-.38-1.28-.57l-.27-.12-.25-.11-.04-.02c-.71-.31-1.4-.66-2.11-.98l-1.7-.76c-.39-.17-.79-.32-1.18-.48-.42-.17-.82-.37-1.23-.57-.41-.2-.84-.39-1.26-.58l-1.15-.54c-.39-.17-.78-.34-1.16-.54-.38-.2-.76-.41-1.15-.59a7.44 7.44 0 0 0-.5-.2c-.1.02-.2.01-.3-.02h-.01l-.14-.04-.23-.03h-.06l-.45.07-.28.08c-.55.2-1.1.42-1.62.68l-.79.42.06-.03-.12.06c-.57.3-1.14.59-1.72.87-.63.3-1.26.58-1.88.9-.94.49-1.87 1-2.79 1.52l-1.46.79c-.49.26-.98.52-1.48.76l-.44.22H87l-1.15.62-1.22.62c-.48.25-.94.52-1.41.77l-1.43.76-1.46.78-1.5.79c-.96.48-1.94.94-2.89 1.43-.48.26-.94.54-1.41.81-.49.28-.97.55-1.45.85-.47.29-.94.57-1.42.84s-.95.56-1.43.84l-1.39.85c-.45.28-.9.55-1.37.81-.47.26-.92.56-1.37.85l-1.34.82-.79.5-.9.52c-.58.33-1.16.64-1.75.95l-.03.02-.06.03h-.01l-.03.02-.02.01-.03.02-.05.03c-.46.24-.91.49-1.34.77l-1.36.86-1.32.82-1.38.83-1.72 1.04c-.27.17-.54.34-.82.49a4 4 0 0 1-.72.29l-.1.06a.47.47 0 0 1-.15.06.5.5 0 0 1-.27.08c-.2 0-.41 0-.61-.02a5.3 5.3 0 0 1-.55-.1c-.23-.05-.45-.14-.67-.22-.24-.09-.48-.2-.72-.31-.46-.23-.9-.51-1.35-.77-.47-.27-.97-.48-1.43-.75-.47-.27-.93-.56-1.41-.82l-.74-.39-.71-.41c-.44-.27-.87-.54-1.32-.78l-.66-.38-.66-.42c-.44-.27-.89-.51-1.35-.73l.03.02c-.43-.21-.86-.41-1.28-.63l-1.16-.62c-.77-.41-1.51-.87-2.29-1.25h-.01l-.2-.1.02.01c-.47-.23-.93-.48-1.37-.75-.48-.3-.97-.58-1.46-.85-.46-.26-.9-.54-1.35-.8l-1.42-.8c-.49-.28-.98-.56-1.48-.82a37.4 37.4 0 0 1-1.4-.74c-.49-.27-.98-.53-1.48-.78-.49-.25-.97-.52-1.45-.79-.53-.29-1.08-.55-1.61-.85l-.8-.46-.82-.43-1.47-.7.06.03-.58-.28.03.02-.12-.06c-.03.51-.02 1.02-.04 1.52-.04.95-.01 1.89-.04 2.84-.03.98.03 1.96.04 2.94.01.99.04 1.97.03 2.95 0 .37 0 .74.02 1.1v-.06l.08 1.47.11 1.5c.03.5.04 1 .05 1.5l.02 1.47-.03 1.45c-.02.5-.01 1.01.02 1.51v-.02.06c.03.49.07.98.09 1.48a4.73 4.73 0 0 1-.12 1.26v.04c-.06.27-.1.56-.23.81-.05.1-.11.19-.18.28-.11.14-.25.27-.42.34a.48.48 0 0 1-.2.04.6.6 0 0 1-.23-.05 8.55 8.55 0 0 1-1.38-.4l-.04.11a7.3 7.3 0 0 0-.13.5c-.06.21-.15.42-.22.63-.09.25-.17.51-.24.77-.08.29-.15.58-.3.84-.1.17-.22.33-.36.47a1.1 1.1 0 0 1-.27.21c-.16.09-.35.12-.53.12h-.01c-.22 0-.45-.07-.66-.12l-.41-.08c-.15-.03-.3-.09-.45-.15-.43-.18-.86-.36-1.29-.51-.3-.1-.59-.19-.88-.32a9.54 9.54 0 0 0-.74-.3l-.85-.3-.81-.3c-.37-.12-.74-.2-1.12-.29-.38-.09-.75-.25-1.12-.39l-.81-.25-.83-.29-.92-.3-.45-.17-.03.75c-.02.6-.02 1.19-.02 1.79 0 .6.02 1.19.04 1.78.02.63.02 1.27.02 1.9v1.8c-.02.62-.02 1.24 0 1.85.01.63 0 1.27-.01 1.9v1.79l-.02 1.56c0 .52-.03 1.04-.05 1.57v-.07l-.03 1.62-.08 1.62c-.05.49-.06 1.11-.09 1.73l-.1 1.85c-.04.59-.08 1.18-.1 1.77l-.09 1.78-.03.69-.03 1.23-.05 1.2-.04 1.76c-.01.6.01 1.19.02 1.79l-.03 1.84c-.01.6.01 1.2-.01 1.79l-.03.82v-.01l-.04 1.39c-.01.5-.05 1-.07 1.5a39.76 39.76 0 0 0 .04 3.6c.03.6.01 1.2.02 1.8v1.75c0 .59.04 1.17.07 1.75.03.6.02 1.2.04 1.81l.03.9.01.87c.01.31.01.63.03.94l.06.91c.02.31 0 .61-.02.92-.02.22-.03.43-.09.64l-.03.08-.02.32-.03 1.74c-.01.62 0 1.23.02 1.85.02.6-.01 1.2-.01 1.81 0 .59.05 1.18.05 1.77l-.01 1.88-.03 1.81c0 .59.01 1.18-.01 1.77-.02.63-.02 1.26-.02 1.89 0 .6-.03 1.21-.06 1.81l-.04 1.92v-.07c-.02.53-.02 1.05-.01 1.58.01.51 0 1.03-.01 1.54v1.54c0 .51-.04 1.03-.06 1.54l-.01 1.12-.03 1.14v-.07l-.01.18-.01.18v-.03c-.02.53-.01 1.07-.03 1.61-.01.54-.04 1.07-.06 1.61v-.07l-.01.39v.03l-.05 1.32c-.02.61-.01 1.23 0 1.84.01.62-.02 1.24 0 1.85.01.3.03.59.03.89l-.01.94a14.73 14.73 0 0 0 .05 1.88l.07 1.75.07 1.82c.02.62.06 1.24.1 1.86l.07 1.8a24.21 24.21 0 0 1 .06 1.82v.94l.05.88c.04.59.05 1.19.07 1.78.01.58.06 1.15.08 1.73.03.74.02 1.48.06 2.22a21.7 21.7 0 0 1 .05 1.73.6.6 0 0 1 .09.22l.03.18.03.13.13.28-.02-.04c.14.27.27.55.44.81.11.16.24.3.36.45a7 7 0 0 0 .55.54l.56.43c.2.14.39.3.58.45.4.33.77.67 1.19.97l1.28.92c.42.31.82.63 1.25.92l.29.2 1.42.91.04.03c.44.29.87.6 1.3.9l1.34.93c.9.62 1.79 1.26 2.69 1.87.46.31.92.63 1.36.95.43.32.86.65 1.3.96l1.39 1c.45.33.9.66 1.36.97.44.3.88.58 1.31.9.43.32.85.66 1.29.97.45.32.92.63 1.37.96l1.31.99c.54.4 1.1.76 1.64 1.15.53.38 1.05.78 1.59 1.15l.01.01.02.01c.45.29.9.59 1.34.9l1.24.88 1.05.68.02.01.02.01c.64.42 1.25.88 1.88 1.31l1.5.95c.5.32.98.65 1.47.98l.26.18-.05-.04 1.63 1.03c.55.36 1.08.74 1.62 1.11l.01.01h.01l1.57 1.01 1.66 1.13c.51.33 1.02.66 1.52 1.01l1.49 1.04c.36.22.68.42.99.64zm1.78 2.19-.11.01c-.16 0-.29-.09-.43-.16l.02.01c-.34-.17-.66-.38-.98-.59-.47-.31-.92-.65-1.38-.96l.05.04c-.47-.31-.93-.62-1.38-.95l-1.28-.88-1.18-.77-1.17-.81.04.03c-.51-.33-1.03-.65-1.54-.99-.55-.36-1.09-.75-1.63-1.12-.67-.44-1.36-.85-2.02-1.29-.39-.25-.76-.52-1.14-.77-.58-.38-1.18-.74-1.77-1.12-.56-.37-1.1-.78-1.65-1.16l-.33-.22c-.47-.3-.95-.6-1.41-.92-.49-.35-.97-.7-1.46-1.03-.44-.29-.89-.57-1.32-.88-.43-.31-.85-.64-1.29-.94-.45-.31-.91-.61-1.35-.94-.44-.33-.87-.67-1.32-.99-.45-.33-.92-.64-1.38-.96-.43-.31-.85-.64-1.28-.96-.45-.33-.91-.64-1.38-.95-.45-.3-.88-.62-1.32-.94l-1.38-1c-.44-.31-.87-.64-1.3-.96-.91-.66-1.84-1.28-2.76-1.93-1.32-.94-2.66-1.85-3.99-2.77-.44-.29-.89-.56-1.33-.84-.45-.29-.89-.62-1.32-.94l-1.3-.94-.64-.46c-.2-.15-.38-.31-.57-.47l-.56-.47-.61-.46a6.4 6.4 0 0 1-1.45-1.46c-.12-.17-.21-.35-.31-.53l-.31-.59a2.3 2.3 0 0 1-.12-.34.57.57 0 0 1-.16-.35c-.04-.51-.03-1.02-.05-1.53l-.04-.84-.02-.84a48.8 48.8 0 0 0-.05-1.71l-.05-.83-.02-.94c-.01-.58-.05-1.16-.09-1.74-.04-.63 0-1.26-.01-1.88-.01-.59-.07-1.18-.1-1.77-.02-.6-.04-1.19-.08-1.79-.04-.64-.06-1.27-.08-1.91l-.08-1.76c-.02-.61-.05-1.21-.09-1.82-.03-.63-.01-1.25-.01-1.88 0-.48-.03-.96-.04-1.44-.01-.52.01-1.05.01-1.57 0-.5-.02-1-.01-1.5l.06-1.5v.01l.01-.3v.01l.07-1.82.01-.92.01-.42.01-.29v-.2l.01-.15v-.04l.01-.32v-.06l.02-1.51c0-.52.04-1.05.06-1.57v-1.29L.35 113c.01-.44-.01-.88-.01-1.32l.03-1.36v.07l.02-1.26.05-1.38.01-1.81c.01-.61.03-1.22.03-1.84-.01-1.2.02-2.41.03-3.61 0-.6 0-1.19-.03-1.79-.03-.62-.01-1.23-.01-1.85.01-.61-.03-1.21-.04-1.82 0-.6.03-1.19.03-1.79l.01-.76.05-.87a.5.5 0 0 1 .09-.24l.02-.36c.01-.57-.06-1.13-.08-1.69-.02-.61-.01-1.22-.04-1.83l-.04-1.82c-.01-.58-.07-1.15-.08-1.73v-1.79l-.01-1.76c-.01-.63-.06-1.26-.07-1.89-.01-.57.01-1.14.01-1.71 0-.69.05-1.37.08-2.05l.03-1.12.05-1.22v.07c.02-.6 0-1.2.01-1.8.01-.59.04-1.18.02-1.77l-.02-1.87c.01-.6.01-1.19.04-1.79l.04-1.04c.02-.6.01-1.2.05-1.79.03-.61.08-1.22.1-1.83.02-.61.06-1.22.1-1.82l.1-1.75c.05-.34.06-.68.08-1.01v-.02.01l.04-1.27.07-1.29.02-1.33.05-1.42c.02-1.21.02-2.42.03-3.64 0-.61.03-1.21.02-1.82-.01-.61-.03-1.22-.01-1.84.02-.64.02-1.28.01-1.93-.01-.6 0-1.2-.02-1.79-.02-.62-.05-1.24-.05-1.87l.01-1.77c.01-.6.05-1.2.04-1.8a.47.47 0 0 1-.03-.33.3.3 0 0 0 .02-.09l.01-.14-.01-.74-.01-.83v-.26a.08.08 0 0 1 .04-.02l.05-.23a.42.42 0 0 1 0-.27.46.46 0 0 1 .28-.31c.22-.36.39-.76.62-1.12.25-.41.52-.81.78-1.22.26-.43.51-.87.79-1.29.26-.4.55-.77.83-1.16.44-.63.84-1.29 1.24-1.94.42-.67.89-1.3 1.35-1.94l1.34-1.96c.23-.34.46-.68.71-1.01l.71-.95.01-.01c.58-.82 1.15-1.65 1.77-2.44l.45-.56.48-.62c.3-.38.59-.76.91-1.11l.88-.98.91-.98-.01.01.03-.03.01-.01c.14-.14.27-.29.42-.42l.55-.46-.05.04.33-.27c.18-.15.36-.3.56-.43a1 1 0 0 1 .65-.14l.04-.06 1.09.51-.06-.03.6.29-.06-.03 1.49.71c.49.24.96.53 1.43.8.48.28.99.52 1.48.78.48.25.94.53 1.42.78s.96.48 1.43.74c.48.27.97.53 1.46.78.47.24.93.49 1.38.76l1.45.82 1.05.62 1.09.63c.37.21.73.44 1.1.66.34.21.7.4 1.06.57l.14.07.03.02h-.01l.03.01c.34.17.68.34 1.01.53l1.05.6c.72.39 1.44.78 2.17 1.14l-.06-.03c.51.24 1.02.47 1.51.76.46.27.91.58 1.38.85.44.25.89.48 1.31.75.46.29.93.57 1.41.82.41.21.8.43 1.2.67.39.23.78.47 1.19.67l.56.27.6.34a10.2 10.2 0 0 0 2 .98l.42.1.21.03.36.01c.09-.05.18-.11.28-.14l.26-.09.32-.14-.06.03c.45-.23.87-.52 1.3-.78l1.44-.88 1.35-.81 1.33-.82 1.25-.79a14.79 14.79 0 0 1 1.49-.83l.02-.01.07-.04.02-.01h.01-.01l1.42-.77c.47-.26.94-.53 1.4-.81l1.38-.85c.45-.27.88-.56 1.32-.83.46-.28.93-.53 1.39-.8.47-.28.93-.58 1.4-.87l1.35-.81 1.43-.82 1.42-.86 1.48-.85c.47-.27.95-.51 1.44-.75l1.47-.73 1.08-.54-.01.01.03-.02h.01l2.83-1.52 1.42-.76a43.72 43.72 0 0 1 2.05-1.09l1.23-.66 1.28-.64 1.41-.75c.47-.25.94-.53 1.41-.79l1.48-.8c.48-.26.97-.51 1.46-.75.49-.23.99-.46 1.47-.7l1.38-.7.05-.02h.01l.02-.01.02-.01h.01c.44-.23.87-.47 1.32-.67.41-.18.83-.34 1.26-.49.23-.08.46-.12.69-.16.13-.02.27-.04.4-.03h.05c.22-.1.45-.02.66.05a9 9 0 0 1 1.92.86c.3.16.6.31.9.44.62.27 1.22.57 1.83.84.34.15.67.3 1 .47.3.14.59.29.89.42.43.18.87.34 1.3.53.47.2.92.42 1.39.63l1.21.55 1.12.53.02.01.01.01.03.01-.01-.01.24.1.21.1.3.14-.03-.01.85.38.02.01.01.01h-.01l1.32.55c.45.19.9.41 1.35.61l1.53.66 1.57.74 1.53.73c.5.24 1.01.48 1.51.74l1.52.74 1.51.74c1.04.5 2.08.98 3.11 1.52.47.25.94.51 1.42.74l1.52.74c.5.26 1 .5 1.51.75l1.49.76 1.5.77c.47.25.96.47 1.44.71.99.51 1.99.99 2.99 1.49.55.27 1.11.52 1.66.8.52.26 1.03.54 1.56.78l-.02-.01.03.01.04.02.08.03c.49.22.98.43 1.45.68a21.5 21.5 0 0 0 2.37 1.03c.32.09.64.16.95.26l.89.29.27.06.31.03.29.02h.09l.39-.06a9.61 9.61 0 0 0 1.56-.4l.34-.13a.45.45 0 0 1 .19-.11l.63-.21.54-.17c.29-.11.57-.25.85-.4l.14-.07h.01c.45-.25.91-.5 1.38-.72l1.53-.66c.51-.22 1-.46 1.5-.71.48-.24.97-.46 1.47-.68l1.45-.65c.5-.23.99-.48 1.48-.74.96-.5 1.96-.89 2.93-1.36l1.46-.71 1.45-.64c.98-.45 1.93-.95 2.9-1.41.98-.46 1.94-.93 2.91-1.42.49-.25.98-.49 1.49-.72l1.48-.68c.51-.24 1.01-.5 1.5-.76.5-.26 1-.5 1.51-.73.51-.23 1.02-.45 1.52-.69l1.41-.68c1-.45 2.02-.84 3.01-1.33.49-.24.98-.49 1.48-.72l1.45-.65c.5-.23.99-.49 1.48-.75l.07-.04c.88-.47 1.76-.93 2.66-1.36l.67-.31.64-.32c.31-.15.62-.29.94-.42.29-.12.6-.19.91-.24.28-.05.55-.09.83-.04.18.03.37.1.54.15.12.04.22.08.33.14.15.1.26.26.34.42.09.17.15.36.19.54.07.15.09.33.11.49.07.51.13 1.03.15 1.55l.18 3.3c.03.52.02 1.03.01 1.55-.01.55.01 1.1.04 1.65.04.53.05 1.06.06 1.59l.04 1.62c.01.53.01 1.06-.01 1.59a29.9 29.9 0 0 0-.01 1.64l.05 1.68v1.64c0 .52.03 1.04.04 1.56.01.56-.02 1.12-.03 1.68-.01.54.02 1.07.03 1.61.01.53-.02 1.06-.03 1.58-.01.53.01 1.07.02 1.6.01.55-.01 1.1-.02 1.66-.02.51-.01 1.02-.01 1.52 0 .56-.02 1.12-.03 1.67-.01.54.01 1.08.01 1.62.01.54-.01 1.07-.03 1.61-.03 1.08.01 2.15-.01 3.23-.02 1.07-.02 2.15-.06 3.22v-.03l-.01.19v.06l-.02 1.6-.02 1.62-.02 1.6c0 .53.03 1.05.03 1.58 0 .46-.03.92-.09 1.37 0 .23-.04.47-.05.7v.73l-.02.76-.02 1.56v1.63l-.02.8.02.73c.01.39-.02.77-.03 1.15-.01.52 0 1.04-.02 1.56-.02.54.01 1.09 0 1.63-.01.53.02 1.07.03 1.6l.02 1.64c.02.54.01 1.08.01 1.62l.03 1.5.01.78c.01.26.02.51.01.76l-.01 1.63-.02.84v2.89c.01.73-.03 1.46-.04 2.19l.02.09v1.11c.02.72.08 1.45.11 2.17l.04 1.03c.01.38 0 .76-.01 1.13-.01.38 0 .75.01 1.13.02.4.04.79.04 1.18l-.01 1.16c.01.4.03.8.03 1.21l-.01 1.2c0 .38.01.75.03 1.12l.06 1.11.02 1.12.03 1.14c.01.39-.01.77-.03 1.15-.03.77 0 1.55-.01 2.32l-.01 1.11v1.07l-.04 1.11v1.15l.03 2.33c.01.74-.03 1.48-.05 2.22l-.02 1.09-.05 1.05v-.01l-.01.24v.08c-.02.42-.02.84-.01 1.27 0 .44-.02.87-.04 1.3v-.01c-.04.77-.04 1.54-.07 2.3-.02.38-.04.77-.04 1.15v1.18l-.04 1.18c-.01.39-.02.77-.01 1.16.01.76-.01 1.53.02 2.29l.02 1.07c0 .39-.01.79.02 1.18l.05.73c.05.07.09.16.09.25a.7.7 0 0 1-.12.47c-.08.12-.2.2-.32.27l-.29.41c-.15.23-.31.46-.44.7-.18.33-.37.66-.54 1l.03-.05-.55 1.18c-.2.43-.38.86-.54 1.3-.34.93-.74 1.85-1.11 2.77l-.17.45v.02l-.32.98c-.12.36-.25.72-.39 1.07-.25.63-.53 1.26-.76 1.9-.33.96-.6 1.94-1 2.87l-.59 1.39-.56 1.45c-.38.96-.8 1.89-1.18 2.85l-.56 1.39-.61 1.43c-.2.46-.37.93-.56 1.39l-.61 1.36c-.21.45-.41.91-.59 1.38a90.16 90.16 0 0 1-1.16 2.82c-.19.44-.37.89-.54 1.34-.17.46-.36.91-.58 1.35-.21.43-.41.86-.65 1.28l-.19.33a.49.49 0 0 1-.21.24c-.07.11-.16.21-.27.29l.04.08-.66.33c-.49.25-.96.53-1.46.77-.46.22-.94.43-1.4.66l-1.26.65-1.26.61c-.41.19-.81.39-1.2.59a24.42 24.42 0 0 1-1.31.62c-.5.22-1 .45-1.49.7-.48.24-.98.46-1.47.68-.49.22-.98.46-1.46.71-.5.26-1 .5-1.51.73-.48.22-.96.45-1.43.69-.49.26-.99.49-1.49.72-.49.23-.96.48-1.44.74l-1.47.78-1.45.76-.75.41c-.25.13-.51.24-.76.36-.48.23-.95.47-1.42.73-.48.27-.97.5-1.47.74-.49.23-.96.48-1.42.75-.46.26-.92.52-1.39.74-.47.23-.94.45-1.4.69-.46.24-.93.46-1.4.67l-.1.04-1.09.5.06-.03c-.54.24-1.11.43-1.7.46l-.19.01a2.1 2.1 0 0 1-.57-.08h-.04a.4.4 0 0 1-.18-.04l-.24-.09-.28-.13h-.01a.36.36 0 0 1-.15-.08l-.27-.13c-.45-.23-.9-.47-1.36-.69-.47-.22-.95-.44-1.41-.69-.44-.24-.86-.51-1.3-.72l-.11-.05-.51-.24c-.47-.22-.92-.48-1.38-.73-.44-.25-.9-.47-1.35-.7-.47-.25-.95-.48-1.43-.72l-1.43-.72a22.9 22.9 0 0 0-.71-.34 6.76 6.76 0 0 1-.71-.36c-.46-.26-.9-.54-1.37-.78l-1.35-.66c-.45-.24-.9-.48-1.37-.69-.41-.18-.81-.37-1.21-.58l-1.1-.56c-.5-.23-1.01-.45-1.49-.71l-1.43-.74c-.47-.23-.92-.49-1.38-.74-.47-.26-.95-.48-1.42-.74l-2.79-1.5c-.49-.26-.98-.52-1.46-.8l-1.35-.75-.72-.37-.67-.37a46 46 0 0 0-1.39-.72c-.47-.24-.92-.5-1.39-.76-.47-.26-.96-.48-1.44-.72-.47-.24-.94-.49-1.42-.72-.48-.23-.95-.47-1.41-.73l-1.33-.72c-.47-.25-.93-.5-1.41-.73l-.73-.33c-.4-.19-.79-.39-1.2-.57h.01l-.04-.02h.01l-.03-.01-.02-.01-.03-.01h-.01l-.01-.01c-.55-.25-1.11-.49-1.66-.75-.51-.24-.99-.56-1.51-.8l.06.03a6.02 6.02 0 0 0-1.15-.37l-.15-.02h-.1l-.15.02-.11.02a.54.54 0 0 1-.37.23l-.38.23-.62.34c-.41.23-.82.47-1.21.73l.02-.02-.03.02-.03.02-.01.01-.09.06.01-.01c-.38.26-.75.53-1.14.77-.38.24-.76.47-1.13.72l.06-.04-.08.05-.04.03-.03.02-.02.02-.05.04-.01.01h-.01l-.02.01-.01.01c-.49.33-.95.7-1.44 1.02-.5.33-1.03.64-1.53.97-.56.39-1.1.82-1.67 1.19l-1.63 1.04c-.46.32-.92.65-1.4.95-.47.29-.95.58-1.41.88-.48.34-.96.68-1.46.99l-1.5.94c-.48.33-.94.68-1.44.99-.49.31-1 .6-1.48.93l-1.03.72-.01.01-.12.08-.13.09c-.62.42-1.27.78-1.89 1.19-.38.26-.75.52-1.14.76-.39.24-.78.48-1.16.74-.52.35-1.02.73-1.53 1.08-.53.35-1.07.68-1.61 1.02l-.06.04-.1.07.02-.01c-.43.29-.84.62-1.28.9l-1.33.85c-.57.38-1.12.79-1.68 1.17l-.04.03a.14.14 0 0 0-.04.03l-.12.08-.18.12.06-.04-1.33.86-1.33.87-.01.01-.02.02h-.01c-.56.38-1.12.78-1.67 1.17l-.78.58-.87.61-1.22.83c-.44.3-.91.55-1.37.82-.48.28-.93.59-1.41.87-.22.13-.45.25-.67.39l-.67.41-1.12.68c-.37.24-.73.49-1.11.71-.38.22-.77.44-1.17.62l-.99.45c-.3.15-.59.32-.92.38-.08.02-.17.02-.25.02-.28.02-.47-.02-.66-.08z"/></g><defs><clipPath id="a"><path fill="#fff" d="M0 0h201v186H0z"/></clipPath></defs></svg>