<svg xmlns="http://www.w3.org/2000/svg" viewBox="0 0 368 80"><path d="M366.485 26.198a1.018 1.018 0 0 0-.41-.901 1.951 1.951 0 0 0-.948-.167h-1.684v3.47h.68v-1.469h.685l.78 1.469h.786l-.846-1.469c.622-.04.957-.3.957-.933m-1.334.416h-1.029v-.984h.845c.335 0 .83 0 .83.467 0 .436-.269.526-.646.517m-.376-2.977A3.216 3.216 0 1 0 368 26.848a3.214 3.214 0 0 0-3.225-3.21m0 5.83a2.616 2.616 0 1 1 2.62-2.62 2.62 2.62 0 0 1-2.62 2.62M133.907 65.855a23.093 23.093 0 1 1 23.186-23.094 23.165 23.165 0 0 1-23.186 23.094m0-42.343a18.961 18.961 0 0 0-19.08 19.249 19.051 19.051 0 1 0 38.1 0 18.932 18.932 0 0 0-19.02-19.249m52.315 41.732V47.939c0-6.535-3.913-10.597-10.212-10.597A10.414 10.414 0 0 0 165.37 48v17.244h-3.92V34.288h3.858v5.092a13.074 13.074 0 0 1 11.129-5.7c8.492 0 13.767 5.463 13.767 14.259v17.305zm24.576.61c-9.618 0-16.336-6.54-16.336-15.905a15.826 15.826 0 0 1 16.091-16.268c9.216 0 15.908 6.612 15.908 15.72v1.772h-28.178c.605 6.64 5.577 11.078 12.453 11.078a11.6 11.6 0 0 0 11.335-7.464l.1-.236 3.514 1.678-.104.223c-2.936 6.238-7.912 9.403-14.783 9.403m11.526-18.345c-.77-6.224-5.365-10.227-11.77-10.227a12.174 12.174 0 0 0-12.126 10.227zm24.562 18.345a22.08 22.08 0 0 1-17.313-7.843l7.553-5.923a11.274 11.274 0 0 0 9.7 5.91c4.666 0 6.79-3.096 6.79-5.972 0-3.557-4.168-4.826-8.582-6.168l-.74-.227c-5.307-1.616-12.575-3.833-12.575-12.554 0-7.222 6.337-12.67 14.739-12.67a18.964 18.964 0 0 1 14.862 6.32l-6.818 5.139a9.171 9.171 0 0 0-7.982-4.15c-3.79 0-6.24 1.985-6.24 5.058 0 3.27 3.787 4.513 8.176 5.954l.96.316c6.488 2.088 12.822 4.817 12.822 13.043a13.23 13.23 0 0 1-4.006 9.505 15.774 15.774 0 0 1-11.346 4.262m18.853-.611h8.133V35.03h-8.133zm28.43 14.605c-8.27 0-13.378-4.511-15.579-8.688l6.63-3.64a9.78 9.78 0 0 0 8.95 4.916c4.287 0 7.514-2.862 7.524-7.617v-3.2l-.219.258a11.881 11.881 0 0 1-9.142 3.977 14.865 14.865 0 0 1-9.72-3.868 15.427 15.427 0 0 1-4.898-11.849c0-11.53 8.815-15.716 14.74-15.716a11.895 11.895 0 0 1 9.022 3.857l.217.241v-3.489h8.13v29.407c0 9.733-6.144 15.411-15.655 15.411m-.184-38.06a8.326 8.326 0 1 0 7.952 8.289 8.04 8.04 0 0 0-7.952-8.29m40.19 23.456v-17.3c0-4.284-2.043-6.641-5.752-6.641-3.717 0-5.935 2.779-5.935 7.433v16.508h-8.131V21.018h8.07v16.659a12.268 12.268 0 0 1 8.566-3.255c7.16 0 11.434 4.623 11.434 12.364v18.458zm27.706 0c-9.677 0-12.783-3.182-12.783-13.096v-9.87H343.9v-7.247h5.2v-7.18l8.132-4.433v11.613h5.749v7.247h-5.75v9.81c0 4.832.758 5.594 5.75 5.605v7.55zM274.38 26.46a4.663 4.663 0 1 1-3.661-3.647 4.657 4.657 0 0 1 3.66 3.647M5.875 31.17c-4.989-.722-5.648.333-5.8-.187-.413-2.389 1.002-4.765 1.507-4.817 3.392-.186 7.784.34 8.612 3.38.232.713-.203.232-.021.916.125.467.53 1.5.23 1.92-.931.74-2.827-.985-4.528-1.212m86.506 4.164c3.17-.229 5.202-2.819 6.343-5.615 1.13-3.892-3.333-2.665-4.343-1.531-1.16 1.347-4.91 3.065-5.296 5.78-.09.675 2.114 1.432 3.296 1.366M77.263 19.54c1.203 1.416 3.652.406 4.088.081 2.013-1.255 4.087-2.85 4.325-6.19a2.778 2.778 0 0 0-1.621-2.97c-1.116-.163-2.083.587-3.39 2.049-.542.607-1.92 1.37-2.255 2.305-.677 1.882-2.343 3.489-1.147 4.725m-35.316-6.695c1.005.123.828-1.748 1.128-3.59a10.568 10.568 0 0 0-1.1-5.511c-.577-1.199-2.566-4.036-4.205-3.72-.057.013-1.283.438-1.397 2.68a10.325 10.325 0 0 0 1.38 5.517c.404.72.875.766 1.173 1.333.68 1.293 1.295 3 3.02 3.29M23.32 19.28c2.906.635.151-2.517 1.363-2.755.293-.057.19-.364-.045-1-.91-2.457-3.642-4.282-6.73-5.764-.227-.11-.451-.106-.764.23-.413.445-.873.586-2.105.417-1.025-.139-1.634 1.542-.919 1.983 2.925 1.801 4.677 5.685 9.2 6.89m40.432-7.621c.354-3.467 1.244-6.83.559-9.54-.228-.87-2.003-2.358-3.146-1.747-1.14.684-3.265 8.954-.328 12.092.47.462 2.847-.137 2.915-.805m-10.785 2.895c-27.04 0-46.052 24.599-46.052 30.544 0 5.992 19.013 30.54 46.054 30.54 20.29 0 35.128-13.666 35.128-30.54 0-16.877-14.838-30.544-35.13-30.544m20.367 50.998c-.613.484-1.818.975-1.488-.618.247-1.19-.43-2.632-1.828-2.304-1.008.24-2.184.625-3.29.927-1.008.276-2.061 1.582-1.77.441.287-1.118.623-2.569.854-3.534.31-1.31.56-1.491 1.884-2.423a17.132 17.132 0 0 0 3.018-2.453c.436-.493.974-1.906 1.868-1.717 1.42.302 1.017-.871 2.132-1.043.244-.038 1.362-.179 1.447.175.09.375-.345.825-.342 1.214.002.293.77 1.166 1.068.694.309-.49.604-.988.937-1.462.52-.734 1.378-1.519 1.017-.064a8.538 8.538 0 0 0-.432 3.43 12.964 12.964 0 0 1 .271 2.227 3.98 3.98 0 0 1-.962 2.58 51.066 51.066 0 0 1-4.384 3.93M32.757 26.387c.467 1.09.757-.36.858-.663a4.912 4.912 0 0 1 2.2-2.285 27.687 27.687 0 0 1 3.405-1.993c.265-.135 3.409-1.628 2.312-.368-.983 1.132-3.916 3.488-2.908 5.222.353.606 1.563 1.503.882 2.2-.816.836-1.028 1.34-2.145.641-.676-.42-.242-1.33-1.063-1.616-1.083-.373-4.435 3.519-3.617 4.274.538.496 1.597 1.491 2.114.316.326-.743.094-1.795 1.26-1.986.608-.099 1.611.81 1.996 1.205.313.323 1.866 2.065 1.448 2.578-.484.697-1.465.847-2.178 1.268-.469.278-.122.773-.125 1.19-.006.553-.695 1.09-1.028 1.454-.842.917-1.69 1.828-2.526 2.751-.27.3-.522.782-.979.837l-.397.049c-.615.088-.972.729-1.15 1.522 0 0-.2.901-.32 1.616-.207 1.233-.945.02-1.117-.418-.555-1.404-.817-1.076-1.99-.432-1.224.67-1.26.899-1.082 2.202.214 1.592 1.802-.138 1.74.953-.034.955-.363 1.903.718 2.004.64.059.411 1.206.767 1.452.327.228 2.236-1.317 2.566-1.527 1.1-.698 1.317-.408 2.11.625.351.46.954 1.526 1.58 1.612 1.179.165 1.363-.208 2.042.89.56.907.892 1.954 2.04 2.172.914.174 2.922.3 3.747.976.686.562.307 4.024.177 5.032-.075.573-.484.837-.934 1.1-.944.556-.95.742-.866 1.775.297 3.704 1.258 6.136 2.578 6.988.19.124 1.628.905.54 1.026-1.549.176-5.024-1.02-9.772-4.687a16.51 16.51 0 0 1-3.569-3.673c-.331-.493-.918-.14-1.336-.515a7.777 7.777 0 0 1-1.354-2.07c-.733-1.34-1.778-3.374-1.217-4.941.585-1.632 1.41-2.726.064-4.28a27.414 27.414 0 0 1-3.097-4.198c-1.013-1.746-.262-3.729.405-5.475.245-.642-.21-.611-.62-.812-.996-.492 1.438-5.805 2.352-7.439.308-.548-.26-.972.122-1.565a26.457 26.457 0 0 1 1.847-2.517c.432-.526 2.852-3.843 3.52-2.47.106.25-.097-.197 0 0m16.727-6.472c-.144.327-1.087 1.807-.302 2.163.512.235.363.597.232.823-.347.606-1.933 3.762-3.277 3.402-.78-.206-1.154-.42-1.894.103a82.356 82.356 0 0 1-2.258 1.519c-.722.467-.908.178-1.161-.473-.64-1.635 1.104-3.273 1.439-3.574a3.013 3.013 0 0 0 1.091-3.195c-.145-.363-.128-.861.382-.993a29.546 29.546 0 0 1 4.824-1.122c1.392-.158 1.122.901.924 1.347m16.725.92c8.111 3.35 14.41 9.282 16.846 16.98.52 1.733-2.557.584-3.48.408-1.033-.196-.111.901.11 1.266.627 1.036.454 1.224.277 1.881-.191.712-.988 3.089-1.687 3.252-1.193.277-1.226.146-1.259 1.093-.036 1.016.201 3.375-1.722 3.236-.54-.038-.304 1.408-.358 1.645-.168.749-1.12-.57-1.074-1.222.064-.913.528-2.279.278-3.166-.096-.342-.387-1.854-.945-2.182-1.246-.73-1.013 2.318-2.117 4.135-.12.194-1.264 1.378-1.517.672-.384-1.07-.584-1.955-.901-2.967a2.473 2.473 0 0 1-.026-1.992c.284-.915-.499-1.15-1.13-1.5-.913-.505-3.139-1.9-4.16-2.469-1.003-.557-.1 1.46.063 1.797.648 1.328-.111 2.451-1.258 3.341-.646.504-2.28-2.982-2.28-2.982-.295-.8-1.114-.55-.94.167.135.552.8 3.803 1.605 3.965.481.099 1.017.184 1.526.288.371.074.179.517-.017.812-.651.974-2.474 3.224-2.772 3.628-1.098 1.49.552 4.197-.875 5.6a14.76 14.76 0 0 0-2.97 4.4c-.5.99-2.59 1.906-3.111.537-.422-1.1-1.44-3.757-1.635-4.59-.136-.587.446-1.116.616-1.475.262-.556-1.295-4.788-1.604-5.649-.338-.942-.543-.784-1.314-.642-.934.174-1.588.41-2.338-.18q-1.094-.86-2.184-1.72c-.968-.76-1.312-3.59-.974-4.771a3.806 3.806 0 0 1 1.068-2.05c.69-.628 1.196-1.121 1.77-1.665.53-.498.488-.715 1.434-.74.998-.023 2.25-.004 3.269-.013.536-.007 1.406-.116 1.805.705.316.649 1.016.876 1.61 1.21 1.037.585.631-.205 1.58-.304.8-.083 2.155.042 2.95-.017 1.132-.084.991-3.821-.217-3.608a9.227 9.227 0 0 1-1.503-.003.703.703 0 0 1-.6-.427c-.107-.252-.3-.927-.71-.764-.327.13-.228.632-.232.89-.003.311-.364.238-.503.098a22.248 22.248 0 0 0-1.92-2.291c-.293-.174-1.028-.08-.838.182q.494.682.996 1.36c.153.21.632.614.39.886-.09.102-.17.193-.319.118a.18.18 0 0 0-.252.054c-.156.2-.309.403-.467.602a.221.221 0 0 1-.373-.238c.103-.224.174-.402.271-.628.134-.307-.528-.72-.719-.9-.274-.253-.703-.513-.791-.89-.042-.182-.054-.45-.285-.494a1.998 1.998 0 0 0-.692.112.695.695 0 0 0-.49.396 6.006 6.006 0 0 1-.863 1.238 1.147 1.147 0 0 1-.53.196q-.498.13-.994.257c-.508.132-.52-.25-.647-.653l-.25-.795c-.08-.251.078-.553.142-.795l.224-.842c.038-.144.07-.368.257-.388a1.522 1.522 0 0 1 .549.139l.873.277c.376.12.326-.32.317-.553-.015-.443-.156-.886.205-1.222.075-.07.575-.447.523-.566-.066-.151-.627.116-.693-.033-.095-.214.259-.504-.054-.636-.37-.154-.411-.331-.213-.665.11-.185.343-.14.522-.255.186-.121.196-.427.314-.605.45-.676.653.937.728 1.298.055.272.125.496.416.326a2.393 2.393 0 0 1 1.413-.526c.27.016.538.012.807.018l.169.003c.238-.042-.021-.566-.573-1.166 0 0-.259-.282-.496-.525-.462-.472 1.893-3.26 3.308-3.346.37-.023 1.411-.056 1.305.557-.138.804.316.562.717.324 6.498-3.827 6.334-1 7.817-3.803.44-.826 1.184-.69 1.802-.435" fill="#969594" fill-rule="evenodd"/></svg>