<svg width="208" height="189" fill="none" xmlns="http://www.w3.org/2000/svg"><g clip-path="url(#a)" fill="#1F1F1E"><path d="m29.21 67.35-.12-1.06.97-1.23v.14l.05.83-.89 1.49-.01-.17zM13.19 183.67l.27-.36.07-.02-.21.38-.25.47.12-.47zm2.45-.21-.23.44-.09.02.32-.46zm58.87-83.94a12.95 12.95 0 0 1-1.49-2.45c-.14-.32-.27-.65-.38-.98l.21.02c.28.02.55.03.82.01l.09.23c.15.36.32.7.5 1.05.12.22.26.43.39.64l-.13 1.49-.01-.01zm-41.02 9.86c-.25-.08-.38-.36-.31-.61l.01-.02.05-.24-.02.06.03-.1v.01c.19-.74.37-1.49.61-2.22.24-.74.51-1.47.9-2.15.21-.37.47-.71.74-1.04l.86-1.03c.27-.32.54-.63.83-.93.29-.3.61-.58.97-.78.23-.13.53-.01.64.22.12.24.01.52-.22.64l-.2.13a6.7 6.7 0 0 0-.49.44c-.33.34-.64.7-.95 1.07l-.99 1.19c-.12.17-.24.33-.34.51l.01-.02a23.37 23.37 0 0 0-1.28 3.55l-.17.68.02-.06-.03.1c-.02.09-.03.19-.06.28a.48.48 0 0 1-.46.33c-.06.02-.1.01-.15-.01z"/><path d="M37.12 101.86a.48.48 0 0 1-.32-.55v-.03c-.01-.48-.05-.96-.04-1.45 0-.51.06-1.02.14-1.53a39.4 39.4 0 0 1 .71-2.95l.43-1.45c.16-.53.36-1.05.56-1.56l-.02.06c.38-.95.86-1.86 1.33-2.77a27.78 27.78 0 0 1 1.59-2.69c.29-.43.61-.85.95-1.24.34-.39.71-.74 1.12-1.05.43-.33.87-.63 1.35-.9l1.19-.64.02-.12c.03-.18.08-.35.14-.51.14-.39.39-.74.65-1.07a8.33 8.33 0 0 1 2.48-2.03c.46-.25.95-.43 1.45-.57.72-.2 1.46-.34 2.21-.38a7.36 7.36 0 0 1 2.23.2c.25.06.43.29.38.56-.05.25-.31.44-.56.38-.24-.06-.48-.09-.72-.13a9.68 9.68 0 0 0-.93-.06c-.36.01-.72.03-1.07.07a8.69 8.69 0 0 0-2.09.55l-.65.32c-.25.15-.49.31-.73.48-.25.19-.48.4-.71.61l-.33.34-.31.37c-.09.13-.18.25-.26.39l-.14.28-.06.18c-.04.17-.06.34-.11.51-.09.29-.35.42-.6.55l-1.1.59c-.33.2-.65.41-.96.63l-.42.33-.4.36c-.13.14-.26.27-.38.42l-.36.44-.73 1.02c-.24.35-.45.71-.66 1.07-.35.62-.67 1.25-.99 1.88-.32.64-.65 1.29-.93 1.96l.02-.06-.18.44.02-.06-.33.93-.3 1c-.2.66-.38 1.32-.55 1.98l.02-.06a16.5 16.5 0 0 0-.39 1.98 13.74 13.74 0 0 0-.04 1.94l.02.4c0 .11 0 .21-.03.31a.48.48 0 0 1-.46.33c-.06.02-.11.02-.15 0z"/><path d="M53.94 79.15c-.23-.12-.31-.37-.27-.61l.08-.31.1-.36c.14-.49.28-.99.46-1.47s.38-.95.63-1.39l.42-.72c.14-.21.28-.43.44-.62l.26-.31.35-.35c.2-.19.44-.33.67-.48.24-.15.49-.26.75-.37l.47-.17c-.01-.11-.03-.23-.02-.34a6.62 6.62 0 0 1 .38-1.94l.01-.02-.01.02.01-.04.1-.25-.02.06a6.5 6.5 0 0 1 .93-1.59l-.04.05.14-.18-.01.01c.31-.41.66-.8 1.03-1.16a16.9 16.9 0 0 1 2.43-2.03c.43-.3.88-.58 1.32-.86.44-.28.89-.55 1.35-.8.55-.31 1.15-.52 1.74-.72.6-.2 1.23-.34 1.85-.46a.5.5 0 0 1 .57.38.5.5 0 0 1-.37.57c-.35.06-.69.14-1.04.22a9.88 9.88 0 0 0-2.67 1.07c-.49.29-.97.6-1.45.91-.23.15-.47.3-.69.46l-.72.52a15.24 15.24 0 0 0-1.66 1.48l.05-.05c-.33.34-.65.68-.94 1.06l.04-.05a.3.3 0 0 0-.05.07l-.14.18.03-.03c-.19.24-.34.51-.5.77l-.27.54.02-.06-.04.1v.01l-.01.01v-.01l-.06.15-.02.06-.01.03.02-.06a7.9 7.9 0 0 0-.32 1.34l-.01.29c0 .14.02.28.04.42.01.09.02.18 0 .27a.62.62 0 0 1-.24.37c-.14.1-.3.14-.46.19l-.39.15h.01c-.2.09-.39.18-.58.29l-.37.24-.36.31a6.33 6.33 0 0 0-1.29 1.96c-.11.22-.21.45-.3.68a25.37 25.37 0 0 0-.67 2.13c.01.09 0 .18-.04.26a.49.49 0 0 1-.44.27c-.08-.04-.15-.05-.22-.09zm-19.69-3.31a.48.48 0 0 1-.45-.51c.05-.98.01-1.98.22-2.94a15.6 15.6 0 0 1 1.71-4.26 27.8 27.8 0 0 1 2.73-3.76c.17-.2.36-.39.54-.57l-.04.05A22.5 22.5 0 0 1 43.91 60a25.88 25.88 0 0 1 5.7-2.57l.08-.02.22-.06c.67-.18 1.35-.28 2.03-.38l.98-.16c.35-.05.69-.07 1.04-.02.26.03.43.31.38.56-.05.27-.3.42-.56.38h-.04a1.09 1.09 0 0 0-.18-.01c-.16 0-.31.02-.47.04l-1.45.23c-.5.08-1 .16-1.49.29h.01l-.19.05h.01l-.05.01h-.01c-.68.21-1.34.45-2 .72-.54.23-1.08.46-1.61.73a27.28 27.28 0 0 0-5.43 3.58c-.33.29-.65.6-.97.91l-.28.28.04-.04c-.24.24-.47.49-.69.75-.21.24-.41.5-.61.75l.04-.05a48.82 48.82 0 0 0-1.91 2.77c-.31.55-.6 1.12-.85 1.7a9.51 9.51 0 0 0-.79 2.74c-.07.75-.07 1.49-.11 2.24a.48.48 0 0 1-.48.45c0-.03-.01-.03-.02-.03z"/><path d="M31.36 81.36a5.3 5.3 0 0 1 .05-2.17c.06-.24.14-.47.23-.7l.28-.62c.12-.23.26-.45.4-.66a3.05 3.05 0 0 1 .99-.91c.12-.06.25-.09.39-.11h.01l.08-.19a3.11 3.11 0 0 1 .88-1.11c.19-.16.4-.3.62-.42a6.36 6.36 0 0 1 1.97-.7c.22-.04.44-.07.66-.04.08.01.17.04.25.07.25.08.39.36.31.61a.49.49 0 0 1-.61.31l-.1-.03h-.05l-.12.01c-.17.03-.34.06-.51.11a6.69 6.69 0 0 0-1.37.54 3.95 3.95 0 0 0-.6.45l-.23.26-.14.2-.14.28c-.07.18-.11.39-.26.51a.65.65 0 0 1-.59.11h-.01l-.04.02a.83.83 0 0 0-.12.08l-.2.17-.27.32-.26.4c-.12.24-.24.48-.34.72l-.18.53-.09.45-.04.56.03.49a2 2 0 0 0 .05.26c.06.25-.13.52-.37.57l-.1.01c-.22.01-.41-.16-.46-.38zM48.17 33.7a1.48 1.48 0 0 1-.73-.17l.04.01.06.01h.08a.48.48 0 0 1-.14-.94c.19-.05.34.03.51.1l.04.01.08.01.24-.01c.23-.02.46-.06.69-.1.72-.15 1.43-.34 2.14-.57l.26-.09-.03.01c.45-.15.88-.33 1.32-.5.43-.17.85-.35 1.27-.54.37-.2.73-.41 1.08-.63a26.9 26.9 0 0 0 2.4-1.86c.2-.17.52-.12.67.09.16.21.12.51-.09.67l-1.19.97c-.41.33-.84.65-1.28.94-.42.28-.86.54-1.32.76-.46.22-.94.41-1.42.6-.46.19-.93.36-1.4.51l.06-.02c-.72.25-1.46.44-2.21.6-.36.07-.73.14-1.1.14h-.03z"/><path d="M53.05 47.11a.5.5 0 0 1 .17-.66c.23-.12.44-.27.66-.41a5.83 5.83 0 0 0 .79-.61c.23-.21.44-.43.65-.66l.36-.45.35-.51c.33-.55.62-1.11.9-1.68.18-.41.34-.83.49-1.25a41.17 41.17 0 0 0 .26-1.07l.05-.42a3.23 3.23 0 0 0-.19-1.31l-.14-.33-.21-.37-.3-.39-.34-.33-.38-.29.05.03c-.2-.13-.4-.24-.6-.35-.1-.04-.2-.08-.3-.14a.55.55 0 0 1-.25-.39c-.02-.12.01-.24.02-.36v-.07l-.01-.04-.07-.25.01.02-.02-.04-.01-.02v.01a7.21 7.21 0 0 0-.27-.64l.03.06-.08-.16.01.01v.01l.02.04-.02-.05a5.58 5.58 0 0 0-.42-.64 1.29 1.29 0 0 0-.17-.16l-.21-.15a2.83 2.83 0 0 0-.56-.26c-.17-.05-.35-.07-.49-.18-.11-.09-.16-.2-.22-.33a.49.49 0 0 1 .26-.63.47.47 0 0 1 .58.18l.27.08a3.06 3.06 0 0 1 1.79 1.63l.06.12-.03-.06c.11.22.21.45.3.68.08.22.16.45.18.68v.19l.42.22a4.62 4.62 0 0 1 2.17 3.02c.11.56.08 1.13-.03 1.68a9.95 9.95 0 0 1-1.08 3c-.23.45-.48.9-.75 1.33a8.24 8.24 0 0 1-2.2 2.28c-.28.19-.56.38-.86.55a.53.53 0 0 1-.24.06c-.15.02-.31-.07-.4-.22z"/><path d="m71.64 49.59-.16-.2.01.01c-.22-.23-.45-.44-.68-.64-.18-.14-.36-.29-.54-.41l-.27-.18a7.19 7.19 0 0 0-.67-.37c-.26-.12-.53-.25-.8-.36-.29-.12-.59-.23-.88-.33l-.63-.18-.72-.17a13.25 13.25 0 0 0-3.39-.31l-.37.03h.02-.06.01c-.25.02-.49.06-.74.1l-.41.09-.48.14c-.23.08-.46.18-.7.25a.59.59 0 0 1-.53-.08.65.65 0 0 1-.22-.36l.01.04-.06-.14a3.25 3.25 0 0 0-.31-.42l-.22-.21-.22-.17a2.67 2.67 0 0 0-.58-.27l-.35-.09a4.6 4.6 0 0 0-.52-.06l-.39.01-.25.04-.29.08.06-.02a.49.49 0 0 1-.63-.26.49.49 0 0 1 .26-.63l.08-.03a3.9 3.9 0 0 1 2.17 0 3.28 3.28 0 0 1 1.97 1.45l.04.07.39-.14a8 8 0 0 1 .7-.19c.25-.05.5-.11.75-.13l.84-.08h-.06c.54-.04 1.08-.01 1.62.03.52.04 1.03.12 1.54.2 1.01.16 2.02.43 2.96.84.54.24 1.09.48 1.59.8l-.02-.01a8.61 8.61 0 0 1 1.9 1.64.48.48 0 0 1-.38.77c-.15.04-.29-.03-.39-.15z"/><path d="M70.55 48.23a.48.48 0 0 1 .21-.6h-.01.01c.4-.28.77-.6 1.15-.91a11.24 11.24 0 0 1 2.59-1.62l.66-.29c.23-.1.46-.21.7-.29a5.06 5.06 0 0 1 2.07-.33c.58.04 1.16.26 1.67.55l.7.44c.21.14.41.31.61.47.2.16.39.34.58.51a4.3 4.3 0 0 1 .98 1.28c.13.23.05.52-.18.66a.5.5 0 0 1-.66-.17l-.25-.41-.22-.3c-.18-.2-.37-.38-.56-.56-.18-.15-.36-.31-.55-.45l-.65-.46c-.19-.11-.37-.22-.57-.32h.01a7.38 7.38 0 0 0-.42-.17 3.96 3.96 0 0 0-.33-.08l-.31-.04h-.39l-.5.07-.52.14c-.65.24-1.28.53-1.9.83-.33.17-.66.35-.98.55-.41.28-.8.59-1.19.9l-.62.5-.28.22c-.07.05-.15.11-.23.14a.4.4 0 0 1-.18.04.5.5 0 0 1-.44-.3z"/><path d="M79.4 45.47a.48.48 0 0 1-.19-.62l.01-.29a4.7 4.7 0 0 1 .24-1.17c.16-.49.34-.97.58-1.42.27-.5.54-1 .92-1.42a2.57 2.57 0 0 1 1.76-.77v-.01c-.01-.33.09-.65.2-.96.12-.35.31-.67.49-1 .25-.44.54-.87.83-1.29.15-.22.32-.43.5-.62.17-.19.35-.36.53-.54.2-.19.42-.35.64-.52a15.93 15.93 0 0 1 3.39-1.75c.51-.2 1.03-.38 1.55-.55.48-.15.98-.26 1.47-.34a26.9 26.9 0 0 1 1.53-.23c.54-.06 1.07-.12 1.62-.12 1.06.01 2.08.34 3.06.72.62.24 1.24.49 1.81.82.54.31 1.07.67 1.48 1.15.17.2.11.52-.09.67-.22.17-.5.11-.67-.09l-.01-.01-.19-.19-.52-.4a8.28 8.28 0 0 0-.65-.39c-.63-.32-1.29-.58-1.95-.83l-.52-.18-.6-.17-.34-.07-.38-.05-.4-.02-.47.01c-.88.06-1.76.19-2.63.34l-.85.18c-.25.06-.5.14-.75.22l.06-.02c-.93.31-1.84.67-2.73 1.08-.44.22-.86.46-1.27.72l-.46.32a8.66 8.66 0 0 0-.97.88c-.19.23-.37.46-.55.71-.32.48-.63.97-.89 1.48a3.9 3.9 0 0 0-.28.74l-.03.16v.16l.01.06c.03.13.1.28.07.42a.54.54 0 0 1-.32.41c-.12.05-.24.04-.37.03a.88.88 0 0 0-.23 0l-.24.03-.31.07-.23.09-.16.09-.1.07-.16.16-.18.23c-.21.32-.4.65-.58.99-.13.27-.26.54-.36.83-.09.26-.17.53-.23.8-.04.17-.06.35-.09.52l-.01.19v.01c.02.11.03.22-.02.34l-.09.15a.5.5 0 0 1-.42.23.3.3 0 0 1-.26-.04zm22.41 8.42a.5.5 0 0 1-.17-.66l.07-.14.22-.48.05-.17.03-.17.01-.68a4.35 4.35 0 0 0-.16-.93l-.13-.33-.26-.47c-.09-.12-.17-.24-.27-.35l-.17-.18a2.56 2.56 0 0 0-.26-.2l-.3-.19a.52.52 0 0 1-.16-.68c.1-.17.27-.23.43-.31a7.82 7.82 0 0 0 2.17-1.98 10.32 10.32 0 0 0 1.16-2.2 10.87 10.87 0 0 0 .49-2.26 9.61 9.61 0 0 0-.05-1.96v-.01a.47.47 0 0 1-.03-.53c.13-.22.44-.31.66-.17l.13.1c.13.13.18.32.2.5.03.24.06.48.07.71a9.9 9.9 0 0 1-2.41 7.08 8.54 8.54 0 0 1-1.56 1.33 3.6 3.6 0 0 1 .51.54c.07.08.13.18.19.27l.16.27.18.36c.11.25.19.52.25.79.1.45.1.92.09 1.38a3.4 3.4 0 0 1-.51 1.53.47.47 0 0 1-.41.23c-.06.02-.15 0-.22-.04zM66.45 34.65a.5.5 0 0 1-.22-.55l.04-.09c.08-.17.18-.33.28-.49l.38-.6a56.12 56.12 0 0 1 2.71-3.78c.35-.41.73-.79 1.12-1.16l.04-.04a.14.14 0 0 1 .04-.03l-.01.01.12-.1-.01.01.07-.06-.01.01.1-.08-.05.04.02-.02a9.87 9.87 0 0 1 2.17-1.41l-.02.01.02-.01-.01.01.04-.02.12-.06-.03.02.11-.05.1-.05-.01.01.13-.07a9.7 9.7 0 0 1 2.39-.72l.43-.08c.26-.06.52.09.58.35.06.25-.09.53-.35.58l-.67.13a9.2 9.2 0 0 0-1.97.63l-.05.03-.15.07.01-.01-.06.03-.15.07.06-.03-.14.07.02-.01.03-.01.02-.01-.02.01-.46.25-.43.26-.53.37-.28.21c-.08.07-.17.15-.27.21l.02-.02-.02.02-.01.01-.01.01.01-.01-.1.09.05-.04-.12.1.02-.02-.02.02-.03.02.02-.02-.04.03a14.6 14.6 0 0 0-1.79 1.99l-.73 1.01.01-.02-.02.03-.01.02.01-.01-.91 1.36c-.3.45-.6.9-.85 1.37v.01l-.03.06a.48.48 0 0 1-.42.23c-.12-.03-.21-.05-.28-.09z"/><path d="M72.51 32.22a5.13 5.13 0 0 0-.75-.5 7.03 7.03 0 0 0-1.34-.49l-.36-.06a1.04 1.04 0 0 0-.25 0l-.19.02-.13.03-.03.01a.48.48 0 0 1-.62.03.47.47 0 0 1-.11-.63l-.01.01.01-.01.03-.04.01-.01-.01.01-.01.01a.65.65 0 0 1 .08-.09c.07-.07.16-.11.25-.15.2-.09.43-.12.65-.14.54-.04 1.07.11 1.58.28.65.21 1.28.53 1.8.96.2.17.25.46.08.67a.48.48 0 0 1-.39.18.4.4 0 0 1-.29-.09zm-6.85-9.75a.48.48 0 0 1-.08-.67l.01-.01.04-.07a8.38 8.38 0 0 0 .47-1.37l.06-.33c.02-.1.02-.21.03-.32.01-.2.02-.39.01-.58l-.04-.4-.09-.42-.12-.43a7.28 7.28 0 0 0-.31-.77l-.01-.01a.47.47 0 0 1-.01-.5c.13-.22.44-.31.66-.17a.6.6 0 0 1 .23.29 11.4 11.4 0 0 1 .39 1 5.5 5.5 0 0 1 .26 1.4c.01.2 0 .39-.01.59-.02.49-.13.98-.27 1.45-.06.22-.15.43-.23.65-.08.22-.18.44-.32.62a.48.48 0 0 1-.38.18c-.1-.03-.21-.06-.29-.13z"/><path d="M66.89 19.6a.5.5 0 0 1-.51-.43c-.03-.25.16-.51.42-.53h.06l.06-.01.13-.05.19-.11c.15-.1.28-.21.42-.33.35-.32.67-.66.99-1.02.18-.2.5-.17.68 0a.5.5 0 0 1 .14.35.5.5 0 0 1-.14.33c-.3.33-.61.66-.93.96-.24.22-.49.42-.76.59a1.5 1.5 0 0 1-.71.24h-.06l.02.01zm22.54 2.97-.2-.58c-.06-.19-.14-.37-.22-.55-.1-.2-.2-.4-.32-.59l-.23-.31-.33-.34-.27-.21-.42-.25a7.48 7.48 0 0 0-.84-.35c-.72-.24-1.45-.48-2.19-.67l-.33-.07-.35-.05-.36-.02h-.38c-.76.04-1.52.13-2.28.26a7.74 7.74 0 0 0-1.74.53l-.05.03a.47.47 0 0 1-.63.03.5.5 0 0 1-.1-.65c.14-.19.38-.29.6-.38a9.43 9.43 0 0 1 2.26-.59 19.88 19.88 0 0 1 2.35-.19c.27 0 .54.04.81.08l.36.07.4.1.75.22c.48.15.97.3 1.45.48.33.12.66.27.97.45.56.32 1.05.79 1.4 1.33a6.73 6.73 0 0 1 .82 1.87c.09.25-.02.53-.27.62a.5.5 0 0 1-.17.03c-.23 0-.42-.11-.49-.3z"/><path d="M86.81 26.6c-.22-.13-.31-.44-.17-.66.26-.4.51-.82.81-1.19.32-.4.66-.78 1.01-1.15.17-.18.34-.37.53-.54a6.1 6.1 0 0 1 1.3-1.01c.5-.27 1.06-.39 1.63-.43.33-.02.66 0 .99.05.31.04.61.13.91.21.29.08.56.21.82.36l.18.11.1-.15c.27-.37.66-.65 1.06-.85.21-.1.42-.2.64-.27.14-.05.28-.08.43-.12a6.6 6.6 0 0 1 1.51-.19c.45-.01.89.11 1.3.29.34.15.63.38.91.62l.6.53c.2.17.25.46.08.67-.15.2-.48.25-.67.08-.34-.29-.66-.61-1.03-.87l-.18-.11-.33-.14-.22-.06-.28-.04h-.4c-.26.02-.51.06-.76.1-.22.05-.43.1-.64.17l-.36.14-.41.22-.26.19-.12.12-.18.23-.16.25c-.08.13-.16.28-.3.36a.5.5 0 0 1-.55-.05c-.07-.05-.11-.12-.16-.19l-.05-.05-.09-.07a2.54 2.54 0 0 0-.28-.16l-.35-.15-.61-.17-.47-.08-.5-.02a4.75 4.75 0 0 0-.93.15 4.87 4.87 0 0 0-.64.31l-.52.4c-.48.43-.91.9-1.34 1.38l.01-.01c-.28.32-.55.65-.8 1.01l-.41.62a.48.48 0 0 1-.42.23.43.43 0 0 1-.23-.07zm4.16 41.57c-.02-.2-.06-.4-.1-.6a6 6 0 0 0-.15-.57 8.25 8.25 0 0 0-.3-.68 18.34 18.34 0 0 0-2.07-3.03 7 7 0 0 0-.38-.39l-.19-.17-.03-.03c-.49-.4-1.01-.77-1.54-1.13l.05.03c-.29-.19-.58-.38-.89-.55l-.3-.13a.48.48 0 0 1-.47-.48c0-.26.22-.48.48-.48.27 0 .55.14.78.27.3.17.59.35.88.54l.85.59c.28.2.56.4.81.63l-.05-.04.21.19c.39.34.72.74 1.03 1.15a22.65 22.65 0 0 1 1.69 2.62c.11.23.22.45.3.69a8.85 8.85 0 0 1 .33 1.43.48.48 0 0 1-.41.54h-.06a.46.46 0 0 1-.47-.4z"/><path d="M87.68 62.45a.5.5 0 0 1-.1-.3v-.01l.01-.07a.83.83 0 0 1 .06-.21 7.25 7.25 0 0 1 .77-1.25l.36-.43a3.28 3.28 0 0 1 1.59-.93l.53-.13-.06.01c.48-.1.96-.18 1.44-.23.26-.02.5.14.54.41.03.25-.15.52-.41.54-.38.04-.76.09-1.14.17l.06-.01-.31.06.06-.01c-.25.06-.49.12-.73.2l-.27.12-.23.14-.22.18-.3.31-.32.42c-.15.22-.29.45-.42.69l-.05.11-.03.13a.46.46 0 0 1-.44.29.49.49 0 0 1-.39-.2zm-43.71 71.17-.22-.88-.04-.12.02.06a.19.19 0 0 1-.02-.07c-.06-.2-.15-.39-.23-.58l-.29-.55a5.23 5.23 0 0 0-1.02-1.21l-.2-.17a3.03 3.03 0 0 0-.38-.24c-.26-.14-.54-.24-.81-.35l-.85-.34c-.39-.14-.77-.26-1.17-.36a9.42 9.42 0 0 0-1.17-.17c-.27-.02-.54-.03-.81-.02a11.78 11.78 0 0 0-1.55.21l-.03.01-.05.02-.03.02a.48.48 0 0 1-.56-.78c.14-.1.29-.17.45-.21.22-.07.45-.09.68-.12.23-.03.45-.07.68-.09l.81-.03a9.82 9.82 0 0 1 2.93.56c.48.17.94.37 1.41.55a4.36 4.36 0 0 1 1.82 1.32 7.03 7.03 0 0 1 1.3 2.27l-.02-.06.04.13v-.01l.02.08-.02-.06c.1.32.17.64.24.96.06.26-.1.52-.35.58l-.11.01a.47.47 0 0 1-.47-.36z"/><path d="M42.15 129.98a.5.5 0 0 1-.36-.48 3.98 3.98 0 0 1 1.11-2.24 3.75 3.75 0 0 1 2.1-.94 3.32 3.32 0 0 1-.12-.94c.01-.53.21-1.04.47-1.5.19-.32.42-.61.68-.87a4.37 4.37 0 0 1 2-1.07 1.68 1.68 0 0 1 1 .07.5.5 0 0 1 .29.23c.06.11.08.24.04.36-.07.24-.35.42-.59.33a2.02 2.02 0 0 0-.23-.07l-.11-.02h-.03l-.06.01-.36.09-.43.17-.39.22-.34.25-.31.32a3.16 3.16 0 0 0-.42.63l-.14.33-.06.2-.04.26v.22l.03.27c.04.19.09.37.15.55l.15.42c.05.16-.02.34-.13.46a.48.48 0 0 1-.53.1c-.04-.01-.07-.04-.1-.06h-.01l-.07-.01h-.21l-.12.01c-.16.03-.31.08-.46.12l-.43.17c-.09.04-.18.09-.26.15-.07.05-.15.1-.21.16a1.7 1.7 0 0 0-.19.19l-.22.3-.2.35-.2.47-.06.19-.01.06c.03.21-.08.45-.3.52l.06-.03.05-.04a.54.54 0 0 1-.3.1l-.13-.01z"/><path d="M46.33 122.96a4.2 4.2 0 0 1-.12-.48l-.03-.2.01.04a13.92 13.92 0 0 1-.17-3.08c.03-.55.08-1.1.16-1.65.07-.5.14-1 .23-1.49l.24-1.17c.08-.39.16-.78.27-1.17a9.93 9.93 0 0 1 .9-2.3l-.03.06c.24-.48.48-.95.75-1.4.25-.42.56-.83.88-1.2.35-.39.7-.77 1.09-1.12.38-.34.81-.65 1.25-.9.23-.13.47-.22.71-.32l.67-.29c.32-.16.63-.33.96-.47.31-.14.64-.23.97-.32.33-.09.67-.15 1.01-.19.36-.04.72.01 1.07.07.26.04.44.29.4.55a.48.48 0 0 1-.55.4l-.47-.06-.24-.01-.46.05c-.33.07-.66.15-.99.25-.18.06-.36.13-.53.21-.34.16-.66.34-1 .49-.31.15-.64.26-.95.4a6.36 6.36 0 0 0-1.2.84 12.1 12.1 0 0 0-1.64 1.85c-.27.42-.5.85-.72 1.29l.01-.03-.15.3.01-.01-.36.76-.31.78a38.06 38.06 0 0 0-.99 5.21 16.46 16.46 0 0 0 .14 3.6l.08.32.04.1c.06.25-.1.53-.35.58l-.11.01a.43.43 0 0 1-.48-.3z"/><path d="M53.32 106.45a2.5 2.5 0 0 1-.06-.55c-.01-.25.01-.5.03-.75.05-.52.13-1.04.27-1.55a5.1 5.1 0 0 1 .66-1.51c.07-.1.13-.2.21-.29l.3-.35a4.6 4.6 0 0 1 1.8-1.23l.28-.13a3.22 3.22 0 0 1-.02-1.76 6.77 6.77 0 0 1 .52-1.53 36.16 36.16 0 0 1 1.42-2.8c.3-.51.64-1 .97-1.49a.18.18 0 0 1-.04.05l.14-.21-.01.02.03-.04.01-.01.1-.15-.01.01c.58-.86 1.22-1.67 1.89-2.46.66-.78 1.36-1.54 2.11-2.25a33.94 33.94 0 0 1 3.71-2.95 12.28 12.28 0 0 1 4.29-1.85c.47-.13.94-.26 1.42-.36l.82-.15c.26-.04.53-.05.79-.07.27-.02.55.01.82.03.25.02.5.05.74.1.51.09 1.01.22 1.52.33l.16.03c.26.04.44.28.4.55-.04.25-.29.45-.55.4-.41-.07-.82-.18-1.23-.27a13.45 13.45 0 0 0-1.42-.19 1.22 1.22 0 0 0-.27 0h-.13a10.4 10.4 0 0 0-1.11.13c-1.03.2-2.05.49-3.05.8l-.63.23-.65.28c-.22.12-.45.23-.67.36l-.66.4c-1.02.7-2 1.46-2.95 2.25l-.58.52-.59.57c-.38.38-.74.77-1.1 1.17-.41.48-.82.96-1.22 1.46-.38.47-.73.95-1.07 1.45l-.01.02-.01.01-.16.24.04-.05-.16.24c-.32.48-.65.96-.94 1.47-.31.54-.59 1.09-.87 1.64l-.4.84c-.12.26-.22.54-.32.81l-.11.36-.07.31-.06.43-.01.31.04.33.1.42c.02.09.04.18.04.27a.62.62 0 0 1-.16.39c-.1.1-.24.15-.36.21l-.4.18-.1.05c-.23.11-.46.23-.68.36l-.33.25-.49.48-.3.4-.14.24-.11.22c-.05.09-.08.19-.12.28l-.12.39-.11.42-.11.59a5.14 5.14 0 0 0-.05 1.37l.01.06c.05.26-.09.52-.35.58l-.11.01a.51.51 0 0 1-.46-.37z"/><path d="M83.32 86.53a5.4 5.4 0 0 1-1.13-.16 3.76 3.76 0 0 1-1.06-.48 2.87 2.87 0 0 1-.86-.94 1.66 1.66 0 0 1-.24-.73 4.82 4.82 0 0 1-1.2-.41c-.46-.24-.85-.6-1.17-.99l-.44-.58a3.95 3.95 0 0 1-.36-.71c-.19-.45-.38-.9-.54-1.36-.15-.42-.3-.84-.42-1.27-.12-.45-.22-.9-.31-1.36-.09-.46-.2-.92-.27-1.39-.05-.35-.03-.71-.09-1.07l-.04-.16c-.07-.25.11-.52.35-.58.26-.06.51.1.58.35.05.19.08.38.09.57l.03.52c.01.19.04.38.07.56l.28 1.36c.09.46.21.92.35 1.38l.4 1.14c.14.39.31.76.48 1.14l.18.33a9 9 0 0 0 .47.61l.29.3.24.19c.13.09.26.16.4.23.09.04.19.09.29.12l.34.1c.28.05.56.09.82.2.24.1.41.36.32.62a.46.46 0 0 1-.15.23l.03.07.1.19.17.23.16.16.15.12.3.18.28.12c.14.05.28.08.43.12l.38.06h-.06l.51.03c.24-.02.47-.06.71-.1l.06-.01c.26-.05.52.09.58.35.06.24-.09.53-.35.58a5.4 5.4 0 0 1-1.15.14zm3.83-.44a7.97 7.97 0 0 0-.42-1.61c-.1-.22-.21-.44-.33-.65l-.41-.61c-.17-.2-.34-.4-.53-.58l-.42-.35a5.14 5.14 0 0 0-.49-.32c-.19-.1-.38-.2-.58-.28l-.13-.05a.45.45 0 0 1-.25-.07.49.49 0 0 1-.21-.31c-.05-.24.12-.53.38-.57.06-.01.12-.02.18-.01.11.01.22.05.32.09.23.09.45.2.67.31a5.82 5.82 0 0 1 2.18 2.04c.28.43.5.9.66 1.38.15.45.26.92.33 1.39a.5.5 0 0 1-.37.57l-.09.01c-.24 0-.46-.15-.49-.38z"/><path d="M86.09 82.8a.52.52 0 0 1-.29-.37c-.06-.26.12-.51.37-.57.11-.02.22 0 .31.04l.44-.05-.06.01c.15-.02.3-.05.44-.09l.21-.06a5.46 5.46 0 0 0 .71-.31 3.28 3.28 0 0 0 .56-.44l.29-.34c.09-.13.19-.27.27-.41l.1-.17.32-.62c.1-.21.22-.41.36-.59.12-.16.3-.3.51-.31.18-.01.33.07.45.2l.2.22.15.12.16.11.11.05.12.04a1.21 1.21 0 0 0 .27.02c.17 0 .34-.02.51-.04.2-.04.4-.07.59-.12h-.01l.1-.03h-.01l.13-.04-.02.01.02-.01h.02l-.02.01.02-.01.56-.2c.5-.22.98-.47 1.46-.73.46-.25.92-.49 1.36-.76l.51-.33.46-.34c.38-.31.75-.63 1.11-.97l1.07-1.07.32-.33-.03.03.04-.04c.28-.3.56-.61.81-.94.25-.34.51-.68.71-1.05a.22.22 0 0 1-.03.05l.21-.38a19.51 19.51 0 0 0 1.47-4.07l-.02.06c.15-.59.31-1.19.39-1.8v.03l.01-.05v-.01.01l.01-.04.03-.35a.49.49 0 0 1 .51-.45c.26.02.47.25.45.51l-.04.43c-.07.52-.19 1.03-.31 1.54s-.27 1.01-.43 1.51c-.15.47-.32.93-.48 1.4-.18.48-.35.97-.58 1.43l-.17.34a.22.22 0 0 1 .03-.05l-.24.43c-.07.13-.16.25-.24.38-.16.26-.36.51-.54.76-.36.48-.77.91-1.19 1.34l.03-.03-1.07 1.08c-.38.37-.78.71-1.19 1.05-.8.66-1.74 1.13-2.65 1.62-.65.35-1.32.71-2.03.91h.01l-.05.01.02-.01-.04.01-.1.03h.02l-.16.05-.61.13c-.34.06-.71.1-1.05.04a2.11 2.11 0 0 1-1.05-.51l-.43.82c-.24.43-.51.85-.88 1.19a3.88 3.88 0 0 1-1.64.92l.06-.02c-.35.1-.71.18-1.07.22l-.33.03a.9.9 0 0 1-.34-.08z"/><path d="M103.78 68.71c-.23-.24-.13-.69.2-.79.1-.03.21-.03.31 0h.07l.04-.01h-.02l.1-.02.19-.07.08-.04.16-.11.17-.16.2-.24.11-.17.18-.37c.09-.23.17-.47.24-.71l.22-.89a.5.5 0 0 1 .56-.38c.25.05.44.31.38.56a21.6 21.6 0 0 1-.45 1.63l-.18.42-.14.26c-.08.15-.19.28-.29.41-.21.25-.46.46-.75.62a1.9 1.9 0 0 1-.7.21 1.5 1.5 0 0 1-.21.02.62.62 0 0 1-.47-.17zm.3-8.3a.48.48 0 0 1-.23-.64 11.79 11.79 0 0 0 .39-.98c.05-.2.09-.39.12-.59.02-.21.04-.41.04-.62l-.03-.34a6.4 6.4 0 0 0-.16-.76c-.07-.25-.15-.5-.2-.75-.06-.26.12-.51.37-.57a.5.5 0 0 1 .57.37l.06.24c.09.31.19.63.25.95.08.39.12.78.09 1.18-.03.39-.09.79-.21 1.17a8.7 8.7 0 0 1-.44 1.1.49.49 0 0 1-.44.27c-.05.02-.12 0-.18-.03zm-23.09 42.6c-.19-.02-.39-.04-.58-.08a4.36 4.36 0 0 1-1.16-.42l.03.02a11.38 11.38 0 0 1-2.4-1.58 6.95 6.95 0 0 1-1.05-1.05c-.3-.38-.58-.77-.86-1.17l-.84-1.2c-.29-.41-.63-.82-.74-1.32l-.03-.17a.48.48 0 0 1 .41-.54c.25-.03.51.15.54.41l.01.1.01.05.06.15.14.24.53.75.56.81c.37.52.73 1.05 1.15 1.54l.4.41c.4.35.82.68 1.25.98.4.26.82.5 1.24.72l-.06-.03.07.03-.02-.01a6.01 6.01 0 0 0 .88.33c.24.04.47.07.72.09h.19l.2-.03-.06.01.15-.03.06-.03.18-.1a3.13 3.13 0 0 0 .37-.33l.11-.15.05-.08.02-.04c.02-.06.04-.12.09-.17.16-.19.47-.26.67-.09.1.08.15.17.18.29v-.01l.01.02.01.01v.01l.03.03.01.01.02.01.02.01.03.01h.03l.04-.01.1-.04.13-.08-.02.02.03-.02.02-.01-.01.01.1-.07-.05.03.2-.17c.16-.15.32-.31.47-.48l.62-.74.69-.81c.41-.49.83-.99 1.19-1.52l.11-.17a.49.49 0 0 1 .66-.17c.22.13.31.43.17.66a30.57 30.57 0 0 1-1.66 2.13l-.9 1.06c-.32.38-.66.76-1.08 1.04l-.16.1c-.12.07-.24.12-.37.16-.29.1-.61.05-.87-.1l-.11.11a3.2 3.2 0 0 1-.51.4c-.12.08-.26.15-.4.19-.14.04-.29.07-.44.08l-.21.01c-.09.01-.23-.01-.37-.02z"/><path d="M85.94 99.58c0-.26.22-.48.48-.48l.92-.02c.34-.03.67-.08 1-.14l.46-.12-.03.01.1-.04h.01l.03-.01h-.01l.06-.02.38-.16.22-.13c.16-.11.32-.23.47-.36.47-.43.9-.89 1.34-1.35.18-.19.5-.18.68 0 .19.19.18.49 0 .68-.38.4-.76.82-1.17 1.2-.2.18-.4.36-.62.51a3.15 3.15 0 0 1-1.01.52h.01l-.1.04h.01l-.02.01-.04.01.01-.01c-.87.3-1.8.35-2.72.35a.5.5 0 0 1-.46-.49zm-12.81 11.34a.49.49 0 0 1-.48-.48c0-.25.22-.49.48-.48.5.03.99.01 1.49-.01.53-.04 1.05-.12 1.57-.19.54-.07 1.08-.12 1.61-.21l.44-.12.33-.14.04-.02.08-.04a9.41 9.41 0 0 0 1.42-.93c.22-.2.43-.42.64-.64l-.01.02a6.25 6.25 0 0 0 .59-.82 5.9 5.9 0 0 0 .48-1.46l.06-.45c.01-.23 0-.45-.01-.68-.03-.4-.08-.8-.15-1.19l-.05-.2-.05-.14a1.22 1.22 0 0 1-.07-.38c0-.26.22-.48.48-.48s.48.22.48.48v.03c.06.17.12.34.15.51.05.24.08.49.11.74.06.5.1 1.02.05 1.52a6.58 6.58 0 0 1-.69 2.26c-.13.24-.29.45-.45.66a8.37 8.37 0 0 1-1.17 1.16 10.6 10.6 0 0 1-1.41.88l.01-.01-.1.05a4.7 4.7 0 0 1-1.43.41l-1.49.18c-.48.06-.96.14-1.45.17-.32.02-.63.03-.95.03l-.55-.03z"/><path d="M68.91 127.22a.49.49 0 0 1 .17-.66l.24-.15-.03.02a11.34 11.34 0 0 0 2.2-1.9 23.9 23.9 0 0 0 1.51-1.97l-.01.02.01-.02.02-.03-.02.03.31-.49a20.52 20.52 0 0 0 .47-.95l.21-.54c.08-.25.15-.51.21-.77l.09-.72a5.3 5.3 0 0 0-.01-.69v.06a5.8 5.8 0 0 0-.27-1.62 3.7 3.7 0 0 0-.32-.61 1.92 1.92 0 0 0-.13-.17c-.12-.13-.25-.24-.38-.36l-.42-.31c-.18-.11-.36-.21-.53-.34-.16-.12-.31-.32-.27-.53a.6.6 0 0 1 .11-.26c.04-.06.1-.1.16-.14.34-.24.71-.43 1.06-.66l.35-.26a2.03 2.03 0 0 0 .44-.58l.1-.24.07-.25.03-.23v-.3c-.01-.15-.04-.29-.06-.43l-.03-.11-.03-.08a.49.49 0 0 1-.09-.35.48.48 0 0 1 .54-.41c.4.04.52.56.58.88.05.28.08.58.06.86a2.8 2.8 0 0 1-.46 1.37c-.3.45-.73.78-1.18 1.06l-.32.2.15.1c.2.14.39.29.57.46.13.13.26.25.37.4.13.16.23.35.33.53.17.32.27.67.35 1.02.06.25.09.5.12.76.02.26.05.52.05.77 0 .54-.04 1.07-.17 1.59-.13.51-.29 1-.51 1.48l-.37.74a16.84 16.84 0 0 1-2.36 3.11c-.67.7-1.46 1.31-2.28 1.84a.39.39 0 0 1-.23.07.48.48 0 0 1-.4-.24z"/><path d="M75.32 145.71c-.25-.1-.35-.38-.26-.63l.04-.1a9.22 9.22 0 0 0 .48-2.45v.01c.04-.77.02-1.55-.02-2.33v.07c-.03-.29-.07-.57-.12-.85l-.16-.57a7.8 7.8 0 0 0-.27-.67l-.11-.19-.05-.06a2.5 2.5 0 0 0-.6-.49l-.12-.05-.15-.04-.09-.01h-.4c-.19-.01-.36-.16-.44-.33-.07-.16-.04-.32 0-.48l.07-.28.08-.52a10.47 10.47 0 0 0-.2-2.25c-.1-.48-.22-.95-.34-1.42-.13-.51-.27-1.01-.44-1.51a19.54 19.54 0 0 0-1.11-2.5c-.07-.13-.16-.25-.24-.38l-.29-.38-.26-.27a.55.55 0 0 0-.08-.06.48.48 0 0 1-.34-.46c0-.26.22-.48.48-.48.11 0 .21.03.31.09.16.09.31.22.43.36a7.27 7.27 0 0 1 1.27 1.98 18.5 18.5 0 0 1 1.4 4.2 11.16 11.16 0 0 1 .36 2.83c0 .24-.02.47-.06.7l-.04.21c.27.03.53.14.76.27.16.09.31.21.44.33.12.1.23.21.33.33a5.88 5.88 0 0 1 .74 1.7c.12.49.18 1 .21 1.51.02.51.04 1.03.03 1.54-.03 1.15-.22 2.3-.62 3.38a.48.48 0 0 1-.45.29.38.38 0 0 1-.17-.04z"/><path d="M87.15 161.05c-.23-.1-.37-.39-.26-.63a7.74 7.74 0 0 0 .52-1.6l-.01.06.04-.21v.01c.04-.25.08-.5.1-.76.05-.97-.01-1.94-.06-2.91a22.12 22.12 0 0 0-.2-1.67 23.8 23.8 0 0 0-.22-.8l-.22-.59a7.26 7.26 0 0 0-.74-1.38l-.14-.21v-.01l.01.02a8.95 8.95 0 0 0-.54-.68 28.15 28.15 0 0 0-2.1-2.13l-.49-.38-.33-.19.06.03c-.17-.09-.35-.16-.53-.23-.4-.13-.8-.24-1.21-.34-.21-.04-.43-.06-.64-.08h-.14a6.62 6.62 0 0 0-.65.12l-.14.06a.75.75 0 0 0-.12.07l-.18.14-.03.03-.18.23c-.06.1-.12.21-.21.29a.5.5 0 0 1-.7-.01c-.09-.09-.13-.21-.18-.32a2.4 2.4 0 0 0-.15-.33l-.11-.2-.05-.07-.05-.05-.08-.06a2.54 2.54 0 0 0-.45-.23c-.17-.05-.33-.1-.5-.13l-.45-.07h-.15.07l-.09.01-.03.01-.16.07a10.1 10.1 0 0 0-1.12.7 6.64 6.64 0 0 0-.96 1.15l-.27.45-.02.04v.01a.48.48 0 0 1-.41.54.46.46 0 0 1-.48-.24l-.05-.13a.82.82 0 0 1 .03-.49c.1-.24.24-.46.38-.68.14-.22.3-.42.46-.63a5.37 5.37 0 0 1 1.11-1.06c.18-.12.38-.23.57-.34.22-.13.45-.25.69-.32.16-.05.36-.04.53-.03l.36.05c.2.04.4.08.6.14l.33.11a2.6 2.6 0 0 1 .77.48c.13.11.22.26.3.4l.1-.09c.16-.14.34-.24.52-.33.23-.11.49-.15.74-.19a3.42 3.42 0 0 1 1 0c.26.03.52.09.78.15.5.13 1.01.27 1.47.51.47.24.89.56 1.28.92.46.43.91.89 1.34 1.35.44.46.89.93 1.25 1.46l-.03-.05.16.24-.01-.01a9.42 9.42 0 0 1 1.5 4.24c.05.52.08 1.05.1 1.57.04 1.02.1 2.05-.11 3.05l.01-.06c-.07.32-.13.65-.24.97-.11.34-.22.68-.37 1.01a.5.5 0 0 1-.45.29l-.17-.06z"/><path d="M95.08 161.37a2.66 2.66 0 0 1-2.03-1.02l.01.01-.02-.02-.02-.02.01.01a3.31 3.31 0 0 1-.7-1.67 3 3 0 0 1-.32.08c-.16.03-.32.06-.49.06-.17 0-.34 0-.51-.02a4.5 4.5 0 0 1-.72-.12 2.7 2.7 0 0 1-.9-.4c-.22-.15-.43-.3-.63-.47-.2-.17-.38-.36-.54-.56l-.19-.24a1.48 1.48 0 0 1-.23-.38c-.02-.05-.02-.1-.02-.15 0-.26.22-.48.48-.48.21 0 .4.15.46.34l.33.42.33.34c.14.12.28.23.43.33.13.08.25.16.39.23l.14.06.23.06c.21.04.43.07.64.09h.29l.34-.05.31-.09.3-.13.26-.14a.51.51 0 0 1 .59.01c.14.1.21.28.18.44a.72.72 0 0 1-.13.28v-.01l.02-.02-.01.02.01-.02-.04.07-.01.03-.02.08-.02.1v.2l.02.14.07.27.08.18.23.39.09.12-.04-.05.09.1-.04-.05.08.09.15.15.23.18a.4.4 0 0 0 .09.05l.27.11.19.05c.18.03.35.05.53.06l.42-.01.46-.06c.19-.04.37-.09.56-.15.25-.09.52.09.59.34.03.12.02.26-.05.37a.53.53 0 0 1-.29.22 5.4 5.4 0 0 1-1.54.26h-.05c-.1.02-.22 0-.34-.01zm-52.32-9.08.02-.42.06-.6c.06-.43.15-.85.31-1.25.22-.54.62-1.01 1.1-1.35.36-.25.75-.46 1.14-.65l-.02.01.04-.02.45-.22a1.96 1.96 0 0 1-.08-1.15c.12-.62.42-1.18.7-1.74.19-.37.41-.73.62-1.08.21-.34.42-.69.64-1.02l-.02.02c.16-.23.31-.46.48-.68.17-.23.37-.44.56-.65.17-.18.35-.35.53-.51l.63-.54c.38-.33.78-.65 1.19-.94.44-.32.89-.61 1.41-.79.23-.08.47-.17.71-.22a11.37 11.37 0 0 1 1.67-.27l.89-.05.87-.05c.26-.01.48.23.48.48 0 .27-.22.47-.48.48l-1.65.09h.01c-.41.03-.82.09-1.22.17l-.51.13-.47.15-.4.17-.48.28c-.63.45-1.22.94-1.81 1.44l-.48.44a7 7 0 0 0-.46.48c-.15.19-.31.38-.44.58l-.24.36.03-.05c-.51.78-1 1.58-1.42 2.41a10.75 10.75 0 0 0-.4 1.06c-.02.08-.03.17-.03.25v.12l.02.14.02.08.02.04v.01l.03.03c.05.01.09.03.14.06.17.1.26.29.24.48-.03.22-.2.35-.39.43-.31.14-.62.27-.92.42l-.02.01-.04.02.01-.01-.09.05h.01c-.28.14-.56.29-.83.46l-.28.21-.26.26-.09.12a3.65 3.65 0 0 0-.32.66l-.09.34c-.07.37-.11.74-.14 1.12l-.01.22c0 .26-.22.48-.48.48s-.46-.24-.46-.5z"/><path d="M65.93 149.71a5.62 5.62 0 0 1-2.69-1.67 7.8 7.8 0 0 1-1.15-2.02 4.4 4.4 0 0 1-.21-.94 2.88 2.88 0 0 1 .24-1.44l.05-.1-.13-.03-.73-.18a7.16 7.16 0 0 1-2.76-1.43c-.4-.36-.77-.74-1.07-1.18a5.01 5.01 0 0 1-.78-2.87c.04-1.01.22-2.01.49-2.98a5.38 5.38 0 0 1 1.1-1.98c.1-.11.2-.22.31-.31l-.2-.31-.37-.59a7.19 7.19 0 0 1-1.17-2.91c-.08-.49-.12-1-.14-1.5a25.68 25.68 0 0 1 .07-3.1 13.64 13.64 0 0 1 1.05-3.78c.12-.25.29-.58.6-.61.26-.03.5.15.54.41a.49.49 0 0 1-.2.45l-.05.09a16.97 16.97 0 0 0-.87 2.69c-.08.4-.13.8-.17 1.21-.06 1-.06 2.01 0 3.01v-.01c.03.41.08.81.14 1.21.07.3.15.59.24.88l.23.52a22.17 22.17 0 0 0 1.09 1.8c.07.12.15.23.21.35a.6.6 0 0 1-.09.64c-.08.09-.17.16-.26.24l-.18.19-.31.39c-.16.24-.3.48-.43.74l-.15.33a13.44 13.44 0 0 0-.5 2.64v-.06c-.02.27-.03.54-.02.81l.07.51c.04.18.1.36.16.54l.18.45.2.36a5.44 5.44 0 0 0 1.91 1.69l-.06-.03.54.26c.15.07.31.13.47.18.51.16 1.02.28 1.54.4.13.03.26.05.38.12.2.11.3.34.26.57a.95.95 0 0 1-.15.36 4.75 4.75 0 0 0-.27.54l-.03.12v-.02l-.02.1.01-.03-.03.23v.26l.05.35a3.8 3.8 0 0 0 .25.75l.12.27.24.43.26.4a6.09 6.09 0 0 0 .62.71l.36.27.58.34c.22.11.45.2.68.29l.2.07c.25.08.41.33.34.59a.5.5 0 0 1-.46.35 2.63 2.63 0 0 0-.13-.03zm-7.28 17.03a5.32 5.32 0 0 1-.55-1.84 2.2 2.2 0 0 1 .13-.8c.13-.38.4-.67.68-.94a4.43 4.43 0 0 1 1.72-.98l-.51-.49-1.09-1.08a39.4 39.4 0 0 1-1.09-1.14 14.52 14.52 0 0 1-.91-1.19 16.25 16.25 0 0 1-1.47-2.54c-.41-.86-.7-1.76-1.03-2.65l.01.02-.12-.33.01.04c-.12-.31-.23-.61-.33-.92-.06-.17-.1-.35-.12-.52a.89.89 0 0 1 .07-.51.8.8 0 0 1 .27-.28l-.04.03.06-.04.01-.01h-.01a.49.49 0 0 1 .65.01c.19.18.2.49.01.68l-.07.06.02.1c.06.24.15.48.24.72v-.01.01l.02.05-.01-.02.21.56v-.01l.5 1.37.37.92.44.94c.17.31.33.62.52.92l.61.92a16.44 16.44 0 0 0 2.45 2.72c.47.46.93.94 1.43 1.36l-.03-.03c.16.13.35.29.34.52a.5.5 0 0 1-.15.38.7.7 0 0 1-.38.2l-.43.1-.44.14-.28.12a4.57 4.57 0 0 0-.78.54c-.08.08-.17.16-.24.25l-.1.14-.06.1a1.34 1.34 0 0 0-.09.28l-.02.16.01.2.03.2c.05.2.1.39.17.58.08.2.16.41.26.6.12.23-.01.53-.24.63a.43.43 0 0 1-.19.04.52.52 0 0 1-.46-.28z"/><path d="m69.69 172.44-.42-.03a6.18 6.18 0 0 1-1.57-.42 6.66 6.66 0 0 1-2.4-1.88c-.1-.11-.18-.23-.27-.35-.15-.2-.26-.41-.38-.63a3.71 3.71 0 0 1-.37-1.79l.03-.25c-.25.01-.49-.03-.74-.07a5.7 5.7 0 0 1-1.46-.49 4.63 4.63 0 0 1-2.25-2.07c-.1-.17-.19-.35-.27-.53-.11-.24-.23-.51-.18-.78.05-.26.34-.43.59-.38.14.02.25.08.35.17.15.14.19.37.1.55l.13.28a5.43 5.43 0 0 0 .79 1.1l.24.24.26.19a12.9 12.9 0 0 0 1.35.63l.53.14c.16.03.31.05.47.06h.19l.1-.02.27-.08c.21-.03.42.04.54.23.1.17.08.36.04.54a3.66 3.66 0 0 0-.11.68l.01.26.04.28.11.41.19.42.15.25a10.2 10.2 0 0 0 1.28 1.36l.41.29.39.22c.24.11.48.2.73.29l.52.13c.21.04.42.06.63.07h.21l.33-.05.17-.05a2.63 2.63 0 0 0 .46-.22.49.49 0 0 1 .66.16c.14.22.06.52-.16.66-.27.17-.58.3-.9.37-.24.05-.47.09-.71.09-.03.02-.06.02-.08.02zm16.82 11.76a5.78 5.78 0 0 1-1.93-.68 4.17 4.17 0 0 1-1.52-1.43c-.11-.18-.22-.36-.29-.55l-.11-.29-.05.03c-.17.1-.34.17-.53.23-.18.07-.39.1-.58.13l-.58.07-.14.01.06-.01a3.82 3.82 0 0 1-1.97-.35l-.12-.06.06.03-.09-.05a7.26 7.26 0 0 1-1.87-1.35l-.58-.55c-.71-.71-1.52-1.45-1.7-2.49l-.01-.08a.48.48 0 0 1 .4-.55c.26-.04.51.14.55.4l.03.13.05.17.12.28.18.3a22.48 22.48 0 0 0 2.07 2.08c.25.19.5.37.76.54l.42.24.02.01.12.06-.06-.03.15.07-.06-.03.32.13a4.9 4.9 0 0 0 .78.13h.36l-.06.01.09-.01h-.02l.23-.02-.06.01.69-.1.25-.07.21-.09.29-.19c.14-.1.3-.17.47-.17.29.01.48.2.59.46l.16.46.13.3.19.32.34.43.23.23c.12.09.23.18.36.26l.5.28c.21.09.42.19.64.26a4.05 4.05 0 0 0 .99.18l.26-.01c.11-.01.21-.03.31-.06l.13-.04.12-.06.04-.02.01-.01.09-.09c.17-.2.5-.19.68-.02.09.09.14.21.15.34 0 .13-.05.24-.13.34-.13.16-.29.27-.47.36-.16.08-.34.12-.52.16-.19.04-.38.06-.58.06h-.03c-.19.01-.36-.02-.54-.04zm-.82-12.74a3.97 3.97 0 0 1-.48-.07l-.42-.09-.41-.12-.42-.14a20.3 20.3 0 0 1-2.13-1.02 8.17 8.17 0 0 1-.62-.4 8.14 8.14 0 0 1-1.05-.87l-.4-.44c-.13-.15-.25-.33-.37-.49a4.3 4.3 0 0 1-.54-1.07 8.06 8.06 0 0 1-.41-1.79l-.2.05a3.4 3.4 0 0 1-.78.04 4.5 4.5 0 0 1-2.87-1.28 15.86 15.86 0 0 1-1.1-1.19 15.5 15.5 0 0 1-1.61-2.4 3.38 3.38 0 0 1-.42-1.28.5.5 0 0 1 .4-.55c.25-.04.51.14.55.4l.05.31.07.24.19.42c.26.49.56.95.88 1.41l-.02-.03.03.04c.34.47.69.92 1.07 1.36.22.23.44.46.69.67a3.9 3.9 0 0 0 1.31.74l.43.11c.15.03.3.04.46.05l.37-.01.14-.03.11-.03.13-.06c.07-.04.15-.09.23-.11a.62.62 0 0 1 .51.08c.25.18.28.52.32.81.06.38.12.75.2 1.13l.2.65.19.41a7.4 7.4 0 0 0 .52.77l.24.27.28.28.27.23c.21.17.43.32.65.48l.69.41c.24.14.5.26.75.38l.62.27.62.23c.25.07.5.14.75.19.16.03.31.05.47.06h.34l.31-.05.23-.07.26-.12.19-.11.1-.08.08-.09.07-.09a.48.48 0 0 1 .77.57c-.09.12-.19.23-.3.33a2.8 2.8 0 0 1-1.2.58c-.24.05-.48.08-.72.08a.48.48 0 0 1-.27.03zm19.78 4.23c-.25-.12-.5-.24-.74-.38a3.8 3.8 0 0 1-1.26-1.06c-.16-.24-.3-.49-.39-.76-.06-.17-.1-.34-.14-.51a10.84 10.84 0 0 1-.19-2.37c.03-.55.08-1.1.25-1.63l-.16-.05c-.2-.07-.4-.15-.58-.27a2.8 2.8 0 0 1-.61-.58 3.47 3.47 0 0 1-.65-1.39 1.69 1.69 0 0 1-.04-.67.96.96 0 0 1 .15-.44.48.48 0 0 1 .67-.1.5.5 0 0 1 .14.62l-.01.05v.16l.03.17.02.09-.01-.06.1.33.12.27a5.8 5.8 0 0 0 .37.55l.12.12.14.1.12.06.29.11.13.03.08.01h.06l.03-.01.03-.01c.1-.04.2-.09.32-.07.15.03.27.09.35.23a.5.5 0 0 1 .04.43.86.86 0 0 1-.15.22.14.14 0 0 0-.03.04l-.03.06-.1.26-.11.44-.07.48-.04.57v-.06a7.5 7.5 0 0 0 .16 2.07l.13.46.12.28.15.25.11.14c.06.06.12.13.19.18l.36.27-.05-.03a10.41 10.41 0 0 0 .94.52c.24.11.37.37.27.62a.5.5 0 0 1-.45.31 1.2 1.2 0 0 1-.18-.05zm-18.7-54.89c-.29-.04-.56-.15-.84-.24-.53-.18-1.06-.36-1.59-.52-.38-.11-.76-.19-1.14-.28a.49.49 0 0 1-.36-.58.49.49 0 0 1 .58-.36l.79.18.87.27.8.26.79.27.23.05.28.03.54-.01c.61-.06 1.21-.17 1.82-.24l.93-.12.89-.17.57-.17a8 8 0 0 0 .42-.2c.17-.1.35-.2.51-.31a.48.48 0 0 1 .66.15c.14.23.07.52-.15.66-.43.29-.89.54-1.39.69-.48.15-.99.24-1.49.31-.48.08-.96.12-1.44.18-.49.07-.97.15-1.47.18l-.23.01c-.17.01-.37-.01-.58-.04z"/><path d="M90.96 138.38a3.53 3.53 0 0 1-1.59-.8l-.3-.26-.3-.3c-.19-.19-.35-.4-.51-.61a6.98 6.98 0 0 1-.82-1.36c-.12-.24-.22-.49-.32-.74a10 10 0 0 1-.27-.77 8.65 8.65 0 0 1-.45-2.72 4.39 4.39 0 0 1 .73-2.42l.34-.51-.23-.34a5.98 5.98 0 0 1-.93-4.37c.12-.51.3-1.01.53-1.48.19-.39.4-.77.63-1.14.18-.28.36-.57.6-.81a.69.69 0 0 1 .27-.17c.25-.08.52.08.6.32a.47.47 0 0 1-.2.53l-.07.08a4.6 4.6 0 0 0-.4.58l-.3.51-.28.56a6.57 6.57 0 0 0-.53 1.93l.02.62a5.43 5.43 0 0 0 .24 1.07c.1.26.21.5.33.75l.31.51.29.44c.06.11.11.21.13.33.04.21-.07.4-.18.57l-.37.54-.22.39-.2.51-.1.42a7.58 7.58 0 0 0-.05 1.02l.03.37-.01-.06.12.75.23.83c.08.27.18.53.28.8a11.84 11.84 0 0 0 .48 1.03l.2.34.23.35.25.32c.08.11.18.21.28.32l.27.27a3.47 3.47 0 0 0 .67.52l.29.16.24.09.38.09.31.04h.17a.48.48 0 0 1 .02.96h-.07c-.27.03-.52-.01-.77-.06zm11.86-20.06a.48.48 0 0 1-.17-.66c.24-.39.47-.79.69-1.19l.26-.59.1-.29.09-.36.06-.33.04-.37.02-.36c.01-.13-.01-.26-.01-.39a15.37 15.37 0 0 0-.24-1.78c-.06-.23-.11-.47-.19-.69l-.16-.4a3.8 3.8 0 0 0-.38-.58l-.17-.17-.19-.15-.18-.11-.14-.06-.08-.02-.14-.02h-.08l-.05.01-.13.03-.18.08c-.19.07-.41.05-.55-.11a.58.58 0 0 1-.15-.37l-.05-.31.01.06a7.5 7.5 0 0 0-.17-.68 8.37 8.37 0 0 0-.29-.69c-.14-.25-.28-.5-.44-.74a3.97 3.97 0 0 0-1.02-1.12l-.22-.13-.28-.12c-.3-.1-.61-.16-.92-.22l.06.01-.83-.17a8.7 8.7 0 0 0-.89-.15h-.17a2.87 2.87 0 0 0-.64.13l-.13.05a.47.47 0 0 1-.1.05.49.49 0 0 1-.66-.17.49.49 0 0 1 .17-.66 3.03 3.03 0 0 1 1.5-.36c.3.01.59.07.88.13l.75.15.81.17c.16.04.33.08.48.14.31.11.59.26.85.45.35.25.64.59.9.93a8.44 8.44 0 0 1 1.07 1.95c.08.22.14.45.19.68l.01.03h.03c.16-.03.32-.01.48.01.58.08 1.08.48 1.45.91.56.64.78 1.48.94 2.29.1.51.17 1.03.2 1.56.04.51.02 1.03-.07 1.54-.05.26-.1.52-.19.77-.09.26-.18.52-.3.77-.24.5-.53.97-.81 1.44a.5.5 0 0 1-.42.24.54.54 0 0 1-.25-.06zm5.14 40.52c-.27-.02-.45-.26-.44-.52l.06-2.03.03-1.07.06-.87-.02-.93c-.01-.36 0-.71.02-1.07l.07-2.18v-2.12c-.01-.6-.04-1.2-.03-1.8v.02c.02-1.28.18-2.56.21-3.84v-1.46l-.02-1.45c0-.53 0-1.05.03-1.58l.09-1.55.06-1.56c.01-.75-.01-1.5-.03-2.25-.03-.81-.07-1.63-.05-2.44v.02c.01-.38.04-.76.07-1.14l.05-.59c.01-.14 0-.31.07-.43.13-.22.41-.33.65-.2.19.1.3.33.25.54-.06.62-.11 1.25-.13 1.87v.17-.01c-.01.47.01.95.03 1.42l.04 1.46.02 1.46c-.01.52-.02 1.04-.05 1.55-.05.87-.11 1.74-.14 2.62v-.07c-.01 1.01.03 2.02.03 3.03 0 .51-.01 1.02-.04 1.53l-.1 1.49c-.03.47-.06.95-.07 1.42v-.07.13-.01c0 .57.03 1.14.03 1.7v2.08l-.03 1.46c-.02.47-.05.94-.06 1.42v-.06c-.01.44.03.87.02 1.31 0 .42-.06.84-.07 1.26l-.08 2.89c-.01.25-.24.44-.48.44l-.05.01z"/><path d="M117.53 153.85c0-.18-.01-.35-.03-.53l-.04-.22-.02-.06a.14.14 0 0 0-.04-.03l-.05-.03-.02-.01-.09-.03-.27-.06a10 10 0 0 0-1.1-.07h.03-.07c-.44-.01-.87 0-1.31-.06-.43-.06-.85-.15-1.27-.22-.25-.04-.51-.06-.76-.08a15.5 15.5 0 0 1-.68-.04l-.76-.1a4.73 4.73 0 0 0-1.39-.02c-.3.04-.59.11-.9.13-.25.02-.56 0-.74-.2a.49.49 0 0 1 .06-.68.49.49 0 0 1 .46-.09h.02l.08.01.17-.01.69-.1c.26-.04.51-.05.77-.05.49 0 .97.08 1.45.14.42.05.85.05 1.27.09.45.04.89.14 1.33.22l.16.03c.26.04.53.06.79.07h-.01l1.25.03c.3.02.6.04.89.11.26.06.49.18.68.36.21.19.29.47.33.74.03.23.05.47.05.7 0 .26-.19.49-.45.5h-.02c-.22.01-.45-.19-.46-.44zm6.17 17.63-1.2-.03-1.17-.02a.48.48 0 0 1-.02-.96c.47-.01.94.01 1.4.02l1.5.05c1.01.03 2.02.02 3.03-.06.82-.06 1.64-.14 2.46-.19a17.74 17.74 0 0 1 2.59-.01h-.06l.26.01h-.06a42.15 42.15 0 0 0 3.35-.03.48.48 0 0 1 .02.96c-1.18.07-2.37.07-3.55.03h.02l-.2-.01h.02c-.49-.02-.99-.03-1.48-.02-.5.01-.99.05-1.49.09l-1.53.12c-.49.04-.97.08-1.46.09l-.73.01-1.7-.05z"/><path d="M130.65 170.68a.48.48 0 0 1 0-.49c.01-.44-.01-.87.05-1.31.06-.39.15-.78.23-1.16.09-.43.21-.87.47-1.23.13-.18.32-.33.51-.45.26-.17.56-.24.86-.29l.29-.03c.26-.02.48.22.49.47.01.27-.21.47-.47.49l-.09.01-.23.03-.2.06-.11.05.06-.03-.1.06-.16.12-.05.05-.05.06-.06.12-.11.29c-.07.24-.11.48-.16.72l-.13.63c-.03.19-.05.37-.06.56-.01.29.01.57-.01.86-.01.23-.09.46-.3.58a.54.54 0 0 1-.25.06.48.48 0 0 1-.42-.23zm15.52-14.48c-.29-.02-.59-.05-.88-.05-.28 0-.56.03-.84.05a4.16 4.16 0 0 1-1.26-.14c-.17-.06-.3-.17-.42-.3a1.69 1.69 0 0 1-.37-.88c-.03-.22-.04-.45-.03-.67a.48.48 0 0 1 .51-.45c.27.02.46.25.45.51v.14l.02.33v.01-.01l.03.16.03.08a.3.3 0 0 0 .04.08l.04.06.04.05h.01l.36.06.35.02c.39-.01.77-.07 1.16-.06.4.01.8.06 1.2.06a4.05 4.05 0 0 0 1.09-.16l-.02.01.03-.01.03-.01-.03.01.5-.16a.47.47 0 0 0 .1-.05l.1-.07.14-.12.16-.18.12-.17.12-.24.06-.18.03-.16c.03-.29.04-.59.06-.88.03-.35.06-.71.11-1.06v.02l.02-.16-.01.04.03-.2-.01.06.08-.59-.01.06.03-.23-.01.06.01-.11-.01.06c.06-.52.11-1.04.13-1.56.02-.47 0-.95.01-1.42.01-1 .14-2 .22-3 .08-1 .1-2.01.16-3.01l.2-3.05.17-2.21.05-1.09.02-1.04v-.01c0-.48-.03-.97-.04-1.45v-.22c0-.26.26-.46.51-.45.27.02.45.25.45.51v.18c.01.49.04.99.04 1.48v-.06a38.03 38.03 0 0 1-.12 3.01l-.22 3.04c-.07 1.03-.13 2.06-.17 3.09-.04.99-.14 1.97-.22 2.95-.03.38-.06.75-.07 1.13v1.09c0 .75-.05 1.5-.14 2.24v-.01l-.02.14v-.03l-.08.61.01-.04-.02.14v-.02l-.01.05v-.03l-.02.16c-.06.45-.1.91-.12 1.36a2.63 2.63 0 0 1-1.32 2.44c-.21.1-.44.16-.66.23a5.77 5.77 0 0 1-1.49.22h-.41z"/><path d="M146.71 145.43a.47.47 0 0 1 .45-.51l.39-.04 1.02-.14 1.05-.09c.18-.03.37.04.47.21.14.21.09.53-.14.66-.21.12-.47.1-.71.11l-.82.08h.04c-.41.06-.83.14-1.24.16h-.03a.47.47 0 0 1-.48-.44zm-19.64 2.95c-.27-.02-.45-.25-.45-.51v-.68.03c-.01-.78.06-1.56.06-2.33-.02-.5-.08-.99-.14-1.48-.06-.49-.09-.98-.12-1.47-.02-.48-.04-.95-.09-1.43l-.16-1.49c-.06-.6-.09-1.21-.09-1.81 0-.54.06-1.09.06-1.63-.01-.55-.05-1.1-.12-1.65l-.07-.37a1.27 1.27 0 0 0-.16-.34 1.7 1.7 0 0 0-.09-.14l-.08-.09-.06-.05-.1-.07-.23-.11c-.11-.05-.23-.08-.35-.12-.15-.04-.3-.06-.46-.09a11.3 11.3 0 0 0-.82-.06 7.72 7.72 0 0 1-.83-.06c-.26-.04-.43-.32-.38-.56.05-.27.3-.42.56-.38.43.05.87.04 1.3.07.5.04.98.14 1.44.35.25.11.46.25.65.45.16.16.27.37.37.57.19.38.23.81.27 1.23.06.54.09 1.09.08 1.63-.01.53-.06 1.05-.06 1.58.01.48.04.97.08 1.45l.16 1.48c.1.98.1 1.97.21 2.95l.11.93c.03.36.04.73.04 1.09l-.04.96-.02.96v.73c0 .25-.24.45-.48.45.03.01.02.01.01.01zm12.57-19.41a.47.47 0 0 1-.08-.52l.01-.07c.04-.35.04-.7.04-1.05-.03-.81-.13-1.61-.14-2.41-.01-.8.02-1.6.01-2.41a32.7 32.7 0 0 1-.02-.99v-.28.02l-.01-1.02v-.09.07c-.01-.52-.02-1.04-.05-1.55-.02-.53-.04-1.06-.02-1.59l.06-1.47c.02-.51.02-1.01.02-1.52.01-.67.04-1.34.04-2.01v-.36.07l-.04-.98c-.02-.34-.02-.68-.01-1.02l.02-.97-.01-1.06v.07a44.9 44.9 0 0 1-.02-2.01c.02-.62.03-1.23.02-1.85l-.01-.3v.06l-.01-.28v.07l-.03-1.91v-.18.07l-.01-.36v.07c-.01-.32 0-.65.02-.97.02-.31.04-.62.15-.91.05-.12.13-.24.22-.34.13-.14.3-.25.46-.35.25-.15.51-.31.8-.4.25-.08.52.03.62.29.09.24-.04.54-.29.62l-.17.06c-.14.06-.27.14-.4.22l.02-.01-.02.01-.03.02.03-.01-.28.19-.01.01-.02.02a.08.08 0 0 0-.02.04l-.02.04-.02.05-.03.16c-.04.4-.06.8-.05 1.19v-.03.1l.01.37v-.02l.02 1.64.01.29v-.04 1.85c-.01.56-.03 1.11-.02 1.66v-.07c.02.59.03 1.19.03 1.78l-.02 1.73.05 1.38v-.07.3c.01.48 0 .96-.02 1.45-.02.48-.02.96-.02 1.44-.01.93-.08 1.86-.08 2.78.02.84.06 1.67.07 2.51v-.07l.01 1.06v.31l.03 1.74c0 .57-.02 1.14-.01 1.71l.05 1.07.08 1.1c.01.36.01.72-.02 1.07-.02.26-.02.6-.23.79a.49.49 0 0 1-.32.12c-.11.04-.24-.02-.34-.12z"/><path d="M150.84 108.5a2.5 2.5 0 0 0-.09-.37l-.06-.18-.06-.12a.44.44 0 0 0-.08-.11l-.07-.07-.11-.09-.12-.08-.1-.05-.08-.03-.25-.04a18.5 18.5 0 0 0-1.47-.11c-.36.01-.71.04-1.07.02-.34-.02-.67-.07-1.01-.12l-.64-.04-.71-.02-.97.06-.96.03h.02c-.47.01-.94.1-1.41.13l-.74.06a9.8 9.8 0 0 0-.54.04l-.05.01h-.01a.49.49 0 0 1-.48-.08.49.49 0 0 1-.05-.68c.14-.17.38-.2.58-.22l1.02-.08 1.04-.11c.34-.04.69-.04 1.03-.04h-.06c.62-.02 1.23-.11 1.85-.09l.91.04c.32.02.64.07.96.11l-.07-.01a5.02 5.02 0 0 0 1.27.01c.23-.01.46.01.69.03.4.03.81.06 1.21.12.37.06.72.27.99.53.35.35.51.83.6 1.3.05.26-.1.51-.36.57l-.1.01c-.19.05-.41-.11-.45-.33zm-24.01 7.78a.49.49 0 0 1-.44-.51c.02-.26.26-.47.51-.44.15.02.31.02.47.02h-.04c.45 0 .9-.02 1.35-.04a31.35 31.35 0 0 1 2.87-.05c.46.01.92.05 1.39.06.51-.01 1.01-.06 1.52-.1.52-.04 1.05-.03 1.57-.02h-.04c.39 0 .78-.02 1.16-.05l1.07-.1c.36-.03.73-.09 1.09-.09.13 0 .25 0 .37.06a.6.6 0 0 1 .31.43.48.48 0 0 1-.39.56.46.46 0 0 1-.38-.09l-.76.06-.96.1-1.02.07h-1c-.37 0-.74.01-1.11.04-.37.03-.74.07-1.11.08-.75.03-1.51-.06-2.26-.06a36.44 36.44 0 0 0-3.16.1l-.45.01-.56-.04zm-12.34 6.75c-.01-.25.19-.5.45-.51l1.01-.03 1.08-.07c.74-.04 1.48.04 2.22.06l1.29-.01c.35-.01.7-.01 1.05-.05l.06-.01c.26-.06.51.13.56.38.05.26-.13.5-.39.56l-.35.04-.5.03-1.11.03c-.41 0-.83 0-1.24-.02-.38-.02-.76-.05-1.14-.05h.04c-.42.01-.83.05-1.25.07-.42.03-.84.05-1.26.05-.28-.01-.51-.2-.52-.47zm48.16-1.1a.5.5 0 0 1-.12-.58v-.02c.05-.46.07-.91.07-1.37v-.2l-.02-2.08c-.01-.71-.06-1.42-.1-2.13l-.06-2.15v-.4.03c-.01-.48-.03-.97-.06-1.45-.03-.49-.03-.98-.06-1.48l-.06-1.41-.04-.69c-.01-.25 0-.5.01-.76.01-.17.02-.34.01-.5-.01-.28-.02-.57-.06-.85a4 4 0 0 0-.18-.67 1.1 1.1 0 0 0-.06-.11l-.1-.15a5 5 0 0 0-.31-.34l-.08-.07-.07-.05-.09-.04-.09-.03-.11-.02c-.26-.04-.43-.32-.38-.56.05-.27.3-.42.56-.38.39.05.72.25.99.52.22.22.43.47.57.75a6.39 6.39 0 0 1 .27.9c.06.36.09.73.09 1.1v-.02l-.03 1.09.06 1.21.05 1.31.05 1.35.05 1.3v.04-.01.06-.01.17-.01.16-.01.06-.01.69c.01.8.06 1.6.11 2.4.05.84.03 1.67.04 2.51l.01.73v.18c.01.38-.01.75-.04 1.12-.02.28-.02.6-.2.83a.46.46 0 0 1-.36.17.48.48 0 0 1-.26-.12z"/><path d="m161.62 117.27-.24-.01c-.26 0-.47-.26-.45-.51a.5.5 0 0 1 .16-.33.5.5 0 0 1 .35-.12c.15 0 .31.01.46.04l.5.1.11.01a.5.5 0 0 1 .58.04c.2.17.22.47.05.68-.14.18-.35.24-.56.25h-.03c-.32-.01-.62-.11-.93-.15zm8.72-36.31-.04-.13a.37.37 0 0 0-.05-.11l-.07-.11-.11-.14c-.12-.13-.26-.25-.39-.37l.05.04-.14-.1-.13-.07-.08-.03-.07-.02-.15-.02-.57.02h-.69l-1.47-.01-1.45.02c-.48.01-.97.01-1.45.05-.51.04-1.02.08-1.53.1-.5.01-1 .01-1.51-.01s-1.01-.04-1.52-.04l-1.56.03c-.5.02-.99.05-1.49.05l-1.53-.02c-.52 0-1.05.01-1.57.04-.5.03-1 .07-1.51.08l-1.22.03c-.39.02-.77.04-1.16.04-.81 0-1.61-.05-2.42-.08h-.11.06l-.18-.01c-.85-.04-1.71-.01-2.56-.03-.85-.02-1.7-.12-2.55-.16a2.8 2.8 0 0 0-.41 0h-.04a.49.49 0 0 1-.59-.27c-.11-.25.02-.51.25-.63.14-.07.35-.07.5-.07.28 0 .56.02.84.04l1.66.12c1 .03 2 0 2.99.04h-.02l.16.01 1.28.06h-.06c.49.02.98.04 1.47.02l1.56-.06a39.1 39.1 0 0 0 1.53-.06c.5-.03 1.01-.07 1.51-.08l1.57.02c.49.01.99-.01 1.48-.03 1.03-.05 2.05-.07 3.08-.03a19.58 19.58 0 0 0 3.04-.04c.48-.04.97-.07 1.45-.08l1.45-.03a38 38 0 0 1 1.51 0c.46.01.92.02 1.37-.01a3 3 0 0 1 .6.01c.2.03.38.09.55.18.27.14.49.36.71.56l.12.13-.02-.03.04.04.01.01-.01-.01c.21.25.37.53.45.85.06.25-.07.52-.33.59a.5.5 0 0 1-.13.02c-.14.04-.35-.1-.4-.31z"/><path d="M159.47 92.11c-.18-.02-.36-.07-.54-.1l-.06-.01-.34.01-.51.01c-.21.02-.42.06-.64.06-.22.01-.43-.01-.64-.05l-.49-.1a2.64 2.64 0 0 1-.4-.12h.02l-.02-.01-.02-.01h-.01.01-.02l-.34-.09a.99.99 0 0 1-.4-.19.92.92 0 0 1-.23-.29 1.28 1.28 0 0 1-.19-.62v.02l-.08-.88c-.03-.31-.03-.61-.03-.92 0-.44-.01-.88-.04-1.31-.01-.23-.03-.46-.02-.7 0-.22.02-.43.03-.65 0-.26-.02-.53-.04-.79v-.06.01a6.87 6.87 0 0 1-.04-.64l.02-.66v-.05c0-.3-.01-.59-.04-.89-.05-.48-.12-.96-.16-1.44-.03-.48-.07-.95-.12-1.43v.01a2.1 2.1 0 0 0-.05-.35c-.05-.23.11-.47.33-.54.24-.08.54.06.6.31l.01.06.01.05-.01-.04v.02l.04.35.07.7.09 1.16c.03.33.08.65.12.98.04.35.06.71.05 1.07l-.02.59.02.51c.03.29.06.58.07.87l-.03.84c0 .38.03.76.05 1.15.02.36.01.72.01 1.08 0 .24.02.48.04.72l.06.72.02.11.01.04.03.06.03.06.02.01.36.09.28.08c.22.06.45.1.67.14l.2.02.36-.02.57-.06.52-.01c.15-.01.29-.01.43.02l.36.07.21.02.21-.01c.26-.02.49.21.5.46.01.27-.2.48-.46.5l-.22.01c-.06.06-.14.06-.22.05zm-5.42-26.44c-.26-.02-.44-.3-.41-.54a.5.5 0 0 1 .19-.32c.1-.07.21-.1.33-.09h-.02l.3.01h.04l.03-.01c.08-.04.17-.08.24-.13l.02-.02.02-.02.02-.03.03-.06.01-.01v-.03l.02-.47c.02-.25.02-.51.01-.76-.03-.48-.06-.96-.05-1.43 0-.47-.02-.94-.01-1.4 0-.48.04-.96.06-1.44.01-.47.01-.93-.02-1.4l-.04-.78.02-.76c.02-.45.06-.91.05-1.36l-.05-1.37-.02-.4v.01l-.04-.61v.06c-.02-.42-.03-.84 0-1.25v.06l.01-.14v.06l.04-.47v-.05.03c.03-.39.03-.78.01-1.17v.06l-.08-1.21-.05-1.13a.53.53 0 0 1-.01-.25l-.01.03.02-.07.05-.1-.01.01-.03.06a.44.44 0 0 1 .16-.22c.21-.17.51-.09.67.1.07.09.09.2.1.31l.02.33.03.73v-.01l.1 1.51c.02.51-.02 1.02-.06 1.53v.08c-.02.36-.02.71 0 1.06v-.06.06c.05.81.1 1.62.11 2.44.01.4-.02.8-.04 1.2-.02.42-.03.84-.01 1.26v-.06l.02.4.01.08v.02l.02.91c0 .45-.03.9-.05 1.34-.02.48-.02.97-.01 1.45.01.43 0 .86.02 1.29l.04.74c.01.23 0 .45-.02.67-.02.29.01.6-.1.88-.09.22-.25.43-.45.56a1.6 1.6 0 0 1-.75.31l-.15.01-.33-.03zm-22.29 11.31c-.06-.11-.08-.23-.1-.35-.03-.18-.03-.37-.04-.56-.01-.4.04-.8.07-1.19l.01-.11v-.05.02c.03-.44 0-.88-.01-1.32-.01-.44.02-.88.06-1.32.05-.79.06-1.58.06-2.36l-.02-1.12c-.01-.37.02-.74.06-1.1.03-.26.29-.44.54-.41.26.04.44.28.41.54l-.04.41c-.02.34-.01.67 0 1.01l.01 1.14-.02 1.17c-.01.38-.04.76-.07 1.14v-.01.03c-.05.81.03 1.62-.03 2.43l-.04.43c-.02.3-.03.6-.02.91l.03.24.01.04a.48.48 0 0 1-.45.64.5.5 0 0 1-.42-.25zm-14.45 20.31-.69-.02c-.26-.02-.54-.04-.79-.11a1.23 1.23 0 0 1-.57-.31c-.13-.15-.19-.34-.25-.52l-.03-.1v.01a2.6 2.6 0 0 1-.1-.4l-.06-.63c-.05-.55-.1-1.11-.13-1.66v.02l-.01-.16v.06l-.01-.13v-.04l-.01-.11v.06l-.01-.24v-.1c-.02-.11-.01-.24-.02-.35v.04l-.02-.37v.06l-.06-1.44-.02-1.43c-.02-.99-.02-1.99-.07-2.98-.05-1.01-.08-2.02-.05-3.03.03-.98.06-1.96.07-2.94 0-.49.02-.98.04-1.46l.06-1.43c.02-.49.05-.99.05-1.48s0-.98.02-1.47l.02-.79-.01-.75-.05-1.49c-.02-.47-.01-.95-.02-1.43 0-.51.03-1.02.04-1.53.01-.28.02-.55 0-.83-.02-.32-.06-.63-.07-.95v.06a.99.99 0 0 0-.03-.24l-.02-.08a.48.48 0 0 1 .35-.58c.26-.06.52.09.58.35a3 3 0 0 1 .08.67v-.06l.06.66c.02.25.02.5.02.75-.01.5-.05 1.01-.05 1.51l.01 1.46.05 1.49c.01.51.02 1.02 0 1.53-.02.48-.03.96-.02 1.45 0 .5-.02 1-.04 1.5l-.06 1.45c-.03.49-.04.97-.05 1.46l-.02 1.45-.04 1.48c-.01.52-.03 1.03-.02 1.55.02.99.09 1.98.11 2.97l.02 1.53.02 1.43c0 .38.01.75.03 1.13v-.05l.04.78v-.06l.01.16v-.06l.01.24.01.12v.01l.01.25v-.03l.01.1v-.01l.01.16v-.02.07-.01.08-.01.06l.1 1.24.05.56.04.38.04.14-.01-.03.01.04v.01-.01l.04.14-.01-.02.01.03.01.02v-.01.01l-.01-.02.05.14.04.02.11.03.51.06h-.01.06-.04l.67.02a.5.5 0 0 1 .48.49c0 .25-.21.47-.47.47v.02z"/><path d="M106.23 84.93a1.45 1.45 0 0 1-.1-.87c.02-.1.04-.2.09-.29a.7.7 0 0 1 .46-.33c.17-.04.34-.03.51-.03l.59.01h-.01.62l.8.05 1.37-.02c.46.01.92.08 1.38.09l.69.02.73.07c.45.06.9.08 1.36.1h.02a.48.48 0 0 1 .28.88c-.12.08-.25.08-.38.07l-.56-.03c-.43-.03-.86-.09-1.29-.13-.41-.04-.82-.02-1.23-.05l-.6-.05-.63-.02h.04l-1.06.02c-.33 0-.65-.04-.98-.05l-.49.01-.48-.01h.01-.29v.04l.01.06.01.03.01.02c.11.24.01.53-.23.64a.46.46 0 0 1-.2.05.52.52 0 0 1-.45-.28zm18.97-28.98-.25-.28c-.11-.14-.17-.28-.24-.44a6.47 6.47 0 0 1-.13-.41c-.12-.55-.09-1.12-.14-1.68l.01.06-.1-.96v.01c-.04-.43-.08-.86-.1-1.29l-.07-1.28c-.03-.43-.04-.86-.04-1.3 0-.43 0-.87-.04-1.3v-.02.02l-.08-.69c-.03-.25-.04-.51-.05-.76-.02-.48-.03-.96-.06-1.43-.03-.48-.06-.96-.07-1.44v-2.82c0-.48-.01-.95-.04-1.43a23.1 23.1 0 0 1-.06-1.44c0-.48-.02-.95-.05-1.42-.08-1.01-.1-2.02-.06-3.03v.07l.03-.88v.04l.01-.16v.06c.02-.48.01-.96-.02-1.44-.03-.5-.04-1.01-.05-1.51l-.01-.7-.04-.68c-.03-.48-.01-.97.01-1.45l.01-.17v.03c.01-.4.01-.79-.01-1.19-.02-.27-.02-.55-.02-.82 0-.26.2-.49.46-.5.26-.01.49.2.5.46v.35l.04.76c.02.52-.01 1.04-.03 1.56-.01.43.01.86.03 1.29.03.44.03.88.03 1.32l.05 1.4c.03.48.02.96 0 1.44v-.07l-.03.88v-.07l-.01.16v-.06c-.02.46-.01.91 0 1.37.01.48.03.95.06 1.43.03.47.06.93.06 1.4 0 .49.02.97.05 1.46.03.48.05.95.05 1.43v2.85c.01.46.03.93.06 1.39.05.74.04 1.48.11 2.21.05.47.12.94.13 1.42.01.49 0 .97.02 1.46l.08 1.43c.02.46.05.91.09 1.36l.01.12v-.01.04l.01.06v-.02l.01.06v.01c.04.39.09.78.12 1.18.02.31.01.61.04.92a2.02 2.02 0 0 0 .14.6l.01.02.06.14.02.03.25.29c.18.2.13.52-.07.67a.48.48 0 0 1-.29.11.87.87 0 0 1-.4-.22z"/><path d="m141.69 57.01-.6-.01a15 15 0 0 1-.68-.02c-.35-.02-.7-.01-1.06-.02l-.53-.02h-.55c-.44.01-.87.02-1.3 0l-.64-.03-.6-.01-.61-.04c-.21-.02-.43-.02-.64-.03-.41 0-.82-.03-1.23-.02h-.69l-.7-.05-.53-.01h-.19c-.23 0-.47-.02-.7-.04-.23-.02-.47-.02-.7-.02l-.63-.03-.7-.06-.7-.03c-.28-.03-.56-.11-.84-.14-.3-.04-.6-.07-.89-.18l-.19-.07c-.07-.02-.16-.04-.23-.08a.48.48 0 0 1-.22-.64c.11-.22.4-.34.63-.23.06.02.13.03.19.06l.3.11c.11.03.23.05.35.06l.49.06.58.11a13.78 13.78 0 0 1 1.21.07l.57.04.64.01.6.04.66.01.66.03.64.03h1.16c.4.01.8 0 1.2.04l.61.04.58.01c.41.01.81.04 1.22.04.44-.01.88-.02 1.32-.01l.62.02h.61l1.2.03.56.02.55.02.68-.05.24-.02.07-.19a.53.53 0 0 1 .23-.28.48.48 0 0 1 .37-.03c.24.08.4.36.31.61-.12.31-.22.65-.56.78-.12.05-.25.05-.38.06l-.49.04-.53.02c-.24.02-.49.01-.74 0zM113.86 51a.47.47 0 0 1-.45-.48v.02l-.01-.12a2.11 2.11 0 0 1-.04-.71c.05-.28.23-.59.5-.71.24-.11.52-.13.78-.16l.69-.06.67-.06c.47-.03.93-.07 1.4-.13.48-.06.95-.09 1.43-.16l.73-.09.73-.05.72-.07.71-.05a147.54 147.54 0 0 1 2.01-.19l.54-.04c.17 0 .32.02.45.13.2.16.22.48.05.68a.47.47 0 0 1-.47.15h-.01l-.55.04-.66.07c-.47.05-.94.1-1.42.12l-1.42.12-.73.05c-.24.02-.47.06-.71.09l-1.16.12c-.38.04-.75.1-1.14.12-.37.02-.74.05-1.1.09-.3.03-.61.05-.91.09l-.19.03-.01.02v.04l.02.16c.02.16.05.31.05.47 0 .25-.24.45-.48.45 0 .02-.01.02-.02.02zm10.49-10.92a.5.5 0 0 1-.03-.68.46.46 0 0 1 .45-.14c.21 0 .42-.03.64-.04l.76-.04.72-.02c.24-.01.47-.04.71-.06l1.45-.11c.48-.04.96-.03 1.45-.04l.73-.02.75.01c.34.01.68 0 1.02-.02.34-.02.67-.01 1.01-.01h.97l1 .03.62.02.62.04h-.02.04c.4 0 .8-.02 1.2-.06h-.02.06-.02l.3-.04.07-.02.06-.03.03-.02.01-.01v-.47.01l.01-.35c0-.13.04-.24.13-.34a.49.49 0 0 1 .34-.15c.25-.01.5.2.5.46l-.01.37-.01.15v.39c-.02.5-.44.81-.89.94-.28.07-.58.08-.87.11-.31.02-.63.04-.94.03l-.9-.05-1.14-.04h-.83l-.82-.01c-.29 0-.59.02-.88.04-.29.02-.57 0-.86-.01h.01-.06.03c-.48-.01-.96.01-1.44.02l-.71.01c-.24 0-.49.03-.73.05a35.83 35.83 0 0 0-2.16.16l-.76.02-.79.05c-.12.01-.24.03-.37.03a.85.85 0 0 1-.43-.16z"/><path d="m146.35 13.55-.02-.68-.05-.61c-.02-.2-.02-.4-.02-.6l-.02-.52-.05-.02-.04-.67-.02-.38H146c-.61.01-1.22-.01-1.83-.03h.06l-.27-.01-.02-.01-.66-.03-.53.01-.5-.02h.05c-.25 0-.49-.03-.74-.03l-.44.02h-.49l-.28.01c.76.23 1.51.51 2.21.88.91.48 1.78 1.02 2.61 1.65l.19.14-.02-.02c.36.29.69.6 1.01.92zM14.75 62.99l.12-.03.15.01 1.27-.56 2.51-1.06c.43-.18.86-.35 1.29-.55.44-.2.87-.41 1.3-.63l-.05.03a14.37 14.37 0 0 0 1.38-.84l-.05.03.43-.32-.16-.13c-.13-.1-.29-.22-.37-.37a.85.85 0 0 1-.12-.38 1.2 1.2 0 0 1 .06-.5c.06-.22.18-.42.3-.61.17-.28.4-.53.63-.76a10.13 10.13 0 0 1 2.39-1.74l1.04-.58.04-.03c.24-.2.5-.37.77-.54l.61-.34c.16-.09.31-.19.47-.27l.49-.26c.17-.08.32-.2.49-.28l.34-.94c.18-.48.41-.94.63-1.4l.65-1.37c.21-.45.41-.91.65-1.35.25-.46.52-.9.8-1.34.24-.38.48-.76.74-1.12.26-.37.56-.72.85-1.07.04-.05.09-.11.12-.17l.02-.04.01-.06-.01-.14c-.04-.43-.15-.86-.18-1.29-.02-.3.01-.62.14-.9.1-.23.23-.45.36-.67a7 7 0 0 1 .91-1.18c.12-.12.25-.25.39-.34a.64.64 0 0 1 .19-.08l.2-.49c.28-.61.63-1.2 1.01-1.75l-.02.02.11-.15-.04.05a15.52 15.52 0 0 1 1.52-1.85 6.1 6.1 0 0 1 1.49-1.08c.1-.05.19-.09.29-.12l-.01-.13c-.02-.46 0-.93.1-1.39.11-.48.35-.92.67-1.29a12.75 12.75 0 0 1 2.36-1.94l.28-.63c.2-.43.39-.87.61-1.29l-.03.06.11-.21c.24-.46.5-.91.8-1.33.29-.41.59-.81.91-1.2l.08-.1a4.78 4.78 0 0 1-.16-.03c-.17-.03-.33-.09-.5-.12l-.09.06a.8.8 0 0 1-.22.07c-.18.03-.36-.01-.54-.06a7.5 7.5 0 0 1-.91-.31c-.36-.14-.71-.3-1.06-.46-.3-.13-.59-.29-.89-.41l-.16-.06-.44-.07a38.8 38.8 0 0 1-1.97-.47l.06.01-.23-.06h-.02l-.03-.01h-.01l-.04-.01-.03-.01-.02-.01a1.26 1.26 0 0 0-.1-.03l-.09-.02.06.02c-.47-.12-.95-.23-1.43-.33l-1.5-.33c-.49-.11-.97-.2-1.46-.32l-1.47-.37-.39-.1.06.02-.27-.07.06.02-2-.53c-1.01-.26-2.03-.49-3.05-.72-1.02-.23-2.03-.48-3.06-.67l-.96-.16-.77-.08c-.24-.02-.47-.02-.71-.02l-.69.05c-.4.06-.8.14-1.2.25-.11.03-.22.07-.32.12a1.96 1.96 0 0 0-.49.31l-.06.07.04-.05-.07.11-.02.05-.02.06-.01.04v.06l.01.08.03.15.14.35.25.48c.22.35.46.69.71 1.02.28.36.57.72.84 1.09.28.39.54.83.62 1.31.04.22.02.43-.05.64-.07.23-.24.42-.43.56-.22.16-.51.23-.77.29l-.57.14.06.08c.18.23.38.44.59.65.24.24.49.47.69.73.3.39.39.94.19 1.4-.07.16-.19.3-.31.42l-.33.3.01-.01-.02.02-.01.01.01-.01-.42.31-.03.02a.44.44 0 0 1-.34.28c-1.03.17-2.06.33-3.1.43-1.08.11-2.16.19-3.24.28-.7.05-1.4.13-2.09.23-.33.06-.66.11-.99.2l-.36.13-.22.11-.12.09-.12.11-.06.08-.05.08-.03.06-.03.09-.02.08v.07l.01.13.03.14.11.3a9 9 0 0 0 .99 1.62l.64.76.78.85A12.3 12.3 0 0 1 14 37.43c.19.32.34.68.39 1.04.03.26.01.53-.1.77-.05.11-.11.2-.18.29-.07.09-.17.16-.26.23a5 5 0 0 1-.59.34l-.57.31-.18.12-.09.08-.05.06-.03.04-.01.02-.01.02-.01.04-.01.18.01.14c.08.48.24.96.35 1.44a2 2 0 0 1 .02.85c-.07.22-.18.41-.32.58-.16.2-.35.38-.55.54-.41.33-.88.6-1.34.86-.43.24-.86.47-1.3.69-.71.37-1.41.75-2.14 1.09-.74.35-1.49.67-2.21 1.06l-.47.31-.15.14-.11.13-.05.08-.03.06a.19.19 0 0 0-.02.07l-.01.07-.01.1.01.08.04.21.1.29-.01-.02.02.04.01.03-.01-.02.01.02v.01l.01.01.06.14.01.02v-.01l.31.57.22.33.24.32.27.32.3.32.02.02-.01-.01.19.19.08.08c.58.57 1.21 1.09 1.84 1.61.61.5 1.24.98 1.87 1.46l.09.07.09.07.09.06.09.07.01.01.03.03.06.04.02.01.16.12-.05-.04.16.12-.01-.01.11.08.07.05-.02-.02 1.33 1 1.2.86c.46.32.93.63 1.33 1.02.22.21.39.44.51.72.09.21.07.44.02.65a2.2 2.2 0 0 1-.43.83c-.32.38-.71.67-1.07 1.01l-.14.14-.15.18.07.04c.52.28 1.08.5 1.63.73h.02l-.02-.04zm168.21 3.62c-.03-.31-.07-.61-.08-.92-.01-.21-.01-.43-.03-.64-.01-.21-.04-.41-.06-.62-.04-.31-.05-.62-.07-.93-.02-.33-.04-.65-.04-.98 0-.31-.02-.62-.04-.92-.03-.33-.04-.66-.08-.99l.01.06-.02-.16.01.06-.02-.13-.05-.53-.03-.66a7.53 7.53 0 0 0-.07-.83l.01.06-.12-1.14.01.06-.02-.15.01.05-.01-.07-.06-.8v-.33l.03-.1-.01-1.61.02-2.12.05-2.11c.02-.67.03-1.34.01-2.01-.02-.77-.03-1.55-.06-2.32l-.07-1.92c-.04-.8-.09-1.6-.09-2.4-.01-1.24.1-2.48.16-3.72l-.59-.02a5.36 5.36 0 0 0-.4-.02h-.41l-.31-.02-.55-.01-.77-.05h-.07c-.27 0-.53-.04-.8-.06l-.59-.01h-.32c-.31 0-.61-.04-.92-.04l-.96.02c-.32.01-.65 0-.97.02h.06c-.3.02-.59.03-.89.03h-.8l-.5.04-.76.03-.06.01.01.07c.02.17.04.34.04.51v.38l.05.03.29.19c.21.15.42.3.62.47.54.44.96 1.09.93 1.81a2.84 2.84 0 0 1-.67 1.69l.05.05c.41.36.78.74 1.15 1.14l.99 1.15a13.87 13.87 0 0 1 1.8 2.59c.25.46.46.93.68 1.4l.63 1.34.45.95c.13.29.26.58.37.88.11.32.23.63.33.96.1.31.19.62.27.94v-.01l.1.36-.02-.06c.19.66.42 1.31.61 1.97l-.01-.03.03.11-.02-.06.05.18.04.14c.28 1.03.34 2.1.21 3.15l-.04.27.1.08c.16.14.3.3.43.46l-.04-.05c.26.33.47.68.59 1.09a3.03 3.03 0 0 1 .07 1.39c-.02.2-.04.4-.1.59l.02.02c.23.3.43.61.62.94.2.35.35.72.47 1.1l-.02-.06.06.18-.02-.06c.08.22.14.44.2.65zm-159.98 9.9v.1a170.28 170.28 0 0 0 0-.1zm128.83 99.22c-.32.38-.68.73-1.04 1.07l-1.12 1.05c-.38.36-.75.71-1.14 1.04-.3.26-.63.49-.96.72l-.15.1.04.49.01.22.44.02c.62.03 1.24.07 1.86.08l1.45-.03c.52 0 1.03.03 1.55.02h-.02.05l.85-.03.93-.05c.3-.01.59.01.89.01l.99.01c.69-.01 1.38-.08 2.07-.13.71-.04 1.42-.05 2.13-.08.35-.01.71-.05 1.06-.07.37-.03.74-.03 1.11-.03.69 0 1.37.06 2.05.06h-.06.26l1.5-.03h1.69-.06c.6-.01 1.21-.03 1.81-.02l1.81.03c1.25.02 2.5.12 3.75.12l.92-.01 1 .02c.64.03 1.28.06 1.92.06h-.02.05l1.8-.03h1.27l-.01-.1a67.25 67.25 0 0 1-.11-4.65c.01-.87.01-1.73-.04-2.59-.04-.82-.13-1.64-.14-2.47-.01-.72.04-1.43.07-2.15.03-1 .03-2 .03-3.01-.01-1.03.07-2.06.1-3.09v-.04l.01-1.26-.03-1.06c-.02-.69 0-1.38.02-2.07.02-.77.03-1.54.02-2.31l-.04-2.29c-.02-.81-.01-1.62-.01-2.43v-2.48c0-.68.01-1.36.04-2.05-.41-.02-.81-.07-1.22-.08l-1.47-.03-1.1-.05h-.45a8.42 8.42 0 0 0-.65.07l-.2.01-.46-.02-.45-.01h-.43l-.9-.06h.01-.07l-.17-.01-.77.01.01-.03-.43-.03h-.06c-.59-.03-1.19-.04-1.78-.05l-.09.36a24.16 24.16 0 0 1-1.11 3.35v-.01c-.19.48-.41.96-.62 1.43-.21.46-.42.92-.65 1.37-.46.9-.92 1.8-1.36 2.71a46.38 46.38 0 0 1-3.19 5.22c-.57.85-1.13 1.7-1.75 2.51-.61.79-1.27 1.54-1.96 2.26-.33.34-.67.68-.99 1.04-.33.37-.66.75-1.02 1.1a9.35 9.35 0 0 1-1.8 1.32l-.48.24c-.01.14-.05.27-.09.41a5.4 5.4 0 0 1-.36.86 2.5 2.5 0 0 1-1.97 1.36l-.26.69c-.2.48-.42.94-.71 1.37-.23.33-.46.66-.71.98l.04-.05c-.3.41-.6.81-.93 1.2zm-143.75-.74-.06.17-.02.1v.05l.01.01.21.14.35.18c.21.09.42.16.64.24.23.08.46.16.67.28.28.17.5.43.62.73.11.29.09.6 0 .9-.15.47-.43.88-.7 1.29-.27.41-.55.81-.84 1.21-.41.57-.84 1.13-1.27 1.69-.43.57-.86 1.14-1.23 1.74l-.29.55-.12.32-.05.19-.02.16v.03l.01.04.01.03.01.01.02.01.11.06.21.08.16.03.42.05a8.67 8.67 0 0 0 2.29-.32c.55-.12 1.1-.24 1.65-.38l.03-.01h.02c.43-.11.86-.24 1.29-.38l1.29-.43c.87-.27 1.75-.53 2.61-.87.46-.19.93-.4 1.38-.61.45-.21.92-.39 1.39-.56l1.44-.52.37-.14.11-.04.1-.04.08-.03a.7.7 0 0 1 .13-.05 1.8 1.8 0 0 1 .15-.06l1.65-.64c.28-.11.56-.22.83-.35a.53.53 0 0 1 .23-.13l.01-.08c.04-.26.13-.52.24-.76.14-.3.3-.6.49-.87.74-1.1 1.66-2.08 2.62-2.99.44-.42.89-.83 1.35-1.23.44-.38.87-.76 1.29-1.17.35-.35.71-.7 1.04-1.07.35-.38.68-.76 1-1.16.2-.26.4-.52.57-.8l.05-.08-.03-.01a4.18 4.18 0 0 0-.34-.08c-.61-.09-1.24-.07-1.85-.21-.16-.04-.32-.07-.47-.13l-.51-.22a2.55 2.55 0 0 1-.84-.69 1.83 1.83 0 0 1-.38-1.17c.01-.43.2-.82.41-1.18.17-.29.37-.56.58-.83l.65-.8.42-.52c.43-.56.84-1.14 1.28-1.69l-.04.05.18-.23-.04.05c.9-1.14 1.86-2.24 2.8-3.34a.49.49 0 0 1 .21-.14l.04-.05.26-.4-.01.03.29-.53.05-.4-.03-.3-.01-.05-.01-.04a3.24 3.24 0 0 1-.11-.28l.02.06c-.04-.1-.08-.19-.14-.28l-.06-.09-.01-.02-.04-.04-.09-.06-.23-.13-.32-.02a17.59 17.59 0 0 0-3.57.33c-.5.09-.99.2-1.5.25-.37.03-.75.05-1.12.05l-.48-.01c-.25-.01-.5-.04-.74-.09a2.28 2.28 0 0 1-.83-.32 1.08 1.08 0 0 1-.42-.5c-.11-.28-.1-.6-.05-.89.08-.4.24-.76.43-1.11l.37-.64.35-.68.1-.27.06-.24.01-.13-.01-.16v-.01l-.03-.1-.02-.04-.01-.02a.14.14 0 0 1-.03-.04l-.11-.1-.1-.07-.13-.07-.39-.14c-.29-.08-.58-.15-.88-.21-.34-.05-.68-.08-1.02-.1h-.37c-.36 0-.72.01-1.08-.04a9.26 9.26 0 0 1-.76-.12 3.61 3.61 0 0 1-1-.39 2.04 2.04 0 0 1-.33-.25 1.33 1.33 0 0 1-.4-.61c-.05-.12-.05-.27-.06-.4-.01-.16.01-.33.03-.48.07-.4.22-.78.41-1.13.13-.24.28-.46.43-.68.2-.29.43-.57.65-.85l.72-.91-.04.05.22-.28.22-.27.97-1.2.95-1.13c.34-.39.72-.75 1.09-1.11l.01-.01.33-.36c.3-.33.58-.68.87-1.01.29-.33.54-.7.83-1.04l.43-.49.39-.49c.18-.22.38-.43.57-.64.18-.19.33-.39.5-.59.21-.25.43-.48.67-.7.17-.16.36-.32.52-.49l.05-.06c.21-.29.45-.57.7-.82l-.07-.32c-.12-.52-.25-1.03-.3-1.56-.09-.85.09-1.7.44-2.47l.02-.04a4.25 4.25 0 0 1-.76-1.05 2.66 2.66 0 0 1-.2-.56c-.08-.35-.1-.73.01-1.08.07-.2.17-.38.31-.55l.02-.02-.99-1.05c-.33-.36-.64-.75-.93-1.15l-.08-.11-.07-.1a13.68 13.68 0 0 1-2.39-5.54c-.23-.97-.48-1.94-.64-2.93-.16-1-.22-2.02-.3-3.03-.06-.8-.13-1.59-.12-2.39v.06a21.48 21.48 0 0 1 .26-2.83 4.21 4.21 0 0 1-.35-.48c-.14-.23-.28-.46-.4-.69l-.19.07-.23.12-.22.1-.43.16-.13.05-1.32.87c-.38.25-.76.48-1.15.7l-1.13.61-1.08.66-1.1.7c-.75.49-1.48 1-2.2 1.53l-.02.01-.01.01-.23.18.01-.01-1.92 1.42-.44.37-.37.39-.17.25-.1.2-.03.08-.01.06v.02l.01.02.01.01.04.05c.25.24.52.44.7.75a2 2 0 0 1 .27 1.36c-.03.23-.1.46-.2.67-.16.34-.4.64-.65.93-.25.29-.52.56-.79.82l-.06.06-.09.08.02-.02-.18.17-.09.08-.01.01-.95.92c-.2.19-.39.39-.56.6l-.18.26-.07.12-.06.15v.02l.01.02.06.03.24.09.16.03c.3.04.61.07.91.12.18.03.35.08.52.15.22.09.41.23.58.4.21.22.39.47.46.78.04.19 0 .38-.12.54-.04.06-.1.09-.16.13-.38.47-.78.93-1.15 1.4l.04-.05-.17.22c-.16.21-.32.43-.46.65l-.12.22-.07.19-.02.08-.01.07.11.07.11.06c.21.09.43.16.65.22l-.06-.02.26.08c.23.07.46.14.68.23.22.09.43.2.62.35.22.18.38.39.49.64.1.23.1.49.05.73-.04.23-.14.43-.23.64-.1.22-.23.43-.36.62-.57.85-1.23 1.65-1.9 2.44-.66.77-1.32 1.54-1.96 2.32-.66.8-1.32 1.59-2 2.37-.58.66-1.17 1.3-1.72 1.98l-.43.56-.37.56-.28.54-.18.48-.14.57a2.07 2.07 0 0 0-.02.59l.04.21.06.2.03.07.05.08.23.27.16.14.54.36c.51.3 1.04.56 1.58.81.93.4 1.89.73 2.84 1.1a11.45 11.45 0 0 1 2.1 1.06c.23.16.43.36.59.59.19.26.26.59.27.91.01.4-.1.79-.23 1.16-.09.28-.22.55-.34.83l-.09.2c-.2.45-.41.89-.64 1.32-.24.43-.52.83-.78 1.24l-.2.37-.07.19-.02.08-.01.09v.04l.01.01.02.02.02.02.07.05.05.02.12.04.58.13c.24.05.48.13.72.21.39.14.76.38 1.02.71.3.38.38.89.26 1.35-.12.45-.34.86-.54 1.27-.16.31-.31.64-.52.92l-.04.06-.01.02-.06.09-.03.05c-.35.56-.76 1.09-1.11 1.65l-.34.64-.13.34-.06.25-.01.09v.07l.01.03.04.11.02.04.01.01.06.04.13.07.12.05c.13.04.26.06.39.08.46.07.93.1 1.39.18.27.05.54.12.8.22.27.09.51.23.73.4.15.12.29.3.39.47.11.19.19.38.22.6a3.2 3.2 0 0 1-.17 1.36 8.09 8.09 0 0 1-.6 1.31c-.49.88-1.1 1.68-1.7 2.49l-1.82 2.46c-.21.28-.4.58-.58.87l-.04.07-.06.1.03-.05-.49.85-.49.8-.01.01-.03.04a.08.08 0 0 0 .02-.04.7.7 0 0 0-.25.31zm116.17 12.63a25.53 25.53 0 0 0 5.06-.42l.16-.03-.06.01.13-.03c.94-.2 1.85-.47 2.76-.77l-.06.02c.54-.19 1.05-.42 1.57-.67l.04-.02.02-.01-.01.01.04-.02-.01.01a7.5 7.5 0 0 0 .77-.47l-.05.04c.12-.08.24-.17.37-.24.22-.14.53-.05.66.17.09.15.09.32.01.46l.07-.01c.15-.02.29-.06.43-.09l.23-.08.39-.19.16-.09-.05.03a4.93 4.93 0 0 0 1.28-1.05c.16-.22.3-.46.49-.66.08-.09.16-.17.26-.24.13-.1.3-.14.46-.19.66-.19 1.31-.45 1.95-.71l-.06.02c.43-.19.86-.38 1.28-.61l.03-.02.1-.02c.13-.03.26-.09.37-.16.29-.17.56-.37.84-.55l.45-.28.43-.29.81-.57.81-.54c.26-.18.52-.35.76-.55l.29-.29v.07l.26-.19c.52-.42 1.01-.88 1.5-1.34l1.49-1.4c.24-.25.47-.51.69-.79l.66-.84.13-.18c.25-.33.48-.67.7-1.02.19-.35.35-.7.5-1.07l-.02.06.3-.81c.09-.25.16-.51.23-.77a16.44 16.44 0 0 0 .34-1.82l.09-.49v-.03a.48.48 0 0 1 .51-.45.5.5 0 0 1 .45.51c-.01.21-.07.43-.1.64l-.12.75c-.07.39-.14.79-.24 1.18a2 2 0 0 0 .21-.1l.06-.04.2-.17.19-.23.13-.2.22-.48.11-.33.01-.08v-.06c0-.07-.01-.15.01-.22.04-.23.22-.37.42-.46l.75-.37c.27-.16.53-.34.79-.53.26-.2.5-.42.74-.64.33-.34.63-.69.95-1.04.34-.37.69-.72 1.04-1.08a22.93 22.93 0 0 0 1.97-2.32l.01-.01c.59-.8 1.13-1.63 1.68-2.45.57-.85 1.13-1.71 1.67-2.57.24-.39.47-.79.7-1.2.48-.89.93-1.79 1.38-2.7.22-.44.45-.87.66-1.31.23-.46.43-.92.65-1.39l.47-1.09-.01.03.02-.04.01-.02v.01l.06-.15c.4-1.02.75-2.05 1.02-3.11l-.02.06.04-.15-.02.06c.1-.41.18-.82.24-1.23.04-.4.06-.81.07-1.21l.02-.66.02-.5-.01-.15c-.03-.26.19-.49.44-.51.27-.02.49.18.51.44.03.3 0 .6-.01.9l-.02.76.2-.09a.67.67 0 0 0 .11-.07l.11-.09.05-.05.05-.07.03-.06c.05-.11.09-.22.12-.34l-.02.06.02-.07-.01.02.01-.05a7.11 7.11 0 0 0 .18-1.02v-.05l-.01-.32-.05-.32c-.05-.19-.13-.38-.09-.58a.53.53 0 0 1 .32-.39c.1-.05.2-.07.3-.11a2.44 2.44 0 0 0 .18-.08l.05-.03.13-.11.29-.31c.16-.21.3-.43.44-.65l-.03.05c.39-.65.75-1.32 1.08-2 .32-.65.66-1.31.96-1.97.17-.4.32-.81.48-1.22l.5-1.28c.17-.43.34-.86.49-1.31.14-.4.25-.81.38-1.22l.03-.09-.01.02.07-.24.01-.05.01-.03.02-.05-.01.02.04-.14-.01.03.04-.15v.01l.04-.13c.16-.56.29-1.13.39-1.71a69.45 69.45 0 0 0 .28-2.88v-.16c0-.31-.03-.61-.05-.92a18.64 18.64 0 0 0-.98-4.51c-.15-.39-.3-.77-.49-1.14l-.06-.1a.48.48 0 0 1 .15-.66.48.48 0 0 1 .66.16c.12.19.21.4.31.6l.28.67c.17.46.32.92.45 1.39l.19-.03.34-.1a3.88 3.88 0 0 0 .5-.25l.13-.11.11-.12a1 1 0 0 0 .11-.17l.05-.09.07-.19.03-.14.01-.09-.01-.18a4.74 4.74 0 0 0-.17-.65l-.2-.49-.17-.45c-.07-.25-.02-.52.22-.67.13-.08.29-.09.43-.12l.06-.02.04-.02-.02.01h.01l.03-.02.06-.05.11-.11.08-.12.15-.3c.24-.56.41-1.15.62-1.71l.36-.91.3-.9-.02.06.1-.34-.02.06c.11-.38.23-.75.36-1.12a15.08 15.08 0 0 0 .7-2.78l.3-1.68v-.04l.01-.04.01-.05c.08-.63.15-1.27.2-1.9.06-.64.08-1.28.1-1.92v.06l.01-.25.01-.35v.01l.01-.3v.06c.02-.78 0-1.55-.01-2.33-.01-.77-.02-1.54-.09-2.3v.01l-.02-.22c-.1-.97-.27-1.94-.42-2.9-.08-.51-.16-1.01-.26-1.51-.09-.48-.16-.95-.26-1.43a1.17 1.17 0 0 0-.05-.2l.01.06c-.17-.7-.41-1.39-.66-2.07l.02.06-.07-.18.02.06c-.16-.41-.33-.82-.51-1.22-.1-.24 0-.53.24-.63.24-.11.53 0 .64.24.19.43.37.85.54 1.29v-.01l.03.09.01-.04a5.07 5.07 0 0 0 .07-1.72 3.25 3.25 0 0 0-.18-.58 3.07 3.07 0 0 0-.17-.31c-.18-.26-.38-.5-.54-.76l.03.05-.14-.25a.74.74 0 0 1-.03-.39c.01-.12.04-.23.06-.35l.08-.43c.11-.56.18-1.12.23-1.68l-.01.06c.09-1 .11-2 .18-3a17.6 17.6 0 0 0 .06-2.95l-.01-.22v.01l-.01-.13v.01l-.01-.18v.06l-.02-.33v.07l-.11-1.8c-.04-.61-.11-1.21-.21-1.81-.17-.92-.34-1.85-.55-2.77-.11-.47-.25-.93-.38-1.39l-.39-1.38.02.06-.03-.11.02.06-.05-.15a13.3 13.3 0 0 0-.26-.67c-.11-.2-.21-.39-.33-.57a9.48 9.48 0 0 0-1.25-1.49 4.12 4.12 0 0 0-.49-.39c-.23-.12-.34-.39-.23-.63.1-.23.4-.36.64-.24l.23.14c.25.18.48.38.69.59l.01-.24-.02-.27-.05-.24-.01-.02a1.95 1.95 0 0 0-.08-.22l-.11-.21a2.98 2.98 0 0 0-.19-.28l-.01-.01.01.01-.01-.01v-.01l-.02-.03.02.02-.21-.23-.32-.28c-.28-.27-.17-.68-.12-1.01l.02-.16c.03-.24.03-.48.04-.72 0-.29-.02-.57-.05-.86-.06-.35-.11-.69-.2-1.03l.01.04-.04-.14.02.06-.05-.18-.03-.12.01.03-.02-.09.01.04v-.01l.01.02v.01c-.2-.66-.42-1.3-.61-1.96l.02.06-.1-.35v.01c-.1-.36-.2-.72-.32-1.07a22.5 22.5 0 0 0-.41-1.14c-.34-.78-.72-1.53-1.07-2.3-.19-.41-.37-.83-.57-1.23l-.3-.58-.32-.56-.38-.59c-.12-.19-.26-.36-.4-.54-.34-.42-.69-.82-1.04-1.23a13.15 13.15 0 0 0-3.45-2.98 3.78 3.78 0 0 0-.35-.17c-.24-.1-.34-.41-.23-.64.11-.24.4-.33.64-.23.45.19.86.46 1.26.73l.33.23.14-.03.17-.28.07-.15.1-.31.04-.21.01-.14-.01-.15-.01-.04-.09-.23-.05-.09-.12-.17-.19-.21a4.45 4.45 0 0 0-.47-.37l-.01-.01a.14.14 0 0 0-.04-.03l.01.01a8.06 8.06 0 0 0-.57-.38.64.64 0 0 1-.32-.38c-.05-.17-.03-.37-.02-.55a4.72 4.72 0 0 0-.43-1.94c-.29-.61-.62-1.19-.97-1.77l-1.03-1.76-.03-.05.02.03a27.8 27.8 0 0 0-1.83-2.61l-.01-.01-.01-.01-.01-.01-.26-.32-.01-.01.02.02a52 52 0 0 0-2.05-2.37l-1.08-1.16a55.16 55.16 0 0 0-1.55-1.66l-.05-.05.01.01-.01-.01-.01-.01-.19-.18.05.04-.12-.11-.74-.67-.73-.63c-.47-.41-.95-.8-1.44-1.18l-.33-.25a42.12 42.12 0 0 0-3.39-2.14l-.53-.28c-.17-.09-.35-.16-.53-.23l-.58-.18c-.51-.12-1.03-.22-1.55-.3l-.26-.03h-.01c-.29-.04-.59-.06-.88-.09-.22-.02-.43-.04-.65-.04h-.02a.48.48 0 0 1-.51-.44c-.02-.25.18-.51.44-.51.25-.01.49.02.74.04l.32.03-.07-.09-.33-.37c-.26-.25-.53-.48-.81-.7-.13-.1-.26-.18-.4-.27l-.07-.03-.17-.06a8.55 8.55 0 0 0-.73-.12h-.03c-.27-.03-.55-.01-.8-.13-.18-.08-.31-.26-.42-.41l-.25-.33.01.01c-.3-.38-.61-.74-.94-1.08a11.11 11.11 0 0 0-.81-.71l-.04-.03.01.01-.19-.15a18.72 18.72 0 0 0-1.82-1.19 12.6 12.6 0 0 0-2.99-1.24h-.03l-.21-.05c-.43-.1-.86-.17-1.3-.22l.07.01-.16-.02h.02l-.05-.01h-.01l-.11-.01.06.01-1.52-.12-1.72-.14a.5.5 0 0 1-.46-.5.48.48 0 0 1 .5-.46l.21.02-.15-.07-.34-.12-.39-.09a8.37 8.37 0 0 0-.7-.09c-.34-.01-.68.03-1.02.06-.6.06-1.18.16-1.77.29l.04-.01c-.27.06-.55.12-.81.21-.25.09-.53-.09-.6-.33-.08-.26.08-.51.33-.6.18-.07.37-.11.56-.16a15.57 15.57 0 0 0-1.86-.14c-.26 0-.53.02-.79.04l-1.18.13c-.38.05-.77.1-1.15.18l-.28.06c-.99.25-1.98.53-2.95.87-.19.08-.38.16-.57.26-.21.12-.42.26-.61.4l-.1.07-.11.08-.03.02-.02.01-.01.01-.03.03a.83.83 0 0 1-.12.08l.02-.02-.1.07c-.2.14-.4.29-.61.41-.25.15-.51.3-.79.41l-.45.13c-.22.05-.44.03-.66 0l-.48-.08a7.38 7.38 0 0 0-.49-.05l-.76.02c-.61.06-1.21.12-1.81.23l-.59.15-.63.21.06-.02a25.08 25.08 0 0 0-5.54 2.82 7.31 7.31 0 0 0-1.32 1.24l.04-.05a4.55 4.55 0 0 0-.95 1.46l-.05.23-.04.34v-.06c-.01.13-.01.27-.04.4a.48.48 0 0 1-.3.33.47.47 0 0 1-.35.3l-.09.01c-.21 0-.39-.13-.53-.28l-.38-.43-.69-.71c-.24-.25-.48-.51-.73-.75-.41-.38-.85-.72-1.27-1.08-.45-.39-.9-.78-1.38-1.14-.52-.38-1.07-.72-1.61-1.07-.54-.34-1.06-.7-1.62-1.02a12.92 12.92 0 0 0-2.58-1.07c-.33-.08-.66-.15-1-.2-.32-.04-.65-.06-.97-.08-.33-.02-.67-.03-1-.08-.26-.03-.43-.31-.38-.56a.47.47 0 0 1 .41-.38c-.43-.18-.88-.33-1.32-.48-.53-.18-1.05-.37-1.58-.54-.81-.24-1.64-.4-2.47-.55a6.78 6.78 0 0 0-1.5-.09l-.27.04c-.37.09-.73.2-1.09.3l-1.11.27c-.28.06-.58.12-.87.05-.16-.04-.3-.12-.45-.17a8.88 8.88 0 0 0-2.6-.58 28.26 28.26 0 0 0-3.32.07h-.04c-1.02.09-2.04.23-3.05.44-.47.1-.93.23-1.38.38l-1.36.47a11.72 11.72 0 0 0-3.12 1.74l-.23.23-.02.02-.02.02v.01l-.01.01-.02.03.01-.01-.01.02-.02.03.01-.01a14.56 14.56 0 0 0-.91 1.56 2.86 2.86 0 0 0-.23.73l-.03.18.01-.06a6 6 0 0 0-.05.42l.01.49.07.46c.09.4.21.79.29 1.18.05.26-.16.51-.4.55l-.07.01c-.24 0-.42-.18-.47-.41v-.01.01c-.09-.43-.23-.85-.31-1.29a4.23 4.23 0 0 1-.02-1.42l-.45.12-.57.21-.29.15-.1.07-.14.13-.2.25-.17.28-.32.69a.65.65 0 0 1-.5.36c-.11.01-.23 0-.34-.01a1.4 1.4 0 0 0-.29 0l-.26.03-.4.11c-.46.16-.9.36-1.33.57l.06-.03-.89.43a17 17 0 0 0-.92.54l-.91.56-.86.5a9.2 9.2 0 0 0-.95.69l-.97.79-.99.76c-.35.26-.7.52-1.03.79-.55.47-1.07.98-1.57 1.51l-.04.04-.01.01.01-.01c-.62.69-1.19 1.43-1.73 2.19-.23.35-.44.7-.64 1.08l-.08.16-.03.06-.5 1.07c-.17.38-.36.75-.49 1.14l.02-.06-.07.21-.07.25a4.9 4.9 0 0 0-.05.35c-.01.2-.02.39-.01.59l.03.25.08.31-.02-.06.18.51.16.28.14.19.08.08c.19.18.17.5-.02.68a.47.47 0 0 1-.67-.02 3.71 3.71 0 0 1-.91-2.59l.01-.29c-.14.11-.28.21-.41.33a10.42 10.42 0 0 0-.99.99 1.6 1.6 0 0 0-.13.22c-.05.09-.09.18-.12.28l-.05.21a6 6 0 0 0-.06 1.07c.01.14.02.28.01.43a.63.63 0 0 1-.36.53c-.14.07-.3.12-.44.18a5.12 5.12 0 0 0-.88.57 10.5 10.5 0 0 0-1.75 2l.04-.05-.11.15.02-.03a8.08 8.08 0 0 0-1.15 2.13l-.12.41.01-.06c-.06.31-.12.62-.16.94a.48.48 0 0 1-.48.41h-.07a.49.49 0 0 1-.41-.45c-.15.2-.29.41-.42.62l-.2.36-.05.14-.03.12v.35l.09.64c.04.24.09.49.09.74a1.19 1.19 0 0 1-.32.84l-.48.58c-.55.69-1.01 1.45-1.47 2.2v.01a14.85 14.85 0 0 0-1.04 2.03c-.33.73-.7 1.43-1.02 2.16l.03-.06c-.33.78-.6 1.59-.89 2.38-.14.39-.32.76-.46 1.14-.15.4-.3.8-.43 1.21l-.31 1.11-.33 1.21c-.21.8-.4 1.6-.54 2.42-.06.39-.1.77-.12 1.16a9.9 9.9 0 0 0 .42 2.93l-.01-.02c.08.36.16.71.28 1.06l.16.32a7.1 7.1 0 0 0 .91 1.23c.12.13.25.24.38.36.2.17.2.49.03.68a.47.47 0 0 1-.35.15.5.5 0 0 1-.33-.12 6.6 6.6 0 0 1-1.35-1.59l-.13-.22-.01.02a.2.2 0 0 1-.04.06l-.25.47-.07.19-.02.08v.18l.01.09a2.17 2.17 0 0 0 .22.56c.1.18.24.36.28.56a.6.6 0 0 1-.1.45c-.07.1-.17.18-.26.26l-.15.17-.18.27-.21.4.02-.06-.12.27c-.2.47-.34.97-.49 1.46l-.48 1.5a21.94 21.94 0 0 0-.56 2.43c-.16.84-.32 1.67-.46 2.51l.01-.06-.04.27-.03.18-.14 1c-.04.34-.06.67-.08 1.01-.02.88-.02 1.76-.02 2.63a26.15 26.15 0 0 0 .53 5.24l-.01-.06.02.07.15.58c.05.19.12.38.19.57v.01c.06.03.12.07.16.12.11.13.14.31.09.46l.29.59c.15.26.3.53.47.78l.12.14.04.04.02.01c.21.15.27.45.12.67a.47.47 0 0 1-.39.2.44.44 0 0 1-.27-.09c-.29-.21-.48-.53-.66-.83a7.28 7.28 0 0 1-.3-.54c-.13.32-.26.63-.36.96-.06.2-.11.4-.14.6a8.24 8.24 0 0 0-.04 1.84c.02.14.04.27.08.4.08.28.17.56.17.85 0 .18-.03.34-.07.51l-.13.43c-.11.41-.21.82-.28 1.23a12.26 12.26 0 0 0-.01 2.97c.11.84.23 1.67.42 2.49a9.65 9.65 0 0 0 .82 2.09c.13.23.27.45.42.67l.26.31.09.09.23.2.3.2.48.26.38.15c.25.09.38.37.29.62a.49.49 0 0 1-.45.31 5.43 5.43 0 0 1-1.32-.6c-.08.65-.13 1.31-.15 1.96v.09c-.01.79.07 1.58.13 2.36.06.77.12 1.54.21 2.31l.16 1.02a127.73 127.73 0 0 0 .73 3.15l-.02-.06a12.99 12.99 0 0 0 2.09 4.5l.02.03.07.1.08.11a17.14 17.14 0 0 0 1.39 1.63l.43.44c.19.2.44.4.42.71-.01.18-.1.31-.23.43l-.18.15-.05.05-.03.04-.04.08-.02.07-.03.12v.09l.01.16.05.24.05.16a3.32 3.32 0 0 0 .37.64l.15.18.22.2-.05-.04c.16.13.3.27.31.49.01.19-.09.37-.17.54l-.04.1.01-.02c-.08.18-.14.37-.2.56l-.13.58c-.01.13-.03.25-.03.38 0 .19.01.37.03.56.1.65.26 1.28.4 1.92.14.67.28 1.34.44 2.01l.34 1.22c.12.4.27.79.41 1.19.13.31.26.62.41.93.14.3.3.59.46.88.25.43.51.86.79 1.27l.83 1.2c.65.87 1.31 1.74 2.04 2.54.73.74 1.49 1.45 2.29 2.12.2.17.2.49.03.68a.46.46 0 0 1-.34.15.5.5 0 0 1-.33-.12l-.87-.76.09.28.21.45c.12.22.25.43.4.63l.2.23.18.16.02.01c.15-.02.32.04.42.17l.07.11.19.07.16.04.09.01.11-.01c.26-.03.51.12.56.38.05.24-.12.53-.38.56l-.3.02a1.6 1.6 0 0 1-.43-.06l-.04-.01.02.24.15.84c.14.53.33 1.05.53 1.56.45 1.12.99 2.2 1.57 3.25l-.03-.05.11.19.06.11-.02-.03.74 1.32.37.67-.01-.03a29.68 29.68 0 0 0 2.05 3.26c.43.57.86 1.15 1.31 1.71.44.55.87 1.09 1.34 1.62.2.2.4.4.62.58a8.03 8.03 0 0 0 1.49.9l.1.04c.24.1.38.36.29.61a.51.51 0 0 1-.45.32h-.06l.02.03.35.55a6.95 6.95 0 0 0 .42.44 4.98 4.98 0 0 0 .74.42l.41.13.29.07c.1.02.21.04.3.09.12.06.21.16.26.29l.09.27.14.44c.08.2.17.39.27.58.13.22.27.42.42.63.66.85 1.4 1.64 2.15 2.41l-.04-.05a46.39 46.39 0 0 0 4.01 3.51l-.05-.04.34.26.4.31-.05-.04a22.37 22.37 0 0 0 1.93 1.32c1.76 1 3.56 1.94 5.43 2.72l.24.1.35.14a.14.14 0 0 0-.06-.02c.91.37 1.84.72 2.77 1.07.9.34 1.81.67 2.74.93.25.06.5.11.76.14.45.05.9.07 1.35.1l.72.06.7.05c.26.01.46.26.45.51a.5.5 0 0 1-.5.45h-.02l-.7-.05-.76-.06-.09-.01c.2.11.39.22.6.32.29.13.58.26.88.37l.22.06.23.03h.23-.03.08-.04l.21-.03c.11-.02.21-.05.31-.09.15-.06.31-.12.45-.2l.32-.18a.74.74 0 0 1 .41-.1c.16.01.3.09.43.16.4.21.78.45 1.18.65l.13.06c.24.11.49.2.74.29.5.15 1 .25 1.51.35h-.02c1.14.2 2.28.37 3.43.45.43.02.85.01 1.28-.01h.01l.29-.02a47.5 47.5 0 0 0 3.25-.49c.42-.09.83-.19 1.24-.32.56-.21 1.1-.46 1.64-.71.56-.26 1.12-.52 1.68-.8l.07-.03.03-.01.06-.03c.26-.13.5-.29.75-.45a10.28 10.28 0 0 0 1.74-1.64v-.01l.01-.01.02-.02.1-.12.1-.12.08-.09.06-.07a.98.98 0 0 1 .17-.18.62.62 0 0 1 .56-.11c.18.05.33.17.49.25l.02.01.05-.01.15-.04.29-.13c.17-.09.34-.19.5-.3l.12-.09.19-.19.08-.11.1-.19.01-.02.17-.44.13-.44c.03-.1.08-.19.16-.25a.49.49 0 0 1 .31-.27c.23-.06.48.06.57.28.2.2.41.4.62.58a15.77 15.77 0 0 0 1.32.95c.24.15.48.3.74.42l.22.09.32.08.19.02h.26l.57-.09c.18-.03.36-.08.54-.06.26.03.42.22.59.39.18.18.37.36.57.53.47.38.97.7 1.47 1.02.39.25.8.46 1.2.68.42.23.84.45 1.27.65.48.22.97.4 1.46.58.49.18.97.37 1.47.53a12.06 12.06 0 0 0 1.61.37l1.71.36a14.17 14.17 0 0 0 1.94.21h-.06c.37.12 1.02.16 1.67.17zm-.66.94-1.49-.07c-.49-.03-.98-.07-1.46-.15-.52-.09-1.03-.2-1.55-.31l-1.49-.31c-.51-.11-1-.28-1.49-.45l-1.42-.53c-.48-.18-.94-.39-1.4-.62-.44-.22-.87-.46-1.3-.69a17.84 17.84 0 0 1-2.54-1.7c-.2-.17-.38-.36-.56-.54l-.38.07a2.97 2.97 0 0 1-2.08-.29 12.42 12.42 0 0 1-2.37-1.65l-.05-.05-.19.48.01-.03a2.31 2.31 0 0 1-.69.9c-.14.12-.3.21-.46.31-.15.09-.31.18-.48.25-.3.14-.67.26-1 .16-.13-.04-.23-.1-.34-.16l-.14.17.01-.01-.03.03-.06.08c-.39.46-.81.9-1.26 1.3-.48.43-1.01.79-1.58 1.08l.02-.01-.05.02h.01l-.04.02-.05.03-.04.02c-.43.22-.87.41-1.3.62-.45.21-.9.43-1.36.63-.48.21-.97.38-1.48.51-.49.12-.98.21-1.47.3-.93.17-1.86.3-2.8.37h-.02a9.4 9.4 0 0 1-1.49 0c-.53-.04-1.06-.1-1.58-.17-1-.12-1.99-.29-2.97-.52a7.96 7.96 0 0 1-1.35-.46h-.01l-.04-.02a13.12 13.12 0 0 1-1.36-.73 3.32 3.32 0 0 1-1.61.55h.06l-.13.01h.06a2.7 2.7 0 0 1-1.43-.28 9.14 9.14 0 0 1-2.22-1.29 1.98 1.98 0 0 1-.4-.36 12.7 12.7 0 0 1-1.06-.28c-.49-.16-.97-.32-1.46-.5-.59-.21-1.18-.44-1.77-.67-.48-.18-.95-.36-1.42-.56-.04.03-.08.06-.13.07l-.1.04-.3.15-.25.11-.05.02.02-.01-.02.01h-.01l-.02.01-.02.01c-.32.16-.64.32-.97.44l-.71.22-.67.22h-.02c-.57.19-1.13.41-1.71.56-.64.17-1.3.27-1.97.31h-.01.01l-.53.02-.3-.01c-.18-.01-.4-.04-.55-.17-.14-.12-.24-.27-.24-.46 0-.09.02-.18.05-.27l-.49-.08a4.34 4.34 0 0 0-.52-.07l-.66-.01-1.1.16-1.99.3c-.65.09-1.31.16-1.96.24-.64.08-1.28.2-1.91.32-.62.12-1.23.25-1.86.34-.66.09-1.31.18-1.98.24-.66.06-1.31.09-1.96 0-.3-.04-.61-.09-.9-.18l.03.01-.05-.02c-.4-.12-.77-.31-1.08-.59a2 2 0 0 1-.41-.51c-.07-.13-.1-.26-.14-.4a1.82 1.82 0 0 1-.02-.52 3.72 3.72 0 0 1 .59-1.48c.23-.36.51-.68.74-1.04l.09-.16.01-.02.01-.02v-.01l-.01-.04v-.01l-.01-.02v-.02l-.08-.05.05.03a.69.69 0 0 0-.15-.07l.06.03-.19-.06-.3-.07-.18-.03.06.01c-.23-.04-.47-.04-.7-.05-1.08.01-2.17.09-3.25.2l-1.65.16-1.49.12c-.51.06-1.02.14-1.52.22-.5.08-1 .14-1.51.2l.06-.01-.16.02-.14.01h.02l-.29.03h.02-.05.01c-.65.08-1.31.17-1.96.27-.66.11-1.31.18-1.98.18-.69 0-1.38-.03-2.07-.08a6.9 6.9 0 0 1-2.76-.76c-.2-.11-.42-.23-.58-.39l-.07.04c-.24.12-.5.22-.75.32l-1.59.62-.2.08-.16.06-.23.09-.07.03c-.88.35-1.78.65-2.66.99-.94.38-1.84.85-2.8 1.18-.96.33-1.94.61-2.91.94-.5.17-.99.34-1.5.47-.5.13-1 .24-1.5.35-.88.2-1.78.43-2.68.43l-.34-.01a2.96 2.96 0 0 1-.83-.15c-.31-.12-.64-.27-.79-.59a2.11 2.11 0 0 1-.12-.38 1.53 1.53 0 0 1 0-.37 3.77 3.77 0 0 1 .51-1.35c.25-.44.55-.85.84-1.26l.92-1.22a47.2 47.2 0 0 0 1.98-2.8l.22-.41a1.95 1.95 0 0 0 .1-.32v-.06a.1.1 0 0 0-.01-.05v-.01l-.03-.07-.05-.07-.02-.03-.07-.06-.04-.02-.13-.07c-.3-.12-.61-.21-.91-.33a4.02 4.02 0 0 1-.95-.53c-.82-.73.02-1.8.45-2.51l-.01.02.02-.03.01-.01c.2-.34.39-.69.6-1.02a14.1 14.1 0 0 1 .89-1.31l.9-1.21.91-1.22c.29-.39.58-.78.86-1.19a10.6 10.6 0 0 0 .98-1.76l.18-.48a3 3 0 0 0 .08-.32l.02-.21-.01-.23-.01-.07.01.04-.02-.06a1.1 1.1 0 0 0-.08-.15l-.05-.08-.12-.14-.05-.05-.07-.05-.19-.1-.4-.14a4.7 4.7 0 0 0-.54-.11c-.47-.07-.93-.1-1.4-.18-.38-.07-.77-.2-1.05-.48a1.31 1.31 0 0 1-.33-.69c-.06-.32.03-.66.12-.96.1-.31.25-.6.41-.88l.4-.65c.27-.4.56-.79.81-1.19.06-.17.2-.31.29-.45l.31-.58c.12-.24.25-.49.36-.74l.11-.3.05-.19.01-.1v-.06l-.01-.05-.05-.15-.01-.03-.02-.03-.09-.11-.08-.07-.14-.1-.17-.09-.39-.14c-.3-.09-.61-.13-.92-.21-.37-.1-.73-.31-.92-.65-.32-.57.02-1.24.33-1.74l.58-.91c.29-.49.54-1 .77-1.53l-.02.06.1-.22-.03.06.04-.09-.03.06c.14-.32.28-.64.39-.98.04-.15.08-.3.1-.45l.01-.18-.01-.12-.02-.08-.02-.08-.03-.07a.36.36 0 0 0-.07-.1l-.07-.08-.16-.14-.3-.2c-.37-.21-.75-.4-1.14-.58-.93-.4-1.89-.71-2.83-1.09a16.45 16.45 0 0 1-2.78-1.45c-.36-.27-.7-.61-.89-1.03a2.85 2.85 0 0 1-.11-1.71c.11-.5.26-1 .51-1.44a10 10 0 0 1 .85-1.3c.32-.41.65-.81.99-1.2.7-.78 1.39-1.58 2.07-2.38l1.98-2.36c.56-.66 1.13-1.31 1.67-1.98.37-.48.75-.96 1.08-1.46l.15-.26.16-.33.07-.18.01-.03.01-.17v-.02l-.04-.09-.05-.08-.02-.02-.11-.1-.1-.07-.19-.1c-.18-.07-.36-.14-.55-.19l.06.02-.2-.06h.01l-.75-.24a2.44 2.44 0 0 1-.71-.41.8.8 0 0 1-.24-.38c-.09-.26-.03-.55.05-.81.07-.25.21-.47.35-.69.14-.22.3-.43.46-.64l-.04.05 1.33-1.63-.01-.01-.13-.15a.65.65 0 0 0-.09-.08l-.03-.02-.1-.05-.16-.06c-.1-.02-.19-.05-.29-.06-.38-.05-.76-.07-1.13-.18a1.58 1.58 0 0 1-.62-.31.83.83 0 0 1-.19-.26.91.91 0 0 1-.11-.63c.02-.12.06-.23.1-.34.19-.45.52-.82.86-1.17l.91-.88-.02.02.04-.04.23-.22.01-.01.02-.02.01-.01.04-.04.04-.04v.01l.12-.12.12-.12.05-.05.36-.37-1.88-.3-.98-.17a3.97 3.97 0 0 1-1.74-.77c-.18-.14-.32-.3-.4-.51a1.42 1.42 0 0 1-.04-.81c.18-.7.64-1.28 1.08-1.84.42-.53.83-1.06 1.19-1.63l-.03.05.24-.4.04-.1.01-.05.01-.06v-.09l-.02-.04-.01-.01-.03-.03-.12-.12-.21-.15-.74-.46c-.23-.15-.48-.31-.68-.5a1.05 1.05 0 0 1-.37-.65c-.03-.3.06-.61.22-.86l.5-.74.25-.44.09-.23.04-.15.03-.24v-.13l-.03-.18-.05-.18-.12-.27a4.6 4.6 0 0 0-.47-.66 7 7 0 0 0-1.2-1c-.29-.21-.6-.4-.89-.6a24.45 24.45 0 0 1-2.55-2 3.06 3.06 0 0 1-.51-.57l-.14-.22c-.09-.14-.16-.3-.2-.46-.18-.78.26-1.52.74-2.09.23-.28.49-.53.77-.77.27-.23.56-.44.85-.64.28-.2.57-.39.87-.56.62-.37 1.26-.72 1.89-1.07 1.26-.69 2.51-1.42 3.75-2.14l1.97-1.15a29.4 29.4 0 0 0 1.83-1.15c.67-.5 1.32-1.03 1.94-1.58a8.42 8.42 0 0 0 .9-1.02l.11-.18.02-.05.01-.06v-.09L17.6 88l-.03-.11-.05-.12-.06-.1-.1-.13a1.8 1.8 0 0 0-.2-.19c-.18-.14-.36-.26-.55-.39l-.87-.56c-.34-.23-.72-.51-.84-.91a1.1 1.1 0 0 1-.05-.4c.02-.17.08-.33.16-.49.08-.17.18-.33.29-.49l.62-.85.1-.18-.03.06a.42.42 0 0 0 .06-.14l.01-.06v-.06l-.01-.06-.05-.16.02.06-.04-.08c-.03-.05-.06-.11-.1-.15l.04.05a.5.5 0 0 0-.07-.08l-.15-.15c-.14-.12-.3-.22-.45-.33a18.22 18.22 0 0 0-3.12-1.5c-.66-.27-1.32-.56-1.95-.91a14.3 14.3 0 0 1-1.76-1.24 6.12 6.12 0 0 1-1.58-1.85 1.29 1.29 0 0 1-.12-.58c.03-.24.11-.45.23-.65.09-.15.2-.29.32-.42.15-.18.32-.35.48-.52l.49-.48.08-.1-.01-.05-.01-.04a.47.47 0 0 0-.05-.1l-.01-.01.01.01-.1-.13a1.88 1.88 0 0 0-.25-.24c-.54-.44-1.17-.77-1.73-1.19l-.41-.32a2.2 2.2 0 0 1-.5-.51c-.1-.15-.21-.3-.24-.48a1.61 1.61 0 0 1-.02-.49c.04-.36.21-.7.39-1 .38-.63.89-1.16 1.44-1.64.53-.45 1.14-.81 1.74-1.15l1.9-1.07a35.54 35.54 0 0 1 3.21-1.62l-.36-.16c-.19-.09-.38-.17-.56-.27a2.05 2.05 0 0 1-.59-.42c-.28-.33-.16-.8.08-1.11.12-.16.26-.3.4-.44.26-.26.56-.48.82-.73.08-.09.17-.18.24-.28l.08-.12.04-.09.04-.11a.36.36 0 0 0 .02-.11v-.01l-.01-.02-.07-.13.03.05-.07-.1-.16-.17c-.17-.16-.36-.3-.54-.44l-1.58-1.12-1.63-1.22-.05-.03a1.46 1.46 0 0 0-.13-.09l.05.04-.14-.1.03.02-.18-.13.05.04a.55.55 0 0 1-.09-.07l.05.04-.06-.05.05.04-.06-.05-.01-.01-.04-.03-.08-.06-.13-.1.05.04-.15-.11.05.04-.13-.1.05.04a48.4 48.4 0 0 1-3.87-3.21v.01l-.2-.2.04.04-.12-.12a8.88 8.88 0 0 1-1.19-1.5c-.12-.2-.24-.41-.33-.62l-.08-.17-.02-.05c-.21-.5-.33-1.07-.1-1.59.22-.5.67-.82 1.12-1.1.43-.26.89-.47 1.35-.68.47-.21.94-.43 1.4-.66l1.41-.73c.7-.37 1.41-.73 2.09-1.14l.64-.43a5 5 0 0 0 .34-.31l.14-.17.07-.11.03-.05.01-.04c0-.05.01-.09 0-.14v.06l-.01-.15c-.05-.32-.15-.63-.23-.95l-.11-.44a2.24 2.24 0 0 1-.06-.73 1.2 1.2 0 0 1 .36-.8c.19-.21.42-.35.66-.48l.78-.42.2-.13-.05.04.08-.06.02-.02.02-.04.01-.04.01-.06v-.06l-.01-.1-.03-.15a2 2 0 0 0-.25-.54 5.5 5.5 0 0 1-.15-.25l.03.05a7.8 7.8 0 0 0-.53-.75c-.32-.4-.66-.77-1-1.14-.35-.37-.68-.76-1.01-1.15-.32-.38-.6-.79-.84-1.23-.34-.62-.73-1.35-.52-2.08.3-1.03 1.41-1.38 2.36-1.54l.59-.09-.36-.24a5.6 5.6 0 0 1-1.24-1.19 2.9 2.9 0 0 1-.4-.68 2 2 0 0 1-.13-.55 1.47 1.47 0 0 1 .69-1.34l.37-.25.65-.39.16-.12.01-.01v-.03l-.01-.06-.04-.09v-.02l-.02-.04.02.04-.09-.16c-.27-.42-.61-.79-.91-1.19-.31-.4-.59-.81-.84-1.24-.12-.2-.22-.4-.33-.61-.15-.29-.28-.6-.36-.92a1.6 1.6 0 0 1 .02-.72c.06-.26.24-.5.41-.71.18-.22.41-.4.6-.61a.55.55 0 0 0 .07-.09l.05-.08.03-.06.02-.06.02-.12v-.03l-.01-.09.01.06-.04-.21-.09-.24a5.12 5.12 0 0 0-.22-.4c-.19-.29-.4-.55-.61-.82l-1.32-1.53c-.42-.49-.83-.99-1.17-1.53l-.1-.16.03.05-.13-.2.03.05c-.1-.15-.18-.31-.27-.46a9.86 9.86 0 0 1-.23-.46l-.19-.45-.19-.57a3.6 3.6 0 0 1-.14-1.69c.06-.34.2-.66.36-.96.21-.38.53-.69.86-.96.39-.32.84-.54 1.3-.75.31-.14.63-.24.95-.35.32-.1.65-.19.98-.25l1.05-.18c.69-.1 1.37-.2 2.07-.23.36-.02.71-.03 1.07-.02l1.14.05c1.4.07 2.8.25 4.19.41l.66.07 1.86.17c.57.04 1.14.05 1.71.05l.54-.02.6-.06.42-.09.23-.09a.47.47 0 0 1 .1-.05l.06-.04.04-.04.05-.06a.22.22 0 0 1 .03-.05l.03-.07.05-.18-.01.06.01-.1.01-.23a4.35 4.35 0 0 0-.06-.52c-.06-.32-.13-.64-.18-.97-.05-.28-.04-.58.08-.84.15-.34.4-.6.71-.79.46-.28.98-.41 1.5-.51.35-.07.69-.1 1.04-.13.35-.03.7-.01 1.04-.01.35.01.71.05 1.06.08.38.04.75.1 1.12.16a43.39 43.39 0 0 1 3 .69l1.95.57 1.9.56 2.09.55c1.37.32 2.74.6 4.12.84 1.33.24 2.67.41 3.99.65l1.6.3c.52.1 1.03.22 1.54.34.96.21 1.91.42 2.89.55.37.03.74.06 1.12.05l.24-.02.22-.05.03-.01.01-.01.02-.02a.08.08 0 0 0 .02-.04l.03-.07.03-.09.04-.21.01-.34-.02-.41c-.01-.17-.04-.35-.03-.52.01-.16.04-.31.1-.46.05-.13.14-.25.24-.35.29-.29.65-.47 1.03-.61.24-.09.49-.14.75-.2l.48-.09.48-.06.6-.04c1.4-.06 2.79.21 4.16.48.96.19 1.93.36 2.9.52.87.13 1.74.28 2.62.4 0-.13.01-.27.07-.39.23-.52.88-.65 1.39-.61 1.02.09 1.99.42 2.97.67.5.11 1.01.2 1.52.3l.8.16.79.11c.33.03.65.05.99.04h-.06l.32-.02v-.12l-.01-.36a1 1 0 0 1 .38-.73 2.1 2.1 0 0 1 1.3-.3c.54.01 1.07.06 1.61.14.51.07 1.01.17 1.52.27.5.1 1 .2 1.49.33.72.18 1.42.42 2.12.66a25.12 25.12 0 0 0 3.21.84l1.06.2.38.08h.05c.44-.03.88-.05 1.33-.04l1.3-.01.66-.02.35.02c.19.02.4.14.49.31.04.08.08.15.09.24a.78.78 0 0 1-.06.37c-.05.14-.15.27-.24.39-.1.14-.23.28-.34.42l.09.08-.05-.04a.2.2 0 0 0 .06.04l.12.07.2.08c.31.1.63.18.94.29.31.11.61.25.89.44l.39.3c.14.11.29.21.4.35.18.21.26.46.27.73.01.14-.01.28-.01.41l.01.04.13.07c.19.09.39.17.58.27.16.08.32.19.43.33.14.17.23.37.26.59.07.44-.04.89-.12 1.32l.01-.02a.9.9 0 0 0-.03.23v.09l.04.34c.01.13 0 .26-.01.39v.05l-.02.14.78.67.93.78c.35.3.66.62.97.95.27.29.56.56.82.85l.09.1a2.77 2.77 0 0 1 .3-.98c.09-.18.2-.36.31-.53.13-.19.27-.36.41-.54.14-.18.28-.36.44-.53a8.64 8.64 0 0 1 1.07-.97c.42-.32.87-.6 1.31-.88a24.84 24.84 0 0 1 5.57-2.49c.48-.13.98-.19 1.47-.25s.99-.12 1.49-.11c.25 0 .5.02.75.05.22.03.43.08.65.1h.11l.13-.02.26-.08.02-.01.21-.1c.33-.19.65-.39.96-.61l-.03.02.02-.02a1.53 1.53 0 0 1 .11-.07l.12-.08h.01l.08-.06.1-.07a.18.18 0 0 0-.05.04l.51-.35a5.7 5.7 0 0 1 1.11-.53l.57-.2a57.43 57.43 0 0 1 2.4-.68l-.06.01c.27-.06.53-.12.8-.16l.75-.11c.52-.07 1.05-.12 1.57-.16.49-.04.98-.03 1.47 0l.75.07c.32.04.65.11.94.26.22.11.39.28.59.42l.05.04c.31-.05.62-.08.94-.11.23-.02.45-.05.68-.05a6.33 6.33 0 0 1 2.09.39c.34.16.68.35.99.57l.28.22.33.01.6-.02c.28 0 .55-.03.82-.03l.89-.02c.28-.01.55-.04.83-.04h.1l.4-.02h.42c.2 0 .39-.03.59-.03.26 0 .51.03.77.03h-.06l.64.02.62-.01.57.04.58.01.57.02c.24-.01.47-.04.71-.03l.15.01v-.13l-.01-.18a.5.5 0 0 1 .04-.25l-.01-.51a7.87 7.87 0 0 0-.03-.78 16.3 16.3 0 0 1-.08-.73l-.03-.69c-.01-.47-.07-.93-.07-1.4 0-.22-.01-.45-.03-.67l-.06-.65-.03-.93v-.04a.49.49 0 0 1 .46-.5c.26-.01.49.2.5.46l.02.77c.01.41.07.82.08 1.24l.01.62.04.63c.03.43.02.86.06 1.28.02.23.06.46.07.69.02.23.02.47.02.7l.02 1.07h.51l1.19.05h-.06c.67.02 1.34.01 2.01 0 .69 0 1.37.05 2.06.05l.87-.01h1.14l1.02.03.96.01c.54 0 1.08-.02 1.61-.04.56-.02 1.12 0 1.68.02.55.02 1.09.02 1.64.01.55-.01 1.09.01 1.64.04h-.05c.54.02 1.08.02 1.62.01.56-.01 1.13-.01 1.69.01a87.56 87.56 0 0 0 3.29.06h.08l2.22.11h1.96l1.97.06 1.02.03c.34.01.67.04 1.01.06.72.05 1.45.08 2.17.11l1.41.1.63.03.02-.56.01-1.39v-.04l-.03-1.48c0-.48-.02-.95 0-1.43.02-.47.02-.95.03-1.42l.02-.71-.01-.66V2a.49.49 0 0 1 .5-.46c.26.01.47.24.46.5-.01.33.01.67.01 1.01l-.02.71-.01.69c-.01.49-.03.97-.02 1.46v1.44c.02.46.03.92.02 1.38 0 .45 0 .91-.02 1.36l.72.02h-.01l1.06.05c.63.02 1.26.01 1.89 0 .63-.01 1.25 0 1.88.03h-.06c.68.02 1.36.06 2.04.04.7-.01 1.4-.01 2.11.02.34.01.68.03 1.02.02.34 0 .69-.04 1.03-.05.67-.03 1.34.03 2.01.06l.32.02c.57.02 1.14.02 1.71.02l.79-.01c.24 0 .48 0 .72-.02l1.03-.09.98-.07.53-.07c.26-.03.52-.04.78-.02s.45.28.43.53c-.03.27-.27.44-.53.43h-.04c-.17 0-.33 0-.5.02l-.88.1c-.39.03-.78.04-1.17.08-.37.04-.74.08-1.11.08l-1.35.01c-.49 0-.98 0-1.46-.03l-1.42-.08a8.61 8.61 0 0 0-.88.01l-.95.05c-.61.02-1.23-.04-1.85-.05h-1.85a55.9 55.9 0 0 1-1.83-.06h.03c-.72-.03-1.44-.01-2.16 0-.39 0-.77.01-1.16-.01l-1.12-.05-.14-.01-.63-.02v.5c0 .46-.04.92-.03 1.38l.04.91.01.95c.01.32.04.63.04.95v.88c.01.29.03.58.03.88l.01 1.03.01 1.06v1.06-.01c.01.31.03.61.03.92 0 .29-.02.58-.01.88.01.33.04.65.03.98 0 .33-.02.66-.01.99v-.06.11l.02.95c0 .32-.03.64-.02.96v.03c.01.3.02.6.01.91l-.02.88c0 .28 0 .55-.02.82-.01.29-.04.57-.04.86v.07l.01.36v-.07c.01.45-.03.9-.05 1.36l-.01.63-.02.67-.02.63v.62c-.01.32-.03.63-.03.95l-.02.35-.01.19v.06c.01.09.02.19.01.28v.02l.02.75v.36h.02c.04.01.08.01.11.03h.04c.51.01 1.02 0 1.52.02l1.52.08c.57.02 1.13-.02 1.7-.02.3 0 .59.02.89.04l.77.04c.65.02 1.3.02 1.95.05l1.83.1 1.81.04h-.06l.28.01h-.01.06l.14.01h-.06l1.03.03 1.03-.01c.36 0 .72 0 1.08.03l.97.06c.41.01.82 0 1.23-.01.42-.02.85 0 1.27.02.63.02 1.26 0 1.89-.04a7.4 7.4 0 0 1 1.63.05.5.5 0 0 1 .33.18c.08.1.12.22.1.35-.02.22-.23.43-.46.43l-.07-.01a5.6 5.6 0 0 0-.59-.07c-.51-.02-1.02.03-1.52.05-.54.02-1.08.02-1.63-.01a9.2 9.2 0 0 0-.91 0c-.28.01-.56.03-.83.02-.6-.01-1.19-.06-1.79-.09-.47-.01-.93 0-1.4.01-.47 0-.95-.02-1.42-.04h.01-.06.01l-.14-.01h.06l-.3-.01h.06c-.63-.03-1.27-.02-1.9-.05l-1.8-.1-1.65-.04-1.58-.08c-.29-.01-.59 0-.88.01-.28.01-.56.02-.84.01-.56-.01-1.12-.06-1.67-.09l-1.4-.01a.64.64 0 0 1-.2.03h-.08c-.05 0-.09-.02-.13-.03-.04.96-.12 1.91-.16 2.87v-.06a35.05 35.05 0 0 0 .07 2.96c.04.86.07 1.73.09 2.6.02.97.06 1.93.05 2.9l-.06 2.67-.03 2.64a103.36 103.36 0 0 0 .05 2.92l.09.94v-.01c.08.67.07 1.34.14 2.01l.01.08.01.1-.01-.06.06.66.05.61.03.54v.57c.01.39.04.79.07 1.18.03.41.1.82.12 1.24.01.29.02.57.05.86l.08.82.07.8c.03.25.03.51.05.76l.08.55.08.72v-.01.03l.01.05v.02l.02.13v-.04l.01.07.01.1v-.02c.04.29.07.59.08.88l.05.7c.04.38.05.77.1 1.15l.07.39a.48.48 0 0 1-.08.37l.59.01c.34.01.68-.01 1.02-.01h.69l.62-.01 1.51-.07.9-.01h.55l1.45-.02c.48-.01.96.01 1.44.02.46.02.91.03 1.37.03.5 0 .99.01 1.49.03h.02l.2.01h-.01.03c.5.02 1.01.02 1.51.02l1.47.03.91-.01c.64-.01 1.29-.02 1.93.02l.2.01c.26.02.45.27.43.53a.49.49 0 0 1-.49.43h-.04l-.38-.03c-.5-.02-1-.01-1.51 0l-1.19.01c-.48-.01-.96-.04-1.44-.03-.5 0-.99 0-1.49-.02l-.19-.01h.02-.04.01l-1.5-.03c-.51 0-1.01-.02-1.52-.04-.99-.04-1.98.01-2.97.01h-.34c-.38 0-.77 0-1.15.02l-1.34.06a.46.46 0 0 1-.23.06.53.53 0 0 1-.24-.06h-.31v-.01l-.78.01-.42.01-.47-.01h-.41l.05.87v-.07l.01.33.01.15v-.07c.04 1.01.05 2.02-.02 3.03l-.09 1.44a26.9 26.9 0 0 1-.39 3.79l-.11.57.01.01.35.47a3.46 3.46 0 0 1 .73 1.99 6.15 6.15 0 0 1-.28 2.12c-.06.17-.12.34-.21.51-.03.07-.07.12-.11.18l.01-.01-.02.02c.14.44.25.89.33 1.35l.26 1.46c.09.48.16.97.24 1.45.15.96.31 1.92.4 2.89v-.03c.04.39.05.78.06 1.17l.03 1.15c.01.8.03 1.6.01 2.41v-.06l-.01.35v-.06l-.01.59v-.06c-.02.68-.04 1.36-.1 2.03-.06.64-.12 1.29-.21 1.93l-.01.05-.01.08c-.07.46-.17.92-.25 1.39-.08.49-.16.99-.27 1.48l-.02.07h1.18l.22-.01h.58l.33-.01h-.01.23l.22.02h.07c.49-.04.98-.1 1.47-.12l.78-.03h-.03.14-.01l1.69-.03 1.66-.01h-.06.09-.02.19l1.44-.05 1.4-.01 1.48-.06.96-.01h.65c.49-.01.98-.05 1.47-.05l1.5.03h1.49l1.47.05.71.01h-.07.03c.13 0 .25.02.35.11.1.08.16.2.17.32.02.25-.17.52-.43.52-.47.01-.94-.01-1.4-.03-.42-.02-.84-.04-1.25-.03h-1.38c-.47-.01-.94-.03-1.41-.02l-1.29.05h-1.27c-.56.01-1.11.05-1.67.07-.55.02-1.1.01-1.65.02h.01l-1.3.05h-.04.01-.2.07l-1.66.01-1.66.02h.06-.15.03-.07.01-.03.01c-.49.02-.98.04-1.46.08a25.94 25.94 0 0 1-2.37.14l.02-.05-.27.01h-.4.01-.51l-.42.02-.13.4-.44 1.36.02-.06-.1.34.02-.06c-.13.47-.3.92-.48 1.38l.01.05.05.72c.02.24.03.47.03.71v-.02.13l.03.52.01.5v.06l.01.68v.04l-.02.67v.72l-.01.21.04 1.15c.03.82.04 1.64.02 2.46-.01.92-.05 1.83-.04 2.75 0 .92.06 1.83.09 2.74.04.99.02 1.99.01 2.98-.01.97-.02 1.94.03 2.92.04.82.09 1.63.09 2.45 0 .85-.08 1.7-.15 2.55-.04.49-.08.98-.1 1.47-.02 1.03.03 2.06.03 3.08 0 .67-.05 1.34-.1 2.01h.11c.99.01 1.98.1 2.97.13.43.01.87.03 1.3.06.43.02.86.03 1.29.02.41 0 .82-.01 1.22.01.44.02.88.03 1.32.02l.24-.01h-.01c.43-.01.86-.02 1.29 0 .46.02.92.03 1.38.02.45-.01.9-.02 1.35-.01.44.01.89.03 1.33.02.5-.01 1-.05 1.51-.06h-.03l1.05-.01c.66-.02 1.31-.04 1.97-.04.3 0 .59.02.89.01h.93c.26 0 .47.24.46.5a.49.49 0 0 1-.5.46h-1.28l-1.31-.01h.01l-1.07.03-1.13.01h.07-.13.05c-.51.02-1.02.06-1.52.06h-.31l-.44-.01-.71-.02-.84.01-.72.01c-.5 0-1.01-.03-1.51-.04h-.41.06l-.67.02h.07c-.51.01-1.01-.01-1.52-.02-.5-.02-.99 0-1.49 0-.49 0-.98-.03-1.48-.06-.49-.03-.99-.03-1.49-.06l-1.5-.08-.86-.02-.01.16c-.04 1.49-.03 2.97-.03 4.46l.01 2.27.04 2.29c.01.75.01 1.49-.01 2.23-.02.67-.04 1.35-.02 2.02.02.75.05 1.49.04 2.23-.02.8-.07 1.61-.1 2.41-.02.96 0 1.92-.02 2.89-.01.88-.06 1.76-.09 2.64-.01.37 0 .74.01 1.11.01.4.05.8.08 1.2.06.9.1 1.8.09 2.7-.01.89-.02 1.77-.01 2.66.01.77.05 1.55.09 2.32l.02.38 1.18-.02h1.63-.06.31-.06l1.59-.04h1.61-.01.32c.63-.01 1.26-.04 1.89-.04.65 0 1.3.03 1.95.02.58-.02 1.16-.04 1.74-.04l1.57.02h-.02.06c.77-.01 1.55-.06 2.32-.06l2.08.01h-.02.19c.13 0 .25.03.35.11.1.08.16.2.17.33.02.25-.18.51-.44.51h-.17.01-2.58c-.63.01-1.26.05-1.89.05-.61.01-1.21-.02-1.82-.02l-1.82.05c-.63.01-1.26-.03-1.89-.03l-1.65.04h.01-1.89.03-.06l-1.63.04h.06-2.1l-.88.02.05.96c.04.82.04 1.63.02 2.45-.01.77 0 1.55-.02 2.32-.01.23.01.5-.12.7a.47.47 0 0 1-.39.2.49.49 0 0 1-.47-.6v-.01l.02-.3c.02-.73.02-1.45.02-2.18l.01-1.12-.03-1.23c-.01-.4-.04-.79-.06-1.19l-1.82-.01h.02-.06.02c-.72.02-1.43.05-2.15.02-.76-.03-1.53-.08-2.29-.07-.55.01-1.1.02-1.64 0-.61-.02-1.21-.06-1.82-.09l-1.75-.04a84.3 84.3 0 0 0-3.25 0h-1.65l-1.2.03h-.15.06l-1.23-.03a20.47 20.47 0 0 0-2.04.01l-1 .07c-.66.03-1.32.03-1.98.08-.66.04-1.32.11-1.99.13-.39.01-.77 0-1.16-.01-.3-.01-.6-.02-.89-.01h.06c-.59.01-1.18.07-1.78.08-.59.01-1.19-.02-1.78-.02-.62.01-1.23.04-1.85.02l-.94-.05-.85-.04v.22c-.02.93.06 1.86.03 2.8l-.01.77.03.74c.02.45.04.9.02 1.35v-.06l-.01.51c.01.26-.2.49-.47.49h-.01a.48.48 0 0 1-.48-.47l.01-.62v.06c.01-.39-.01-.79-.02-1.18-.02-.45-.04-.91-.03-1.36v-1.36c-.02-.47-.03-.95-.03-1.42l.01-.5-1.1-.04-.22-.01-.73.44.05-.03-.16.09-.06.03-1.17.66c-.4.22-.8.43-1.22.61a31.22 31.22 0 0 1-1.94.75l-.55.17-.02.01-.04.04-.12.14-.34.48a3.8 3.8 0 0 1-.46.52c-.33.31-.71.57-1.1.8l.02-.01a3.63 3.63 0 0 1-1.23.51c-.41.1-.85.12-1.28.13h.06-.24c-.13 0-.27-.01-.39-.05l-.07-.02-.04.02h.01c-.34.17-.68.33-1.04.48-.38.15-.77.28-1.16.41-.75.24-1.52.45-2.3.61h.01l-.03.01h-.02l-.08.02h.02a25.8 25.8 0 0 1-4.81.48 2.45 2.45 0 0 0-1.09-.19z"/></g><defs><clipPath id="a"><path fill="#fff" d="M0 0h208v189H0z"/></clipPath></defs></svg>