<svg width="344" height="101" fill="none" xmlns="http://www.w3.org/2000/svg"><mask id="a" maskUnits="userSpaceOnUse" x="0" y="0" width="344" height="101"><path d="M.06.94h343.86v100H.06V.94z" fill="#fff"/></mask><g mask="url(#a)" fill-rule="evenodd" clip-rule="evenodd" fill="#969594"><path d="M80.6 29.1a19.67 19.67 0 0 1-3.77 1.68L62.1 34.84l-9.83 30.4-2.55.8 2.08-23.21L50.64 38l-13.8 3.8L.7 50a41.42 41.42 0 0 0 40.7 33.9 41.44 41.44 0 0 0 39.2-54.8zm-31.51 3.26-1.7-4.66-14.5-18.65 2.6-.62 24.99 20.8 14.69-4.05c1.17-.29 2.44-.42 3.61-.48l.14.2A41.39 41.39 0 0 0 41.39.96 41.44 41.44 0 0 0 .36 47.84L35.18 36.2l13.91-3.83zm121.39 46.68H159.4l-.1-.05-9.56-11.65L140.19 79l-.1.05h-8.89l-.12-.08.02-.15 14.06-17.27-13.9-17.1-.02-.16.12-.08h11.08l.1.06 8.38 10.38 8.53-10.39.1-.05h9.04l.13.08-.02.15-13.2 15.85 15.09 18.53.01.15-.12.08zm59.98-28.7c-4.9 0-8.25 2.97-9.22 8.15h16.7v-.33c0-4.15-3.05-7.82-7.48-7.82zm16.1 13.45-.13.07h-25.36c.52 5.9 4.36 9.27 10.56 9.27 3.83 0 7.89-1.3 13.63-4.36l.2.14-.01 7.8-.08.12c-5.34 2.25-10.7 3.78-14.9 3.78-10.92 0-18.84-7.95-18.84-18.92 0-10.96 7.92-18.91 18.83-18.91 9.97 0 16.37 6.71 16.37 15.93 0 1.5-.26 4.97-.27 5.08zm51.52-26.78a5.6 5.6 0 0 1-5.64-5.57 5.68 5.68 0 0 1 5.64-5.71 5.68 5.68 0 0 1 5.64 5.71 5.6 5.6 0 0 1-5.64 5.57zm-4.57 42.03-.14-.14V44.35l.12-.15h9.16l.11.15V78.9l-.14.14h-9.1zm-106.27-5.2c-1.66 0-3.35-.24-5.29-.75l.02-22.18a20.07 20.07 0 0 1 6.21-1.06c6.35 0 10.62 4.68 10.62 11.64 0 7.5-4.54 12.35-11.56 12.35zm2.48-31.05c-2.57 0-5.19.46-7.92 1.41h-9.12l-.14.14V101a21 21 0 0 0 9.42-3.7V80.08c2.24.32 4.1.53 5.88.53 12.5 0 20.57-7.48 20.57-19.07 0-11.04-7.69-18.75-18.68-18.75zm87.12 28.17c-2.85 1.5-5.4 2.22-7.8 2.22-5.66 0-9.04-4-9.04-10.7 0-7.73 4.32-12.74 11.02-12.74 1.84 0 3.64.45 5.82 1.45v19.77zm0-45.06V44a26.17 26.17 0 0 0-7.4-1.13c-10.87 0-19.07 8.2-19.07 19.06 0 10.83 7.23 18.68 17.18 18.68 3.45 0 6.68-.87 10.48-2.82v3.12a21.07 21.07 0 0 0 8.22-3.49V22.2a20.5 20.5 0 0 0-9.41 3.7zm57.66 44.99c-2.76 1.6-5.12 2.37-7.24 2.37-6.06 0-9.68-4-9.68-10.7 0-7.62 4.26-12.73 10.63-12.73 1.7 0 3.75.65 6.29 1.98V70.9zm9.42-27.1-.4-.4-7.4.02-.4.4v1.26h-.18c-3.43-1.5-6.35-2.2-9.22-2.2-10.24 0-18.28 8.51-18.28 19.38 0 10.98 7.2 18.36 17.9 18.36 2.85 0 6.52-.2 9.95-4.14v4.44c2.43-.51 5.3-1.55 8.02-3.5V43.8zM105.89 70.28l22.94-.01a20.8 20.8 0 0 1-3.2 8.63h-23.87a5.68 5.68 0 0 1-5.62-5.14l-.04-.1V28.4l.04-.1a5.68 5.68 0 0 1 5.62-5.15l.26.01h26.76a21 21 0 0 1-3.2 8.69h-19.7v12.3h19.5l.14.15v8.53l-.14.14h-19.5v17.3z"/></g></svg>