<svg width="172" height="24" fill="none" xmlns="http://www.w3.org/2000/svg"><path d="M0 22.945S9.031 2.113 27.918.93c.117.004 5.664-.47 6.727-.47h58.601s7.082.06 9.738 8.852c.059.176-8.156.036-8.156.036s-.668-.922-2.262-1.332H78.848s-3.07.468-3.07 3.953c0 .414.593 2.949 3.007 3.543h13.637s1.594-.356 2.539-1.594h7.727s-.059 6.664-9.207 9.086H78.258s-9.324-1.297-10.211-10.977c0-.175-.184-7.257 6.543-10.386.586-.23 2.293-.95 2.293-.95s-7.406 1.922-9.473 2.75c-2.066.825-9.398 4.16-14.058 10.594-4.664 6.434-5.961 9.027-5.961 9.027H25.117S34.172 6.692 46.398 2.88c.352-.06 6.274-2.06 10.13-2.353-.77-.058-11.243.657-17.098 3.946-5.774 3.238-14.32 12.57-17.094 18.53C18.44 23.004 0 22.946 0 22.946zM102.5.098h8.281s5.602 13.824 6.219 14.386c.496.454 1.563.84 2.629.84 1.062 0 1.601-.414 2.406-.84.949-.504 6.438-14.441 6.438-14.441h8.226s-6.773 16.453-7.164 17.07c-.39.617-3.582 5.707-9.906 5.707-6.438 0-9.57-4.922-10.02-5.707C109.16 16.328 102.5.098 102.5.098zM161.551 0h-16.063s-9.152 3.05-9.152 11.574c0 8.524 9.152 11.395 9.152 11.395h16.063s10.316-.817 9.871-13.02h-13.731v2.942h5.832s-.628 3.617-3.32 3.617h-13.101s-3.227-2.152-3.227-4.934c0-2.781 3.141-4.984 3.141-4.984h23.687S169.18 1.973 161.551 0z" fill="#969594"/></svg>