<svg width="126" height="109" fill="none" xmlns="http://www.w3.org/2000/svg"><path d="M121.75 108.53h3.55L78.15 26.88l-.02.03v-.02L48.08 78.9h-4.13l32.1-55.6-1.77-3.06L40.42 78.9h-4.13l35.93-62.24-1.77-3.07-37.7 65.3H28.6l39.77-68.88-1.77-3.07L25.07 78.9h-4.13l43.6-75.53L62.78.3 15.63 81.96h.03l-.01.02h60.06l2.06 3.58h-64.2l-1.76 3.08h67.73l2.07 3.57H9.75l-1.77 3.06h75.4l2.07 3.58H5.9l-1.77 3.07h83.08l2.06 3.58H2.08L.3 108.57h94.3l-.02-.03h.03L64.58 56.53l2.06-3.58 32.1 55.59h3.54L68.4 49.88l2.06-3.57 35.94 62.24 3.54-.01-37.7-65.3 2.06-3.58 39.77 68.89 3.55-.01-41.54-71.96 2.07-3.57 43.6 75.53zm-47.8-29.61H51.62L62.8 59.58l11.16 19.34z" fill="#CD9E67"/></svg>