<svg width="273" height="88" fill="none" xmlns="http://www.w3.org/2000/svg"><g clip-path="url(#a)"><path fill-rule="evenodd" clip-rule="evenodd" d="M238.85 34.68c.5-1.13.92-2.6 1.17-3.38h.26c.07 1.05.25 2.27.59 3.47.83 3.73 7.15 24.46 7.15 24.46h-20.38l11.2-24.55zM242.96.36h-1.17L197.7 86.1h17.17L221 73.09h31.14l3.87 13H273L242.96.37zm-88.01 3.71h16.07l-5.9 66.75h23.06c1.68 0 7.15-.07 8.66-.07l-1.5 15.34h-47.72l7.33-82.02zM75.18 45.7c2.1-23.57 18.1-43.17 45.6-43.17 7.32 0 14.3 1.65 21.22 6.17l-1.86 19.5c-6.3-8.42-13.88-9.71-20.86-9.71-17.17 0-26.6 11.88-27.94 26.88-1.27 14.73 6.3 26.6 22.97 26.6 7.25 0 14.9-2.08 22.98-10.13l-1.77 20.02C127.69 86.1 120.37 88 113.05 88 85.7 88 73.18 67.8 75.19 45.7zM.2 62.34c-.33-2.86-.17-7.03-.17-9.11L4.4 4.07h16.1l-4.37 49.59c-.94 10.76 3.28 18.38 14.04 18.38 10.94 0 16.74-7.7 17.67-17.25l4.64-50.72h16.15l-4.46 50.04C62.3 73.43 49.52 87.83 28.82 87.83c-16.15 0-26.59-10.4-28.6-25.5z" fill="#969594"/></g><defs><clipPath id="a"><path fill="#969594" d="M0 0h273v88H0z"/></clipPath></defs></svg>