<svg width="250" height="88" fill="none" xmlns="http://www.w3.org/2000/svg"><path fill-rule="evenodd" clip-rule="evenodd" d="M249.44 1.02V86.9H.63V1.02h248.8zm-1.79 42.94c0 22.48-54.9 40.7-122.62 40.7S2.41 66.45 2.41 43.97c0-22.48 54.9-40.7 122.62-40.7s122.62 18.22 122.62 40.7z" fill="#969594"/><path fill-rule="evenodd" clip-rule="evenodd" d="M57.37 60.87c.58 0 .82-.23.5-.58-.24-.28-.65-2.14-.65-4.12V33.05c0-1.98.41-3.84.66-4.12.3-.35.07-.58-.5-.58h-20.9c-.58 0-.81.23-.5.58.24.28.66 2.14.66 4.12v23.12c0 1.98-.42 3.84-.66 4.12-.31.35-.08.58.5.58h20.9zm31.45-20.91 7.6-10.33c.31-.3.15-.74.15-.93 0-.2 0-.35.16-.35h20.61c.28 0 .16.2.04.35l-8.48 11.87c-.39.5-.31.97.08 1.48l11.66 18.47c.12.16.23.35-.04.35H95.41c-.15 0-.15-.16-.15-.35 0-.2.39-1.86.08-2.17l-6.51-9.98v7.8c0 1.98.41 3.84.65 4.12.31.35.08.58-.5.58H68.71c-.58 0-.81-.23-.5-.58.24-.28.66-2.14.66-4.12V33.05c0-1.98-.42-3.84-.66-4.12-.31-.35-.08-.58.5-.58h20.27c.58 0 .81.23.5.58-.24.28-.66 2.14-.66 4.12v6.91zm58.48 8.84c0-.13.05-.59.58-.59h8.02c.83 0 3.81-.1 4.07.16.25.26.57.1.57-.4v-7.79c0-.48-.32-.64-.57-.39-.26.26-3.24.16-4.07.16h-8.02c-.53 0-.58-.46-.58-.59V37.8c0-.13.05-.59.58-.59h11.53c1.96 0 3.8.41 4.07.66.34.3.57.07.57-.5v-9.01h-36.31c-.57 0-.8.29-.5.63.24.27.65 2.11.65 4.07v22.89c0 1.96-.4 3.8-.65 4.07-.3.34-.08.57.5.57h36.3v-9.57c0-.57-.22-.8-.57-.5-.27.24-2.1.65-4.06.65h-11.53c-.53 0-.58-.45-.58-.58V48.8zm74.28 11.78s-12.06-28.7-12.23-29.17a2.94 2.94 0 0 1-.04-2.04c.3-.73.04-.9-.48-.9H180.6c-.52 0-.78.17-.47.9.3.74.13 1.56-.05 2.04l-10.85 29.17h17.36c.41 0 .5-.2.37-.47-.13-.28-.13-.93.06-1.4l.93-3.1c.3-.87.74-1 1.47-1h7.63c.74 0 1.17.13 1.47 1l.93 3.1c.2.47.2 1.12.07 1.4-.13.28-.05.47.36.47h21.7zm-30.76-12.31c-.27-.03-.3-.3-.23-.5l1.88-4.46c.08-.13.12-.26.28-.26.16 0 .2.13.28.26l1.88 4.46c.08.2.05.47-.22.5h-3.87z" fill="#969594"/></svg>