<svg width="177" height="91" fill="none" xmlns="http://www.w3.org/2000/svg"><g clip-path="url(#a)" fill-rule="evenodd" clip-rule="evenodd" fill="#969594"><path d="M61.16.83c20 13.11 41.57 26.42 60.47 39.54H1.37c-.79-.85 1.42-1.53 2.61-2.3 8.46-5.38 17.34-11.49 26.14-17.3C40.44 13.95 51.41 7.65 61.16.84zm31.72 48.68c-2.32 3.91-5.67 6.78-8.18 10.48-6.68-5.5-19.21-4.48-20.59 4.91-.76 5.15 1.96 10.89 6.2 12.41 2.51.87 10.3 2.6 9.83-3.61-2-.77-5.34-.1-7.87-.32v-10.8H94.5v21.25c-16.4 14.55-48.67 6.3-46.73-18.92.95-12.18 9.94-20.68 22.88-21.92 9.42-.91 16.62 2 22.23 6.52zM15.4 43.64v16.35c4.16.75 9.7.1 14.4.3.76-4.77.1-10.98.31-16.32 4.48-.76 10.34-.1 15.36-.33v46.4H30.12V73.38H15.74c-.75 4.93-.1 11.22-.33 16.66H.06c.21-15.35-.44-31.59.32-46.4h15.03zm126.14 0c3.32 8.34 5.98 17.35 9.16 25.83 3.52-8.17 6.2-17.12 9.16-25.83h16.99c-6.1 15.57-12.63 30.75-18.62 46.4H143.2c-4.21-11.27-8.97-21.98-13.09-33.33h-7.51v33.33h-15.36V56.7h-12.4V43.64h46.71z"/></g><defs><clipPath id="a"><path fill="#fff" d="M0 0h177v91H0z"/></clipPath></defs></svg>