<svg width="204" height="185" fill="none" xmlns="http://www.w3.org/2000/svg"><g clip-path="url(#a)" fill="#1F1F1E"><path d="M53.18 85.38c-.69-.42-1.37-.85-2.08-1.21l-.79-.37c-.33-.17-.64-.35-.95-.55l-1.04-.64c-.34-.2-.69-.37-1.02-.58-.34-.21-.66-.45-.99-.67a14.9 14.9 0 0 0-1.33-.78c-.46-.26-.9-.55-1.35-.84-.44-.29-.89-.56-1.34-.84-.46-.28-.89-.6-1.33-.9l-.19-.13-.04-.03-.04-.03-.04-.03-.03-.02-.52-.34c-.66-.42-1.28-.89-1.93-1.33l-.01-.01-.03-.02.01.01c-.42-.28-.84-.54-1.25-.84-.4-.3-.8-.6-1.22-.88l.01.01-.02-.01-.03-.02.01.01-.41-.27h.01l-.02-.01-.02-.02-.05-.03.01.01c-.56-.38-1.08-.79-1.63-1.17l-.12-.08c-.39-.26-.79-.51-1.16-.78-.38-.28-.75-.56-1.14-.83-.38-.27-.77-.52-1.14-.8a47.1 47.1 0 0 0-1.09-.78c-.36-.24-.73-.44-1.08-.69l-.72-.55a.51.51 0 0 1-.09-.73c.17-.23.5-.26.73-.09.27.21.54.43.82.63l.54.34.65.43 1.13.82c.41.29.82.56 1.22.86.39.28.76.57 1.15.84a44.9 44.9 0 0 1 .83.54c.56.37 1.08.79 1.63 1.17l.02.01.02.01.03.02h.01l.03.02.04.02.01.01-.01-.01c.35.24.71.48 1.05.73.35.25.68.51 1.03.75l1.16.77 1.08.76.85.55.25.17.24.16.85.59c.42.28.85.53 1.28.8.43.27.86.57 1.29.83.44.27.89.5 1.33.76.44.26.86.56 1.28.85.52.34 1.08.63 1.61.95.55.33 1.06.69 1.63.98l-.04-.02.12.06-.06-.03.74.35c.25.12.5.26.74.39.48.27.95.57 1.43.86.24.15.33.46.19.71a.54.54 0 0 1-.46.26.6.6 0 0 1-.25-.08zm66.87-31.13-.01-.01-.01-.01a1.76 1.76 0 0 1-.17-1.39 2.44 2.44 0 0 1 .59-1.05c.09-.1.2-.18.31-.27.21-.17.43-.31.68-.42a4.48 4.48 0 0 1 2.38-.33 17.47 17.47 0 0 1-.38-1.9c-.13-1.09-.06-2.18.01-3.27.04-.55.07-1.1.16-1.64.09-.55.23-1.09.38-1.62.32-1.1.65-2.2 1.33-3.14a5.69 5.69 0 0 1 1.08-1.16c.41-.35.82-.7 1.26-1.01a5.7 5.7 0 0 1 1.39-.76 7.1 7.1 0 0 1 2.37-.45l.75.04a6.97 6.97 0 0 1 1.56.33c.51.18.95.46 1.39.75.45.3.89.61 1.27 1a9.56 9.56 0 0 1 1.58 2.29 4.83 4.83 0 0 1 1.37-.81 4.86 4.86 0 0 1 3.06.1c.5.18.98.42 1.43.69a5.57 5.57 0 0 1 2.12 2.29c.26.55.31 1.18.25 1.78l-.03.24a.53.53 0 0 1-.59.44.53.53 0 0 1-.44-.59l.03-.21.01-.48-.04-.33a1.05 1.05 0 0 0-.04-.17l-.08-.2-.13-.23a6.6 6.6 0 0 0-.5-.68l-.33-.36a6.36 6.36 0 0 0-1.17-.82 6.7 6.7 0 0 0-.77-.35c-.19-.07-.38-.12-.57-.17-.2-.04-.4-.06-.6-.08l-.52-.01-.41.05a3.9 3.9 0 0 0-.46.12l-.13.05-.22.12c-.17.11-.33.22-.48.34l-.19.17-.08.09-.04.06-.02.03c-.03.09-.05.19-.1.27a.54.54 0 0 1-.52.24.52.52 0 0 1-.39-.28 2.87 2.87 0 0 1-.15-.37c-.07-.18-.14-.36-.23-.53a7.36 7.36 0 0 0-1.55-2.16l-.49-.39c-.37-.26-.75-.51-1.14-.73l-.43-.19c-.18-.06-.36-.12-.54-.16-.25-.05-.5-.09-.75-.11-.31-.02-.61-.04-.92-.03-.2.01-.4.04-.6.07-.29.06-.58.12-.86.2a7.18 7.18 0 0 0-1.15.53c-.33.22-.65.46-.96.71-.37.31-.74.61-1.07.95a5.98 5.98 0 0 0-1.19 2.09 12.34 12.34 0 0 0-.82 3.52 26.26 26.26 0 0 0-.13 3.2 12.91 12.91 0 0 0 .5 2.75l.1.25.14.27c.1.22.01.5-.18.63-.19.14-.43.12-.62 0l-.1-.06-.15-.06a1.97 1.97 0 0 0-.26-.07c-.13-.03-.26-.04-.4-.06a4 4 0 0 0-.82.04l-.44.1a2.39 2.39 0 0 0-.54.24l-.36.26-.12.11-.12.15-.08.13-.06.16-.06.21-.01.07v.13l.01.07.02.09a.7.7 0 0 0 .05.13l.01.01.03.05c.15.24.03.57-.21.7a.53.53 0 0 1-.24.06.58.58 0 0 1-.45-.25zm57.79 7.53a.53.53 0 0 1-.35-.65l.08-.32c.04-.19.08-.37.1-.56l.01-.31-.03-.29-.05-.22a1.34 1.34 0 0 0-.15-.33l-.2-.27-.19-.2-.21-.17a1.48 1.48 0 0 0-.21-.13l-.11-.05-.13-.04-.14-.02a6.95 6.95 0 0 0-.79-.02c-.14.01-.26.01-.4-.02a.55.55 0 0 1-.34-.28.68.68 0 0 1-.06-.42c.04-.31.1-.62.12-.94a13.15 13.15 0 0 0-.01-2.15 5.4 5.4 0 0 0-.37-1.1v.01l-.07-.15-.2-.38c-.15-.23-.31-.45-.48-.67l-.5-.53-.31-.26a8.5 8.5 0 0 0-.5-.32 7.34 7.34 0 0 0-.49-.23c-.27-.1-.54-.18-.82-.25l-.49-.07c-.26-.01-.51-.02-.77-.01-.26.02-.51.04-.77.08a8.26 8.26 0 0 0-1.68.54l-.22.1c-.35.18-.7.36-1.04.56l-.21.13.01-.01a7.95 7.95 0 0 0-1.47 1.26c-.42.45-.82.91-1.19 1.41a6.25 6.25 0 0 0-.66 1.1.54.54 0 0 1-.56.17.57.57 0 0 1-.3-.23l-.06-.08-.24-.25-.01-.01c-.19-.18-.4-.35-.62-.51l-.36-.23-.06-.03.06.03a2.4 2.4 0 0 0-.28-.13l-.18-.05-.12-.02h-.06l-.12.03-.11.04-.09.05-.05.04a.9.9 0 0 1-.1.09l-.12.14a.95.95 0 0 0-.1.17l-.05.11a.54.54 0 0 1-.51.36.53.53 0 0 1-.49-.64.57.57 0 0 1 .16-.37l.01-.01c.15-.27.36-.51.59-.69.3-.23.7-.36 1.07-.36.2 0 .41.06.59.13.17.06.32.14.48.22l-.06-.03a6 6 0 0 1 1.15.85 14.16 14.16 0 0 1 1.31-1.66 11.56 11.56 0 0 1 1.58-1.48c.21-.16.42-.29.64-.43.36-.23.75-.43 1.13-.61l-.03.01a9.3 9.3 0 0 1 2.48-.78c.26-.04.53-.04.8-.05.57-.01 1.14.04 1.69.21a4.74 4.74 0 0 1 1.53.67 5.56 5.56 0 0 1 1.79 1.82 5.98 5.98 0 0 1 .83 1.96c.09.42.11.85.11 1.27a12.85 12.85 0 0 1-.12 1.84v.01h.11c.22.01.44.01.65.05.13.02.26.06.38.1a2.87 2.87 0 0 1 1.03.73c.17.18.3.38.43.58.19.31.27.67.32 1.03.05.31.03.65-.03.96l-.18.81a.53.53 0 0 1-.5.37.96.96 0 0 1-.12-.02zM65.05 144.02c-.38-.04-.75-.09-1.13-.12-.37-.02-.75-.01-1.11-.08-.28-.05-.49-.29-.45-.58.03-.27.3-.5.58-.45.15.03.31.04.46.05.37.02.73.03 1.1.07.34.04.67.08 1.01.1.3.02.6.02.9 0 .55-.05 1.1-.16 1.65-.22.54-.05 1.09-.07 1.63-.18.34-.08.68-.16 1.02-.26.34-.1.69-.2 1.04-.28.67-.16 1.34-.33 2-.56l-.02.01.89-.31c.65-.23 1.28-.51 1.89-.82.59-.31 1.16-.64 1.74-.97.59-.33 1.17-.68 1.73-1.06.4-.28.78-.58 1.16-.88.37-.29.75-.58 1.1-.9.28-.27.54-.55.8-.85a25.15 25.15 0 0 0 1.61-2.27l.09-.13c.16-.26.31-.52.44-.8l-.02.03.06-.12-.02.04c.41-.89.75-1.81 1.06-2.74.13-.41.23-.83.31-1.25l.01-.05-.01.06a9.61 9.61 0 0 0 .03-2.96c-.05-.22-.1-.44-.18-.66l-.19-.45a7.6 7.6 0 0 0-.78-1.18l-.25-.23.05.04-.64-.53-.53-.46c-.48-.4-1.02-.72-1.54-1.06a.2.2 0 0 1 .06.04l-.8-.5.06.04c-.74-.47-1.45-.97-2.15-1.5-.35-.27-.73-.51-1.06-.8a3.72 3.72 0 0 1-.83-1.1c-.1-.2-.15-.41-.16-.63-.01-.21.01-.41.06-.61.1-.4.31-.76.54-1.09a7.02 7.02 0 0 1 1.89-1.87c.79-.55 1.63-1.02 2.49-1.47l1.39-.73.71-.35.7-.29 1.39-.62c.44-.2.88-.38 1.34-.54h-.01l.96-.33.89-.31a.14.14 0 0 1-.07.02l.15-.05c.36-.13.7-.29 1.06-.41.27-.09.57.1.64.36.08.28-.09.55-.36.64l-.09.03c-.12.04-.24.1-.35.15l-.63.24.02-.01-.9.32-.92.31-.06.02.02-.01a16.55 16.55 0 0 0-1.95.82l-1 .43c-.32.13-.64.27-.95.43l-2 1.06c-.65.36-1.29.73-1.89 1.15l-.03.02c-.21.15-.42.3-.61.47a8.06 8.06 0 0 0-1.13 1.34l-.11.19-.1.24a.75.75 0 0 0-.04.16l-.02.15v.12l.01.08.01.04.03.06a4.9 4.9 0 0 0 .69.87l.71.52.7.53c.51.37 1.03.73 1.56 1.07l.85.53.8.52c.26.17.5.35.74.55l.66.57-.01-.01c.19.16.39.31.57.48a7.16 7.16 0 0 1 1.22 1.78c.2.42.32.89.41 1.35.09.48.1.98.09 1.47 0 .59-.04 1.18-.15 1.76l.01-.07c-.07.38-.16.76-.26 1.14-.11.38-.25.76-.38 1.13-.26.71-.53 1.41-.85 2.09a21.96 21.96 0 0 1-2.23 3.34c-.33.4-.69.78-1.08 1.13-.38.34-.79.64-1.18.95-.41.33-.83.64-1.27.94-.41.28-.85.53-1.28.78l-1.3.74a18.17 18.17 0 0 1-2.44 1.17c-.38.15-.77.27-1.16.4h.01c-.46.16-.93.31-1.41.44-.47.13-.94.22-1.41.35-.5.14-1 .28-1.5.39-.44.09-.89.12-1.34.16-.37.03-.74.08-1.12.14-.38.06-.75.11-1.14.13l-.28.01c-.3 0-.61-.02-.92-.05zm29.35-2.57c0 .31-.01.61.01.92l.03.23c.03.12.05.23.09.34.08.22.18.44.28.65.1.19.2.39.32.57.05.08.12.15.18.22l.21.21.3.23.15.09.36.15.18.05c.09.02.17.03.26.03l.49.01.5-.07.42-.11a12.93 12.93 0 0 0 1.14-.51c.32-.17.63-.36.94-.56l.9-.57c.37-.26.72-.55 1.07-.84l1.07-.89.83-.77.84-.84a31.54 31.54 0 0 0 3.61-4.15c.65-.89 1.32-1.76 1.95-2.67l.28-.4-.04.06.2-.3-.01.01c.36-.53.75-1.05 1.12-1.58l.09-.14.04-.06v-.01l-.02.03.02-.03.02-.02.02-.03c.29-.44.56-.88.83-1.34.3-.51.59-1.01.91-1.51l.87-1.37a80.07 80.07 0 0 0 2.14-3.82l.12-.23c.19-.38.37-.75.54-1.13.18-.4.33-.82.48-1.23.3-.85.66-1.67.96-2.52.2-.6.38-1.21.51-1.83.04-.21.06-.42.07-.63.02-.3.03-.61.02-.91-.03-.29-.07-.59-.12-.88a4 4 0 0 0-.1-.37 9.73 9.73 0 0 0-.65-1.34l-.22-.28c-.12-.14-.26-.26-.4-.39a2.23 2.23 0 0 0-.24-.19l-.14-.08a9.56 9.56 0 0 0-.98-.34c-.16-.03-.33-.04-.49-.06l-.5-.07-.74-.08a7.94 7.94 0 0 0-.69-.01l-.24.03-.31.08a17.16 17.16 0 0 0-1.07.56c-.26.15-.53.29-.78.45l-.01.01c-.03.05-.06.11-.1.15-.28.3-.58.57-.88.84l.05-.04c-.27.24-.53.49-.78.75-.26.27-.53.54-.78.82l-.83.96.04-.05-.19.22.01-.01-.17.2.04-.05c-.36.41-.71.82-1.05 1.25-.32.41-.61.83-.93 1.24-.33.44-.69.86-1.03 1.3l-1.01 1.33-.76.98c-.26.32-.52.65-.76.99-.29.44-.57.9-.87 1.34l-.93 1.35c-.26.38-.5.76-.73 1.15l-.64 1.15-.63 1.08c-.22.37-.42.75-.62 1.13l.03-.06c-.28.56-.52 1.12-.77 1.69a53.9 53.9 0 0 1-.81 1.72l.03-.06-.07.13a.08.08 0 0 0-.02.04l-.27.53a.49.49 0 0 0-.03.07v-.01l-.05.09-.04.09c-.27.55-.5 1.13-.71 1.71l-.08.22-.07.2-.02.06.01-.01.01-.01-.02.05-.05.13-.01.03v-.01l-.01.03-.15.43-.01.02-.01.03-.05.15c-.14.39-.26.79-.36 1.2-.11.42-.22.83-.31 1.25-.09.46-.16.92-.2 1.38v.06l-.01.13.01-.07c-.02.3-.03.62-.03.94zm1.41 4.53c-.12-.05-.23-.09-.34-.15a3.1 3.1 0 0 1-.89-.7 5.2 5.2 0 0 1-1.2-2.8c-.02-.3-.01-.6-.01-.9 0-.34.01-.67.03-1.01v.02c.03-.35.06-.7.12-1.05.06-.39.15-.77.24-1.15l.27-1.05c.11-.38.23-.75.36-1.12l-.01.01.16-.45v-.01l.01-.03v-.04l.01-.02.01-.03-.01.02.04-.12.01-.03.01-.02.08-.22v.01l.01-.04v-.01.01l.06-.17v.01l.01-.02c.22-.62.46-1.24.76-1.83l-.01.02.09-.17-.03.06.05-.1.27-.52v.01l.01-.02.01-.01.01-.02v.01l.06-.12-.01.02.06-.12c.23-.46.45-.91.65-1.38.22-.49.42-.99.66-1.48.24-.5.5-1 .78-1.48.26-.45.53-.89.78-1.34.33-.57.63-1.15.99-1.7l1.16-1.7c.29-.43.55-.88.84-1.31.32-.47.67-.92 1.03-1.36.67-.83 1.28-1.72 1.96-2.55.47-.58.92-1.17 1.36-1.77.43-.59.9-1.14 1.38-1.69l-.01.01.13-.15.01-.01.04-.04.12-.14.13-.14c.37-.42.72-.86 1.11-1.26.4-.42.8-.83 1.23-1.21l-.02.02.3-.27a.6.6 0 0 1 .14-.26c.29-.29.62-.54.98-.75.28-.17.58-.32.86-.48.33-.19.66-.37 1.03-.48.41-.12.84-.14 1.27-.13.33.01.66.04.98.08l.55.08c.21.03.42.04.62.09.26.06.52.16.77.25a2.92 2.92 0 0 1 1.25.81 4.89 4.89 0 0 1 1.03 1.52l.26.62a8.42 8.42 0 0 1 .3 1.46 10.73 10.73 0 0 1-.04 1.55c-.02.24-.08.47-.13.71-.12.49-.25.98-.41 1.46-.17.51-.37 1.01-.57 1.51-.39.96-.69 1.95-1.13 2.89-.16.35-.34.7-.51 1.04l.01-.01c-.25.49-.51.96-.77 1.44l-.75 1.36c-.55.97-1.15 1.9-1.75 2.84-.26.42-.5.85-.75 1.27-.26.43-.52.86-.8 1.28l-.04.06-.01.02-.02.03-.06.09-.01.01-.02.03-.02.03.01-.02-.58.81-.56.79-.17.25c-.61.89-1.26 1.75-1.9 2.62-.33.45-.65.89-.99 1.33a30.23 30.23 0 0 1-2.17 2.5c-.36.38-.74.74-1.11 1.11a64 64 0 0 1-1.18 1.15c-.41.37-.84.72-1.27 1.07-.41.34-.81.68-1.25.99-.44.3-.9.57-1.34.85a9.74 9.74 0 0 1-2.24 1.02c-.26.07-.53.11-.79.14l-.36.02a4.2 4.2 0 0 1-1.23-.25zm26.36 2.34a.53.53 0 0 1-.52-.52c0-.19.11-.36.26-.45l.08-.11c.5-.76.97-1.54 1.45-2.31.49-.79.96-1.58 1.47-2.34l.09-.14.04-.05.07-.1-.01.01.02-.03.02-.03.01-.01.04-.05-.02.03.1-.15-.01.01.08-.12c.42-.64.84-1.28 1.24-1.94.39-.63.77-1.25 1.18-1.86l.11-.17.11-.17c.61-.92 1.2-1.86 1.78-2.8.28-.46.55-.92.84-1.37l.88-1.34c.4-.6.79-1.2 1.16-1.82.38-.63.77-1.25 1.18-1.86l-.01.02 1.07-1.56c.49-.74.95-1.5 1.45-2.23l-.04.06c.39-.58.8-1.15 1.2-1.73.44-.66.85-1.34 1.3-2l-.01.01.05-.08-.04.06.11-.16-.01.01.06-.08a.2.2 0 0 1-.04.06c.61-.9 1.3-1.74 1.94-2.62.31-.44.61-.88.93-1.31.32-.45.66-.88.99-1.32.31-.42.6-.86.91-1.29.32-.44.63-.89.97-1.32.67-.84 1.42-1.62 2.14-2.41a8.15 8.15 0 0 1 2.19-1.91c.23-.12.47-.2.71-.25.21-.05.43-.08.64-.08.48 0 .89.27 1.14.66.28.43.36.95.38 1.45l.01.76-.01.75c-.02.52-.06 1.05-.14 1.57-.08.53-.17 1.05-.24 1.58l-.22 1.56c-.09.54-.19 1.07-.26 1.61-.08.53-.13 1.06-.21 1.58-.08.52-.18 1.03-.28 1.54-.22 1.16-.52 2.31-.76 3.46l.01-.07-.02.08-.05.23.01-.03c-.18.87-.35 1.73-.58 2.59-.23.85-.46 1.69-.64 2.55l.01-.07c-.15.75-.27 1.5-.4 2.24-.14.74-.33 1.46-.49 2.2-.16.81-.28 1.63-.45 2.45l.01-.02c-.15.74-.33 1.46-.48 2.2v-.01l-.03.14.01-.07-.03.16c-.13.7-.22 1.41-.34 2.11-.12.73-.27 1.45-.42 2.18l.01-.07-.03.15.01-.07-.02.12V144c-.05.24-.09.48-.1.72-.03.4-.06.79-.12 1.18a.52.52 0 0 1-.59.44.53.53 0 0 1-.44-.59c.04-.29.08-.58.1-.88v.07l.04-.56c.02-.21.06-.41.1-.62l.01-.06.02-.08-.01.04.01-.06-.01.03c.14-.7.29-1.4.41-2.1.13-.75.21-1.5.36-2.25l-.01.07.04-.19-.01.07c.14-.7.31-1.39.46-2.08l-.01.07.06-.29c.14-.7.25-1.4.38-2.09.14-.73.33-1.45.49-2.18.1-.51.19-1.03.27-1.55.1-.55.2-1.1.33-1.64.25-1.05.58-2.09.81-3.15l.08-.39v.01l.19-.96-.01.07.06-.31-.01.07c.2-.99.45-1.97.66-2.97.11-.52.2-1.04.29-1.57.09-.52.15-1.04.22-1.57.14-1.08.35-2.14.49-3.21.06-.47.12-.95.2-1.42l.12-.75.08-.77v.07c.04-.69.05-1.39.02-2.08a2.47 2.47 0 0 0-.05-.38l-.07-.25-.06-.15-.04-.07-.06-.08-.02-.02-.04-.03-.03-.02-.02-.01-.03-.01-.05-.01h-.07l-.26.03-.37.1-.18.08a4.53 4.53 0 0 0-.74.5c-.45.4-.85.84-1.26 1.28l-1.39 1.53c-.69.79-1.3 1.64-1.9 2.5-.3.44-.61.87-.93 1.3-.34.44-.66.88-.98 1.33-.4.58-.81 1.15-1.24 1.71-.41.54-.83 1.08-1.22 1.64l.01-.01-.02.02-.01.01.01-.01-.08.11v.01l-.02.03-.01.01-.02.03-.02.04-.01.01-.01.01v.01c-.41.61-.8 1.25-1.21 1.86-.41.62-.85 1.22-1.27 1.83l.04-.05-.2.3-1.09 1.69c-.4.61-.82 1.2-1.23 1.8l-.05.07a.2.2 0 0 1 .04-.06c-.31.47-.62.94-.91 1.42-.27.45-.55.91-.84 1.35-.61.93-1.24 1.85-1.82 2.8l-1.12 1.82c-.37.58-.73 1.17-1.12 1.74v.01l-.02.03-.01.01-.1.15-.09.13.01-.02-.02.03v.01l.01-.01c-.43.63-.83 1.28-1.23 1.93-.39.63-.79 1.26-1.21 1.87l.01-.01a2.5 2.5 0 0 1-.12.17l-.06.08-.05.08-.02.03.01-.01-.12.18-.07.1-.01.02-.01.01c-.61.91-1.17 1.86-1.75 2.79l-.88 1.41c-.14.22-.28.45-.44.66a.57.57 0 0 1-.5.32z"/><path d="M133.73 131.84c-.2 0-.39.02-.59.04h.01a.52.52 0 0 1-.14-1.03c.24-.05.5-.05.74-.05.34 0 .68.04 1.02.05.35 0 .7-.03 1.06-.04l1.19-.04c.39-.01.78-.05 1.17-.05l1.19.02h-.07l1.07-.02 1.05.02c.34 0 .69-.03 1.03-.05.37-.02.74-.01 1.11-.01l.56-.01c.23-.01.47-.04.7-.04.24-.01.48 0 .72.02.19.02.39.03.58.03.47 0 .94-.05 1.41-.05.28 0 .53.19.55.48.02.27-.2.55-.48.55-.31 0-.61.03-.91.04l-.66.01c-.31 0-.62-.05-.93-.05-.36 0-.71.04-1.07.06H143c-.42 0-.84.05-1.26.07-.44.02-.89-.02-1.33-.02l-1.11.02-1.04-.02c-.37 0-.74.03-1.11.05l-1.23.04-1.13.05c-.35-.02-.7-.06-1.06-.07zm26.29 15.7c-.26-.09-.43-.39-.33-.66l.07-.22.14-.44.35-.91-.02.06.07-.16v.01l.02-.04.01-.03v.01c.19-.47.38-.95.55-1.43l.55-1.59.57-1.5.59-1.6.59-1.51.55-1.53.58-1.58.52-1.54.56-1.54c.17-.49.32-1 .5-1.49l.57-1.53c.17-.48.32-.97.47-1.45.16-.52.35-1.03.53-1.55l.51-1.53.53-1.54c.17-.5.33-.99.47-1.5.14-.51.28-1.01.45-1.51l.5-1.53c.15-.48.27-.96.43-1.43l.53-1.56.49-1.53c.16-.49.33-.97.48-1.46.14-.46.34-.89.54-1.33a44.69 44.69 0 0 0 .56-1.3l.03-.08a3.47 3.47 0 0 1 .35-.73.53.53 0 0 1 .72-.15c.23.15.31.49.15.72l-.07.11a2.07 2.07 0 0 0-.13.28l-.09.21-.41.96-.5 1.13c-.17.44-.3.9-.46 1.35-.18.51-.34 1.03-.51 1.55l-.5 1.5c-.17.49-.32.98-.47 1.47l-.48 1.56c-.16.49-.34.98-.48 1.48l-.43 1.47-.54 1.59c-.18.5-.34 1-.5 1.51l-.53 1.53-.48 1.5c-.17.51-.36 1.02-.55 1.52-.19.49-.35.98-.51 1.48a33.1 33.1 0 0 1-.54 1.5 40.5 40.5 0 0 0-.54 1.55c-.17.52-.36 1.04-.55 1.56-.38 1.03-.74 2.07-1.14 3.09l-.59 1.53c-.19.53-.39 1.07-.6 1.6-.24.61-.46 1.23-.67 1.86-.21.63-.46 1.25-.71 1.87l.01-.03-.08.19.02-.06c-.11.28-.22.55-.31.83l-.14.42-.07.22a.55.55 0 0 1-.49.36.23.23 0 0 1-.14-.01z"/><path d="M165.22 133.29c-.04-.27.16-.56.44-.59l.66-.1.64-.16c.22-.05.45-.07.68-.09a17.14 17.14 0 0 0 1.88-.28h-.02l.14-.03.08-.02 1.03-.22c.5-.11 1-.25 1.49-.39.53-.16 1.06-.29 1.58-.48l.05-.02-.07.02c.54-.2 1.06-.44 1.57-.7l.16-.09-.06.03c.46-.25.92-.49 1.37-.75.47-.27.94-.55 1.38-.86.26-.18.51-.38.74-.59.6-.57 1.19-1.15 1.73-1.78.53-.64 1.05-1.3 1.51-2 .47-.72.98-1.41 1.44-2.13.18-.28.34-.58.5-.87.16-.3.33-.59.48-.89.12-.26.23-.53.32-.8l.09-.35.08-.62c.03-.25.09-.49.14-.73.04-.25.07-.49.09-.74v.01a5.97 5.97 0 0 0-.11-1.64c-.07-.32-.16-.63-.24-.94a14.3 14.3 0 0 0-.3-.99v.01a6.73 6.73 0 0 0-.67-1.34l-.22-.27c-.09-.1-.19-.19-.3-.28-.32-.25-.65-.49-.99-.72-.59-.36-1.22-.66-1.83-.96l-.63-.25c-.63-.2-1.27-.38-1.92-.51l-.98-.17a8.2 8.2 0 0 0-2.11-.11l-.62.01-.36-.01a.53.53 0 0 1-.53-.05.52.52 0 0 1-.11-.73c.24-.34.69-.26 1.05-.25l.73-.01.75-.01c.52.01 1.03.08 1.54.17.54.1 1.09.17 1.62.31.25.06.5.14.74.21l.79.25c.26.1.52.22.77.34l.65.32c.46.24.91.48 1.34.78.42.3.85.59 1.2.98.13.14.24.28.34.44.1.15.18.31.27.47.18.34.34.68.47 1.04.15.41.27.83.38 1.25.12.44.24.88.3 1.33a7.16 7.16 0 0 1-.04 2.07l-.13.71-.09.65c-.04.28-.11.55-.2.81a9 9 0 0 1-.65 1.41c-.25.45-.5.91-.78 1.34-.26.41-.54.82-.83 1.22-.3.41-.56.85-.86 1.26a28.5 28.5 0 0 1-1.91 2.35 33.34 33.34 0 0 1-1.47 1.43 10.23 10.23 0 0 1-1.53 1.05c-.65.39-1.32.76-2 1.11a15.14 15.14 0 0 1-2.76 1.09l-1 .29-1.01.26-1.05.22-.18.04.07-.02-.13.03-.13.03c-.46.1-.93.17-1.41.22-.38.04-.77.07-1.14.14-.27.06-.53.15-.8.19l-.51.07h-.07a.5.5 0 0 1-.53-.42zM27.16 121.05a65.4 65.4 0 0 1-.05-3.43c.01-1.1.05-2.21.03-3.31v-.17c-.02-.8-.07-1.6-.1-2.4-.01-.28.18-.54.47-.56.27-.02.55.19.56.47.05 1.1.11 2.2.11 3.3 0 1.08-.04 2.16-.04 3.24l.01 1.26v-.07l.05 1.59c.01.28-.18.54-.47.56h-.04c-.27-.01-.52-.21-.53-.48zm2.43 3.95c-.15-1.08-.31-2.16-.38-3.25-.07-1.03-.11-2.07-.16-3.11-.01-.28.18-.54.47-.56.27-.02.55.19.56.47.05 1.04.08 2.07.16 3.11.08 1.09.23 2.17.38 3.25.04.28-.2.54-.47.56h-.05c-.26.01-.47-.2-.51-.47zm85.98-58.52c-.02-.29.21-.52.49-.55 1.09-.1 2.18-.19 3.28-.2 1.01-.01 2.02.06 3.03.08h.57c.38 0 .76-.01 1.14.01.28.01.5.28.48.56-.02.29-.28.49-.56.48l-.34-.01h-.55l-1.61-.01-2.08-.06c-.51 0-1.01.01-1.52.05-.59.04-1.19.09-1.78.15h-.04a.55.55 0 0 1-.51-.5zm-.66 2.28a.53.53 0 0 1 .49-.55c1.04-.06 2.09-.09 3.14-.08h-.01l.8.01h-.01.06-.03.07c.28 0 .53.2.55.49.02.27-.21.55-.49.55l-.76-.01h.01-.2.05c-1.04-.01-2.08.02-3.12.08h-.03a.52.52 0 0 1-.52-.49zm20.71-45.58a.55.55 0 0 1-.24-.41.48.48 0 0 1 .13-.38 2.16 2.16 0 0 1 .8-1c.3-.22.67-.34 1.02-.41a4.7 4.7 0 0 1 1.86.02l.38.1a6.47 6.47 0 0 1 .86-2.57 7.1 7.1 0 0 1 1.7-1.9c.24-.17.49-.33.75-.47a10.1 10.1 0 0 1 3.4-1.06c.24-.01.47.01.7.03.31.03.62.1.91.22.64.27 1.2.74 1.57 1.33a5.83 5.83 0 0 1 .83 2.27c.18-.06.37-.08.56-.05a1.34 1.34 0 0 1 .77.36c.33.29.52.68.68 1.08.17.42.15.89.15 1.34 0 .28-.28.51-.55.49-.3-.02-.49-.27-.49-.55v-.12c0-.19-.01-.37-.03-.56l-.02-.12-.09-.24a3.41 3.41 0 0 0-.23-.41l-.13-.14-.05-.05-.03-.02-.01-.01-.09-.03-.04-.01h-.07l-.1.04.06-.03-.16.09c-.22.14-.41.33-.69.28a.54.54 0 0 1-.42-.41c-.02-.09-.01-.19-.01-.29l-.03-.37a7.08 7.08 0 0 0-.47-1.59l-.18-.33-.19-.28-.27-.29-.22-.18a4.01 4.01 0 0 0-.48-.27l-.25-.08-.3-.06a4.36 4.36 0 0 0-.51-.03l-.51.05-.58.13-.68.21c-.24.08-.47.18-.7.27l-.7.34-.56.37-.5.44-.24.26-.25.31-.21.3c-.08.11-.14.23-.21.34l-.17.32c-.06.11-.1.23-.15.34l-.12.32-.09.3c-.06.27-.11.53-.15.81l-.03.34c-.01.17.01.36-.07.52-.1.2-.29.34-.53.32-.17-.01-.29-.1-.42-.19l-.06-.04a1.63 1.63 0 0 0-.13-.06l-.27-.09-.41-.08a4.7 4.7 0 0 0-.53-.03l-.34.02c-.16.02-.31.06-.46.1l-.23.08-.16.08-.13.09-.12.11-.11.13-.07.11a.36.36 0 0 0-.04.09l-.07.19a.56.56 0 0 1-.32.3.57.57 0 0 1-.18.03.41.41 0 0 1-.28-.06zM91.68 54.91a3.59 3.59 0 0 1-1.23-1.07c-.2-.29-.36-.62-.33-.97.02-.29.21-.52.41-.7a7.21 7.21 0 0 1 1.96-1.03l.03-.01-.13-.13a7.56 7.56 0 0 1-1.92-3.46v.01l-.03-.11.01.02a5 5 0 0 1 1.51-5.41c.64-.59 1.45-1 2.28-1.27a6.4 6.4 0 0 1 1.93-.37c.4 0 .8.05 1.19.15.34.09.67.21 1 .35.35.15.68.36.97.6l.18-.36c.27-.48.75-.87 1.26-1.07.86-.33 1.8-.2 2.63.13.13.05.24.13.3.25a.5.5 0 0 1 .03.4c-.08.26-.39.44-.65.33a7.75 7.75 0 0 0-.63-.21l-.32-.05-.34-.02-.26.02a1.6 1.6 0 0 0-.21.05l-.19.07-.2.1-.18.12a2 2 0 0 0-.16.14l-.12.14-.11.18-.08.17-.06.19-.04.22a.84.84 0 0 1-.11.41.54.54 0 0 1-.48.25c-.27-.02-.44-.22-.61-.4a4.82 4.82 0 0 0-.43-.36c-.14-.1-.29-.18-.44-.27l-.4-.19a7.05 7.05 0 0 0-.49-.17l-.52-.11a5.46 5.46 0 0 0-.57-.04c-.2.01-.39.03-.58.06l-.34.07c-.11.02-.22.06-.32.09l-.8.28a5.99 5.99 0 0 0-1.21.7l-.38.34c-.17.19-.34.38-.49.58a4.08 4.08 0 0 0-.62 1.32 4.54 4.54 0 0 0-.09 1.47l.05.34.09.4.02.08.05.16-.01-.02.01.04.01.03v-.02c.09.29.19.58.3.86l-.03-.06a13.73 13.73 0 0 0 .53 1.08l.37.53c.22.27.46.53.71.77l-.05-.05.42.35.22.16c.11.08.17.22.18.36a.52.52 0 0 1-.17.42c-.12.12-.27.13-.42.15l-.36.09a7.14 7.14 0 0 0-1.94.9l-.11.1.01.02.09.16.12.17.24.25.24.2.22.14.13.06.13.04h.03a.45.45 0 0 1 .25-.05c.29.02.49.27.49.55 0 .19-.13.35-.29.44-.08.04-.16.06-.25.08-.07.02-.13.02-.2.02-.27 0-.49-.08-.7-.18z"/><path d="m188.22 80.79.13-.12.03-.02.05-.04.01-.01.01-.01c.27-.2.53-.43.77-.66l.6-.53.79-.68.55-.55c.17-.17.34-.34.49-.52l.02-.02-.01.01.01-.02c.31-.38.61-.77.9-1.17.3-.4.63-.79.94-1.18.32-.41.63-.84.92-1.28.28-.42.55-.86.82-1.29a.3.3 0 0 1 .05-.07l.01-.02.01-.01.79-1.34c.27-.46.55-.92.78-1.41a15.04 15.04 0 0 0 .54-1.4l.58-1.49c.39-1 .82-1.98 1.15-3l.21-.67c.16-.55.3-1.11.42-1.68.11-.55.2-1.11.29-1.67.1-.71.21-1.42.24-2.14v-.07.07c.01-.52-.01-1.04-.06-1.56v-.05.01c-.04-.35-.08-.7-.16-1.04-.1-.38-.24-.76-.38-1.13l-.1-.24-.09-.15c-.07-.1-.15-.18-.23-.27a7.62 7.62 0 0 0-.99-.89l-.1-.06-.16-.06c-.17-.05-.35-.08-.52-.11h.01-.01c-.25-.03-.5-.06-.76-.07h-.16c-.18 0-.35.01-.52-.03-.27-.07-.46-.34-.39-.62.02-.1.07-.18.14-.25l.18-.42.24-.66c.17-.46.35-.91.5-1.38a18.63 18.63 0 0 0 .65-6.37c-.04-.33-.1-.65-.16-.97-.06-.33-.11-.66-.19-.99l-.38-1.4-.18-.66c-.06-.23-.15-.45-.23-.67-.25-.64-.51-1.28-.82-1.89-.43-.79-.96-1.53-1.48-2.27-.32-.44-.66-.85-1.03-1.25l-.01-.01a7.5 7.5 0 0 0-.71-.67 14.41 14.41 0 0 0-2.7-1.71c-.41-.18-.84-.34-1.26-.51-.41-.16-.83-.3-1.26-.43h.01-.01l-.02-.01-.03-.01h.01c-.56-.16-1.12-.3-1.7-.43l-.88-.17-.93-.17-.28-.04a13.84 13.84 0 0 0-2.98-.08c-.57.04-1.15.07-1.72.12a12.06 12.06 0 0 0-2.64.6c-.39.12-.79.24-1.18.38-.35.14-.69.3-1.02.48l.02-.01-.02.01-.02.01.02-.01c-.16.09-.31.19-.48.26a.7.7 0 0 1-.47.07.51.51 0 0 1-.33-.77c.02-.21.04-.43.08-.64.06-.27.09-.54.11-.82l.01-.38a4.87 4.87 0 0 0-.06-.55l-.11-.49-.13-.53a9.4 9.4 0 0 0-.6-1.08l-.03-.05a4.22 4.22 0 0 0-.54-.63 3.15 3.15 0 0 0-.65-.45l-.14-.06-.2-.05c-.09-.01-.17-.03-.26-.03a2.67 2.67 0 0 0-.4 0c-.33.02-.67.04-1 .1a5.25 5.25 0 0 0-.98.33l-.57.23-.56.24a1.7 1.7 0 0 1-.45.15.73.73 0 0 1-.46-.05c-.25-.11-.35-.34-.35-.6 0-.3.06-.59.12-.88l-.02.07a8 8 0 0 0 .08-.48v-.31c-.04-.6-.08-1.2-.14-1.8-.06-.59-.05-1.19-.15-1.77a22.84 22.84 0 0 1-.38-1.49c-.12-.51-.27-1-.44-1.5l-.02-.05v-.01a13.1 13.1 0 0 0-.75-1.74l.01.03-.34-.65c-.12-.24-.23-.48-.36-.71-.12-.23-.26-.46-.4-.69l-.4-.66-.45-.62c-.16-.23-.32-.47-.49-.69-.34-.46-.7-.91-1.07-1.35l.01.01-.56-.62c-.2-.22-.4-.44-.62-.64-.45-.39-.9-.78-1.38-1.13a16.2 16.2 0 0 0-1.39-.81l-.07-.04-.02-.01c-.39-.19-.79-.36-1.19-.52l-1.23-.49-1.15-.37a15.1 15.1 0 0 0-1.15-.33c-.27-.06-.55-.1-.82-.15l-.83-.17-.69-.13-.34-.05a.44.44 0 0 1-.2.02h-.05.07c-.22-.01-.44.01-.66.02l-.65.04h.05c-.18.02-.37.05-.55.09l.06-.02c-.58.13-1.15.28-1.71.48l-.86.29-.86.27c-.5.18-1 .39-1.48.63a11.01 11.01 0 0 0-1.63 1.1l-.24.24c-.07.08-.12.18-.2.26a.54.54 0 0 1-.67.09c-.16-.09-.27-.25-.38-.39l-.15-.15-.23-.18a7.2 7.2 0 0 0-.96-.43l-.43-.1a5.4 5.4 0 0 0-.58-.07l-.27.01a9.54 9.54 0 0 0-2.44.53c-.46.17-.9.37-1.35.57l-1.35.63-1.39.76c-.46.26-.9.54-1.34.81a62.22 62.22 0 0 0-2.71 1.73l.02-.01-.03.02-.01.01-.01.01.03-.02-.05.03-.01.01-.01.01-.01.01-.03.02-.13.09-.01.01.02-.01-.04.03c-.61.42-1.23.85-1.82 1.3l-.83.66c-.3.24-.6.47-.89.72l-.82.77-.81.73c-.2.18-.4.36-.58.56l-.55.6-1.09 1.22c-.47.56-.9 1.16-1.32 1.76l-.63.92-.67.96c-.26.4-.49.82-.72 1.24a31.13 31.13 0 0 0-1.47 3.09c-.26.61-.52 1.21-.74 1.84-.08.26-.15.53-.21.79a1 1 0 0 1-.15.42.6.6 0 0 1-.23.19.45.45 0 0 1-.2.04l-.08-.01a.6.6 0 0 1-.32-.1.57.57 0 0 1-.2-.32v.02a4.6 4.6 0 0 0-.1-.35l-.1-.28v-.02l-.01-.03.01.02-.01-.02-.01-.03-.01-.02c-.08-.22-.16-.45-.27-.66-.1-.19-.23-.36-.34-.54a4.44 4.44 0 0 0-.55-.58l-.22-.18-.37-.2c-.15-.08-.28-.18-.42-.28l-.09-.05-.15-.05c-.27-.08-.54-.12-.81-.18-.25-.06-.5-.13-.76-.17a6.27 6.27 0 0 0-2.01 0l-.24.07-.45.19-.24.14c-.25.17-.5.35-.73.55l-.15.15a4.53 4.53 0 0 0-.82 1.5c-.04.12-.06.25-.09.37-.05.28-.37.44-.63.38l-.06-.02a.5.5 0 0 1-.4-.23c-.17-.26-.33-.52-.51-.77-.14-.18-.28-.36-.44-.52l-.01-.01.02.02-.73-.67a9.88 9.88 0 0 0-.69-.6l.01.01-.06-.05a4 4 0 0 0-.48-.32h-.01l-.03-.02.02.01-.6-.36a7.1 7.1 0 0 0-2.23-1.05l.06.02a8.57 8.57 0 0 0-.73-.15 12.32 12.32 0 0 0-2.43.02c-.25.03-.49.08-.73.13-.54.15-1.07.34-1.6.55l.02-.01a28.16 28.16 0 0 0-3.12 1.43l-1.02.52c-.32.18-.62.39-.92.6a15.88 15.88 0 0 0-2.75 2.68l.01-.01c-.27.35-.54.69-.79 1.05-.25.36-.49.73-.72 1.11-.24.44-.45.9-.65 1.36l-.07.17a6.8 6.8 0 0 0-.48 1.6l-.04.47v.07l.04.09a.52.52 0 0 1-.33.65.57.57 0 0 1-.38.14l-.36-.01-.24.01-.26.05-.23.07a.3.3 0 0 0-.08.04.36.36 0 0 0-.1.07.57.57 0 0 0-.08.07l-.06.07a7.53 7.53 0 0 0-.37.75l-.01.02c-.12.3-.22.6-.3.91a12.32 12.32 0 0 0-.38 3.55 19.92 19.92 0 0 0 .15 2.35l.3 2.44-.01-.07.04.32.01.04v.05a.3.3 0 0 1 .01.1l-.01-.07.01.09v-.01.05a26.2 26.2 0 0 0 .66 3.11l.05.19.01.03v-.01l.01.02.01.04.29 1.19v-.01a51.3 51.3 0 0 0 1.52 4.69l.6 1.56.01.02c.15.36.32.71.51 1.05.22.38.46.74.7 1.11a11.75 11.75 0 0 0 1.64 2.13l.57.56c.21.01.42.04.63.04h.66c.53-.04 1.06-.08 1.6-.1l1.69-.04c.54-.02 1.07 0 1.6.01h.88l.75-.02 1.72.05h1.58c.54.02 1.08.04 1.62.04.55 0 1.1 0 1.65.02l.85.03h.76l1.71.03h.71l.93.01 1.6.03a30.75 30.75 0 0 1 2.48.04h.83l1.69.06h1.65c.54.01 1.09.04 1.64.04.55-.01 1.11-.02 1.66-.01.58.01 1.16.03 1.74.02.52-.01 1.04 0 1.57 0 .56.01 1.12-.01 1.68-.02.53-.01 1.07.01 1.6.02l1.64.03a95.96 95.96 0 0 0 3.32.09c.56.02 1.11.01 1.67 0 .52-.01 1.05.02 1.57.03.56.01 1.11 0 1.67.04l.48.04c.04-.01.09-.02.13-.01l.83.04h.73c.52-.01 1.05.02 1.57.03.51.01 1.02.02 1.53.01.54-.01 1.07-.03 1.61-.03s1.08-.01 1.62.01l.82.02h.79l1.57.03c.55.01 1.1.06 1.65.06.55.01 1.1.05 1.64.05h.8l.77.02 1.62.04c.56.02 1.13.02 1.69.05l3.25.13c.52.02 1.04.07 1.56.08l1.6.08.78.02.75.05c.5.03 1 .04 1.5.09.38.04.76.08 1.13.18.15.04.3.07.44.12.24.07.46.17.7.25l.03.01c.1-.01.21.02.3.08l.05.03.1.06.77.47h-.01l.03.01h.02l.02.01.05.03c.38.21.74.45 1.11.67.41.25.84.47 1.25.72l.57.37.59.34c.41.23.79.5 1.2.73l-.06-.03.16.09-.06-.03c.3.17.59.33.88.52l.86.53c.27.16.54.32.8.5.28.19.56.37.86.54l-.06-.03c.23.13.47.26.69.4.23.15.45.31.69.45l.68.41.66.44c.45.3.92.58 1.36.89l.64.44.72.48.16.11.07.05c.42.3.85.57 1.27.87.2.15.4.29.61.42l.68.43.65.44.68.41c.44.26.85.57 1.28.82.22.13.45.26.66.4l.73.46c.22.14.46.26.67.42l.65.48c.2.14.41.27.61.42.22.15.42.31.63.47.23.17.47.32.71.48l.7.5h-.01a7 7 0 0 1 .78.49zM54.01 162.87c.43.27.85.55 1.28.81l.3.19-.11-.34c-.12-.44-.22-.89-.31-1.33-.11-.49-.15-.99-.2-1.49l-.08-.7-.09-.6c-.06-.48-.08-.96-.13-1.44-.03-.34-.08-.69-.1-1.03l-.03-.96v-.05.01c-.03-.41-.07-.82-.08-1.22l-.05-1.29c-.02-.31-.04-.61-.04-.92 0-.36.02-.72.01-1.08a9.85 9.85 0 0 0-.05-.54c-.02-.21-.02-.42-.02-.63 0-.4 0-.79-.02-1.19v.07l-.05-.77a1.06 1.06 0 0 1-.04-.19v-.63l-.02-.74c-.02-.49-.01-.98-.04-1.47v-.1.01l-.04-.49v-.11c-.04-.61-.05-1.22-.04-1.83 0-.62 0-1.24-.02-1.86-.01-.59-.05-1.18-.07-1.77-.03-.62-.02-1.24-.02-1.85 0-.62-.02-1.25-.05-1.87-.02-.58-.07-1.17-.08-1.75l-.02-1.81c-.01-1.24-.14-2.46-.16-3.7-.01-.62-.02-1.25-.05-1.87l-.08-1.83c-.02-.61-.03-1.23-.01-1.84.02-.62.02-1.25.02-1.87l-.02-1.86c0-.64.03-1.28.03-1.91v-1.86c0-.61.03-1.22.06-1.83.02-.6.04-1.2.04-1.8.01-.6 0-1.2.02-1.8.04-1.21.11-2.42.13-3.63.01-.59.04-1.18.07-1.77.03-.62.03-1.23.05-1.85l.02-1.53.02-.53v-.01l.07-1.05v.07c.03-.58.03-1.16.04-1.74.02-.61.05-1.21.11-1.81l.18-1.66c.06-.58.11-1.17.21-1.75l.24-1.14c.08-.45.12-.91.19-1.37.03-.21.07-.43.12-.64a.5.5 0 0 1 .02-.21l.04-.12a.51.51 0 0 1 .18-.45c.08-.18.17-.37.27-.54.14-.28.32-.51.55-.72.2-.18.4-.34.63-.48.27-.17.57-.3.85-.45.24-.12.47-.24.72-.34.28-.12.58-.22.87-.3.48-.13.96-.23 1.44-.32s.96-.12 1.44-.18c.47-.07.93-.13 1.41-.16l1.56-.09c.52-.02 1.04-.06 1.56-.06l1.64.01 1.32.01 1.26.02 1.7-.02c.28 0 .56.02.84.04.28.02.57.02.85.03.58 0 1.16-.02 1.74.02.55.03 1.09.06 1.64.06.5 0 .99-.01 1.49.02.52.03 1.04.06 1.56.07.47.01.93 0 1.4.03.45.03.89.06 1.34.06.29 0 .57-.02.86-.03.31-.01.63 0 .94.02.55.03 1.1.07 1.65.07l.21-.01.19-.04-.05.01a.5.5 0 0 1 .4.03h.01c.36.01.71.05 1.07.07.75.03 1.49 0 2.24-.01.39-.01.79-.01 1.18.02l.99.06c.51.02 1.02.02 1.53.01.53-.02 1.06-.02 1.59 0l3.19.07c.7.02 1.39.02 2.09.01.67-.01 1.34.03 2.01.06h.08-.04l.19.01h-.07l1.59.03 1.59.04c.52.01 1.04.02 1.56.01s1.05 0 1.57.02 1.04.04 1.55.04h3.13c.51-.01 1.02-.03 1.54-.02l.48.02h-.07l.23.01h-.07c.61.02 1.22.03 1.84.02.63-.01 1.26.02 1.89.04h-.03c.63.02 1.26.02 1.89 0h1.02l.88.05c.9.03 1.8.03 2.71.06l1.45.01c.41 0 .82.04 1.23.08l.09-.01c.38 0 .75.02 1.13.01l.57-.02.64.01h-.07l.15.01h-.07c.52.02 1.03.01 1.55.01l.71.01c.28.01.57.02.85.01l.77-.01.79.01c.5 0 1-.04 1.5-.02.53.02 1.05.02 1.57.01h.86l.72.01c.52-.01 1.03-.06 1.55-.05h.76c.28-.01.55-.03.83-.03.26-.01.52 0 .78.01l.79.01h.75l.82.04.79.01.87.01h-.07l.21.01h-.04l.46.02h-.04 1.56c.52.01 1.05.02 1.57.01l.72.01.86.01c.49-.01.98-.04 1.47-.03.44.01.87.02 1.31.01.44-.01.88.01 1.32.02.42.01.84-.02 1.25-.02.47 0 .94.03 1.41-.02h.02l.72-.06.75.03c.26.01.53 0 .78.07h.57l.61-.02c.41-.02.82-.02 1.23-.02l1.26-.02 1.32.03 1.02.03h-.02.1-.02l.77.04h1.05c.34-.01.67 0 1.01.02h-.03c.51.02 1.03.01 1.54-.01l1.49-.03c.5-.02 1.01-.07 1.51-.07.53 0 1.07-.03 1.6-.05.51-.03 1.03-.02 1.54-.05.51-.03 1.01-.07 1.52-.09l1.48-.09c.51-.03 1.02-.01 1.53-.03.51-.02 1.02-.07 1.52-.06l.76.01.73-.03.68-.03.7.01h.52a25.82 25.82 0 0 1 1.86.08c.16.02.31.06.46.09.1-.02.21 0 .31.04.13.06.26.12.38.2a3.18 3.18 0 0 0-.27-.37l-.33-.38-.43-.47-.34-.29-.35-.33.01.01-.39-.36-.48-.38-.93-.74-.04-.03-.05-.03.02.02-1.18-.88.03.02-.08-.06.01.01-.65-.44-.69-.5-.75-.5-.85-.62.05.04c-.2-.15-.41-.28-.62-.42l-.63-.46c-.42-.3-.87-.54-1.3-.82-.43-.28-.88-.53-1.31-.81a35.6 35.6 0 0 0-.64-.42c-.22-.15-.45-.28-.68-.41-.45-.27-.88-.59-1.32-.86-.19-.12-.38-.23-.56-.36l-.54-.38a8.3 8.3 0 0 0-.62-.41 9.74 9.74 0 0 1-.52-.37l-.09-.06c-.42-.3-.87-.57-1.29-.87a23.1 23.1 0 0 0-.62-.43l-.71-.45c-.44-.28-.87-.57-1.32-.84-.45-.27-.88-.59-1.34-.84a8.3 8.3 0 0 1-.81-.49c-.27-.18-.53-.36-.81-.52l-.85-.51c-.27-.17-.55-.35-.83-.51l.04.02-.04-.02-.02-.01h.01l-.24-.13.06.03c-.42-.23-.82-.5-1.23-.74l-.57-.32-.6-.38c-.4-.25-.81-.46-1.21-.7-.36-.21-.7-.44-1.07-.65l.01.01-.03-.01.01.01-.01-.01-.01-.01-.01-.01h-.01c-.31-.17-.61-.36-.91-.54-.28-.08-.55-.19-.82-.29a5.56 5.56 0 0 0-.7-.19l-.5-.08-.74-.08-.66-.03-.8-.05-1.59-.06-.76-.04-.81-.03a20.4 20.4 0 0 1-.78-.05l-.84-.04c-1.08-.03-2.16-.1-3.24-.13l-1.64-.05-.81-.01c-.27 0-.53-.02-.8-.03h-.73l-.87-.01-.84-.03-.8-.02-.85-.04-.81-.01-1.57-.02-.84-.02-.8-.02h-1.54l-1.56.03c-.54 0-1.08 0-1.61-.03-.42-.02-.84-.02-1.27-.01-.4.01-.81-.02-1.21-.04l-.14.02h-.06l-.49-.05c-.54-.04-1.08-.03-1.62-.04-.52-.01-1.03-.04-1.55-.03-.56.01-1.11.02-1.67.01-.55-.02-1.1-.04-1.65-.04-.56 0-1.12-.02-1.68-.04l-1.62-.03c-.54-.01-1.08-.03-1.62-.02-.57.01-1.14.03-1.71.02h-1.59c-.56.01-1.12 0-1.68-.01-.57-.01-1.13 0-1.7.01-.55.01-1.1-.02-1.65-.03h-.83l-.83-.01-1.65-.06c-.55-.01-1.1 0-1.65-.02-.55-.02-1.1-.03-1.65-.02-.55 0-1.1-.01-1.64-.03l-.97-.01h-.61a5755.5 5755.5 0 0 1-7.47-.13h-.71l-1.73-.05-1.4.02-.65-.01-.73-.01-1.42.03c-.47.01-.94.02-1.41.05-.32.02-.63.06-.95.07-.31.01-.61.01-.91-.01-.28-.02-.55-.04-.83-.04a.65.65 0 0 1-.19.04c-.4.01-.81 0-1.21-.01-.44 0-.87.02-1.31.03-.41.02-.82.01-1.23.01-.42 0-.84 0-1.26.03-.55.03-1.09.06-1.64.07l-.9.01-.85.03c-.58.03-1.16.03-1.74.03-.57.01-1.14.04-1.7.06-.6.01-1.21.03-1.81.06-.56.03-1.12.04-1.68.05l-1.78.05-1.79.05-1.71.08-.92.03-.92.04-1.74.03-1.76.07-1.77.08-1.76.06c-.61.02-1.22.07-1.83.07-.58.01-1.16.01-1.73.04-.92.05-1.83.03-2.75.08-.91.05-1.82.06-2.73.11-.84.06-1.68.08-2.52.13-.68.04-1.36.09-2.05.12-.56.03-1.11.08-1.66.14-.58.06-1.16.09-1.74.12h-.06.03l-1.74.13c-.57.04-1.14.08-1.71.15l-1.75.21c-.56.06-1.12.06-1.68.15l-.73.13.07-.01-1.39.26.07-.01c-.24.05-.48.11-.71.19l-.19.08-.19.1-.41.43-.27.34-.25.41c-.06.12-.1.23-.14.36v.01l-.01.03a12.52 12.52 0 0 0-.4 1.82l-.03.85c-.01.33-.03.65-.03.98l.01.87c0 .32-.02.64-.04.95v.06c-.02.36-.05.71-.1 1.06-.05.39-.1.78-.12 1.17-.02.39-.03.78-.06 1.16v-.01c-.05.7-.14 1.39-.2 2.09l-.09 1.81-.09 1.28v.04c-.05.94-.06 1.88-.06 2.82 0 .5 0 1-.03 1.5l-.1 1.58c-.03.7-.03 1.39-.02 2.08.02.68-.01 1.36-.03 2.03-.02.69.02 1.39.04 2.08.02.67.01 1.34.01 2.01v1.96c.01.69.04 1.38.04 2.07 0 .71-.04 1.41-.04 2.12 0 .73.04 1.45.04 2.18l-.01 1.87c0 .63.03 1.25.07 1.88v-.07l.05.67v.02-.01.05l.01.16-.01-.07c.05.73.04 1.47.02 2.2-.02.68-.05 1.35-.03 2.03.02.69.05 1.37.06 2.06v2.06l.02 1.12.04 1.04c.02.7 0 1.41-.01 2.11-.01.71-.01 1.42.02 2.13.03.67.07 1.34.07 2.02 0 .51-.01 1.01.01 1.52l.08 1.45-.01-.07.02.24v-.02l.11 1.28c.04.4.05.81.08 1.21v-.07a27.66 27.66 0 0 0 .21 1.88l.01.1.05.15c.12.37.27.72.44 1.08v.01l.02.05-.02-.04c.13.27.28.53.44.78.43.66.92 1.3 1.42 1.91l.61.7.66.78.06.07a.14.14 0 0 1-.03-.04l-.01-.01.01.01a17.67 17.67 0 0 1 2.14 2.27c.36.41.7.83 1.09 1.21.37.37.76.72 1.12 1.11l.88.95c.3.31.61.6.92.9.61.61 1.18 1.25 1.81 1.85.45.41.91.8 1.34 1.22.44.42.84.88 1.28 1.29l.15.14-.05-.05.79.7c.55.51 1.06 1.06 1.61 1.57l.1.1-.02-.01c.43.39.88.77 1.31 1.17l1.34 1.27-.05-.05.93.8a41.91 41.91 0 0 1 1.06.93l-.01-.01.92.86 1.03.88 1.11.98-.03-.02.35.33-.05-.05c.61.56 1.27 1.07 1.93 1.57l1.02.78c.32.24.63.49.96.72l-.05-.04c.32.23.78.5 1.23.79zm2.76 1.11.01.02.25.44.15.22.04.04.04.03.4.25c.15.11.31.21.48.3l.11.05c.16 0 .32.05.48.08l.48.05.52.05c.17.01.34 0 .52-.01l.51-.03.63.01c.43.01.86.01 1.29-.03.24-.02.47-.05.71-.06h.72c.49.01.98-.02 1.48-.03.47-.01.94 0 1.41.01.49.01.99-.04 1.48-.05.43-.01.86.03 1.29.05l.8.01h.47c.45 0 .89.03 1.33.02l1.34-.02c.4 0 .81.01 1.21-.02l.21-.02c.41-.04.81-.06 1.22-.07h.58c.19 0 .37-.02.56-.03l.77-.07h-.01.06c.11-.05.23-.08.34-.09.22-.03.44-.04.66-.05.48-.02.96-.02 1.45-.01.49 0 .98 0 1.48-.02l.75-.01h.7l.17-.01h-.07c.42-.02.84-.05 1.26-.05h1.16c.38-.02.75-.05 1.13-.06l1.13-.02 1.56-.1c.52-.02 1.05-.02 1.57-.03.53-.01 1.05-.02 1.58 0h1.48c.54 0 1.08 0 1.62-.02l1.05-.04 1.12-.02 1.27-.06.83-.01h.51l1.29-.02c.45 0 .89.02 1.34 0 .46-.02.92-.04 1.38-.02.46.01.91.01 1.36-.01l.13-.01.18-.01h.07-.01l.19-.01h-.01l.18-.01h-.07l.13-.01h-.01.03c.33-.02.67-.03 1-.06l.97-.09c.32-.03.65-.05.97-.06l.91-.02.32-.02.1-.04c.18-.05.37-.07.55-.09.49-.06.98-.02 1.47-.02l.76-.01.76.01c.49.01.98.04 1.47.03.48-.01.96-.04 1.44-.04h1.53c.5-.03.99-.07 1.49-.06.48 0 .97.05 1.45.03h.03c.54-.04 1.07-.09 1.61-.09l.69.01h.86c.55-.01 1.09-.02 1.64-.01l.8.01.76-.02 1.28-.02h1.22c.52-.03 1.04-.08 1.56-.08h1.62l1.61-.03c.54 0 1.08.04 1.62.02l.22-.01h.09l.13-.01c1-.05 1.99-.03 2.99-.05.51-.01 1.03 0 1.55.02l.8.02.79-.02h.12l.14-.01c.36-.02.72-.02 1.08-.02.37.01.75.03 1.12.01l.16-.01h-.01.03c.46-.03.92-.06 1.38-.06.44 0 .87 0 1.31-.02.48-.03.97-.06 1.45-.07l1.32-.03h.02-.02.02l.15-.01.78-.05c.28-.02.57-.03.85-.03l.88-.01.89-.01 1.14-.06c.4-.02.81-.02 1.21-.03.45-.03.89-.08 1.33-.13.23-.03.47-.04.7-.06.12-.05.26-.06.39-.07.29-.02.58-.01.87-.02.51-.03 1.02-.08 1.53-.14l.89-.07.8-.02c.59-.03 1.18-.12 1.78-.15.64-.04 1.28-.04 1.92-.06.47-.02.94-.09 1.42-.13.53-.04 1.06-.05 1.59-.07l1.84-.11c.62-.04 1.23-.02 1.85-.04l1.53-.08h.78l.77-.02a62 62 0 0 1 2.36-.08l1.11-.03 1.19-.03h.02l.89-.03c.53-.03 1.06-.1 1.59-.13a320.13 320.13 0 0 0 2.28-.18c.41-.08.81-.15 1.21-.24.31-.06.63-.12.94-.21l.5-.17h-.01l.03-.01.02-.01.38-.12a7.74 7.74 0 0 0 1.15-.47l.22-.16.01-.01.03-.03.14-.13.34-.41c.11-.16.21-.33.3-.5l.04-.08.02-.04c.07-.29.11-.58.15-.88v-.04c.04-.34.06-.69.06-1.04-.01-.49-.01-.97.04-1.45s.1-.97.1-1.45c-.01-.26-.02-.52-.01-.78l.02-.81c.02-.55.04-1.11.04-1.66v.07l-.01-.64v-.11.03c0-.43.01-.87.03-1.3.03-.42.05-.85.06-1.28l.01-1.28c0-.43.02-.86.01-1.29-.02-.56-.07-1.12-.09-1.69-.02-.59.02-1.18.02-1.76v-.01l-.03-1.54c0-.52.04-1.03.06-1.55.02-.53.01-1.06.01-1.59l.03-1.56v-1.75c.01-.59.05-1.19.05-1.78l-.02-1.04v-.13c-.01-.5.02-1 .02-1.5 0-.3-.02-.61-.04-.91-.02-.32-.02-.64-.01-.96l.05-.89c.02-.29.02-.58.02-.88v.07l-.02-1.54.03-1.44c-.01-.44-.06-.87-.09-1.3-.04-.48-.03-.96-.07-1.43a.47.47 0 0 1 .05-.26v-.03c.02-.31.03-.63.02-.94v-.02c-.01-.45-.07-.9-.08-1.35-.01-.48.02-.96.02-1.44-.01-.7-.09-1.41-.05-2.11.02-.37.06-.73.09-1.1.03-.35.04-.71.04-1.06v-.01l-.01-.65v-.21.02c0-.39.01-.78.04-1.17.03-.39.05-.78.04-1.17l-.04-1.57.02-1.53c-.01-.52-.03-1.04-.02-1.56.01-.54.04-1.07.04-1.61v-.13c-.01-.52-.02-1.04-.01-1.55.02-.51.05-1.02.05-1.54-.01-.49-.05-.98-.07-1.46-.02-.54-.02-1.08-.02-1.62v-.1.01l-.02-.82-.01-.93v-.35l-.01-.06c-.02-.18 0-.35.02-.53l.02-.72-.05-.71-.05-.74a11.8 11.8 0 0 0-.12-1.18c-.03-.21-.08-.42-.12-.62l-.14-.62a4.25 4.25 0 0 0-.11-.33l-.17-.34v-.01a4.89 4.89 0 0 0-.74-.95l-.12-.08-.12-.06c-.17-.01-.34-.07-.5-.1-.18-.03-.37-.04-.55-.05l-.55-.04a9.89 9.89 0 0 0-.77 0h-.61l-.7-.01-.67.03c-.5.03-1 .02-1.51.01-.51 0-1.02.06-1.53.07h-.75l-.76.03c-.49.03-.97.07-1.46.09-.52.02-1.03.06-1.55.09-.51.03-1.03.02-1.55.05-.52.03-1.05.04-1.57.04-.51 0-1.01.06-1.52.08-.5.02-1.01.01-1.51.03l-.75.01-.81-.02c-.44-.02-.87-.01-1.31 0-.47.01-.94-.03-1.41-.05h-.08l-1.45-.04h.07c-.5-.02-.99-.01-1.49 0l-.85.01c-.36 0-.72 0-1.08.02l-.57.01h-.6l-.17-.02h-.01.01-.01l-.06-.01.02.01-.33-.03h.03l-.8-.03c-.16 0-.32 0-.48.02h-.05a8.5 8.5 0 0 1-.71.06c-.27.01-.53 0-.79-.01s-.52 0-.78.01l-.63.01c-.48 0-.96-.04-1.43-.02-.48.01-.97 0-1.45-.01-.49-.01-.99.03-1.48.04h-.15l-.68-.01-.73-.01-1.58-.02-.81.01c-.27 0-.55 0-.82-.02l-.23-.01h-.15.03-.08.02-1.14c-.39 0-.78-.03-1.17-.05l-.82-.01h-.72a9.82 9.82 0 0 0-.77-.01c-.26 0-.51.03-.77.03h-.68l-.9.01-.75.04-.78-.01c-.53-.01-1.05 0-1.58.01l-.73-.01c-.28-.01-.55-.02-.83-.01l-.77.02-.79-.01h-1.53l-1.23-.02c-.41.01-.82 0-1.23-.02h-.02.02-.05l-.35-.01a.49.49 0 0 1-.33.13l-.67-.03-.61-.04c-.48-.03-.95-.09-1.43-.12l-1.36-.01-1.26-.03-1.35-.02-1.5-.07c-.56-.01-1.12.03-1.69.03-.59 0-1.17-.03-1.75-.05-.51-.02-1.01-.01-1.52 0l-1.41-.03h.01-.03l-.14-.01h.01c-.59-.02-1.19-.01-1.78 0-.43.01-.86.02-1.29.01h-1.59c-.52 0-1.03 0-1.55-.02-.53-.02-1.05-.04-1.58-.04-.52 0-1.04.02-1.56.01l-1.63-.05-1.54-.02-.52-.01h-.07l-1.26-.06h-1.56c-.55 0-1.09-.01-1.64-.03l-3.13-.07c-.37-.01-.74 0-1.1.01-.36.01-.71.02-1.06.01l-1.03-.04-.99-.07c-.33-.01-.67 0-1 .01l-1.12.02c-.36.01-.72 0-1.08-.02l-.91-.06h-.37l-.1.02a.6.6 0 0 1-.23-.01c-.23.01-.46-.01-.68-.02l-.82-.04c-.3-.02-.61-.04-.91-.04-.5.01-1 .04-1.49.03l-1.5-.09c-.54-.01-1.07 0-1.6-.03-.55-.03-1.1-.08-1.65-.08h-.13.01c-.51 0-1.02.02-1.53-.01-.48-.03-.96-.06-1.45-.07h-1.44l-1.41-.06-1.37.02-1.48-.02H67.9l-1.39-.01c-.33 0-.65.02-.97.04L64.5 86c-.61.03-1.23.07-1.84.15l-.82.11-.74.08-.81.15c-.28.06-.56.12-.84.2a6.44 6.44 0 0 0-1.48.61c-.21.11-.42.2-.62.32a3.1 3.1 0 0 0-.73.61l-.09.13c-.14.25-.27.53-.38.8l-.02.12-.14.57c-.08.43-.12.86-.18 1.29-.06.45-.17.88-.26 1.32l.01-.07c-.14.74-.2 1.49-.28 2.24-.07.72-.17 1.43-.22 2.14v.02c-.03.58-.04 1.16-.05 1.74l-.02.87-.06.89-.01.14-.02.36-.01.44-.01.91-.04 1.87c-.02.59-.06 1.18-.07 1.77l-.05 1.74-.07 1.82c-.02.6-.02 1.21-.03 1.81l-.04 1.82c-.02.61-.05 1.23-.06 1.85v1.82l-.03 1.95c-.01.61.01 1.22.02 1.83l-.01 1.87c-.01.62-.02 1.24-.01 1.87.03 1.23.12 2.45.13 3.67.01.61.03 1.23.07 1.84.04.62.07 1.25.09 1.88l.02 1.81c.01.59.04 1.18.08 1.77.04.63.05 1.26.06 1.88.01.59-.01 1.19.01 1.78.01.48.05.96.07 1.45l.04 1.42c.01.95-.03 1.9.03 2.85v.13l.04.58c.04.5.03 1.01.05 1.51l.02.75v.12l.02.15v.33l.08 1.11c.02.5 0 1 .02 1.49l.05.52c.02.21.02.41.02.62-.01.38-.02.76 0 1.14v-.07l.05.98.03.98.07.97.04 1v-.07c.03.44.09.89.13 1.33.04.42.06.84.11 1.26l.08.52.07.64c.05.42.08.84.15 1.25l.19.84c.06.25.11.5.18.74v-.01l.01.02.01.04-.01-.03c.06.18.14.36.22.54v.02l.01.02.04.05zm24.7 19.25a14.44 14.44 0 0 1-1.23-.06l-.06.01-.48.03h-.02l-.44-.02-.82-.05h.01-.13.02l-.52-.01h-.05.01c-.46-.02-.92-.07-1.37-.11a4.43 4.43 0 0 1-2.09-.68 1.62 1.62 0 0 1-.8-.95c-.08-.27-.04-.56.09-.81.11-.2.27-.37.42-.55l-.05-.03-.23-.09-.23-.06a11.4 11.4 0 0 0-1.31-.14h-1.4c-.51 0-1.02.03-1.53.05l-1.56.05c-.41.02-.82.02-1.22.02h-.39l-1.67.02c-.57 0-1.13.04-1.7.04h-.79l-.85.03h-.84l-.81.02c-.53.02-1.07.01-1.6.04-.54.02-1.09.05-1.63.05-.54 0-1.08.04-1.63.06l-.81.03-.78.05c-.55.03-1.1.03-1.65.07l-.79.05-.82.03c-.54.03-1.08.08-1.63.09l-1.55.05h-1.25c-.41.01-.83.04-1.24.04-.41 0-.82 0-1.23.02-.41.02-.82-.01-1.23-.03h-.99l-.83-.05c-.45 0-.9.07-1.35.09a2.3 2.3 0 0 1-.64-.04l-.14.01h-.02.01-.07.02-.07.07-1.63c-.5 0-.99-.04-1.49-.06h-.61l-.88-.01h-.06.01-.07.02-.04.02l-.29-.01h-.06.01-.18l-1.19-.03-1.07-.06h-.09.02-.14a44 44 0 0 1-1.62-.1l-.81-.05-.79-.07c-.54-.05-1.08-.09-1.61-.15l-1.55-.15-1.61-.15c-.52-.04-1.04-.13-1.56-.21l-.73-.1-.81-.15c-.49-.1-.98-.2-1.47-.33-.5-.13-1-.24-1.48-.42a8.33 8.33 0 0 1-1.43-.64 3.9 3.9 0 0 1-1.52-1.65c-.1-.23-.14-.47-.15-.72-.01-.21.02-.43.06-.64.04-.21.14-.41.23-.6.17-.35.37-.68.57-1.01v.01c.13-.21.28-.41.44-.6.15-.17.32-.33.48-.49.35-.34.72-.66 1.09-.97.71-.59 1.39-1.21 2.06-1.83l.43-.39.02-.02v.01c.13-.13.27-.26.39-.4l.14-.2.08-.14.05-.14.03-.12.01-.07v-.08l-.03-.17-.04-.15c-.08-.34-.09-.7.06-1.02.18-.4.54-.68.87-.96.38-.32.78-.62 1.2-.87l.61-.36.59-.38c.48-.32.97-.62 1.46-.93.3-.18.6-.37.88-.57l.09-.07a.44.44 0 0 1 .19-.1.24.24 0 0 1 .08-.06c.17-.12.35-.21.52-.33l.1-.08.11-.11.05-.07.05-.09.01-.02v-.08l-.01-.04-.02-.05a.14.14 0 0 0-.03-.04.22.22 0 0 0-.04-.05l-.12-.11a8.37 8.37 0 0 0-1.03-.67 3.86 3.86 0 0 0-.61-.21l-.63-.18-.14-.04-.24-.07-.33-.09-.32-.08-.18-.04-.18-.03-.05-.01-.75-.15c-.34-.09-.67-.23-1-.34h-.03.01l-.04-.01h-.01a6.85 6.85 0 0 0-.76-.16l-.78-.16c-.25-.05-.5-.11-.76-.15a8.57 8.57 0 0 1-.73-.15c-.51-.14-1.01-.28-1.53-.38l-.75-.15a15.55 15.55 0 0 1-1.39-.39l-.69-.19c-.26-.06-.52-.11-.77-.18-.48-.13-.95-.32-1.43-.49-.48-.17-.96-.34-1.43-.53-.45-.18-.88-.4-1.33-.58-.36-.14-.74-.26-1.09-.42l-.59-.29a5.2 5.2 0 0 1-.65-.37c-.41-.28-.84-.54-1.18-.9a6.61 6.61 0 0 1-.8-1.03 3.1 3.1 0 0 1-.37-2.42c.11-.4.23-.8.45-1.15l-.01.01.01-.02a.08.08 0 0 0 .02-.04l-.01.02c.24-.38.56-.7.89-1.01l1.06-.94c.72-.62 1.44-1.23 2.21-1.78.47-.34.97-.65 1.46-.96.5-.32 1.02-.63 1.54-.91a24.74 24.74 0 0 0 2.32-1.41l.73-.49a4.7 4.7 0 0 0 .94-.87l.12-.17.03-.07.02-.06v-.05l-.01-.03-.01-.05-.04-.08-.04-.06-.06-.08-.23-.22-.12-.09-.37-.2-.44-.26-.56-.34c-.2-.12-.39-.25-.56-.41-.14-.13-.26-.3-.37-.46a2.7 2.7 0 0 1-.31-.61 2.28 2.28 0 0 1-.09-1.34 4.75 4.75 0 0 1 .5-1.15c.13-.2.27-.4.44-.57.17-.18.36-.34.55-.5a12.03 12.03 0 0 1 1.5-1.18l.55-.31 1.65-.96c.28-.16.56-.33.85-.46.31-.15.64-.25.96-.38l-.06.02c.52-.2 1.03-.4 1.56-.58.51-.17 1.03-.3 1.53-.5l-.06.02.75-.29-.03.01.61-.22-.06.02.07-.03-.01-.14v.07c-.05-.71-.1-1.43-.12-2.14v-.98l-.03-1.11c-.03-.66-.07-1.32-.07-1.98-.01-.72.02-1.44.02-2.16a38.2 38.2 0 0 0-.05-2.14c-.03-.7-.02-1.41-.02-2.12 0-.67 0-1.34-.02-2.01-.02-.69-.06-1.37-.05-2.05l.04-1.6c.01-.54 0-1.07-.03-1.61l-.01-.14.01.07-.01-.16v-.06c-.05-.69-.09-1.37-.11-2.06-.02-.7 0-1.39.01-2.09 0-.72-.04-1.44-.04-2.16 0-.7.03-1.4.04-2.1.01-.69-.02-1.39-.03-2.08-.02-.67-.01-1.35-.01-2.02v-2.04c-.01-.69-.06-1.39-.05-2.08l.03-1.26c.01-.46 0-.92-.01-1.39-.01-.44 0-.89.02-1.33.02-.46.06-.91.09-1.36.06-1.03.04-2.06.06-3.09l.04-1.48c.02-.51.07-1.03.1-1.54v-.03.01l.01-.13c.04-.65.05-1.31.1-1.96.05-.62.14-1.24.18-1.86l.01-.11v-.05.03c.03-.55.04-1.1.1-1.65.06-.54.13-1.07.17-1.61v-.04c.02-.29.03-.58.03-.88l-.01-.84c-.01-.6.03-1.2.06-1.81.01-.22.03-.43.07-.65l.14-.67a4.78 4.78 0 0 1 1.49-2.78l.05-.08a.62.62 0 0 1 .22-.17l.07-.03.3-.16c.2-.09.41-.15.62-.21.49-.13 1.01-.2 1.51-.3l-.03.01c.53-.11 1.05-.21 1.59-.25.58-.04 1.16-.09 1.75-.16l1.72-.2c.56-.06 1.12-.08 1.69-.13l1.86-.13h-.01c.64-.04 1.27-.11 1.91-.16.63-.05 1.26-.08 1.9-.12h-.01l1.56-.1 1.39-.06c.57-.04 1.13-.07 1.7-.09l1.76-.07c.58-.03 1.17-.03 1.76-.04l1.75-.06c.58-.02 1.17 0 1.75-.03.6-.03 1.2-.06 1.8-.07.57-.01 1.15-.05 1.72-.07l1.75-.07c.6-.03 1.2-.05 1.81-.05.59 0 1.19-.02 1.78-.05l1.79-.06c.59-.03 1.17-.07 1.76-.08l1.78-.05 1.73-.04c.58-.01 1.17-.05 1.75-.07.6-.02 1.19-.02 1.79-.05.9-.04 1.8-.03 2.7-.06.47-.02.94-.04 1.41-.04l1.32-.03h-.07c.49-.03.97-.07 1.46-.07h1.44c.48-.01.96-.05 1.44-.05h.6l-.38-.4c-.34-.39-.64-.81-.93-1.24-.31-.46-.61-.91-.9-1.38-.29-.47-.53-.96-.74-1.47l-.58-1.5c-.19-.51-.39-1.01-.56-1.53a52.37 52.37 0 0 1-1-3.23l-.33-1.34v-.02a1.64 1.64 0 0 0-.03-.11l.02.06-.07-.26.02.07c-.27-1.05-.55-2.11-.69-3.19v-.11l-.01-.04v.01l-.01-.06v-.09l-.03-.26v.02l-.01-.04v-.03l-.19-1.6-.18-1.62c-.1-1.05-.09-2.11-.02-3.16.08-1.05.24-2.1.61-3.09.17-.45.35-.92.64-1.3.32-.41.82-.62 1.31-.71.17-.03.35-.04.52-.04a8.35 8.35 0 0 1 .6-2.38v.01c.21-.5.42-1.01.68-1.48.27-.48.58-.94.89-1.4.15-.22.32-.43.48-.64.17-.22.33-.44.51-.65l.55-.61c.2-.21.39-.42.6-.62.39-.37.78-.73 1.19-1.06a10.58 10.58 0 0 1 2.08-1.33l.69-.36c.48-.26.96-.49 1.46-.71.5-.22 1.01-.43 1.51-.63.49-.19.99-.38 1.5-.52a10.3 10.3 0 0 1 4.38-.09 6.5 6.5 0 0 1 2.05.84l.89.56.45.26a5.09 5.09 0 0 1 .44.32c.27.21.53.44.78.67l.77.7h-.01c.22.23.42.48.61.73.17-.39.38-.76.63-1.1.15-.21.33-.4.53-.58.19-.16.4-.3.6-.45.42-.31.91-.54 1.42-.67a6.18 6.18 0 0 1 2.57 0l.58.13.59.13c.21.04.42.1.62.18.21.08.39.22.57.35l.37.2a4.15 4.15 0 0 1 1.13 1.01c.2.27.39.55.53.85l.06.12.1-.25.62-1.5c.21-.48.42-.97.64-1.44a28.26 28.26 0 0 1 1.56-2.86c.3-.47.63-.91.94-1.36l.95-1.36c.33-.46.69-.9 1.06-1.33l1.21-1.36c.42-.47.9-.88 1.37-1.3l1.14-1.06c.4-.36.82-.68 1.24-1.01.4-.32.81-.64 1.23-.94l1.25-.88.02-.02.01-.01.05-.03h-.01l.1-.07h.01l.02-.01.05-.03-.01.01c.45-.31.91-.6 1.37-.9.46-.3.92-.59 1.39-.87.46-.28.91-.57 1.38-.83.48-.27.96-.54 1.45-.79s1-.47 1.5-.7a10.46 10.46 0 0 1 1.49-.61c.51-.18 1.03-.3 1.56-.39a5.92 5.92 0 0 1 1.57-.13 9.08 9.08 0 0 1 1.08.21c.32.11.64.25.95.41a3.03 3.03 0 0 1 .67.5l.03-.03a12.47 12.47 0 0 1 1.85-1.3 14.93 14.93 0 0 1 2.65-1.04l1.1-.37c.36-.12.73-.21 1.09-.3l.65-.14c.21-.04.42-.05.63-.07l.58-.03.27-.01c.09-.05.2-.07.32-.06.37.05.75.09 1.11.17.49.1.98.21 1.47.29l.78.16c.23.06.47.13.7.21.51.16 1.02.31 1.53.49l.57.23.68.27c.41.16.81.33 1.2.53l-.06-.03.13.07-.03-.01c.44.23.87.47 1.3.73.45.28.86.63 1.27.97.21.18.42.35.62.54.19.17.35.36.52.54.37.4.73.8 1.07 1.23.31.4.62.79.9 1.21.29.42.61.82.87 1.25.26.43.53.85.75 1.3.23.45.47.9.69 1.36v-.01c.28.58.55 1.16.75 1.77l.02.06-.01-.02a25.55 25.55 0 0 1 .64 2.25l.2.74c.11.49.12 1.01.15 1.51.03.48.09.96.13 1.45.02.36.07.72.07 1.08 0 .31-.05.61-.12.9l.13-.06.67-.27a5.04 5.04 0 0 1 1.5-.46l.7-.07c.26-.02.52-.03.78-.01a2.58 2.58 0 0 1 1.43.55 4.3 4.3 0 0 1 1.16 1.22l-.04-.06c.27.4.55.83.71 1.29.08.23.13.46.18.7.05.24.11.49.14.73a5.05 5.05 0 0 1-.06 1.7l.5-.24c.51-.23 1.06-.37 1.59-.54a16.9 16.9 0 0 1 1.55-.42 10.4 10.4 0 0 1 1.57-.22l1.26-.09c.39-.03.77-.06 1.16-.06.41 0 .82 0 1.22.02.42.03.83.09 1.24.15h-.02.02l.05.01-.04-.01c.55.09 1.09.2 1.64.3.52.09 1.03.22 1.54.36.52.14 1.04.29 1.54.48.51.19 1.02.38 1.52.6a14.57 14.57 0 0 1 2.86 1.75 11.1 11.1 0 0 1 2.22 2.42c.62.89 1.25 1.77 1.72 2.75.22.47.41.95.6 1.43.1.26.2.52.27.78l.2.71c.15.52.3 1.04.42 1.57l.15.77.14.79c.17 1.03.13 2.08.07 3.12a25.76 25.76 0 0 1-.44 3.03c-.11.49-.23.97-.4 1.44l-.53 1.44-.08.21c.24.01.47.04.7.08l-.07-.01c.26.04.51.09.76.17.26.08.48.22.69.38.4.29.76.65 1.08 1.03.18.22.33.45.45.71.1.23.18.48.26.72a5.86 5.86 0 0 1 .35 1.44c.09.73.14 1.46.12 2.2v-.01c-.01.48-.07.96-.13 1.44-.07.51-.15 1.03-.24 1.54l-.12.75-.17.8a22.53 22.53 0 0 1-.94 3.06l-.6 1.51-.57 1.49c-.09.23-.19.47-.27.71-.09.24-.16.47-.26.7-.2.5-.44.99-.72 1.45l-.79 1.35c-.26.45-.54.88-.81 1.31-.27.43-.54.86-.84 1.27-.39.53-.81 1.04-1.22 1.55l-.55.73c-.2.27-.41.53-.62.78-.3.35-.63.68-.95 1.01-.33.33-.71.62-1.07.94-.39.35-.78.71-1.19 1.04l-.17.13a5.41 5.41 0 0 0 .59.42c.39.29.75.6 1.13.89.35.26.66.56.98.86l.34.3c.15.12.28.26.41.4l.54.62a5.97 5.97 0 0 1 1.07 1.88l-.01-.02c.06.2.12.4.16.61l.11.58c.08.41.13.82.17 1.24l.1 1.04.05.48.04.65v-.07l.02.3.02.42v.02a9.4 9.4 0 0 1-.09 1.21l-.01.45v1c0 .41.02.82.03 1.22v-.01.73l.03 1.26c.02.4.06.81.06 1.21 0 .41-.03.81-.04 1.22l-.02 1.16.02.68v.12-.01c.01.38-.01.75-.02 1.13-.01.38-.02.77-.01 1.15l.02 1.33-.02 1.26c.01.65.05 1.3.03 1.95l-.06.9c-.02.3-.03.61-.02.92v-.01.22c.01.53.03 1.05-.01 1.58-.04.58-.11 1.15-.12 1.73l.06 1.48c.01.47-.02.95-.02 1.42v-.02.04c.01.51.08 1.01.08 1.52l-.01.72-.03.57v.02c.02.09.01.18-.01.26l.03.78c.02.41.08.82.1 1.23.02.42 0 .85-.01 1.27l-.01 1.33c.01.48.03.97.01 1.45-.02.48-.07.96-.07 1.45.01.47.05.94.05 1.41l-.02 1.46v.19c.01.56.03 1.11.01 1.67a40.6 40.6 0 0 0-.04 1.57v1.62l-.02 1.57c0 .54.01 1.07-.02 1.61-.02.53-.05 1.05-.04 1.58.01.46.03.92.03 1.39l-.02 1.49c.01.52.06 1.03.08 1.55.02.52-.01 1.05-.01 1.57l-.01 1.54c-.01.5-.06 1-.08 1.51l-.01.71v-.07.18c.01.57.01 1.14-.01 1.71-.02.53-.05 1.06-.04 1.6l.01.74c0 .24-.02.49-.04.73l-.07.72a9.9 9.9 0 0 0-.03.77v-.05 1.01a9.73 9.73 0 0 1-.23 1.66c-.04.15-.07.32-.14.47a.5.5 0 0 1-.18.2 4.3 4.3 0 0 1-.89 1.1l-.01.01-.34.26c-.27.17-.58.29-.88.4l-.87.28-.01.01-.05.01h.01l-.03.01h-.03c-.24.08-.48.17-.72.23-.32.08-.65.14-.98.21l-1.14.22c-.36.06-.71.07-1.07.09l-.93.06-.89.07c-.32.03-.63.06-.95.07l-.97.03c-.67.03-1.35.04-2.02.06l-.97.01-.98.03-1.31.06c-.43.01-.87 0-1.3.02-.47.02-.94.06-1.41.07-.44.02-.88 0-1.32.02l-1.6.09-1.58.07c-.58.03-1.16.11-1.74.15-.59.04-1.19.03-1.78.05-.53.03-1.05.09-1.57.13-.52.04-1.03.05-1.54.07-.52.03-1.03.11-1.55.15-.29.03-.58.04-.87.05h-.32l-.04.01c-.2.03-.41.05-.61.06 0 .12-.05.24-.14.33a1.8 1.8 0 0 1-.54.37l-.6.28-.01.01c.05.12.1.24.13.37.06.28-.03.58-.15.83-.16.32-.47.54-.78.71-.21.11-.44.2-.66.29l-.64.27c-.24.1-.49.18-.75.22l-.77.12c-.5.08-.99.2-1.48.3-.51.1-1.03.17-1.55.25-.52.08-1.04.17-1.55.29l-1 .25c-.5.12-1.01.22-1.51.33-.51.12-1.02.2-1.53.33l.07-.02c-.27.07-.54.15-.8.25l-.27.12-.1.06-.03.03-.03.03-.03.04-.04.08-.02.05-.01.05-.01.11v.09l.01.05c.06.2.14.38.19.58.06.26.09.54-.02.79-.14.32-.42.52-.72.68a5 5 0 0 1-1.06.39c-.34.1-.69.17-1.03.25-.51.12-1.01.24-1.53.31-.51.08-1.02.12-1.53.2-.51.08-1.02.2-1.53.3-.52.1-1.05.17-1.58.23-.51.06-1.01.13-1.52.22l-1.5.3c-.53.09-1.07.15-1.6.21s-1.05.15-1.58.24c-.46.07-.93.13-1.4.18l-.26.03h.01l-.31.03c-.38.05-.77.1-1.14.17l-1.17.23c-.41.07-.82.13-1.24.15l-.26.01h-.14l-.36.06-.18.06-.09.04-.14.09-.12.1-.05.05-.04.05-.01.01v.06l.01.07.03.08.07.14c.14.25.3.48.42.74.15.32.23.64.16.99-.06.34-.28.65-.53.87-.14.12-.3.24-.46.33-.2.11-.4.18-.62.26a6.36 6.36 0 0 1-1.32.34l-1.42.23c-1.04.16-2.09.21-3.14.31l-.24.03-2.12.19h-.06.01l-.06.01h.01-.08.01-.1.01l-.08.01h.03-.04l-.34.04-.14.01c-.86.09-1.72.1-2.58.18-.85.08-1.7.12-2.56.2l-.28.03c-.49.05-.98.1-1.47.13-.46.03-.92.05-1.38.1l-1.32.13-1.42.11-.12.01h.01c-.54.06-1.09.12-1.64.16l-1.62.11c-.57.05-1.14.09-1.7.11l-.75.03-.86.08c-.53.05-1.05.09-1.58.12s-1.05.11-1.58.13c-.28.01-.56.02-.84.01h-.85c-.57.02-1.13.05-1.7.05l-1.62.01c-.5.02-1.01.04-1.51.04-.55 0-1.09.02-1.63.05l-.84.04h-.75l-.91.01c-.4.07-.71.06-1.01.06z"/><path d="M64.26 144.96c-.14-.01-.27-.04-.41-.07a6.48 6.48 0 0 0-.77-.09h-.09a.97.97 0 0 1-.98-.94.97.97 0 0 1 .94-.98c.44-.01.89.06 1.33.14l-.06-.01.25.04h.07c.4-.04.79-.1 1.19-.1l.5.01c.26.01.53.02.79 0l.88-.08c.37-.04.74-.11 1.11-.18.43-.08.86-.13 1.29-.22.51-.12 1-.27 1.5-.42l.97-.28a12 12 0 0 0 2.06-.78c.33-.14.67-.28 1-.44l1.75-.95c.3-.17.58-.37.87-.56.36-.24.73-.46 1.08-.7.25-.18.48-.37.7-.57.3-.29.59-.59.87-.89.24-.26.49-.51.72-.78.36-.44.67-.91 1.01-1.36.33-.44.66-.88.96-1.34.16-.27.31-.54.45-.82l.55-1.07c.21-.45.37-.92.53-1.39a8.37 8.37 0 0 0 .32-1.85c.01-.22.01-.44-.01-.66-.02-.2-.06-.39-.1-.59l-.25-1.03.03.12a3.7 3.7 0 0 0-.65-1.45c-.15-.21-.3-.43-.48-.62l.08.09-.74-.8.08.09c-.43-.47-.88-.93-1.37-1.34-.51-.42-1.06-.78-1.58-1.18-.5-.38-.96-.81-1.39-1.27l-.12-.13-.07-.07-.01-.01a4.11 4.11 0 0 1-1.09-1.69 3.14 3.14 0 0 1 .02-1.9c.13-.39.29-.77.5-1.12.21-.32.47-.59.75-.86.48-.47.97-.95 1.56-1.29a40.66 40.66 0 0 0 2.15-1.26c.62-.34 1.22-.71 1.85-1.03.38-.19.77-.36 1.14-.56.29-.15.58-.3.89-.42l.72-.28.85-.37c.46-.21.92-.4 1.37-.63.22-.11.44-.23.67-.32l.4-.16a.97.97 0 0 1 1.19.11 1 1 0 0 1 .27.93c-.06.3-.3.53-.56.66-.16.08-.34.14-.51.22-.49.21-.96.47-1.45.69-.51.23-1.02.47-1.54.68l-.74.29c-.34.14-.67.33-1 .49-.34.17-.7.33-1.04.51-.32.17-.63.36-.95.54-.3.17-.61.33-.91.51l-1.14.69c-.31.18-.64.34-.94.54-.17.13-.33.27-.48.42l.09-.08c-.3.28-.61.55-.88.86l-.13.17-.07.13a4.4 4.4 0 0 0-.21.5l-.07.25-.01.09v.12l.06.36.04.14.02.05.13.2.22.28.36.39-.02-.02.02.03.01.01-.01-.01.01.01.01.01.03.03-.03-.04c.28.3.57.57.88.83.64.54 1.35.98 1.99 1.51a19 19 0 0 1 1.8 1.79c.21.22.42.43.61.67.21.27.4.54.58.83.16.25.3.51.41.79a5.97 5.97 0 0 1 .27.9c.1.45.23.89.32 1.34.09.43.1.87.09 1.32-.02.45-.08.89-.15 1.33-.04.24-.08.49-.14.73-.1.38-.24.75-.38 1.12-.12.33-.25.65-.4.96-.12.26-.27.5-.4.76-.26.51-.51 1.01-.83 1.49-.4.6-.85 1.16-1.28 1.74-.2.27-.38.55-.59.81-.22.27-.45.51-.69.76-.32.35-.64.7-.98 1.03-.47.46-.99.86-1.54 1.22l-1.05.67c-.39.26-.79.47-1.21.69-.61.33-1.2.7-1.84.97-.53.23-1.06.46-1.6.67a14.28 14.28 0 0 1-1.96.62c-.53.16-1.07.32-1.61.45-.58.15-1.18.22-1.77.33l-.72.12c-.26.04-.52.05-.78.08-.24.02-.48.06-.72.07-.21.01-.41 0-.62-.01a7.5 7.5 0 0 0-1.46.07c-.14.02-.27.02-.4.02-.05-.02-.12-.02-.18-.02zm33.3-.53.29-.05.42-.12.46-.2 1.07-.55-.11.06c.27-.14.52-.31.77-.48.48-.34.94-.71 1.39-1.09.44-.36.92-.66 1.35-1.03l.99-.97c.38-.37.77-.72 1.13-1.11.33-.35.63-.73.96-1.09l.95-1.07c.35-.41.68-.82 1-1.25.37-.48.71-.97 1.08-1.45.36-.47.73-.94 1.07-1.42l.94-1.39.94-1.49c.29-.44.61-.87.9-1.31.32-.51.6-1.03.9-1.55.3-.52.61-1.04.93-1.55.31-.5.58-1.03.85-1.55.28-.53.58-1.05.85-1.59.42-.91.78-1.85 1.19-2.77.35-.79.72-1.57 1-2.4l.28-.96c.06-.21.12-.43.16-.64.06-.33.09-.66.14-.99.04-.3.08-.6.1-.9l-.01-.3-.04-.27a1.96 1.96 0 0 0-.11-.3 6.13 6.13 0 0 0-.26-.43c-.14-.2-.31-.38-.48-.57l.04.04-.05-.05-.04-.04.03.04a1.89 1.89 0 0 0-.2-.2l-.06-.04-.9-.51c-.24-.14-.48-.29-.73-.42l-.26-.11c-.12-.04-.25-.06-.37-.09-.25-.04-.5-.08-.75-.1h-.06l-.14.02-.22.07a8.41 8.41 0 0 0-1.04.46 15.93 15.93 0 0 0-.9.75l-.65.62-1.02.89-.59.56-.67.76c-.39.44-.8.87-1.18 1.32-.27.33-.54.67-.79 1.01-.28.37-.51.77-.8 1.14-.31.4-.64.78-.96 1.17-.32.4-.62.81-.9 1.24-.38.6-.76 1.2-1.17 1.78-.42.58-.86 1.15-1.26 1.74-.59.92-1.11 1.88-1.64 2.83l-.92 1.61c-.25.47-.5.95-.73 1.43-.28.6-.56 1.21-.86 1.8-.29.57-.58 1.14-.85 1.71-.17.37-.35.74-.51 1.12-.16.38-.3.76-.42 1.15l-.06.18v-.01l.01-.02v.01l.01-.02v-.01l-.47 1.46c-.17.55-.33 1.09-.45 1.65-.1.45-.21.89-.29 1.34a21.3 21.3 0 0 0-.26 2.39l.01.41.07.43.11.36.13.31.06.1.04.04.16.15.15.11.07.04.1.04.31.07c.18.03.37.06.55.07.06-.02.14-.02.22-.02zm-.88 1.86a4.89 4.89 0 0 1-.76-.16 3.06 3.06 0 0 1-1.34-.87 3.7 3.7 0 0 1-.78-1.54 5.41 5.41 0 0 1-.15-1.79 21.68 21.68 0 0 1 .74-4.42c.21-.85.51-1.68.78-2.51l-.04.12.09-.29-.03.09.08-.26-.04.12c.13-.41.27-.82.44-1.22.17-.42.37-.82.56-1.23.41-.86.85-1.7 1.27-2.56.39-.83.78-1.66 1.21-2.47.45-.85.96-1.68 1.43-2.52.22-.4.43-.8.66-1.19.25-.42.52-.84.79-1.24.52-.76 1.09-1.48 1.6-2.24l.07-.1c.26-.41.52-.83.8-1.23.27-.4.56-.78.87-1.15.31-.37.63-.74.92-1.13.27-.36.5-.74.76-1.1.52-.7 1.09-1.35 1.67-1.99l.86-.98c.29-.33.62-.64.95-.93l.8-.69c.3-.27.58-.57.88-.84l.34-.3c.14-.13.28-.26.43-.37l.28-.19c.22-.16.43-.32.69-.42a.86.86 0 0 1 .27-.05l.18-.08c.4-.16.79-.28 1.22-.32.31-.03.65.04.96.09.51.08.98.2 1.44.42.3.14.58.33.87.49.41.24.86.44 1.22.76.18.15.33.34.48.51.14.16.28.31.4.48l.12.17-.07-.1c.29.41.54.84.68 1.32.14.49.16 1.02.11 1.52a14.86 14.86 0 0 1-.66 3.44 19.8 19.8 0 0 1-.86 2.21c-.34.77-.66 1.54-.99 2.32-.18.43-.37.86-.57 1.28-.18.38-.39.75-.59 1.12-.39.72-.75 1.45-1.18 2.15-.45.74-.89 1.5-1.32 2.26-.22.39-.45.77-.71 1.14l-.71 1.02c-.47.73-.93 1.47-1.41 2.2-.25.37-.5.74-.77 1.11-.26.36-.54.7-.81 1.05-.53.7-1.03 1.42-1.59 2.1-.53.66-1.1 1.28-1.67 1.92-.26.29-.5.59-.76.87-.29.32-.59.62-.91.92l-.85.82c-.31.31-.62.61-.96.88-.31.24-.64.45-.95.7l-.94.76c-.36.28-.73.55-1.12.8-.35.22-.73.4-1.1.59-.3.16-.6.33-.93.45-.39.15-.8.28-1.22.32-.14.02-.28.02-.42.02-.21 0-.46-.02-.71-.06zm25.45 2.56c-.26-.03-.5-.16-.67-.36-.27-.34-.25-.77-.06-1.14.17-.33.42-.62.63-.92.42-.66.81-1.33 1.23-1.99.23-.36.44-.73.65-1.09.24-.41.5-.8.74-1.2l.65-1.08.33-.53c.09-.14.17-.28.27-.41l.06-.1-.04.07.05-.07.03-.05c.57-.89 1.13-1.79 1.68-2.68.57-.91 1.24-1.76 1.83-2.65.58-.91 1.12-1.85 1.72-2.75.61-.9 1.28-1.75 1.87-2.66l-.07.1a.57.57 0 0 0 .08-.13l-.02.03.07-.1c.33-.5.67-1 1.02-1.48.39-.53.8-1.04 1.18-1.58l1.06-1.52c.32-.45.65-.9.95-1.36.34-.53.65-1.07.99-1.59.34-.51.72-1 1.06-1.51a18.05 18.05 0 0 1 1.97-2.74l-.01.01.02-.02.06-.08-.05.06.09-.1.02-.02-.02.02.04-.05-.02.02c.45-.53.9-1.07 1.33-1.62.47-.59.95-1.17 1.45-1.74.51-.6.97-1.24 1.49-1.82.53-.59 1.07-1.18 1.64-1.74l.88-.85c.19-.2.4-.37.62-.52.29-.2.57-.39.93-.47a2.6 2.6 0 0 1 1 .01c.36.07.69.34.9.63.26.35.44.76.49 1.2.06.51.07 1.03.09 1.55.03.77-.06 1.52-.15 2.29-.07.61-.14 1.23-.26 1.83l-.33 1.67c-.08.46-.14.92-.2 1.38l-.17 1.25-.19 1.49c-.07.49-.17.96-.27 1.45-.13.78-.21 1.58-.35 2.36-.11.66-.23 1.32-.31 1.99-.09.67-.18 1.34-.33 2.01-.14.65-.29 1.3-.46 1.94-.25.99-.43 1.99-.64 2.99l-.29 1.52-.27 1.32c-.08.43-.13.87-.2 1.3l-.26 1.33c-.09.56-.14 1.12-.27 1.67-.1.45-.23.89-.31 1.34l-.26 1.62c-.04.25-.06.5-.09.76-.02.22-.06.43-.1.64l-.05.35a.96.96 0 0 1-1.06.85.97.97 0 0 1-.85-1.06l.11-.7.1-.84.15-.94.19-1.15c.09-.5.24-.98.34-1.48l.2-1.31c.07-.45.18-.89.27-1.34l.18-1.17c.07-.42.16-.84.25-1.26.17-.77.3-1.56.46-2.33.16-.77.3-1.55.48-2.32l.47-1.98.19-.9c.08-.46.13-.93.19-1.4.07-.51.16-1.02.25-1.53.1-.6.18-1.19.26-1.79.04-.33.09-.65.15-.98l.15-.71c.1-.6.17-1.21.24-1.81.06-.52.14-1.03.21-1.55.08-.59.17-1.19.28-1.78l.31-1.58c.07-.43.11-.86.16-1.28.06-.49.13-.98.16-1.48a21.95 21.95 0 0 0-.07-1.92l-.02-.16-.01-.04-.03-.07-.01-.02h-.01l-.31.21.04-.03-.17.13c-.32.29-.62.61-.93.91-.7.67-1.35 1.39-1.99 2.12-.26.31-.49.64-.74.95-.3.37-.62.73-.93 1.09-.4.47-.78.97-1.17 1.45-.38.48-.78.94-1.17 1.41l.08-.09-.15.18.08-.09c-.51.6-.98 1.23-1.42 1.88-.27.42-.53.85-.82 1.26-.29.4-.58.81-.85 1.22-.37.58-.71 1.19-1.11 1.76l-1.22 1.73c-.43.62-.86 1.24-1.33 1.84-.46.6-.9 1.21-1.31 1.84l.01-.01-.18.28.07-.11c-.35.54-.71 1.06-1.09 1.57-.37.5-.73 1.01-1.08 1.53-.48.76-.93 1.53-1.42 2.29-.51.79-1.09 1.53-1.62 2.32-.59.92-1.17 1.86-1.75 2.79l-.18.28-.12.18-.03.05c-.39.6-.75 1.22-1.12 1.83l-.62.99-.57.96c-.37.62-.77 1.22-1.14 1.84-.18.3-.36.6-.57.89l-.3.42c-.12.41-.5.7-.93.7l-.08-.02z"/><path d="m147.37 132.3-.71-.03c-.52-.01-1.03-.09-1.55-.09l-.93.02c-.43.01-.87-.01-1.3-.01-.51 0-1.02.04-1.53.04s-1.01-.03-1.52-.04l-1.62-.02h.08-1.12c-.37 0-.74.03-1.11.01-.27-.02-.54-.05-.81-.05-.33 0-.67.03-1 .04h-.64a.89.89 0 0 1-.51.03 1.03 1.03 0 0 1-.61-.41l.07.1.04.04a.97.97 0 0 1-.25-.38.97.97 0 0 1 .6-1.22c.17-.05.34-.06.51-.06l.71-.01c.43-.02.86-.04 1.29-.03l.96.06c.41 0 .83-.02 1.24-.01h-.06l1.81.02h-.05c.61 0 1.22.03 1.83.04l1.35-.03c.44-.01.88 0 1.32.01l.53-.01.64-.01c.37 0 .74.02 1.11.06.23.03.47.03.71.04.25.01.5.03.76.03l.44-.02a.98.98 0 0 1 1.02.9c.03.51-.37 1.01-.9 1.02l-.63.02c-.03-.04-.1-.04-.17-.05zm12.53 15.74c-.34-.08-.57-.39-.66-.71a.91.91 0 0 1 .08-.65 27.93 27.93 0 0 1 .68-1.67c.15-.32.28-.65.4-.98l.49-1.29c.18-.45.37-.89.54-1.34.12-.33.23-.67.36-1l.42-1.05c.28-.66.52-1.35.8-2.01.31-.72.6-1.44.88-2.16.25-.65.55-1.28.8-1.93.17-.49.33-.99.52-1.47l.51-1.26c.29-.81.54-1.63.83-2.44.15-.43.29-.88.42-1.32l.43-1.35.43-1.41c.13-.47.29-.93.46-1.39.31-.86.52-1.76.83-2.62l.46-1.29.45-1.38c.29-.9.6-1.79.86-2.69.13-.45.28-.9.43-1.34l.37-1.16a14.37 14.37 0 0 1 .81-2.11l.17-.41-.04.12c.14-.37.27-.73.44-1.08.11-.22.2-.45.33-.66a.97.97 0 0 1 1.32-.32c.44.27.61.88.32 1.32l-.06.09-.16.35c-.11.22-.21.45-.3.68l.04-.12-.25.67c-.15.36-.32.72-.46 1.09-.27.74-.48 1.49-.73 2.23-.31.9-.56 1.81-.85 2.71l-.44 1.33c-.15.46-.29.92-.45 1.37l-.47 1.31c-.16.45-.29.92-.42 1.38-.12.42-.26.84-.41 1.26-.17.46-.31.93-.45 1.4-.26.92-.58 1.83-.86 2.75-.26.85-.57 1.69-.85 2.54-.14.44-.29.89-.45 1.32-.15.4-.32.79-.48 1.18l-.11.28-.35 1.03c-.12.34-.26.68-.41 1.01l-.44 1.04-.41 1.06c-.29.72-.61 1.42-.89 2.15-.26.67-.55 1.32-.8 1.99-.18.51-.36 1.03-.56 1.53-.2.51-.43 1.01-.62 1.53l.04-.12c-.24.66-.48 1.32-.78 1.95-.16.33-.29.67-.42 1.01v-.01c-.08.21-.13.44-.24.63a.9.9 0 0 1-.37.35.87.87 0 0 1-.44.11c-.1.01-.19 0-.29-.03z"/><path d="m175.16 107.94-.05-.11-.07-.1-.08-.09-.04-.03c.11.08.19.2.24.33zm-9.55 25.15a.98.98 0 0 1 .83-1.08c.31-.04.63-.05.95-.07a18.4 18.4 0 0 0 2.21-.33l-.05.01.73-.14-.03.01.03-.01.09-.02-.09.02c.19-.04.37-.09.56-.15l1.28-.46c.42-.16.85-.3 1.27-.49a52.6 52.6 0 0 0 1.68-.84c.54-.28 1.09-.55 1.61-.87.21-.14.41-.29.61-.46l.81-.69.76-.6c.24-.22.45-.48.68-.72.35-.36.72-.7 1.06-1.07l.72-.84.77-.86c.21-.24.4-.49.57-.75l.49-.76.56-.8.11-.19c.13-.28.23-.58.34-.87.13-.35.28-.71.4-1.07a8.88 8.88 0 0 0 .35-1.72l.12-1.5v.04l.01-.2v-.58l-.05-.37-.05-.17-.12-.29a8.05 8.05 0 0 0-.84-1.3l-.26-.26-.67-.52c-.22-.17-.44-.35-.67-.51-.3-.19-.61-.36-.93-.52-.29-.13-.58-.25-.87-.35a14.5 14.5 0 0 1-.86-.29l-.8-.3a14.1 14.1 0 0 0-1.42-.37l-1.44-.27.05.01c-.51-.1-1.03-.15-1.55-.22l-.45-.08c-.33-.07-.58-.3-.72-.6a.97.97 0 0 1 .53-1.25.9.9 0 0 1 .7 0c.26.05.52.07.77.11.47.06.93.14 1.39.23l.95.17c.35.06.69.15 1.04.24.34.08.67.18.99.29l1.04.38c.42.14.84.27 1.24.45.43.19.85.42 1.25.66.4.25.76.55 1.14.84.4.31.78.62 1.11 1.01a7.5 7.5 0 0 1 1.18 1.95c.2.54.27 1.11.26 1.68 0 .19-.02.38-.03.56l.01-.12-.11 1.29a8 8 0 0 1-.2 1.46l-.16.66c-.08.27-.18.54-.28.81-.18.48-.35.96-.54 1.43-.21.53-.57.97-.89 1.44-.27.41-.53.83-.81 1.23-.33.46-.74.86-1.12 1.29-.33.38-.64.76-.98 1.13-.35.4-.76.74-1.12 1.13l-.31.35c-.16.18-.35.33-.53.48l-1.06.85c-.44.38-.88.76-1.39 1.05-.49.28-1 .54-1.5.81s-1.02.51-1.53.76c-.6.3-1.23.51-1.85.74-.48.18-.98.37-1.47.5-.39.11-.79.16-1.18.24h.01a18.46 18.46 0 0 1-2.75.37l.09-.01-.58.05-.11.01a.91.91 0 0 1-.98-.8zM17.42 26.68a.65.65 0 0 0 0 .24c.04.22.16.39.36.48a.54.54 0 0 0 .57-.07.22.22 0 0 0 .05-.04.83.83 0 0 0 .15-.11c.08-.08.14-.17.2-.26.08-.13.15-.27.21-.41.17-.38.3-.78.48-1.16.23-.44.51-.85.79-1.26.25-.37.52-.73.8-1.07l.85-1.03.01-.01.01-.01.59-.58.45-.35.5-.34a.7.7 0 0 0 .19-.89c-.16-.29-.55-.44-.85-.3-.39.18-.75.42-1.08.69-.33.28-.65.57-.94.89l.06-.07a25.31 25.31 0 0 0-1.75 2.2c-.27.41-.55.81-.78 1.24-.2.37-.35.75-.49 1.14-.08.23-.16.47-.27.69v-.01c-.04.14-.09.26-.11.4zm3.42.05c-.07.14-.12.29-.14.44l-.01.29c.01.15.03.3.14.41a.4.4 0 0 0 .44.09c.17-.06.25-.22.32-.37l.12-.19c.18-.26.39-.49.59-.73.39-.47.78-.95 1.2-1.41a18.93 18.93 0 0 1 1.56-1.54c.4-.33.81-.63 1.2-.98.3-.27.3-.77.02-1.06a.75.75 0 0 0-.98-.08 14.12 14.12 0 0 0-3.19 3.18l.01-.01-.04.06-.32.47-.02.02-.01.01-.02.02.01-.02c-.31.46-.64.9-.88 1.4zm3.89 13.57c-.51-.02-1.03-.02-1.54-.11a5.15 5.15 0 0 1-.42-.11 7 7 0 0 1-2.14-.49c-.22-.09-.42-.22-.63-.33a5.62 5.62 0 0 1-.65-.43l-.36-.31-.42-.33c-.33-.26-.64-.54-.94-.83l-.47-.44a5.57 5.57 0 0 1-.42-.45c-.18-.23-.32-.49-.51-.72a5.78 5.78 0 0 1-1.17-2.26l-.16-.59-.01-.02-.24-.84-.19-.7a8.9 8.9 0 0 1-.24-1.43 127.92 127.92 0 0 1-.12-1.21c-.01-.22.01-.45.02-.67.03-.45.04-.9.09-1.34l.16-1.23c.06-.42.17-.83.27-1.24l.1-.5c.03-.21.06-.42.11-.62.05-.24.12-.46.23-.68l.32-.62.03-.05c.11-.21.22-.42.32-.65l.31-.7c.22-.45.48-.87.72-1.3.24-.43.54-.83.84-1.22.31-.39.68-.73 1.05-1.07.35-.33.73-.62 1.07-.96.34-.34.7-.67 1.07-.98.19-.16.38-.32.58-.46.21-.15.44-.27.67-.4.42-.23.85-.47 1.28-.68l.69-.31-.06.03a21.07 21.07 0 0 1 2.22-.76l.16-.05 1.11-.3c.36-.1.72-.2 1.08-.28a13.84 13.84 0 0 1 3.16-.22c.27.01.54.05.81.08h-.01c.43.05.87.08 1.3.14.44.06.87.18 1.29.3a14.96 14.96 0 0 1 2.37 1l-.03-.02c.66.36 1.3.77 1.91 1.21l-.06-.04a6.63 6.63 0 0 1 1.7 1.67l-.02-.03.5.62c.16.21.29.45.39.69l.07.16.12.26.16.37.27.68c.2.48.4.96.55 1.46.14.49.27.99.37 1.49.09.5.12 1.01.15 1.52s.04 1.03.03 1.54l-.01.73c0 .26 0 .52-.02.77-.03.4-.11.79-.22 1.17-.09.32-.22.64-.34.96v-.01a36.1 36.1 0 0 1-1.29 2.85c-.48.9-1.09 1.73-1.72 2.53-.32.4-.67.76-1.03 1.11-.39.37-.77.77-1.17 1.13a30.75 30.75 0 0 1-1.91 1.56c-.22.16-.44.29-.68.43a13.97 13.97 0 0 1-3.24 1.4l-1.15.34.07-.02-.16.04h-.03c-.46.13-.93.24-1.4.34-.48.1-.98.16-1.47.24h.01l-.77.12c-.25.04-.5.08-.76.1l-.39.01c-.38.01-.77-.02-1.16-.04zm24.82-1.38c-.21.17-.4.37-.55.6-.2.33-.36.68-.46 1.05l-.15.6c-.04.17-.06.35-.05.53a.7.7 0 0 0 .66.64h.03c.3 0 .57-.2.67-.49.04-.11.06-.23.09-.34.03-.13.08-.26.12-.38l.18-.37.23-.37.3-.37c.09-.11.18-.23.22-.38a.77.77 0 0 0-.23-.82.66.66 0 0 0-.43-.16c-.23.02-.46.12-.63.26zm.36 7.43a6.23 6.23 0 0 1-.62-.15c-.43-.15-.82-.4-1.17-.68l.02.02a3.91 3.91 0 0 1-.86-.91c-.11-.17-.2-.37-.29-.55a5.33 5.33 0 0 1-.37-1.07 4.75 4.75 0 0 1-.19-1.27c.01-.23.08-.47.13-.69l.14-.64c.05-.21.1-.42.18-.62.09-.22.22-.43.35-.63l.38-.59c.11-.17.23-.33.36-.49a4.25 4.25 0 0 1 1.52-1.16c.24-.11.49-.19.74-.28.12-.04.23-.09.35-.12a.56.56 0 0 1 .42.05l.26-.02a4.5 4.5 0 0 1 1.69.31c.12.05.24.12.35.19h-.01l.52.33c.22.14.44.29.63.47.43.39.7.93.91 1.47v-.01c.12.32.2.66.22 1.01.02.29-.03.57-.05.86v.05c-.02.38-.06.75-.18 1.11-.12.38-.24.76-.41 1.12a5.37 5.37 0 0 1-1.53 1.8c-.13.11-.27.22-.41.31-.15.1-.31.17-.47.24-.32.14-.64.29-.97.4a3.4 3.4 0 0 1-1.64.14zm-8.33 7.83a1.3 1.3 0 0 0-.41.24c-.18.14-.33.31-.44.51a2.1 2.1 0 0 0-.23.68c-.05.32.19.63.49.71l.15.02c.27 0 .51-.16.61-.42l.06-.15.12-.22.27-.37c.13-.18.26-.39.23-.62a.52.52 0 0 0-.47-.43h-.07a.7.7 0 0 0-.31.05zm-.34 4.69-.28-.15.04.02c-.16-.09-.31-.2-.45-.31l-.03-.02-.01-.01h.01l-.01-.01a3.9 3.9 0 0 1-.89-.96l-.05-.08c-.03-.05-.07-.11-.09-.17-.06-.12-.1-.24-.14-.37-.06-.18-.13-.37-.15-.56-.03-.22-.05-.43-.03-.65.02-.27.08-.52.18-.76v.01l.01-.02.01-.02-.01.02c.07-.18.16-.34.27-.49l.31-.4c.11-.14.23-.27.37-.38.18-.15.4-.24.61-.33l-.03.01c.18-.07.36-.14.56-.18.16-.03.33-.04.49-.05a4.5 4.5 0 0 1 2.12.62c.14.1.29.21.41.33.14.12.25.27.36.41.24.32.4.69.54 1.06.14.4.22.83.17 1.24a1.4 1.4 0 0 1-.26.65l-.28.43c-.27.41-.66.73-1.08.97-.2.11-.41.21-.63.3-.22.09-.45.12-.69.14l-.16.01c-.43 0-.84-.13-1.19-.3z"/></g><defs><clipPath id="a"><path fill="#fff" d="M0 0h204v185H0z"/></clipPath></defs></svg>