<svg width="173" height="173" fill="none" xmlns="http://www.w3.org/2000/svg"><path fill-rule="evenodd" clip-rule="evenodd" d="M0 0h173v173H0V0zm54.53 28 2.63 27.91v.04h10.35L62.83 14h-12l-9.86 28.86L30.48 14h-12l-4.4 41.94h9.83l2.04-28 9.96 27.96h9.2L54.54 28zm17.92 12.45c0 9.13 6.2 16.43 16.33 16.43 7.12 0 11.32-3.33 12.17-4l.15-.12-3.84-6.3a.5.5 0 0 0-.02.02l-.1.06c-.67.4-3.57 2.18-6.94 2.18-5.15 0-7.61-3.5-7.61-8.48 0-4.77 3.25-8.37 8.17-8.37 2.07.07 4.11.72 5.84 1.9l3.95-6.09c-.42-.66-4.26-3.91-11.25-3.91-9.44 0-16.85 7.13-16.85 16.68zm-34.04 100.9H24.46v17.53H14.12v-41.93h10.34V133h13.95v-16.05h10.34v41.97H38.41v-17.58zm18.82-19.6a5.4 5.4 0 0 0 5.36 5.44 5.37 5.37 0 0 0 5.33-5.19 5.36 5.36 0 0 0-5.23-5.47 5.36 5.36 0 0 0-5.46 5.23zm.24 10.22v26.91h10.1v-26.91h-10.1zm18.75-15.02h9.62v41.97h-9.62v-41.97zm27.96 0h-9.62v41.97h9.62v-41.97zm-71.2-8.86c-12.8 0-21.94-8.3-21.94-21.7 0-13.94 9.62-22.38 22.63-22.38 9.61 0 13.84 3.98 14.77 4.91l-4.46 6.68a16.34 16.34 0 0 0-9.83-3c-7.37 0-12.7 4.97-12.7 13.28 0 9.37 5.99 13.7 12.6 13.7 1.9.03 3.77-.24 5.6-.76v-6.1h-7.61v-7.46h16.71v18.23l-.19.14c-1.06.8-5.93 4.46-15.59 4.46zm107.43-1.83h10.24l8.34-31.18h-9.17l-4.7 20.14-5.16-20.14h-8.48l-5.16 20.14-4.9-20.14h-9.56l8.96 31.18h9.86l4.64-19.24 5.09 19.24zM75.7 82.35a9.41 9.41 0 0 0-8.1 4.29v19.72H57.5V75.01h8.33v4.19c.18-.31 4.02-5.12 10.45-5.12a7.06 7.06 0 0 0 1.25.1l-1.84 8.17zm14.84 24.88a13.87 13.87 0 0 0 8.86-3.36v2.7h8.3v-19.1c.01-3.56.03-6.93-2.53-9.48-2.45-2.46-6.05-3.67-10.86-3.67-3.43-.03-6.82.66-9.93 2.08-.55.27-1.07.55-1.6.86l3.12 6.13c.38-.18.87-.38 1.45-.6a19.67 19.67 0 0 1 6.47-1.2c2.22 0 3.19.55 3.74 1 .87.67.82 2.12.78 3.16l-.02.54h-.69c-3.29 0-17.26.83-17.26 10.7 0 6.01 3.84 10.24 10.17 10.24zM98 91.86h.47v6.4a9.93 9.93 0 0 1-5.81 1.77c-1.63 0-3.91-.76-3.91-3.8a3.61 3.61 0 0 1 1.07-2.67c1.72-1.72 5.72-1.7 8.18-1.7z" fill="#969594"/></svg>