<svg width="126" height="126" fill="none" xmlns="http://www.w3.org/2000/svg"><path d="M63 126C28.26 126 0 97.74 0 63 0 28.26 28.26 0 63 0c34.74 0 63 28.26 63 63 0 34.74-28.26 63-63 63zM63 9C33.22 9 9 33.23 9 63s24.22 54 54 54 54-24.23 54-54S92.78 9 63 9zm0 93.6A39.64 39.64 0 0 1 23.4 63 39.64 39.64 0 0 1 63 23.4 39.64 39.64 0 0 1 102.6 63 39.64 39.64 0 0 1 63 102.6zm0-70.2A30.64 30.64 0 0 0 32.4 63 30.64 30.64 0 0 0 63 93.6 30.64 30.64 0 0 0 93.6 63 30.64 30.64 0 0 0 63 32.4z" fill="#CD9E67"/><path d="M87.82 42.68a4.5 4.5 0 0 1-3.19-7.67l16.55-16.55a4.5 4.5 0 0 1 6.36 6.36L91 41.37a4.49 4.49 0 0 1-3.18 1.31zm-66.19 66.19a4.5 4.5 0 0 1-3.18-7.68l16.54-16.54A4.5 4.5 0 0 1 41.35 91l-16.54 16.54a4.47 4.47 0 0 1-3.18 1.32zm82.74 0a4.5 4.5 0 0 1-3.19-1.32L84.64 91.01A4.5 4.5 0 0 1 91 84.65l16.55 16.54a4.5 4.5 0 0 1-3.18 7.68zM38.18 42.68A4.5 4.5 0 0 1 35 41.37L18.45 24.82a4.5 4.5 0 0 1 6.36-6.36L41.36 35a4.5 4.5 0 0 1-3.18 7.68z" fill="#CD9E67"/></svg>