<svg width="125" height="125" fill="none" xmlns="http://www.w3.org/2000/svg"><path d="M6.86 54.57c0-.15.14-.15.14-.29a24.1 24.1 0 0 1 1.86-2l.57-.56c.43-.43.86-.86 1.43-1.29.28-.28.57-.43.86-.71.43-.43.86-.71 1.28-1.14.29-.29.57-.43.86-.72.43-.28.86-.71 1.28-1 .29-.28.57-.43 1-.57.43-.28 1-.56 1.43-.85.29-.15.57-.43 1-.57.57-.29 1-.57 1.57-.86l.86-.43c.72-.29 1.29-.57 2-.86.15-.15.29-.15.57-.29.86-.28 1.71-.71 2.57-1 .29-.14.57-.14.72-.28.57-.15 1.28-.43 1.85-.57.29-.14.72-.14 1-.28l1.72-.43c.43-.15.71-.15 1.14-.29.57-.14 1.14-.14 1.71-.28.43 0 .72-.15 1.15-.15.57 0 1.14-.14 1.7-.14.44 0 .72 0 1.15-.15h.43v-.43a3 3 0 0 1 .15-1.14c0-.57.14-1.15.14-1.71 0-.43.15-.72.15-1.15.14-.57.14-1.14.28-1.71 0-.43.15-.72.15-1.14l.43-1.72c.14-.28.14-.71.28-1 .15-.71.43-1.28.57-2 .15-.28.15-.42.29-.7.28-.87.56-1.72 1-2.58 0-.15.14-.28.14-.43.28-.71.57-1.43 1-2.14l.43-.86c.28-.57.57-1.15.86-1.58.14-.28.43-.56.57-.85.28-.43.57-1 .86-1.43.14-.29.43-.57.56-.86.29-.43.72-.86 1-1.43.29-.29.43-.57.72-.86a8.8 8.8 0 0 1 1.14-1.28c.29-.29.43-.57.72-.86.43-.43.85-1 1.28-1.43L52 9c.71-.71 1.28-1.28 2-1.86l.28-.28c.57-.57 1.28-1 1.86-1.58.28-.14.57-.43.86-.57.43-.28.71-.56 1.14-.85A40.16 40.16 0 0 0 40.85 0C18.28.29 0 18.57 0 41.14c0 6 1.28 11.86 3.86 17.29.28-.43.56-.72.85-1.15.15-.28.43-.57.57-.71.58-.72 1-1.43 1.58-2zM70.42 7.15l.29.28c.71.57 1.42 1.29 2 1.86l.56.57c.43.43.86.86 1.29 1.43.28.28.42.57.7.86.44.43.72.86 1.15 1.28.29.29.43.57.72.86.28.43.71.86 1 1.43.14.28.43.57.57.86.28.43.56 1 .85 1.43.15.28.43.56.57.86.29.56.57 1 .86 1.57l.43.86c.29.71.72 1.43 1 2.14 0 .15.15.29.15.43.28.86.71 1.71 1 2.57.14.29.14.43.28.72.14.71.43 1.28.57 2 .14.28.14.7.28 1l.43 1.7c.15.29.15.72.15 1.15.14.57.14 1.14.28 1.71 0 .43.15.72.15 1.15 0 .57.14 1.14.14 1.7 0 .44 0 .72.15 1.15v.43h.43a3 3 0 0 1 1.14.15c.57 0 1.15.14 1.71.14.43 0 .72.15 1.15.15.57.14 1.14.14 1.71.28.43 0 .72.15 1.14.29l1.72.43c.28.14.71.14 1 .28.57.15 1.28.43 1.85.57.29.15.57.15.72.28.86.29 1.71.57 2.57 1 .15 0 .29.15.57.29.71.28 1.28.57 2 .86l.86.43c.57.28 1 .57 1.57.86.29.14.57.43 1 .57.43.28 1 .56 1.43.85.28.15.57.43 1 .57.43.29.86.57 1.28 1 .28.29.57.43.86.72.43.28.86.71 1.28 1.14.29.29.57.43.86.71.43.43 1 .86 1.43 1.29l.57.57c.71.71 1.28 1.28 1.86 2 .14.14.14.14.14.28.57.57 1 1.28 1.58 1.86.14.28.42.57.56.71.29.43.57.72.86 1.15a40.85 40.85 0 0 0-37-58.14 37.85 37.85 0 0 0-17.14 3.7c.43.29.72.57 1.15.86.28.15.57.43.86.57.57.43 1.14 1 1.71 1.58z" fill="#CD9E67"/><path d="M44.57 39.14c.56 0 1.14.15 1.7.15.44 0 .72.14 1.15.14.57.15 1.15.15 1.71.29.29 0 .72.14 1 .14l1.72.43c.28.15.57.15.86.28.85.29 1.57.43 2.28.72.15 0 .15 0 .29.14.86.29 1.71.57 2.57 1 .28.15.57.29.86.29l1.71.86c.29.14.57.28 1 .43l.86.43.86-.43c.28-.15.57-.29 1-.43l1.71-.86c.29-.15.57-.29.86-.29.86-.28 1.71-.71 2.57-1 .15 0 .15 0 .29-.14.71-.29 1.57-.43 2.29-.72.28-.14.56-.14.85-.28l1.72-.43c.28-.14.71-.14 1-.14.57-.15 1.14-.15 1.7-.29.44 0 .72-.14 1.15-.14.57 0 1.15-.15 1.72-.15.28 0 .71 0 1-.14h.42v-.29c0-.43 0-.71-.14-1.14 0-.43-.15-1-.15-1.43 0-.43-.14-.72-.14-1.14-.15-.43-.15-1-.29-1.43 0-.43-.14-.72-.28-1.15-.15-.43-.15-1-.28-1.43-.15-.43-.15-.71-.29-1.14-.14-.43-.28-.86-.43-1.43-.14-.28-.28-.71-.43-1-.14-.43-.28-.86-.57-1.42-.14-.29-.28-.72-.43-1-.14-.43-.43-.86-.57-1.29-.14-.28-.28-.71-.43-1-.28-.43-.43-.85-.71-1.42l-.43-.86c-.28-.43-.57-1-.86-1.43-.14-.29-.28-.43-.43-.72-.43-.71-1-1.42-1.43-2-.57-.7-1-1.28-1.57-2l-.57-.56c-.43-.43-.71-.86-1.14-1.28l-.72-.72c-.43-.43-.71-.71-1.14-1-.29-.28-.57-.43-.86-.71-.43-.28-.72-.71-1.14-1-.29-.28-.57-.43-.86-.71-.43-.29-.86-.57-1.15-.86a2.26 2.26 0 0 0-1-.57c-.28-.15-.43-.29-.71-.43-.29.14-.43.28-.72.43-.28.14-.7.43-1 .57-.42.28-.85.57-1.14.86-.28.28-.57.43-.86.71-.43.29-.71.57-1.14 1-.29.28-.57.43-.86.71-.43.29-.71.72-1.14 1l-.72.72c-.43.43-.86.86-1.14 1.28l-.57.57c-.57.71-1.14 1.28-1.57 2-.57.71-1 1.43-1.43 2-.15.28-.29.42-.43.7-.29.44-.57 1-.86 1.44l-.43.86c-.29.43-.57.86-.72 1.42-.14.29-.28.57-.43 1-.14.43-.42.86-.56 1.29-.15.28-.29.71-.43 1-.15.42-.29.85-.57 1.42-.15.29-.29.72-.43 1-.15.43-.29.86-.43 1.43-.15.43-.15.71-.29 1.14a5 5 0 0 0-.28 1.43c-.15.43-.15.72-.29 1.15-.14.43-.14 1-.28 1.43 0 .42-.15.7-.15 1.14 0 .43-.14 1-.14 1.43 0 .43 0 .71-.15 1.14V39h.43c.31.14.74.14 1.02.14z" fill="#CD9E67"/><path d="m51.42 16.43 1.58-2c-.43.57-1 1.29-1.58 2zm-1.42 2c.42-.72 1-1.43 1.42-2-.43.57-1 1.29-1.43 2zm9.56-10c.43-.28.86-.57 1.15-.86-.29.3-.72.58-1.15.86zm2.86-2c-.28.15-.43.29-.71.43.28-.14.43-.29.71-.43zM57.57 10c.43-.28.71-.71 1.14-1-.43.43-.86.71-1.14 1zm-3.86 3.71c.43-.43.72-.86 1.15-1.28-.43.43-.86.85-1.15 1.28zm1.85-1.85c.43-.43.72-.72 1.15-1-.43.14-.72.57-1.15 1zm-8.14 11c.29-.43.43-.86.72-1.43-.29.57-.43 1-.72 1.43zm-4.14 14.85c0-.43.15-1 .15-1.43-.15.43-.15.86-.15 1.43zm.29-2.71c.14-.43.14-1 .28-1.43-.14.57-.28 1-.28 1.43zm5.14-14.43c.29-.43.57-1 .86-1.43-.29.43-.57 1-.86 1.43zM44 32.43c.14-.43.14-1 .28-1.43 0 .57-.14 1-.28 1.43zm2.28-7.29c.14-.43.43-.86.57-1.28a4.8 4.8 0 0 1-.57 1.28zm-.85 2.43c.14-.43.28-.86.56-1.43-.28.57-.42 1-.56 1.43zM44.56 30zm36 1.14a5 5 0 0 1 .28 1.43c-.14-.57-.28-1-.28-1.43zm-.72-2.57c.15.43.29.86.43 1.43-.14-.43-.28-.86-.43-1.43zm-.99-2.43c.14.43.28.86.56 1.43a9.9 9.9 0 0 0-.56-1.43zm2.28 7.43c.15.43.15 1 .29 1.43a4.2 4.2 0 0 1-.29-1.43zm.29 2.57c0 .43.14 1 .14 1.43 0-.43 0-.86-.14-1.43zm-3.57-12.28c.14.43.43.86.57 1.28a4.97 4.97 0 0 0-.57-1.28zm-14.72-17c-.28-.15-.43-.29-.71-.43.28.14.43.29.71.43zM66.14 9c.43.28.71.57 1.14 1-.29-.29-.71-.57-1.14-1zM64 7.57c.42.29.85.57 1.14.86-.3-.28-.72-.57-1.15-.86zm4.13 3.15c.43.28.72.71 1.15 1-.43-.29-.72-.72-1.15-1zm8.57 10.71c.29.43.57.86.72 1.43-.29-.43-.43-.86-.72-1.43zm-5-7c.57.71 1.15 1.28 1.58 2-.43-.71-1-1.43-1.58-2zm3.57 4.71c.29.43.57 1 .86 1.43-.28-.43-.57-1-.86-1.43zm-1.85-2.71c.57.72 1 1.43 1.43 2-.43-.71-1-1.43-1.43-2zm-3.42-4c.42.43.85.86 1.14 1.28-.29-.42-.72-.85-1.15-1.28zM54.28 118.27c-.15-.14-.15-.14-.28-.14a24.19 24.19 0 0 1-2-1.86 3.03 3.03 0 0 1-.57-.72c-.43-.43-.86-.86-1.28-1.42-.29-.29-.43-.57-.72-.86-.43-.43-.71-.86-1.14-1.29-.29-.28-.43-.57-.72-.86-.28-.43-.71-.86-1-1.28a2.26 2.26 0 0 1-.56-1c-.29-.43-.57-1-.86-1.43-.15-.28-.43-.57-.57-1-.29-.56-.57-1-.86-1.57l-.43-.86c-.29-.71-.57-1.28-1-2 0-.14-.15-.28-.15-.43-.28-.86-.71-1.7-1-2.57-.14-.28-.14-.43-.28-.71-.14-.57-.43-1.29-.57-1.86-.14-.28-.14-.71-.28-1l-.43-1.71c-.15-.43-.15-.72-.15-1.15 0-.7-.15-1.27-.15-1.84 0-.43-.14-.72-.14-1.15 0-.57-.15-1.14-.15-1.71 0-.43 0-.71-.14-1.14v-.43h-.43c-.43 0-.72 0-1.15-.15-.57 0-1.14-.14-1.71-.14-.43 0-.71-.15-1.14-.15-.57-.14-1.15-.14-1.72-.28-.43 0-.71-.15-1.14-.29l-1.71-.43c-.29-.14-.72-.14-1-.28-.57-.15-1.29-.43-1.86-.57-.28-.15-.57-.15-.71-.29a18.8 18.8 0 0 1-2.58-1c-.14 0-.28-.14-.57-.28-.71-.28-1.28-.57-2-.86l-.85-.43c-.57-.28-1-.57-1.58-.86-.28-.14-.57-.43-1-.57-.42-.28-1-.56-1.42-.86-.29-.14-.57-.42-1-.56a7.49 7.49 0 0 1-1.29-1c-.28-.29-.56-.43-.85-.72a8.8 8.8 0 0 1-1.29-1.14c-.28-.29-.57-.43-.86-.72-.43-.42-1-.85-1.43-1.28L9 72.85a21.32 21.32 0 0 1-1.86-2c-.15-.14-.15-.14-.15-.28-.57-.57-1-1.28-1.57-1.86a3.44 3.44 0 0 0-.57-.71c-.28-.43-.57-.72-.86-1.15A39.3 39.3 0 0 0 0 84.13a40.85 40.85 0 0 0 58.14 37c-.43-.28-.71-.56-1.14-.85-.29-.15-.57-.44-.72-.57a16.7 16.7 0 0 1-2-1.44z" fill="#CD9E67"/><path d="M39 80.56c0-.57.14-1.14.14-1.7 0-.44.15-.72.15-1.15.14-.57.14-1.15.28-1.72 0-.28.15-.71.15-1l.43-1.7c.14-.3.14-.58.28-1 .15-.72.43-1.58.72-2.3 0-.14.14-.28.14-.42.28-.86.57-1.72 1-2.58l.43-.85c.28-.57.57-1.15.71-1.72.15-.28.29-.57.43-1l.43-.86-.43-.86a6.82 6.82 0 0 1-.43-1 8.93 8.93 0 0 1-.71-1.7l-.43-.87c-.29-.86-.72-1.7-1-2.57 0-.14-.14-.28-.14-.43-.29-.71-.43-1.57-.72-2.29-.14-.28-.14-.56-.28-1l-.43-1.7c-.15-.3-.15-.72-.15-1-.14-.58-.14-1.15-.28-1.72 0-.43-.15-.71-.15-1.14 0-.57-.14-1.15-.14-1.72 0-.28 0-.71-.15-1v-.42h-.28c-.43 0-.72 0-1.15.14-.43 0-1 .15-1.42.15-.43 0-.72.14-1.15.14-.43.15-1 .15-1.43.29-.43 0-.71.14-1.14.28-.43.15-1 .15-1.43.28-.43.15-.71.15-1.14.29-.43.14-.86.28-1.43.43a2.6 2.6 0 0 1-1 .28c-.43.15-.86.29-1.43.57-.28.15-.71.29-1 .43-.43.15-.86.43-1.43.57-.28.15-.56.29-1 .43-.42.29-1 .43-1.42.72l-.86.42c-.57.29-1 .57-1.43.86-.29.15-.43.29-.71.43-1.43 1-2.72 2-4 3.15l-.57.56c-.43.43-.86.72-1.29 1.15l-.71.71-1.15 1.15c-.28.28-.43.57-.71.86-.28.42-.71.7-1 1.14-.28.28-.43.57-.71.86-.29.43-.57.86-.86 1.14-.29.29-.43.57-.57 1-.15.29-.29.43-.43.72.14.28.28.42.43.7.14.3.43.58.57 1 .28.44.57.87.86 1.15.28.29.43.57.71.86.29.43.57.72 1 1.14.28.29.43.57.71.86.29.43.72.72 1.15 1.15l.71.71c.43.43.86.86 1.29 1.15l.56.57c1.29 1.14 2.72 2.14 4 3.14.29.14.43.28.72.43.43.28 1 .57 1.43.86l.86.43c.43.28.86.56 1.43.7.28.15.56.3 1 .44.42.28.85.43 1.42.57.29.14.72.28 1 .43.43.14.86.28 1.43.57.28.14.71.28 1 .28.43.15.86.29 1.43.43.43.15.71.15 1.14.29a5 5 0 0 0 1.43.28c.43.15.71.15 1.14.28.43.15 1 .15 1.43.29.43 0 .72.14 1.15.14.42 0 1 .15 1.42.15.43 0 .72 0 1.15.14h.28V81c0 .28 0-.15.15-.44z" fill="#CD9E67"/><path d="M33.28 44c.43-.15 1-.15 1.43-.29-.43.14-.86.28-1.43.28zm2.58-.43c.43 0 1-.14 1.42-.14-.42.14-.85.14-1.42.14zm-5 1a5 5 0 0 1 1.42-.28c-.57.14-1 .14-1.42.28zM6.57 62c-.14.28-.28.43-.43.71.14-.28.29-.43.43-.71zm21.72-16.72c.42-.14.85-.28 1.42-.43-.43.15-.86.29-1.42.43zm-9.44 4.57c.43-.28 1-.57 1.43-.86-.43.15-1 .58-1.43.86zM8.86 59a6.1 6.1 0 0 1 1-1.15 3.9 3.9 0 0 0-1 1.14zm-1.57 2c.28-.43.57-.86.86-1.15-.3.43-.58.86-.86 1.15zm5-5.86zm11.28-7.86zm-9.43 6.14c1.28-1.14 2.71-2.14 4-3.14-1.43.86-2.71 2-4 3.14zm11.72-7.28c.43-.15.86-.29 1.43-.57-.43.28-.86.43-1.43.57zm-4.72 2.29c.43-.29.86-.57 1.43-.72-.43.15-.86.43-1.43.72zM10.43 57c.28-.43.71-.72 1.14-1.15-.43.29-.71.72-1.14 1.15zm9.85 19.42c-.57-.28-1-.56-1.43-.85.43.28 1 .56 1.43.85zm-8.71-6.85-1.14-1.15 1.14 1.15zm25.85 12.28c-.43 0-1-.15-1.42-.15.42.15.85.15 1.42.15zM8.14 65.57a7.48 7.48 0 0 0-.86-1.15c.3.29.58.72.86 1.15zM27.29 79.7c-.43-.14-.86-.28-1.43-.56.57.14 1 .42 1.43.56zm-2.44-1c-.43-.14-.86-.42-1.43-.56.58.14 1 .43 1.43.57zm-2.28-1c-.43-.28-1-.42-1.43-.7.57.14 1 .42 1.43.7zM9.72 67.56c-.29-.43-.72-.71-1-1.14.42.43.71.72 1 1.14zm3.85 3.87a9.43 9.43 0 0 0-1.28-1.15c.42.43.85.72 1.28 1.15z" fill="#CD9E67"/><path d="M6.14 62.7c.15.3.29.44.43.72a3.42 3.42 0 0 0-.43-.71zm26.14 18.43c-.42-.14-1-.14-1.42-.28.42 0 .85.14 1.42.28zm-2.57-.71c-.43-.15-1-.29-1.42-.43.56.14 1 .29 1.42.43zm5.14 1.14c-.43-.14-1-.14-1.43-.28.43.14.86.28 1.43.28zm-16.71-6.43zM49 55.71c.28-.28.43-.57.71-.86.72-.86 1.57-1.7 2.43-2.57.86-.86 1.71-1.57 2.57-2.43.28-.28.57-.43.86-.71l2.14-1.71c.15-.15.29-.29.57-.43-.43-.15-.86-.43-1.28-.57-.15 0-.29-.15-.29-.15-.71-.28-1.42-.57-2.28-.86-.15 0-.43-.14-.57-.14-.57-.15-1.15-.43-1.72-.57-.28 0-.43-.15-.71-.15-.71-.14-1.57-.42-2.29-.56H49c-.72-.15-1.58-.29-2.3-.43-.28 0-.42 0-.7-.15-.57-.14-1.15-.14-1.86-.14h-.86v.85c0 .57.15 1.28.15 1.86 0 .28 0 .43.14.71.15.72.29 1.58.43 2.29.15.71.29 1.57.57 2.29 0 .28.15.43.15.71.14.57.28 1.15.57 1.71 0 .15.14.43.14.57.29.72.57 1.43.86 2.3 0 .14.15.28.15.42.14.43.43.86.56 1.28l.43-.43c.42-.7 1-1.41 1.57-2.13z" fill="#CD9E67"/><path d="M58.13 47.14c-.42-.14-.85-.43-1.28-.57.43.14.86.43 1.28.57zM44 43.43c.57 0 1.14.14 1.86.14-.58 0-1.3-.14-1.86-.14zm2.57.28c.71.15 1.57.28 2.29.43a67.1 67.1 0 0 1-2.3-.43zm5.28 1.14c.57.15 1.15.29 1.72.57-.57-.28-1.15-.42-1.72-.57zm-3-.71c.71.15 1.57.28 2.29.57-.72-.29-1.43-.42-2.29-.57zm5.43 1.43zm-7.43 12.85c-.14-.43-.43-.86-.56-1.28.28.42.42.85.56 1.28zm-1.71-4.57c-.14-.56-.43-1.14-.57-1.7.14.56.28 1.13.57 1.7zm-.71-2.42c-.15-.72-.43-1.58-.57-2.29.14.71.28 1.57.57 2.29zm-1.01-5.29c-.14-.57-.14-1.29-.14-1.86 0 .57 0 1.14.14 1.86zm2.72 10.57a37.76 37.76 0 0 1 0 .01zm-2.29-7.57c-.14-.71-.28-1.57-.43-2.29.15.72.3 1.43.43 2.29zm74.14 21.71c0 .14-.15.14-.15.28-.57.72-1.28 1.43-1.86 2l-.56.57c-.43.43-.86.86-1.43 1.28-.29.29-.57.43-.86.72-.43.43-.86.71-1.29 1.14-.28.29-.56.43-.86.72-.42.28-.85.71-1.28 1-.28.28-.57.42-1 .56-.43.29-1 .57-1.42.86-.29.15-.58.43-1 .57-.57.29-1 .57-1.58.86l-.86.43c-.71.29-1.28.57-2 .86-.14.15-.28.15-.56.29-.86.28-1.72.7-2.58 1-.28.14-.56.14-.71.28-.57.14-1.28.43-1.86.57-.28.14-.71.14-1 .28l-1.71.43c-.57-.13-.86.01-1.29.01-.57.15-1.14.15-1.71.29-.43 0-.72.14-1.15.14-.56 0-1.14.15-1.7.15-.44 0-.72 0-1.15.14h-.43v.43c0 .43 0 .72-.15 1.15 0 .57-.14 1.14-.14 1.7 0 .44-.15.72-.15 1.15-.14.57-.14 1.15-.28 1.72 0 .43-.15.71-.15 1.14l-.43 1.71c-.14.29-.14.72-.28 1-.15.72-.43 1.28-.57 1.86-.14.28-.14.43-.28.71-.29.86-.57 1.72-1 2.58 0 .14-.15.28-.15.43a8.7 8.7 0 0 1-1 2l-.43.85c-.28.57-.57 1-.86 1.58-.14.28-.43.56-.56 1-.29.42-.57 1-.86 1.42-.15.29-.43.57-.57 1-.29.43-.57.86-1 1.29-.29.28-.43.56-.72.85-.28.43-.71.86-1.14 1.29-.28.28-.43.57-.71.86-.43.43-.86.86-1.29 1.42-.14.29-.43.44-.57.72-.71.71-1.28 1.28-2 1.86-.14.14-.14.14-.28.14-.57.57-1.28 1-1.86 1.58-.28.14-.57.43-.71.56-.43.29-.72.57-1.14.86A40.85 40.85 0 0 0 121 66.85c-.3.44-.58.72-.87 1.15-.14.29-.43.57-.57.72-.57.84-1 1.41-1.57 2.13z" fill="#CD9E67"/><path d="M85.85 44.85c0 .57-.15 1.15-.15 1.72 0 .43-.14.71-.14 1.14-.15.57-.15 1.14-.28 1.71 0 .29-.15.72-.15 1l-.43 1.72c-.14.28-.14.56-.28 1a14.4 14.4 0 0 1-.72 2.28c0 .15-.14.29-.14.43-.29.86-.57 1.71-1 2.57l-.43.86A8.94 8.94 0 0 0 81.4 61c-.14.28-.28.57-.43 1l-.43.85.43.86c.15.29.29.57.43 1a9 9 0 0 1 .72 1.72l.43.85c.28.86.71 1.72 1 2.58 0 .14.14.28.14.43.29.71.43 1.57.72 2.28.14.29.14.57.28 1l.43 1.72c.15.28.15.71.15 1 .14.56.14 1.14.28 1.7 0 .44.14.72.14 1.15 0 .57.15 1.15.15 1.71 0 .29 0 .72.14 1v.43h.29c.43 0 .71 0 1.14-.14.43 0 1-.15 1.43-.15.43 0 .72-.14 1.15-.14.43-.15 1-.15 1.42-.29.43 0 .72-.14 1.15-.28.43-.15 1-.15 1.43-.29.43-.14.71-.14 1.14-.28.43-.15 1-.29 1.43-.43a2.6 2.6 0 0 1 1-.28c.43-.15.86-.29 1.43-.57.28-.15.71-.29 1-.43.42-.15.85-.43 1.42-.57a6.1 6.1 0 0 1 1-.43c.43-.29 1-.43 1.43-.72l.86-.43a12 12 0 0 0 1.43-.86c.28-.14.43-.28.71-.43 1.43-1 2.71-2 4-3.14l.57-.57a10 10 0 0 1 1.28-1.14l.72-.71 1.14-1.15c.29-.28.43-.57.72-.86.28-.43.71-.71 1-1.14.28-.29.42-.57.71-.86.28-.43.57-.86.86-1.14.28-.29.43-.57.57-1 .14-.29.28-.43.43-.72-.15-.28-.29-.43-.43-.71-.15-.29-.43-.57-.57-1-.29-.43-.57-.86-.86-1.14-.28-.29-.43-.57-.71-.86a7.33 7.33 0 0 0-1-1.15c-.29-.28-.43-.57-.72-.86-.28-.43-.71-.71-1.14-1.14l-.72-.71a9.45 9.45 0 0 0-1.28-1.15l-.57-.57c-1.28-1.14-2.7-2.14-4-3.14-.28-.14-.43-.28-.71-.43-.43-.28-1-.57-1.43-.86l-.86-.43a4.58 4.58 0 0 0-1.43-.71 6.82 6.82 0 0 0-1-.43 4.27 4.27 0 0 0-1.43-.57c-.28-.14-.71-.28-1-.43-.42-.14-.85-.28-1.42-.57a2.6 2.6 0 0 0-1-.28c-.43-.15-.86-.29-1.43-.43-.43-.15-.71-.15-1.14-.29a5 5 0 0 0-1.43-.28c-.43-.15-.72-.15-1.15-.29-.43-.14-1-.14-1.42-.28-.43 0-.72-.15-1.15-.15-.43 0-1-.14-1.43-.14-.43 0-.71 0-1.14-.15h-.29v.43c0-.27 0 .01-.14.44zm6.71-.56c.43.14 1 .14 1.43.28-.43-.14-.86-.14-1.43-.28zm5 1.42c.43.15.86.29 1.43.57-.57-.28-1-.43-1.43-.57zm2.43.86c.43.14.86.43 1.43.57-.57-.14-1-.29-1.43-.57zm-10-2.71c.43.14 1 .14 1.43.28a4.2 4.2 0 0 0-1.43-.28zm-2.57-.43c.42 0 1 .14 1.42.14-.43 0-.85 0-1.42-.14zm14.86 4.28c.43.29 1 .43 1.43.72-.58-.29-1-.57-1.43-.72zm12.85 10.15c.29.43.72.71 1 1.14-.43-.43-.71-.86-1-1.14zm-1.86-2.01 1.15 1.15c-.43-.43-.72-.86-1.15-1.15zm3.43 4zm-12.14-10.99c.57.28 1 .56 1.42.85-.42-.14-1-.57-1.42-.85zm2.14 1.42c1.43 1 2.71 2 4 3.14a27.15 27.15 0 0 0-4-3.14zm4.57 3.57c.43.43.86.72 1.28 1.15a9.77 9.77 0 0 1-1.28-1.15zm-16.14-9zm23.57 17.86c-.14-.28-.28-.43-.43-.71.14.28.29.43.43.71zm-1.14 1.57z" fill="#CD9E67"/><path d="M105.98 75.56c-.42.29-1 .57-1.42.86.43-.29 1-.57 1.42-.86zM103.7 77c-.42.28-.85.56-1.42.7.42-.28.85-.56 1.43-.7zm8.86-6.72c-.43.43-.86.86-1.28 1.14.42-.42.85-.7 1.28-1.14zm3.42-3.85zm-1.56 1.99c-.29.43-.72.72-1.15 1.15l1.15-1.15zm-13.15 9.72c-.43.28-.86.43-1.43.57.58-.14 1-.43 1.43-.57zM110.7 72c-1.28 1.14-2.71 2.14-4 3.14 1.43-1 2.72-2 4-3.15zm7.57-8.58c.15-.28.29-.43.43-.71-.14.14-.29.43-.43.71zM91.56 81.28c-.43.14-1 .14-1.42.28.42 0 .85-.14 1.42-.28zM99 79.14a9.5 9.5 0 0 0-1.44.56c.43-.13.86-.42 1.43-.56zM89 81.7c-.44 0-1 .15-1.44.15.43 0 .86 0 1.43-.14zm5-.99a5 5 0 0 1-1.44.28c.57 0 1-.14 1.43-.28zm2.56-.71c-.43.14-.86.28-1.43.43.43-.15.86-.3 1.43-.43zM81.42 43.43h-.57c-.57 0-1.14.14-1.86.14-.28 0-.43 0-.71.15-.72.14-1.58.28-2.29.43h-.15c-.71.14-1.57.28-2.28.56-.29 0-.43.15-.72.15-.57.15-1.14.28-1.71.57-.15 0-.43.14-.57.14-.71.29-1.43.57-2.29.86-.14 0-.28.15-.28.15-.43.14-.86.43-1.28.57a2 2 0 0 0 .56.43l2.15 1.71c.28.28.57.43.86.71.86.72 1.7 1.58 2.57 2.43.86.86 1.57 1.71 2.43 2.57.28.29.42.57.71.86l1.71 2.15.43.43c.15-.43.43-.86.57-1.29 0-.14.15-.28.15-.43.28-.71.57-1.43.86-2.29 0-.14.14-.43.14-.56.15-.57.43-1.15.57-1.72 0-.28.14-.43.14-.71.15-.72.43-1.58.57-2.29.15-.71.29-1.57.43-2.29 0-.28 0-.43.15-.71.14-.57.14-1.28.14-1.86v-.85l-.43-.01z" fill="#CD9E67"/><path d="M79 43.57c.56-.14 1.14-.14 1.85-.14-.57 0-1.29.14-1.86.14zm-3.01.57c.71-.14 1.57-.28 2.29-.43-.72.15-1.43.29-2.3.43zm-9.29 3c.43-.14.86-.43 1.29-.57-.43.14-.86.43-1.29.57zm1.72-.71zm5.14-1.73c.72-.14 1.58-.42 2.3-.56-.72.14-1.44.28-2.3.57zm-2.29.72c.57-.14 1.15-.43 1.72-.57-.57.15-1.14.29-1.72.57zm10.43-1.13c0 .57-.14 1.28-.14 1.85 0-.72 0-1.28.14-1.85zm-.28 2.42c-.15.72-.29 1.58-.43 2.29.14-.72.28-1.43.43-2.29zm-.43 2.43c-.15.71-.29 1.57-.57 2.29.28-.72.43-1.58.57-2.29zm-1.43 5.28c-.28.72-.57 1.43-.86 2.3.3-.72.58-1.44.86-2.3zm-1.56 4c.14-.43.42-.86.56-1.28a4.9 4.9 0 0 0-.57 1.28zm2.27-6.28c-.14.57-.28 1.15-.56 1.71.28-.57.42-1.14.56-1.7zm.01 33.99c-.57 0-1.15-.14-1.72-.14-.43 0-.71-.15-1.14-.15-.57-.14-1.14-.14-1.71-.28-.29 0-.72-.15-1-.15l-1.72-.43c-.28-.14-.56-.14-.85-.28a14.4 14.4 0 0 1-2.3-.72c-.14 0-.28 0-.28-.14a18.8 18.8 0 0 1-2.57-1l-.86-.43c-.57-.28-1.14-.43-1.71-.71-.29-.15-.72-.29-1-.43l-.86-.43-.86.43c-.28.14-.71.28-1 .43-.57.28-1.14.57-1.71.71l-.86.43c-.86.28-1.71.71-2.57 1-.15 0-.29 0-.29.14-.71.29-1.57.43-2.28.72-.29.14-.57.14-.86.28l-1.72.43c-.28.15-.71.15-1 .15-.56.14-1.14.14-1.7.28-.44 0-.72.15-1.15.15-.57 0-1.15.14-1.71.14-.29 0-.72 0-1 .15h-.43v.28c0 .43 0 .72.14 1.15 0 .43.15 1 .15 1.42 0 .43.14.72.14 1.15.15.43.15 1 .29 1.43 0 .43.14.71.28 1.14.15.43.15 1 .29 1.43.14.43.14.71.28 1.14.15.43.28.86.43 1.43.15.29.28.71.43 1 .14.43.28.86.57 1.43.14.28.28.71.43 1 .14.43.43.86.57 1.28.14.28.28.71.43 1 .28.43.43.86.71 1.43l.43.86c.29.43.57 1 .86 1.42.15.29.28.43.43.72.43.71 1 1.43 1.43 2l1.57 2 .57.56c.43.43.72.86 1.14 1.29l.72.71c.43.43.71.71 1.14 1 .29.28.57.43.86.71.43.29.72.72 1.15 1 .28.29.56.43.86.72.42.28.85.56 1.14.85.28.29.57.44 1 .58.28.14.43.28.71.42.29-.14.43-.28.72-.42.28-.15.71-.44 1-.58.42-.28.85-.56 1.14-.85.28-.29.57-.43.86-.72.43-.28.71-.57 1.14-1 .29-.28.57-.43.86-.71.43-.29.72-.72 1.14-1l.72-.71c.43-.43.86-.86 1.14-1.29l.57-.57c.57-.71 1.15-1.28 1.58-2 .56-.7 1-1.42 1.42-2 .15-.28.29-.42.43-.7.29-.44.57-1 .86-1.43l.43-.86c.29-.43.57-.86.72-1.43.14-.29.28-.57.43-1 .14-.43.43-.86.57-1.28.14-.29.28-.72.43-1 .14-.43.28-.86.56-1.43.15-.29.29-.71.43-1 .15-.43.29-.86.43-1.43.15-.43.15-.71.29-1.14a5 5 0 0 0 .28-1.43c.15-.43.15-.71.29-1.14.14-.43.14-1 .28-1.43 0-.43.15-.72.15-1.15 0-.43.14-1 .14-1.42 0-.43 0-.72.15-1.15v-.28h-.43c-.31 0-.74 0-1.02-.15zM45 96.7zm2 4.86c-.15-.43-.44-.86-.58-1.28.15.43.29.85.57 1.28zm1.14 2.29a4.56 4.56 0 0 1-.72-1.43c.29.57.43 1 .72 1.43zm-3.86-9.57a5 5 0 0 1-.28-1.43c.14.43.28 1 .28 1.43zm-.86-5.15c0-.43-.14-1-.14-1.42 0 .57 0 1 .14 1.42zm6.14 17.15c-.28-.44-.56-1-.85-1.43.29.43.57.86.85 1.43zM43.71 91.7c-.14-.42-.14-1-.28-1.42.14.57.28 1 .28 1.43zM46 99.13c-.15-.43-.3-.86-.58-1.43.14.57.29 1 .57 1.43zm15.7 19.43c.3.15.44.29.72.43-.28-.29-.43-.29-.71-.43z" fill="#CD9E67"/><path d="M60.85 117.85c-.43-.29-.86-.57-1.14-.86.28.28.71.57 1.14.86zm-9.43-8.86c-.57-.72-1-1.43-1.43-2 .43.57 1 1.28 1.43 2zm7.29 7.28a7.04 7.04 0 0 1-1.14-1c.28.44.71.72 1.14 1zm-3.86-3.42c-.43-.43-.86-.86-1.14-1.28a10 10 0 0 0 1.14 1.28zm-1.72-1.86c-.56-.71-1.14-1.28-1.57-2 .43.71 1 1.29 1.57 2zm3.57 3.71c-.42-.28-.7-.71-1.14-1 .43.29.72.58 1.15 1zm21.86-14.57c-.14.43-.43.86-.57 1.29.14-.29.29-.71.57-1.29zm1.71-4.71a26 26 0 0 0-.43 1.42c.15-.56.3-1 .43-1.42zm-.85 2.43c-.14.43-.28.86-.57 1.43.28-.58.43-1 .57-1.43zm-2 4.71c-.29.43-.43.86-.72 1.43.29-.57.43-1 .72-1.43zm3.85-12.28c-.14.43-.14 1-.28 1.43.14-.43.28-.86.28-1.43zm-18.85 28.57c.28-.15.43-.29.71-.43-.28.28-.43.28-.71.43zm18.43-26c-.14.43-.14 1-.28 1.43 0-.43.14-1 .28-1.43zm-9.71 18.71c-.43.43-.72.86-1.15 1.28.43-.42.86-.85 1.15-1.28zm-3.86 3.85c-.43.29-.71.72-1.14 1 .43-.42.85-.7 1.14-1zm-2 1.58zm4-3.43c-.43.43-.72.72-1.15 1 .43-.28.72-.57 1.15-1zm6.86-8.86c-.29.43-.57 1-.86 1.43.28-.42.57-.85.86-1.43zm5.42-17c0 .44-.14 1-.14 1.43.14-.43.14-.85.14-1.42zm-6.71 19.29c-.43.71-1 1.43-1.43 2 .43-.72 1-1.43 1.43-2zm-1.43 2-1.58 2c.44-.71 1-1.29 1.58-2zm-18-32.86c-.28-.28-.56-.43-.86-.71A20.79 20.79 0 0 1 52 72.99c-.86-.86-1.57-1.71-2.42-2.57-.29-.28-.43-.57-.72-.86l-1.71-2.14a870 870 0 0 0-.43-.43c-.15.43-.43.86-.57 1.28 0 .15-.15.29-.15.43-.28.72-.56 1.43-.85 2.29 0 .14-.15.43-.15.57-.14.57-.43 1.14-.57 1.71 0 .29-.14.43-.14.72-.15.7-.43 1.57-.57 2.28-.15.72-.29 1.58-.43 2.3 0 .28 0 .42-.15.7-.14.57-.14 1.29-.14 1.86V82h.85c.57 0 1.28-.15 1.86-.15.28 0 .43 0 .71-.14.72-.15 1.58-.29 2.3-.43.7-.15 1.56-.29 2.28-.57.28 0 .43-.15.71-.15.57-.14 1.15-.28 1.72-.57.14 0 .43-.14.56-.14a38.2 38.2 0 0 1 2.3-.86c.14 0 .28-.15.42-.15.43-.14.86-.43 1.29-.57-.15-.14-.29-.28-.57-.42a25.64 25.64 0 0 0-2-1.7z" fill="#CD9E67"/><path d="M43.14 81.13c0-.57.14-1.28.14-1.86 0 .58 0 1.3-.14 1.86zm.71-4.85c.15-.72.29-1.57.57-2.29a10.9 10.9 0 0 0-.57 2.29zm.71-3c.15-.57.29-1.15.57-1.72-.28.58-.42 1.15-.57 1.72zm.72-2.43c.28-.71.57-1.43.86-2.29-.29.86-.58 1.58-.86 2.29zM46.85 67c-.14.42-.43.85-.56 1.28.28-.43.42-.86.56-1.29zm-3.43 11.57c.15-.72.29-1.58.43-2.29-.14.71-.28 1.57-.43 2.29zm7.86 2.14c-.72.14-1.58.43-2.29.57.72-.15 1.43-.43 2.29-.57zm5.14-1.72zm1.71-.71c-.42.14-.85.43-1.28.56.43-.27.86-.42 1.28-.56zM45.86 81.7c-.57.15-1.29.15-1.86.15.57 0 1.28 0 1.86-.14zm2.99-.42c-.71.14-1.57.28-2.29.43.72-.15 1.44-.29 2.29-.43zM53.57 80c-.57.14-1.15.43-1.72.56.57-.14 1.15-.42 1.72-.56zm22.28-10.3c-.28.29-.43.57-.71.86a22 22 0 0 1-2.43 2.58c-.86.86-1.71 1.57-2.57 2.42-.29.29-.57.43-.86.72l-2.14 1.71a2 2 0 0 1-.57.43c.43.15.86.43 1.28.57.14 0 .28.15.43.15.71.28 1.43.56 2.29.85.14 0 .43.15.57.15.57.14 1.14.43 1.7.57.3 0 .44.14.72.14.72.15 1.58.43 2.3.57.7.15 1.56.29 2.28.43.28 0 .43 0 .71.15.57.14 1.29.14 1.86.14h.85v-.85c0-.57-.14-1.28-.14-1.86 0-.28 0-.43-.15-.71-.14-.72-.28-1.58-.43-2.3-.14-.7-.28-1.56-.56-2.28 0-.28-.15-.43-.15-.71-.14-.57-.28-1.15-.57-1.72 0-.14-.14-.43-.14-.57-.29-.7-.57-1.42-.86-2.28 0-.15-.15-.29-.15-.43-.14-.43-.43-.86-.57-1.29l-.43.43c-.42.7-.99 1.42-1.56 2.14zm3.85 1.73c.15.56.44 1.14.58 1.7-.14-.42-.29-.99-.57-1.7zm1.29 4.85c.14.71.28 1.57.43 2.29-.15-.72-.29-1.58-.43-2.3z" fill="#CD9E67"/><path d="M81.42 79.28c.14.57.14 1.28.14 1.86 0-.58 0-1.29-.14-1.86zM78.7 68.7zm1.72 5.15c.15.72.43 1.58.57 2.29-.14-.72-.28-1.43-.57-2.29zM78 67c.14.42.42.85.56 1.28a4.9 4.9 0 0 1-.57-1.29zm2.85 15c-.57 0-1.28-.15-1.86-.15.57 0 1.29 0 1.86.14zM73 80.56a8.03 8.03 0 0 1-1.72-.56c.57.13 1.14.42 1.71.56zm-2.44-.71c-.71-.28-1.43-.57-2.29-.86.86.3 1.58.58 2.29.86zm-3.86-1.57c.43.14.86.43 1.29.56a5.28 5.28 0 0 0-1.29-.56zm11.58 3.42-2.29-.42c.86.14 1.57.28 2.29.43zm-2.29-.42c-.71-.15-1.57-.29-2.29-.57.72.14 1.44.42 2.29.57zM61.7 50c-.28.14-.56.43-.85.57l-1.29.86c-.28.14-.57.43-.71.57a8.8 8.8 0 0 0-1.28 1.14c-.15.15-.43.29-.57.57-.57.57-1.29 1.14-1.86 1.71-.57.57-1.15 1.15-1.71 1.86-.15.15-.43.43-.57.72-.43.42-.72.85-1 1.28-.15.28-.43.57-.57.86l-.86 1.28c-.15.29-.43.57-.57.86-.14.28-.28.43-.43.71.15.29.29.43.43.72.15.28.43.57.57.86l.86 1.28c.14.29.43.57.57.72.28.43.71.85 1.14 1.28.15.14.29.43.57.57a43.14 43.14 0 0 0 3.57 3.57c.15.14.43.28.57.57.43.43.86.71 1.28 1.14.29.15.57.43.72.57l1.28.86c.29.15.57.43.86.57.29.14.43.28.72.43.28-.15.42-.29.7-.43.3-.15.58-.43.87-.57l1.28-.86c.29-.14.57-.43.72-.57a8.8 8.8 0 0 0 1.28-1.14c.14-.15.43-.29.57-.57a43.14 43.14 0 0 0 3.57-3.57c.14-.15.28-.43.57-.57.43-.43.71-.86 1.14-1.28.15-.29.43-.57.57-.72l.86-1.28c.15-.29.43-.57.57-.86.15-.29.28-.43.43-.72-.15-.28-.28-.43-.43-.71-.14-.28-.43-.57-.57-.86l-.86-1.28c-.14-.29-.43-.57-.57-.86-.28-.43-.71-.86-1-1.28-.14-.29-.43-.43-.57-.72-.56-.57-1.14-1.28-1.7-1.86a21.63 21.63 0 0 0-1.87-1.71c-.14-.15-.43-.28-.57-.57-.43-.43-.85-.71-1.28-1.14a3.44 3.44 0 0 1-.71-.57l-1.29-.86c-.28-.15-.57-.43-.86-.57-.28-.15-.43-.29-.71-.43-.57.14-.72.14-1 .43zm.72-.58c-.28.15-.43.29-.71.43.28-.14.43-.14.71-.43zm-7.28 5.86z" fill="#CD9E67"/><path d="M57.57 53.14c.43-.43.86-.71 1.28-1.14-.43.28-.85.71-1.28 1.14zm1.99-1.71 1.29-.86c-.43.14-.86.57-1.29.86zm-6.28 5.71c.57-.57 1.15-1.28 1.71-1.86-.57.57-1.14 1.29-1.7 1.86zm-3 4 .86-1.29-.86 1.29zm1.42-2c.3-.43.72-.86 1-1.29-.28.43-.56.86-1 1.29zM49.71 62c-.14.28-.28.43-.43.71.15-.28.29-.43.43-.71zm22.28-4.14c.43.43.71.85 1 1.28a7.48 7.48 0 0 0-1-1.28zm-6-5.86zM64 50.42l1.28.86c-.43-.14-.86-.57-1.29-.86zm9.7 9.43zM68 53.57c.56.57 1.28 1.14 1.85 1.71A19.48 19.48 0 0 1 68 53.57zm1.85 1.71c.56.57 1.14 1.15 1.7 1.86-.56-.57-1.13-1.29-1.7-1.86zm5.71 7.43c-.15-.28-.28-.43-.43-.71.15.28.29.43.43.71zM63.13 50c-.28-.15-.43-.28-.71-.43.28.14.43.14.71.43zM61.7 75.42c.3.14.44.28.72.43-.28-.14-.43-.29-.71-.43z" fill="#CD9E67"/><path d="M49.28 62.7c.15.3.29.44.43.72-.14-.28-.28-.57-.43-.71zm9.57 10.72a8.8 8.8 0 0 1-1.28-1.14c.43.43.85.71 1.28 1.14zm-5.57-5.14a43.14 43.14 0 0 0 3.57 3.57c-1.29-1.14-2.42-2.43-3.57-3.57zm7.57 6.57zm-9.71-9.28-.86-1.29.86 1.29zm1.71 1.99c-.43-.43-.71-.86-1.14-1.28.43.43.71.86 1.14 1.28zm14.43 4.72c-.43.43-.86.71-1.28 1.14.42-.43.85-.71 1.28-1.14zm-4.86 3.57c.28-.15.43-.29.71-.43-.28.14-.43.29-.71.43zm10.71-9.57A8.8 8.8 0 0 1 72 67.56c.43-.42.71-.85 1.14-1.28zm1.43-2-.86 1.29c.3-.43.58-.86.86-1.29zM65.28 74l-1.29.85 1.29-.86zm9.86-10.58c.14-.28.28-.43.43-.71a3 3 0 0 0-.43.71zM68 71.85a43.14 43.14 0 0 0 3.57-3.57c-1.15 1.14-2.3 2.43-3.57 3.57z" fill="#CD9E67"/></svg>